<svg width="72" height="72" viewBox="0 0 72 72" fill="none" xmlns="http://www.w3.org/2000/svg">
<path d="M14.6699 41.8301C14.8799 43.3301 15.0899 44.7901 15.2899 46.3401C16.5399 45.3801 17.7499 44.4601 18.9599 43.5401C18.7999 43.3801 15.4599 42.0401 14.6699 41.8301Z" fill="#1296DB"/>
<path d="M43.6699 41.8301C43.8799 43.3301 44.0899 44.7901 44.2899 46.3401C45.5399 45.3801 46.7499 44.4601 47.9599 43.5401C47.8399 43.3801 44.4599 42.0401 43.6699 41.8301Z" fill="#1296DB"/>
<mask id="mask0_40_580" style="mask-type:luminance" maskUnits="userSpaceOnUse" x="0" y="0" width="72" height="72">
<path d="M71.97 0H0V71.96H71.97V0Z" fill="white"/>
</mask>
<g mask="url(#mask0_40_580)">
<path d="M36.01 0C16.13 0 0 16.12 0 36C0 55.88 16.13 72.01 36.01 72.01C55.89 72.01 72.01 55.88 72.01 36C72.01 16.12 55.88 0 36.01 0ZM33.96 31.25H35.17C35.38 31.25 35.46 31.33 35.46 31.58V35.33C35 35.29 34.5 35.29 33.96 35.25V31.25ZM25.8 30.79C25.92 30.79 26.01 30.87 26.05 31.04C26.17 32.29 26.3 33.54 26.43 34.83C25.97 34.87 25.51 34.91 25.01 34.95C24.84 33.57 24.68 32.24 24.51 30.82C24.92 30.79 25.38 30.79 25.8 30.79ZM23.84 31.04C24.05 31 23.96 31.16 24.01 31.29C24.05 31.75 24.09 32.21 24.13 32.62C24.21 33.33 24.3 34 24.38 34.74V35L23.26 35.21C23.01 33.88 22.76 32.59 22.55 31.21C23.01 31.17 23.42 31.08 23.84 31.04ZM23.67 43.96C23.5 44.55 23.09 45.01 22.59 45.38C21.38 46.34 20.17 47.13 18.71 47.63C17.71 47.96 16.67 48.21 15.63 48.38C14.25 48.59 12.88 48.67 11.46 48.8C11.17 48.84 10.88 48.8 10.58 48.8C10.46 48.8 10.41 48.72 10.41 48.59C10.41 47.97 10.33 47.34 10.29 46.67C10.21 45.84 10.12 45.05 10.04 44.21C9.92 43.04 9.75 41.96 9.62 40.79C9.5 39.58 9.33 38.37 9.16 37.21C9.04 36.04 8.9 34.88 8.74 33.71C8.53 32.38 8.36 31.08 8.16 29.71C7.95 28.13 7.66 26.59 7.24 25.04C7.2 24.96 7.28 24.83 7.32 24.79C8.65 24.29 10.03 23.75 11.37 23.21C11.83 23 11.83 22.96 11.83 23.5C11.83 25.92 11.83 28.33 11.87 30.75C11.91 32 11.95 33.29 12.04 34.54C12.16 36.04 12.33 37.58 12.46 39.12C12.46 39.2 12.5 39.24 12.5 39.29C13 39.25 13.54 39.21 14.04 39.21C16.21 39.17 18.29 39.46 20.33 40.25C21.33 40.63 22.29 41.08 23.12 41.75C23.88 42.33 24.05 43 23.67 43.96ZM25.46 47.09C24.75 43.54 24.04 40.04 23.38 36.46C23.96 36.38 24.5 36.29 25.05 36.21C25.47 36.17 25.84 36.17 26.26 36.13C26.47 36.09 26.59 36.21 26.64 36.42C26.72 36.96 26.81 37.5 26.89 38.09C27.01 39.01 27.1 39.97 27.18 40.88C27.26 41.71 27.35 42.5 27.47 43.34C27.55 44.22 27.68 45.1 27.8 45.97C27.84 46.22 27.88 46.51 27.88 46.76C27.09 46.88 26.3 47.01 25.46 47.09ZM31.34 46.09C30.63 46.01 29.96 45.97 29.17 45.92C28.5 39.41 27.96 32.87 26.75 26.33C27.17 26.29 27.54 26.25 27.96 26.21C28.46 26.17 28.92 26.17 29.38 26.13C29.8 26.09 29.92 26.21 29.96 26.59L30.17 29.67C30.25 31.05 30.38 32.46 30.46 33.84C30.54 34.84 30.58 35.84 30.67 36.88C30.75 38 30.88 39.09 30.96 40.17C31.04 40.96 31.13 41.79 31.21 42.59C31.29 43.47 31.42 44.34 31.46 45.22L31.54 45.97C31.51 46.09 31.46 46.09 31.34 46.09ZM33.21 31.25C33.38 31.25 33.46 31.29 33.46 31.5C33.42 32.04 33.46 32.62 33.46 33.17V35.25C33.04 35.29 32.67 35.33 32.29 35.33C32.17 34 32.08 32.66 31.96 31.25H33.21ZM33.42 47.34C33.34 47.34 33.25 47.22 33.25 47.17C33.13 45.96 33.04 44.79 32.96 43.58C32.88 42.5 32.75 41.37 32.67 40.29C32.59 39.17 32.46 38.04 32.38 36.87C32.38 36.79 32.38 36.75 32.34 36.62C32.63 36.58 32.84 36.54 33.13 36.54C33.84 36.54 34.59 36.54 35.3 36.58C35.47 36.58 35.59 36.7 35.59 36.87C35.59 37.25 35.63 37.58 35.63 37.95C35.63 39.62 35.59 41.33 35.63 42.99C35.67 44.32 35.71 45.66 35.71 47.04C35.71 47.12 35.71 47.21 35.75 47.37C34.92 47.34 34.13 47.38 33.42 47.34ZM62.96 31.25H64.17C64.38 31.25 64.46 31.33 64.46 31.58V35.33C64 35.29 63.5 35.29 62.96 35.25V31.25ZM54.84 30.79C54.96 30.79 55.05 30.87 55.09 31.04C55.21 32.29 55.34 33.54 55.47 34.83C55.01 34.87 54.55 34.91 54.05 34.95C53.88 33.57 53.72 32.24 53.55 30.82C53.92 30.79 54.38 30.79 54.84 30.79ZM52.88 31.04C53.09 31 53 31.16 53.05 31.29C53.09 31.75 53.13 32.21 53.17 32.62C53.25 33.33 53.34 34 53.42 34.74V35L52.3 35.21C52.05 33.88 51.8 32.59 51.59 31.21C52.01 31.17 52.42 31.08 52.88 31.04ZM52.67 43.96C52.5 44.55 52.09 45.01 51.59 45.42C50.38 46.38 49.17 47.17 47.71 47.67C46.71 48 45.67 48.25 44.63 48.42C43.25 48.63 41.88 48.71 40.46 48.84C40.17 48.88 39.92 48.84 39.58 48.84C39.46 48.84 39.41 48.76 39.41 48.63C39.41 48.01 39.33 47.38 39.29 46.71C39.21 45.88 39.12 45.09 39.04 44.25C38.92 43.08 38.75 42 38.62 40.83C38.5 39.62 38.33 38.41 38.2 37.25C38.08 36.08 37.95 34.92 37.78 33.75C37.57 32.42 37.4 31.13 37.2 29.75C36.99 28.17 36.7 26.63 36.28 25.08C36.28 25 36.32 24.87 36.36 24.83C37.74 24.33 39.07 23.79 40.4 23.25C40.82 23.04 40.9 23 40.9 23.54C40.9 25.96 40.9 28.37 40.94 30.79C40.98 32.04 41.02 33.33 41.11 34.58C41.23 36.08 41.4 37.62 41.53 39.16C41.53 39.24 41.57 39.28 41.57 39.33C42.11 39.29 42.61 39.25 43.11 39.25C45.28 39.21 47.36 39.5 49.4 40.29C50.4 40.67 51.36 41.12 52.19 41.79C52.88 42.33 53.05 43 52.67 43.96ZM54.51 47.09C53.8 43.54 53.13 40.04 52.43 36.46C53.01 36.38 53.55 36.29 54.1 36.21C54.52 36.17 54.89 36.17 55.31 36.13C55.52 36.09 55.69 36.21 55.69 36.42C55.77 36.96 55.86 37.5 55.94 38.09C56.06 39.01 56.15 39.97 56.23 40.88C56.31 41.71 56.4 42.5 56.52 43.34C56.6 44.22 56.73 45.1 56.85 45.97C56.89 46.22 56.93 46.51 56.93 46.76C56.09 46.88 55.34 47.01 54.51 47.09ZM60.34 46.09C59.63 46.01 58.96 45.97 58.17 45.92C57.55 39.41 56.96 32.87 55.75 26.33C56.13 26.29 56.54 26.25 56.96 26.21C57.42 26.17 57.92 26.17 58.38 26.13C58.8 26.09 58.92 26.21 58.96 26.59L59.17 29.59C59.25 30.97 59.38 32.38 59.46 33.76C59.54 34.76 59.58 35.76 59.67 36.8C59.75 37.92 59.88 39.01 59.96 40.09C60.04 40.88 60.13 41.71 60.21 42.51C60.29 43.39 60.42 44.26 60.46 45.14L60.54 45.89C60.55 46.09 60.46 46.09 60.34 46.09ZM62.21 31.25C62.38 31.25 62.46 31.29 62.46 31.5C62.42 32.04 62.46 32.62 62.46 33.17V35.25C62.04 35.29 61.67 35.33 61.29 35.33C61.17 34 61.08 32.66 60.96 31.25H62.21ZM62.42 47.34C62.34 47.34 62.25 47.22 62.25 47.17C62.13 45.96 62.04 44.79 61.92 43.58C61.84 42.5 61.71 41.37 61.63 40.29C61.55 39.17 61.42 38.04 61.34 36.87C61.34 36.79 61.34 36.75 61.3 36.62C61.59 36.58 61.84 36.54 62.09 36.54C62.8 36.54 63.51 36.54 64.26 36.58C64.43 36.58 64.55 36.7 64.55 36.87C64.55 37.25 64.59 37.58 64.59 37.95C64.59 39.62 64.55 41.33 64.59 42.99C64.63 44.32 64.67 45.66 64.67 47.04C64.67 47.12 64.67 47.21 64.71 47.37C63.92 47.34 63.17 47.38 62.42 47.34Z" fill="#1296DB"/>
</g>
</svg>
