<svg width="196" height="134" viewBox="0 0 196 134" fill="none" xmlns="http://www.w3.org/2000/svg">
<g clip-path="url(#clip0_38_105)">
<mask id="mask0_38_105" style="mask-type:luminance" maskUnits="userSpaceOnUse" x="17" y="0" width="84" height="126">
<path d="M100.35 0H17.6801V125.84H100.35V0Z" fill="white"/>
</mask>
<g mask="url(#mask0_38_105)">
<path d="M99.35 29.68C99.35 10.72 81.54 0 64.08 0C33.49 0 16.78 32.99 19.13 84.2C20.37 111.38 34.24 124.92 50.84 124.92C91.95 124.92 81.55 83.06 85.88 66.7C89.59 52.69 99.35 47.01 99.35 29.68ZM78.49 64.77C77.29 69.31 77.04 74.91 76.79 80.83C76.41 89.62 75.98 99.6 72.39 106.7C70.86 109.88 68.58 112.36 65.53 114.13C61.87 116.23 56.93 117.3 50.83 117.3C44.61 117.3 39.16 114.73 35.06 109.86C30.13 103.98 27.25 95.02 26.74 83.87C26.02 68.08 27.15 54.11 30.1 42.38C32.9 31.29 37.18 22.66 42.85 16.72C48.59 10.71 55.73 7.66 64.06 7.66C71.34 7.66 78.47 9.9 83.62 13.82C88.98 17.92 91.71 23.23 91.71 29.71C91.71 38.14 88.99 42.92 85.54 48.96C83.03 53.28 80.21 58.25 78.48 64.77H78.49Z" fill="#45B06C"/>
</g>
<path d="M73.33 19.5195C72.55 19.5195 71.77 19.5995 71 19.7495C70.23 19.9095 69.48 20.1295 68.76 20.4295C68.04 20.7295 67.35 21.0995 66.7 21.5295C66.04 21.9595 65.44 22.4595 64.89 23.0095C64.33 23.5595 63.84 24.1695 63.4 24.8195C62.97 25.4795 62.6 26.1595 62.3 26.8895C62 27.6095 61.77 28.3595 61.62 29.1295C61.46 29.8995 61.39 30.6795 61.39 31.4595C61.39 32.2495 61.46 33.0195 61.62 33.7895C61.77 34.5595 62 35.3095 62.3 36.0295C62.6 36.7495 62.97 37.4395 63.4 38.0995C63.84 38.7495 64.33 39.3595 64.88 39.9095C65.44 40.4695 66.04 40.9595 66.69 41.3995C67.34 41.8295 68.03 42.1995 68.76 42.4995C69.48 42.7995 70.23 43.0295 71 43.1795C71.77 43.3395 72.55 43.4095 73.33 43.4095C74.11 43.4095 74.89 43.3395 75.66 43.1795C76.43 43.0295 77.18 42.7995 77.9 42.4995C78.62 42.1995 79.31 41.8295 79.96 41.3895C80.61 40.9595 81.22 40.4595 81.77 39.9095C82.32 39.3495 82.82 38.7495 83.25 38.0995C83.69 37.4495 84.05 36.7595 84.35 36.0395C84.65 35.3095 84.88 34.5695 85.03 33.7995C85.19 33.0295 85.26 32.2495 85.26 31.4695C85.26 30.6895 85.19 29.9095 85.03 29.1395C84.88 28.3695 84.65 27.6195 84.35 26.8995C84.05 26.1795 83.68 25.4895 83.25 24.8395C82.81 24.1795 82.32 23.5795 81.76 23.0295C81.21 22.4795 80.6 21.9795 79.95 21.5495C79.3 21.1095 78.61 20.7495 77.89 20.4495C77.17 20.1495 76.42 19.9195 75.65 19.7695C74.9 19.5895 74.12 19.5195 73.33 19.5195ZM73.33 37.2995C72.95 37.2995 72.57 37.2595 72.19 37.1895C71.81 37.1095 71.45 36.9995 71.09 36.8595C70.73 36.7195 70.4 36.5295 70.08 36.3195C69.76 36.1095 69.47 35.8595 69.2 35.5895C68.92 35.3195 68.68 35.0295 68.47 34.7095C68.26 34.3895 68.08 34.0495 67.93 33.6995C67.78 33.3495 67.67 32.9795 67.6 32.6095C67.52 32.2295 67.49 31.8495 67.49 31.4695C67.49 31.0795 67.53 30.7095 67.6 30.3295C67.68 29.9495 67.79 29.5895 67.93 29.2395C68.08 28.8895 68.26 28.5495 68.47 28.2295C68.68 27.9095 68.93 27.6195 69.2 27.3395C69.47 27.0695 69.76 26.8295 70.09 26.6195C70.41 26.4095 70.74 26.2195 71.1 26.0795C71.45 25.9295 71.82 25.8195 72.19 25.7495C72.57 25.6795 72.95 25.6395 73.33 25.6395C73.72 25.6395 74.1 25.6795 74.47 25.7495C74.85 25.8295 75.21 25.9395 75.56 26.0795C75.91 26.2295 76.25 26.4095 76.57 26.6195C76.89 26.8295 77.18 27.0695 77.46 27.3395C77.74 27.6095 77.97 27.9095 78.18 28.2295C78.39 28.5495 78.57 28.8895 78.72 29.2395C78.87 29.5895 78.98 29.9595 79.05 30.3295C79.13 30.7095 79.16 31.0895 79.16 31.4695C79.16 31.8595 79.12 32.2395 79.05 32.6095C78.98 32.9895 78.86 33.3495 78.72 33.6995C78.57 34.0495 78.4 34.3895 78.18 34.7095C77.97 35.0295 77.73 35.3195 77.46 35.5995C77.19 35.8695 76.89 36.1195 76.57 36.3195C76.25 36.5295 75.91 36.7195 75.56 36.8595C75.21 37.0095 74.84 37.1195 74.47 37.1895C74.1 37.2595 73.72 37.2995 73.33 37.2995Z" fill="#45B06C"/>
<path d="M52.52 18.3301C51.9 18.3301 51.3 18.4501 50.73 18.6901C50.16 18.9201 49.65 19.2601 49.21 19.7001C48.77 20.1401 48.43 20.6501 48.19 21.2201C47.95 21.7901 47.84 22.3901 47.84 23.0101C47.84 23.6301 47.96 24.2301 48.19 24.8001C48.43 25.3701 48.77 25.8801 49.21 26.3201C49.65 26.7601 50.16 27.1001 50.73 27.3401C51.3 27.5701 51.9 27.6901 52.52 27.6901C53.14 27.6901 53.74 27.5701 54.31 27.3401C54.88 27.1001 55.39 26.7601 55.83 26.3201C56.27 25.8801 56.61 25.3801 56.85 24.8001C57.08 24.2301 57.2 23.6301 57.2 23.0101C57.2 22.3901 57.08 21.7901 56.84 21.2201C56.61 20.6501 56.27 20.1401 55.83 19.7001C55.39 19.2601 54.88 18.9201 54.31 18.6801C53.74 18.4501 53.14 18.3301 52.52 18.3301Z" fill="#45B06C"/>
<mask id="mask1_38_105" style="mask-type:luminance" maskUnits="userSpaceOnUse" x="75" y="5" width="95" height="129">
<path d="M169.69 5.83984H75.02V133.93H169.69V5.83984Z" fill="white"/>
</mask>
<g mask="url(#mask1_38_105)">
<path d="M167.53 93.9397C166.73 93.4797 165.86 93.2497 164.94 93.2497H153.03C152.42 93.2497 151.83 93.1297 151.26 92.8997C150.69 92.6697 150.19 92.3297 149.76 91.8897C149.33 91.4597 148.99 90.9497 148.76 90.3897C148.53 89.8197 148.41 89.2297 148.42 88.6097V52.2097C148.42 51.5997 148.53 51.0097 148.77 50.4397C149 49.8697 149.34 49.3797 149.77 48.9397C150.2 48.5097 150.7 48.1697 151.27 47.9397C151.83 47.7097 152.42 47.5897 153.04 47.5897H164.95C165.88 47.5897 166.74 47.3597 167.54 46.8997C167.91 46.6797 168.23 46.4097 168.49 46.0597C168.76 45.7197 168.94 45.3397 169.05 44.9197C169.16 44.4997 169.19 44.0897 169.13 43.6597C169.08 43.2297 168.94 42.8297 168.73 42.4597L164.33 34.8597C164.12 34.4797 163.84 34.1697 163.5 33.9097C163.16 33.6497 162.78 33.4597 162.36 33.3497C161.94 33.2397 161.53 33.2097 161.1 33.2697C160.67 33.3297 160.27 33.4597 159.9 33.6797L150.23 39.2497C149.91 39.4397 149.57 39.5597 149.2 39.6297C148.84 39.6997 148.47 39.6997 148.11 39.6497C147.75 39.5897 147.4 39.4797 147.07 39.3097C146.75 39.1297 146.46 38.9097 146.21 38.6397C145.18 37.4597 143.98 36.4597 142.91 35.3097C142.51 34.7897 142.3 34.1997 142.25 33.5497C142.21 32.8997 142.35 32.2897 142.68 31.7197L148.26 22.0597C148.47 21.6797 148.61 21.2897 148.67 20.8597C148.72 20.4297 148.7 20.0097 148.59 19.5897C148.48 19.1697 148.29 18.7997 148.03 18.4497C147.77 18.1097 147.45 17.8297 147.08 17.6197L139.49 13.2197C139.12 13.0097 138.72 12.8697 138.29 12.8097C137.86 12.7497 137.44 12.7797 137.02 12.8897C136.6 12.9997 136.22 13.1797 135.88 13.4397C135.54 13.7097 135.26 14.0197 135.04 14.3897L129.47 24.0497C129.29 24.3697 129.06 24.6497 128.78 24.8897C128.5 25.1297 128.19 25.3197 127.85 25.4497C127.51 25.5897 127.15 25.6597 126.79 25.6697C126.42 25.6797 126.06 25.6297 125.71 25.5197C124.4 25.0797 123.05 24.7397 121.7 24.4497C121.34 24.3697 121 24.2297 120.69 24.0397C120.38 23.8397 120.11 23.5997 119.88 23.3197C119.65 23.0297 119.48 22.7197 119.35 22.3697C119.23 22.0197 119.17 21.6597 119.17 21.2997V10.1697C119.17 9.73969 119.09 9.32969 118.92 8.92969C118.75 8.52969 118.52 8.17969 118.22 7.87969C117.91 7.57969 117.56 7.33969 117.17 7.17969C116.77 7.00969 116.36 6.92969 115.93 6.92969H107.15C106.72 6.92969 106.3 7.00969 105.91 7.17969C105.51 7.33969 105.16 7.57969 104.86 7.87969C104.55 8.17969 104.32 8.53969 104.15 8.92969C103.99 9.32969 103.91 9.73969 103.91 10.1697V29.6897C103.92 33.8397 103.33 37.8897 102.14 41.8597C102.02 42.2697 102.1 42.6297 102.41 42.9297C102.71 43.2297 103.07 43.3297 103.48 43.1997C131.46 35.3697 151.83 68.6697 132.17 89.9697C121.2 102.02 100.82 101.65 90.26 89.2697C89.94 88.9097 89.56 88.8097 89.11 88.9597C88.66 89.1197 88.42 89.4297 88.39 89.8997C87.62 101.25 84.86 114.35 75.89 122.12C75.81 122.19 75.74 122.28 75.7 122.38C75.66 122.48 75.64 122.59 75.65 122.7C75.66 122.81 75.69 122.91 75.75 123.01C75.81 123.1 75.89 123.18 75.98 123.23L83.58 127.62C83.95 127.84 84.35 127.97 84.78 128.03C85.21 128.09 85.63 128.06 86.05 127.95C86.47 127.84 86.85 127.65 87.19 127.39C87.53 127.13 87.81 126.81 88.03 126.44L93.6 116.79C93.79 116.47 94.02 116.19 94.29 115.95C94.57 115.71 94.88 115.52 95.22 115.39C95.56 115.26 95.92 115.18 96.29 115.17C96.65 115.16 97.01 115.21 97.37 115.32C98.68 115.74 100.02 116.09 101.38 116.39C101.74 116.47 102.07 116.61 102.39 116.81C102.7 117 102.97 117.25 103.2 117.53C103.43 117.82 103.61 118.13 103.73 118.48C103.85 118.83 103.91 119.18 103.91 119.55V130.7C103.91 131.13 103.99 131.54 104.16 131.94C104.32 132.34 104.56 132.69 104.86 133C105.16 133.3 105.52 133.54 105.91 133.7C106.31 133.87 106.72 133.94 107.15 133.94H115.93C116.36 133.94 116.77 133.86 117.17 133.7C117.57 133.53 117.92 133.3 118.22 133C118.53 132.69 118.76 132.34 118.92 131.94C119.09 131.54 119.17 131.13 119.17 130.7V119.55C119.17 119.18 119.23 118.83 119.35 118.48C119.47 118.13 119.65 117.81 119.88 117.53C120.11 117.24 120.38 117 120.69 116.81C121 116.61 121.34 116.48 121.7 116.39C123.06 116.09 124.4 115.74 125.71 115.32C126.06 115.21 126.42 115.16 126.79 115.17C127.16 115.19 127.51 115.26 127.86 115.39C128.2 115.52 128.51 115.71 128.79 115.95C129.07 116.19 129.3 116.47 129.48 116.79L135.05 126.44C135.26 126.82 135.54 127.13 135.88 127.39C136.22 127.66 136.6 127.84 137.02 127.95C137.44 128.06 137.86 128.09 138.29 128.03C138.72 127.97 139.12 127.84 139.49 127.62L147.09 123.23C147.47 123.02 147.78 122.74 148.04 122.4C148.3 122.06 148.49 121.68 148.6 121.26C148.71 120.84 148.74 120.42 148.68 119.99C148.62 119.56 148.49 119.16 148.27 118.79L142.7 109.13C142.52 108.81 142.39 108.47 142.32 108.11C142.25 107.75 142.25 107.38 142.3 107.02C142.35 106.66 142.47 106.31 142.64 105.98C142.81 105.66 143.03 105.37 143.3 105.12C144.32 104.2 145.28 103.22 146.22 102.21C146.47 101.94 146.76 101.72 147.08 101.54C147.4 101.36 147.75 101.25 148.12 101.2C148.48 101.14 148.85 101.15 149.21 101.22C149.57 101.29 149.92 101.41 150.24 101.6L159.9 107.18C160.28 107.4 160.68 107.53 161.1 107.59C161.53 107.65 161.95 107.62 162.36 107.51C162.78 107.4 163.16 107.21 163.5 106.95C163.84 106.69 164.12 106.37 164.33 106L168.73 98.3997C168.94 98.0197 169.07 97.6197 169.13 97.1997C169.19 96.7697 169.16 96.3497 169.05 95.9397C168.94 95.5197 168.75 95.1397 168.49 94.7997C168.22 94.4397 167.9 94.1597 167.53 93.9397Z" fill="#45B06C"/>
</g>
<mask id="mask2_38_105" style="mask-type:luminance" maskUnits="userSpaceOnUse" x="0" y="65" width="12" height="27">
<path d="M11.02 65.8398H0V91.1698H11.02V65.8398Z" fill="white"/>
</mask>
<g mask="url(#mask2_38_105)">
<path d="M1.68006 66.4199H9.36006C9.57006 66.4199 9.78006 66.4599 9.98006 66.5399C10.1801 66.6199 10.3601 66.7399 10.5101 66.8899C10.6701 67.0399 10.7801 67.2199 10.8601 67.4199C10.9401 67.6199 10.9801 67.8299 10.9801 68.0399V88.4799C10.9801 88.6999 10.9401 88.8999 10.8601 89.0999C10.7801 89.2999 10.6601 89.4799 10.5101 89.6299C10.3601 89.7799 10.1801 89.8999 9.98006 89.9799C9.78006 90.0599 9.57006 90.0999 9.36006 90.0999H1.68006C1.46006 90.0999 1.26006 90.0599 1.06006 89.9799C0.860059 89.8999 0.690059 89.7799 0.530059 89.6299C0.380059 89.4799 0.260059 89.2999 0.180059 89.0999C0.100059 88.8999 0.0600586 88.6899 0.0600586 88.4799V68.0399C0.0600586 67.8299 0.100059 67.6199 0.180059 67.4199C0.260059 67.2199 0.380059 67.0399 0.530059 66.8899C0.690059 66.7399 0.860059 66.6199 1.06006 66.5399C1.26006 66.4599 1.46006 66.4199 1.68006 66.4199Z" fill="white"/>
</g>
<path d="M70.3 67.6601H54.75C54.53 67.6601 54.32 67.7001 54.13 67.7801C53.93 67.8601 53.75 67.9801 53.6 68.1301C53.45 68.2901 53.33 68.4601 53.25 68.6601C53.17 68.8601 53.13 69.0701 53.13 69.2801V74.2101C53.13 74.4201 53.17 74.6301 53.25 74.8301C53.33 75.0301 53.45 75.2101 53.6 75.3601C53.75 75.5201 53.93 75.6301 54.13 75.7101C54.33 75.7901 54.54 75.8301 54.75 75.8301H61.26V78.7701C61.27 79.3001 61.06 79.7301 60.64 80.0601C58.73 81.5201 56.78 82.2001 53.11 82.2001C47.75 82.2601 43.7 78.4201 44.03 70.2901C44.03 63.5201 46.32 58.9101 52.76 58.7301C55.72 58.6801 58.12 59.9401 59.27 62.3701C59.41 62.6601 59.6 62.8901 59.87 63.0501C60.14 63.2201 60.43 63.3101 60.74 63.3101H69.64C69.88 63.3101 70.11 63.2601 70.34 63.1501C70.56 63.0501 70.75 62.9001 70.9 62.7101C71.06 62.5201 71.16 62.3101 71.22 62.0701C71.28 61.8401 71.28 61.6001 71.24 61.3601C70.45 57.3701 67 53.0601 62.07 51.2201C57.71 49.5401 46.61 49.5401 42.31 51.9401C31.65 56.5801 29.39 71.6401 34.28 81.2401C37.49 88.2701 45.19 90.8101 52.86 90.8101C61.77 90.8101 67.42 87.4501 70.1 85.3401C70.68 84.8801 71.13 84.3101 71.45 83.6501C71.77 82.9801 71.93 82.2701 71.93 81.5401V69.2901C71.93 69.0801 71.89 68.8701 71.81 68.6701C71.73 68.4701 71.61 68.2901 71.46 68.1401C71.3 67.9901 71.13 67.8701 70.93 67.7901C70.72 67.7001 70.51 67.6601 70.3 67.6601Z" fill="white"/>
<path d="M126.5 50.7402H96.5599C96.3499 50.7402 96.1399 50.7802 95.9399 50.8602C95.7399 50.9402 95.5599 51.0602 95.4099 51.2102C95.2599 51.3602 95.1399 51.5402 95.0599 51.7402C94.9799 51.9402 94.9399 52.1502 94.9399 52.3602V88.4802C94.9399 88.7002 94.9799 88.9102 95.0599 89.1002C95.1399 89.3002 95.2599 89.4802 95.4099 89.6302C95.5699 89.7802 95.7399 89.9002 95.9399 89.9802C96.1399 90.0602 96.3499 90.1002 96.5599 90.1002H126.5C126.71 90.1002 126.92 90.0602 127.12 89.9802C127.32 89.9002 127.5 89.7802 127.65 89.6302C127.8 89.4802 127.92 89.3002 128 89.1002C128.08 88.9002 128.12 88.6902 128.12 88.4802V82.8102C128.12 82.5902 128.08 82.3902 128 82.1902C127.92 81.9902 127.8 81.8102 127.65 81.6602C127.5 81.5102 127.32 81.3902 127.12 81.3102C126.92 81.2302 126.71 81.1902 126.5 81.1902H107.93C107.71 81.1902 107.51 81.1102 107.36 80.9502C107.2 80.7902 107.12 80.6002 107.12 80.3802V74.2402C107.12 74.0202 107.2 73.8202 107.36 73.6602C107.52 73.5002 107.71 73.4302 107.93 73.4302H124.42C124.64 73.4302 124.84 73.3902 125.04 73.3102C125.24 73.2302 125.41 73.1102 125.57 72.9602C125.72 72.8102 125.84 72.6302 125.92 72.4302C126 72.2302 126.04 72.0202 126.04 71.8102V67.0402C126.04 66.8302 126 66.6202 125.92 66.4202C125.84 66.2202 125.72 66.0402 125.57 65.8902C125.42 65.7402 125.24 65.6202 125.04 65.5402C124.84 65.4602 124.63 65.4202 124.42 65.4202H107.93C107.71 65.4202 107.52 65.3402 107.36 65.1802C107.2 65.0202 107.13 64.8302 107.12 64.6102V59.9802C107.12 59.7602 107.2 59.5602 107.36 59.4102C107.52 59.2502 107.71 59.1702 107.93 59.1702H126.5C126.71 59.1702 126.92 59.1302 127.12 59.0502C127.32 58.9702 127.5 58.8502 127.65 58.7002C127.8 58.5502 127.92 58.3702 128 58.1702C128.08 57.9702 128.12 57.7602 128.12 57.5502V52.4102C128.13 52.1902 128.08 51.9802 128.01 51.7802C127.93 51.5802 127.81 51.4002 127.66 51.2502C127.51 51.0902 127.33 50.9702 127.13 50.8902C126.92 50.7802 126.71 50.7402 126.5 50.7402Z" fill="white"/>
<mask id="mask3_38_105" style="mask-type:luminance" maskUnits="userSpaceOnUse" x="0" y="55" width="12" height="9">
<path d="M11.02 55.1699H0V63.1699H11.02V55.1699Z" fill="white"/>
</mask>
<g mask="url(#mask3_38_105)">
<path d="M1.68006 55.5703H9.36006C9.57006 55.5703 9.78006 55.6103 9.98006 55.6903C10.1801 55.7703 10.3601 55.8903 10.5101 56.0403C10.6701 56.1903 10.7801 56.3703 10.8601 56.5703C10.9401 56.7703 10.9801 56.9803 10.9801 57.1903V61.3803C10.9801 61.5903 10.9401 61.8003 10.8601 62.0003C10.7801 62.2003 10.6601 62.3803 10.5101 62.5303C10.3601 62.6803 10.1801 62.8003 9.98006 62.8803C9.78006 62.9603 9.57006 63.0003 9.36006 63.0003H1.68006C1.46006 63.0003 1.26006 62.9603 1.06006 62.8803C0.860059 62.8003 0.690059 62.6803 0.530059 62.5303C0.380059 62.3703 0.260059 62.2003 0.180059 62.0003C0.100059 61.8003 0.0600586 61.5903 0.0600586 61.3803V57.1903C0.0600586 56.9803 0.100059 56.7703 0.180059 56.5703C0.260059 56.3703 0.380059 56.1903 0.530059 56.0403C0.690059 55.8903 0.860059 55.7703 1.06006 55.6903C1.26006 55.6103 1.46006 55.5703 1.68006 55.5703Z" fill="white"/>
</g>
<mask id="mask4_38_105" style="mask-type:luminance" maskUnits="userSpaceOnUse" x="151" y="49" width="45" height="43">
<path d="M195.91 49.8398H151.02V91.1698H195.91V49.8398Z" fill="white"/>
</mask>
<g mask="url(#mask4_38_105)">
<path d="M194.23 50.7397H181.13C180.76 50.7397 180.43 50.8497 180.14 51.0797C179.84 51.3097 179.65 51.5997 179.56 51.9597L174.28 72.6397C174.21 72.9197 174.04 73.0597 173.75 73.0597C173.47 73.0597 173.29 72.9197 173.22 72.6397L167.89 51.9397C167.8 51.5797 167.6 51.2897 167.31 51.0597C167.02 50.8397 166.69 50.7197 166.32 50.7197H153.23C153.02 50.7197 152.81 50.7597 152.61 50.8397C152.41 50.9197 152.23 51.0397 152.08 51.1897C151.92 51.3497 151.81 51.5197 151.73 51.7197C151.65 51.9197 151.61 52.1297 151.61 52.3397V88.4697C151.61 88.6897 151.65 88.8897 151.73 89.0897C151.81 89.2897 151.93 89.4697 152.08 89.6197C152.23 89.7697 152.41 89.8897 152.61 89.9697C152.81 90.0497 153.02 90.0897 153.23 90.0897H159.95C160.16 90.0897 160.37 90.0497 160.57 89.9697C160.77 89.8897 160.95 89.7697 161.1 89.6197C161.25 89.4697 161.37 89.2997 161.45 89.0897C161.53 88.8897 161.57 88.6897 161.57 88.4697V64.3997C161.57 64.2597 161.62 64.1397 161.71 64.0497C161.8 63.9497 161.91 63.8897 162.05 63.8697C162.19 63.8497 162.31 63.8897 162.42 63.9597C162.53 64.0397 162.61 64.1397 162.64 64.2697L168.92 88.8897C169.01 89.2497 169.21 89.5497 169.5 89.7797C169.8 89.9997 170.13 90.1197 170.5 90.1197H176.99C177.37 90.1197 177.69 90.0097 177.99 89.7797C178.28 89.5497 178.47 89.2597 178.57 88.8897L184.87 64.2597C184.91 64.1197 184.98 64.0197 185.09 63.9497C185.2 63.8697 185.33 63.8397 185.47 63.8597C185.61 63.8797 185.71 63.9397 185.81 64.0397C185.9 64.1397 185.95 64.2597 185.95 64.3997V88.4897C185.95 88.7097 185.99 88.9197 186.07 89.1097C186.15 89.3097 186.27 89.4897 186.42 89.6397C186.57 89.7897 186.75 89.9097 186.95 89.9897C187.15 90.0697 187.36 90.1097 187.57 90.1097H194.27C194.48 90.1097 194.69 90.0697 194.89 89.9897C195.09 89.9097 195.27 89.7897 195.42 89.6397C195.58 89.4897 195.69 89.3097 195.77 89.1097C195.85 88.9097 195.89 88.6997 195.89 88.4897V52.3897C195.89 52.1697 195.85 51.9597 195.77 51.7597C195.69 51.5597 195.57 51.3797 195.41 51.2197C195.26 51.0597 195.08 50.9497 194.88 50.8697C194.66 50.7797 194.44 50.7397 194.23 50.7397Z" fill="white"/>
</g>
</g>
<defs>
<clipPath id="clip0_38_105">
<rect width="195.91" height="133.93" fill="white"/>
</clipPath>
</defs>
</svg>
