<svg width="72" height="72" viewBox="0 0 72 72" fill="none" xmlns="http://www.w3.org/2000/svg">
<g clip-path="url(#clip0_40_568)">
<path d="M34.7201 28.8197C35.0801 28.8897 35.4801 28.8897 35.8701 28.7797C38.1701 27.9497 37.7401 24.5997 34.6801 24.7097C34.0001 25.1797 33.3201 25.3197 33.0601 26.1797C32.7801 27.3797 33.5401 28.5697 34.7201 28.8197Z" fill="#07BD13"/>
<path d="M23.8601 24.6804C23.2101 25.1504 22.6001 25.2604 22.3101 26.0804C22.1601 26.5504 22.2001 27.0904 22.4101 27.5604C22.8801 28.6704 24.1801 29.1404 25.2501 28.6704C26.3601 28.2004 26.8301 26.9004 26.3601 25.8304C25.9401 25.0104 25.1901 24.6504 23.8601 24.6804Z" fill="#07BD13"/>
<path d="M39.8701 35.5195L39.1101 35.7295C38.6401 36.0195 37.7401 37.0995 38.3501 37.9195C38.7101 38.8595 39.7501 39.3595 40.6901 38.9995C40.7301 38.9995 40.7301 38.9995 40.7601 38.9595C41.3001 38.7395 41.4401 38.2795 41.8001 37.9095C41.9201 36.4495 41.3401 35.5795 39.8701 35.5195Z" fill="#07BD13"/>
<mask id="mask0_40_568" style="mask-type:luminance" maskUnits="userSpaceOnUse" x="0" y="0" width="72" height="72">
<path d="M71.96 0H0V71.96H71.96V0Z" fill="white"/>
</mask>
<g mask="url(#mask0_40_568)">
<path d="M35.98 0C16.12 0 0 16.12 0 35.98C0 55.84 16.12 71.96 35.98 71.96C55.84 71.96 71.96 55.84 71.96 35.98C71.96 16.12 55.84 0 35.98 0ZM26.3 43.82C25.73 43.57 25.11 43.46 24.47 43.39C23.96 43.64 23.46 43.89 23 44.21C21.67 44.9 20.34 45.54 19.01 46.19V46.05C19.3 45.44 19.52 44.75 19.66 44.07C20.02 43.24 20.31 42.34 20.49 41.48C17.68 39.86 15.6 37.2 14.66 34.1C14.08 31.87 14.19 29.53 14.95 27.37C16.5 23.67 19.56 20.79 23.34 19.42C24.56 18.99 25.86 18.66 27.12 18.45C28.89 18.16 30.68 18.19 32.45 18.52C33.21 18.7 33.85 18.62 34.57 18.88C37.85 19.74 40.76 21.65 42.85 24.28C44.07 25.68 44.87 27.41 45.08 29.28C43.14 29.1 41.19 29.39 39.39 30.04C35.11 31.62 31.87 34.03 30.61 38.61C30.29 39.9 30.25 41.27 30.47 42.6C30.61 43.06 30.72 43.57 30.83 44.07C29.29 44.19 27.78 44.08 26.3 43.82ZM57.32 43.76C56.74 45.41 55.8 46.96 54.59 48.18C54.19 48.47 52.54 49.59 52.47 50.02C52.76 50.67 52.98 51.35 53.12 52.07C53.38 52.61 53.55 53.18 53.7 53.76H53.63C52.62 53.11 51.51 52.57 50.39 52.14C49.96 51.85 49.53 51.57 49.06 51.38C48.77 51.31 48.3 51.6 48.09 51.67C47.3 51.88 46.43 51.85 45.64 52.03C44.74 52.13 43.81 52.1 42.91 51.88L41.94 51.81C40.36 51.52 38.85 50.98 37.44 50.26C35.21 49.04 33.41 47.13 32.29 44.86C30.67 40.79 31.89 36.15 35.32 33.42C36.79 32.27 38.45 31.4 40.25 30.83C40.86 30.65 41.51 30.54 42.08 30.4C42.44 30.25 42.91 30.43 43.2 30.25C49.75 30.14 53.88 32.19 56.26 36.15C57.65 38.35 58.04 41.16 57.32 43.76Z" fill="#07BD13"/>
</g>
<path d="M48.94 35.5195C48.51 35.8095 47.97 35.7695 47.68 36.1695C47.11 36.9995 47.25 38.0795 47.97 38.7595C49.52 39.8095 50.92 38.5095 50.85 36.7795C50.27 36.0895 50.27 35.5495 48.94 35.5195Z" fill="#07BD13"/>
</g>
<defs>
<clipPath id="clip0_40_568">
<rect width="71.96" height="71.96" fill="white"/>
</clipPath>
</defs>
</svg>
