<svg width="1920" height="1078" viewBox="0 0 1920 1078" fill="none" xmlns="http://www.w3.org/2000/svg">
<rect width="1920" height="1078" fill="#9BAD83"/>
<g clip-path="url(#clip0_25_3596)">
<mask id="mask0_25_3596" style="mask-type:luminance" maskUnits="userSpaceOnUse" x="792" y="727" width="368" height="91">
<path d="M1160 727H792V818H1160V727Z" fill="white"/>
</mask>
<g mask="url(#mask0_25_3596)">
<mask id="mask1_25_3596" style="mask-type:luminance" maskUnits="userSpaceOnUse" x="792" y="727" width="368" height="91">
<path d="M833.342 727H1118.65C1129.61 727 1140.13 731.332 1147.88 739.046C1155.63 746.761 1159.99 757.219 1159.99 768.123V776.877C1159.99 787.781 1155.63 798.25 1147.88 805.954C1140.13 813.668 1129.61 818 1118.65 818H833.342C810.511 818 792 799.587 792 776.877V768.123C792 745.413 810.511 727 833.342 727Z" fill="white"/>
</mask>
<g mask="url(#mask1_25_3596)">
<path d="M792 727V818H1160V727H792Z" fill="url(#paint0_radial_25_3596)"/>
</g>
</g>
<path d="M884.329 787.562C882.95 787.562 881.594 787.196 880.261 786.442C878.917 785.676 877.848 784.202 877.055 782.007L875.975 779.241H863.956L860.532 787.333H858.59L870.609 759.194H871.896L881.33 782.007C882.031 783.664 882.697 784.796 883.318 785.413C883.95 786.019 884.857 786.373 886.052 786.487V787.345C885.524 787.493 884.949 787.562 884.329 787.562ZM875.114 777.538L869.966 765.183L864.6 777.538H875.114Z" fill="#F8F0D2"/>
<path d="M896.254 787.779C894.198 787.779 892.451 787.322 891.038 786.396C889.613 785.459 888.556 784.202 887.855 782.636C887.166 781.059 886.821 779.299 886.821 777.321C886.821 775.367 887.166 773.607 887.855 772.041C888.556 770.452 889.613 769.207 891.038 768.281C892.451 767.344 894.198 766.875 896.254 766.875C899.391 766.875 901.459 767.378 902.459 768.372C902.953 768.852 903.252 769.435 903.367 770.132C903.47 770.83 903.539 772.098 903.539 773.915H902.677C902.563 772.155 902.011 770.83 901 769.938C900.012 769.035 898.713 768.578 897.093 768.578C895.036 768.578 893.485 769.389 892.451 771.001C891.405 772.624 890.9 774.727 890.9 777.31C890.9 779.904 891.417 781.996 892.451 783.619C893.485 785.242 895.036 786.042 897.093 786.042C898.564 786.042 899.759 785.768 900.713 785.208C901.655 784.659 902.517 783.802 903.321 782.636L904.183 783.276C903.24 784.865 902.126 786.008 900.828 786.705C899.541 787.425 898.024 787.779 896.254 787.779Z" fill="#F8F0D2"/>
<path d="M908.682 764.326C908.682 762.886 908.475 761.812 908.084 761.115C907.682 760.418 906.889 760.063 905.694 760.063H904.833V759.206H908.682C909.739 759.206 910.52 759.343 911.049 759.606C911.577 759.88 911.945 760.372 912.175 761.08C912.416 761.789 912.531 762.875 912.531 764.315V769.001C913.14 768.395 913.921 767.892 914.875 767.481C915.829 767.069 916.909 766.864 918.104 766.864C920.241 766.864 921.988 767.435 923.343 768.578C924.699 769.721 925.377 771.71 925.377 774.556V787.345H921.528V774.556C921.528 772.555 921.068 771.093 920.161 770.178C919.264 769.264 918.15 768.795 916.805 768.795C915.289 768.795 913.864 769.55 912.52 771.058V787.345H908.67V764.326H908.682Z" fill="#F8F0D2"/>
<path d="M933.63 764.749C932.975 764.749 932.412 764.487 931.93 763.938C931.459 763.401 931.24 762.761 931.24 762.006C931.24 761.423 931.413 760.955 931.769 760.623C932.114 760.281 932.596 760.098 933.205 760.098C933.86 760.098 934.412 760.372 934.883 760.909C935.365 761.446 935.595 762.086 935.595 762.818C935.595 763.424 935.411 763.904 935.044 764.246C934.688 764.589 934.216 764.749 933.63 764.749ZM931.999 772.418C931.999 770.978 931.792 769.904 931.401 769.207C930.999 768.51 930.195 768.155 928.988 768.155H928.15V767.298H931.999C933.056 767.298 933.837 767.435 934.366 767.698C934.894 767.972 935.262 768.464 935.492 769.173C935.733 769.881 935.848 770.967 935.848 772.407V787.334H931.999V772.418Z" fill="#F8F0D2"/>
<path d="M949.756 787.779C947.802 787.779 946.171 787.322 944.826 786.396C943.482 785.459 942.471 784.202 941.781 782.636C941.092 781.059 940.747 779.299 940.747 777.321C940.747 775.39 941.092 773.63 941.781 772.041C942.459 770.452 943.459 769.207 944.746 768.281C946.056 767.344 947.572 766.875 949.319 766.875C952.203 766.875 954.352 767.686 955.754 769.298C957.167 770.91 957.879 773.218 957.879 776.247L957.787 777.961H944.815C944.815 780.339 945.32 782.293 946.343 783.79C947.377 785.299 948.802 786.053 950.606 786.053C951.95 786.053 953.076 785.779 954.007 785.219C954.926 784.648 955.788 783.79 956.592 782.647L957.454 783.287C956.512 784.842 955.409 785.973 954.145 786.693C952.892 787.425 951.433 787.779 949.756 787.779ZM953.823 776.258C953.823 773.767 953.444 771.87 952.697 770.567C951.962 769.252 950.836 768.589 949.319 768.589C948.457 768.589 947.676 768.921 946.998 769.595C946.308 770.258 945.78 771.184 945.389 772.361C945.01 773.527 944.815 774.83 944.815 776.27H953.823V776.258Z" fill="#F8F0D2"/>
<path d="M963.975 772.201C963.286 770.612 962.631 769.503 962.011 768.863C961.39 768.212 960.551 767.858 959.517 767.812V766.955C959.655 766.955 959.862 766.943 960.138 766.909C960.402 766.875 960.689 766.863 960.976 766.863C962.493 766.863 963.86 767.24 965.09 768.006C966.319 768.761 967.365 770.155 968.25 772.201L972.134 781.367L978.12 767.298H980.28L971.49 787.779H970.628L963.975 772.201Z" fill="#F8F0D2"/>
<path d="M991.974 787.779C990.021 787.779 988.389 787.322 987.045 786.396C985.7 785.459 984.689 784.202 984 782.636C983.31 781.059 982.966 779.299 982.966 777.321C982.966 775.39 983.31 773.63 984 772.041C984.678 770.452 985.677 769.207 986.964 768.281C988.274 767.344 989.791 766.875 991.538 766.875C994.422 766.875 996.57 767.686 997.972 769.298C999.385 770.91 1000.1 773.218 1000.1 776.247L1000.01 777.961H987.033C987.033 780.339 987.539 782.293 988.562 783.79C989.596 785.299 991.02 786.053 992.824 786.053C994.169 786.053 995.295 785.779 996.226 785.219C997.145 784.648 998.007 783.79 998.811 782.647L999.673 783.287C998.73 784.842 997.627 785.973 996.363 786.693C995.123 787.425 993.652 787.779 991.974 787.779ZM996.053 776.258C996.053 773.767 995.674 771.87 994.927 770.567C994.192 769.252 993.066 768.589 991.549 768.589C990.687 768.589 989.906 768.921 989.228 769.595C988.539 770.258 988.01 771.184 987.619 772.361C987.24 773.527 987.045 774.83 987.045 776.27H996.053V776.258Z" fill="#F8F0D2"/>
<path d="M1005.7 772.418C1005.7 770.978 1005.49 769.903 1005.1 769.206C1004.7 768.509 1003.9 768.155 1002.69 768.155H1001.85V767.298H1005.7C1006.76 767.298 1007.55 767.435 1008.11 767.732C1008.66 768.018 1009.08 768.44 1009.33 769.012H1009.55C1010.16 768.406 1010.94 767.903 1011.89 767.492C1012.85 767.08 1013.93 766.875 1015.12 766.875C1016.32 766.875 1017.35 767.103 1018.21 767.538C1019.07 767.983 1019.75 768.761 1020.27 769.869C1021 768.932 1021.95 768.2 1023.1 767.675C1024.26 767.138 1025.45 766.863 1026.68 766.863C1028.51 766.863 1029.97 767.435 1031.06 768.578C1032.14 769.721 1032.69 771.709 1032.69 774.555V787.345H1028.84V774.555C1028.84 772.509 1028.55 771.046 1027.98 770.155C1027.41 769.252 1026.55 768.795 1025.42 768.795C1024.61 768.795 1023.77 769.092 1022.88 769.675C1021.98 770.246 1021.33 770.875 1020.91 771.561C1021.05 771.995 1021.13 772.989 1021.13 774.555V787.345H1017.25V774.555C1017.25 772.509 1016.96 771.046 1016.39 770.155C1015.82 769.252 1014.97 768.795 1013.82 768.795C1012.31 768.795 1010.88 769.549 1009.54 771.058V787.345H1005.69V772.418H1005.7Z" fill="#F8F0D2"/>
<path d="M1046.56 787.779C1044.6 787.779 1042.97 787.322 1041.63 786.396C1040.28 785.459 1039.27 784.202 1038.58 782.636C1037.89 781.059 1037.55 779.299 1037.55 777.321C1037.55 775.39 1037.89 773.63 1038.58 772.041C1039.26 770.452 1040.26 769.207 1041.55 768.281C1042.86 767.344 1044.37 766.875 1046.12 766.875C1049 766.875 1051.15 767.686 1052.55 769.298C1053.97 770.91 1054.68 773.218 1054.68 776.247L1054.59 777.961H1041.61C1041.61 780.339 1042.12 782.293 1043.14 783.79C1044.18 785.299 1045.6 786.053 1047.41 786.053C1048.75 786.053 1049.88 785.779 1050.81 785.219C1051.73 784.648 1052.59 783.79 1053.39 782.647L1054.25 783.287C1053.31 784.842 1052.21 785.973 1050.94 786.693C1049.69 787.425 1048.23 787.779 1046.56 787.779ZM1050.62 776.258C1050.62 773.767 1050.24 771.87 1049.5 770.567C1048.76 769.252 1047.64 768.589 1046.12 768.589C1045.26 768.589 1044.48 768.921 1043.8 769.595C1043.11 770.258 1042.58 771.184 1042.19 772.361C1041.81 773.527 1041.61 774.83 1041.61 776.27H1050.62V776.258Z" fill="#F8F0D2"/>
<path d="M1060.27 772.418C1060.27 770.978 1060.06 769.904 1059.67 769.207C1059.27 768.509 1058.47 768.155 1057.26 768.155H1056.42V767.298H1060.27C1061.33 767.298 1062.12 767.435 1062.68 767.732C1063.23 768.018 1063.65 768.441 1063.9 769.012H1064.12C1064.73 768.407 1065.51 767.904 1066.46 767.492C1067.42 767.081 1068.5 766.875 1069.69 766.875C1071.83 766.875 1073.58 767.446 1074.93 768.589C1076.29 769.732 1076.96 771.721 1076.96 774.567V787.356H1073.12V774.567C1073.12 772.567 1072.66 771.104 1071.75 770.19C1070.85 769.275 1069.74 768.807 1068.39 768.807C1066.88 768.807 1065.45 769.561 1064.11 771.07V787.356H1060.26V772.418H1060.27Z" fill="#F8F0D2"/>
<path d="M1088.91 787.779C1087.31 787.779 1086.04 787.322 1085.13 786.419C1084.22 785.504 1083.76 784.099 1083.76 782.224V769.012H1080.77V767.297H1083.76V763.469L1085.92 760.92H1087.62V767.297H1092.77V769.012H1087.62V782.224C1087.62 784.784 1088.63 786.053 1090.63 786.053C1091.31 786.053 1091.88 785.984 1092.35 785.836C1092.84 785.699 1093.32 785.481 1093.84 785.196L1094.27 786.053C1093.62 786.544 1092.88 786.956 1092.07 787.287C1091.26 787.619 1090.2 787.779 1088.91 787.779Z" fill="#F8F0D2"/>
</g>
<g clip-path="url(#clip1_25_3596)">
<mask id="mask2_25_3596" style="mask-type:luminance" maskUnits="userSpaceOnUse" x="1256" y="614" width="333" height="315">
<path d="M1589 614H1256V929H1589V614Z" fill="white"/>
</mask>
<g mask="url(#mask2_25_3596)">
<mask id="mask3_25_3596" style="mask-type:luminance" maskUnits="userSpaceOnUse" x="1256" y="614" width="333" height="315">
<path d="M1297.45 614H1547.35C1558.34 614 1568.88 618.356 1576.65 626.113C1584.43 633.871 1588.79 644.386 1588.79 655.362V887.65C1588.79 898.614 1584.43 909.141 1576.65 916.887C1568.88 924.644 1558.34 929 1547.35 929H1297.45C1286.46 929 1275.91 924.644 1268.14 916.887C1260.37 909.141 1256 898.614 1256 887.65V655.35C1256 644.375 1260.37 633.859 1268.14 626.102C1275.92 618.356 1286.46 614 1297.45 614Z" fill="white"/>
</mask>
<g mask="url(#mask3_25_3596)">
<path d="M1256 614H1589V929H1256V614Z" fill="#9FC7AA"/>
</g>
</g>
<mask id="mask4_25_3596" style="mask-type:luminance" maskUnits="userSpaceOnUse" x="1320" y="640" width="208" height="171">
<path d="M1527.33 640.433H1320.08V810.189H1527.33V640.433Z" fill="white"/>
</mask>
<g mask="url(#mask4_25_3596)">
<path d="M1345 640.433C1331.3 640.433 1320.11 651.603 1320.11 665.268V785.342C1320.11 799.007 1331.3 810.178 1345 810.178H1527.6V661.142H1369.05C1366.99 649.512 1357.23 640.433 1345 640.433ZM1345 648.719C1354.2 648.719 1361.6 656.097 1361.6 665.28V766.92C1357.19 762.955 1351.37 760.519 1345 760.519C1338.63 760.519 1332.81 762.955 1328.4 766.92V665.268C1328.39 656.086 1335.78 648.719 1345 648.719ZM1369.89 669.417H1519.3V801.915H1345C1335.79 801.915 1328.4 794.537 1328.4 785.354C1328.4 776.171 1335.79 768.793 1345 768.793C1354.2 768.793 1361.6 776.171 1361.6 785.354H1369.89V669.417ZM1465.34 694.252L1476.93 705.814L1454.96 727.73L1432.33 705.136L1396.21 736.683L1401.66 742.9L1431.95 716.49L1454.96 739.441L1482.8 711.675L1494.39 723.237V694.252H1465.34ZM1390.65 764.644V772.919H1494.39V764.644H1390.65Z" fill="#3C5923"/>
</g>
<path d="M1360.14 881.04V853.63H1369.05C1372.42 853.63 1374.62 853.768 1375.65 854.067C1377.19 854.469 1378.51 855.354 1379.57 856.744C1380.64 858.124 1381.18 859.893 1381.18 862.054C1381.18 863.491 1380.95 864.732 1380.51 865.789C1380.06 866.846 1379.42 867.743 1378.59 868.467C1377.77 869.202 1376.79 869.754 1375.66 870.145C1374.54 870.513 1372.42 870.696 1369.32 870.696H1365.67V881.04H1360.14ZM1365.66 858.25V866.03H1368.68C1370.89 866.03 1372.35 865.904 1373.07 865.628C1373.81 865.341 1374.38 864.893 1374.8 864.284C1375.23 863.663 1375.44 862.939 1375.44 862.123C1375.44 861.112 1375.14 860.307 1374.55 859.686C1373.96 859.054 1373.22 858.641 1372.32 858.468C1371.66 858.33 1370.34 858.25 1368.33 858.25H1365.66Z" fill="white"/>
<path d="M1390.73 881.039H1385.46V861.169H1390.33V864.019C1391.17 862.674 1391.93 861.801 1392.59 861.387C1393.25 860.973 1394.04 860.767 1394.91 860.767C1396.08 860.767 1397.23 861.1 1398.37 861.743L1396.71 866.318C1395.85 865.743 1395.03 865.456 1394.27 865.456C1393.53 865.456 1392.9 865.662 1392.37 866.076C1391.85 866.478 1391.46 867.214 1391.17 868.283C1390.88 869.34 1390.73 871.547 1390.73 874.914V881.039Z" fill="white"/>
<path d="M1399.4 870.823C1399.4 869.087 1399.81 867.398 1400.66 865.766C1401.53 864.134 1402.75 862.904 1404.34 862.054C1405.93 861.192 1407.69 860.767 1409.64 860.767C1412.65 860.767 1415.11 861.743 1417.03 863.686C1418.97 865.639 1419.94 868.087 1419.94 871.041C1419.94 874.052 1418.96 876.569 1417.01 878.557C1415.05 880.534 1412.62 881.522 1409.7 881.522C1407.88 881.522 1406.13 881.108 1404.47 880.281C1402.8 879.442 1401.54 878.224 1400.68 876.638C1399.82 875.052 1399.4 873.121 1399.4 870.823ZM1404.82 871.133C1404.82 873.098 1405.28 874.604 1406.22 875.661C1407.14 876.707 1408.3 877.212 1409.7 877.212C1411.04 877.212 1412.17 876.695 1413.11 875.661C1414.05 874.604 1414.52 873.098 1414.52 871.11C1414.52 869.168 1414.05 867.674 1413.11 866.628C1412.17 865.57 1411.04 865.042 1409.7 865.042C1408.3 865.042 1407.14 865.57 1406.22 866.628C1405.28 867.674 1404.82 869.168 1404.82 871.133Z" fill="white"/>
<path d="M1423.95 858.491V853.63H1429.2V858.491H1423.95ZM1429.2 861.169V880.419C1429.2 882.959 1429.03 884.74 1428.69 885.786C1428.37 886.843 1427.74 887.648 1426.77 888.223C1425.82 888.797 1424.63 889.084 1423.18 889.084C1422.07 889.084 1420.86 888.901 1419.55 888.533L1420.46 884.051C1420.95 884.154 1421.39 884.223 1421.78 884.223C1422.31 884.223 1422.74 884.108 1423.07 883.867C1423.42 883.637 1423.66 883.373 1423.76 883.051C1423.87 882.729 1423.94 881.764 1423.94 880.132V861.169H1429.2Z" fill="white"/>
<path d="M1446.24 874.718L1451.49 875.603C1450.06 879.545 1447.18 881.522 1442.83 881.522C1439.71 881.522 1437.32 880.603 1435.68 878.741C1434.03 876.89 1433.2 874.397 1433.2 871.271C1433.2 867.984 1434.05 865.421 1435.77 863.559C1437.5 861.697 1439.68 860.755 1442.32 860.755C1445.25 860.755 1447.55 861.709 1449.23 863.628C1450.92 865.536 1451.76 868.351 1451.76 872.11V872.615H1438.55C1438.6 874.167 1439.03 875.385 1439.82 876.258C1440.64 877.143 1441.65 877.58 1442.9 877.58C1444.59 877.569 1445.7 876.626 1446.24 874.718ZM1446.53 869.409C1446.48 867.915 1446.08 866.765 1445.33 865.984C1444.59 865.191 1443.68 864.789 1442.62 864.789C1441.47 864.789 1440.52 865.203 1439.79 866.03C1439.05 866.846 1438.68 867.926 1438.68 869.259V869.397H1446.53V869.409Z" fill="white"/>
<path d="M1473.42 867.053L1468.23 867.984C1468.05 866.961 1467.65 866.191 1467.01 865.662C1466.39 865.133 1465.6 864.869 1464.64 864.869C1463.33 864.869 1462.28 865.317 1461.5 866.214C1460.72 867.11 1460.34 868.616 1460.34 870.742C1460.34 873.121 1460.74 874.799 1461.52 875.775C1462.31 876.729 1463.37 877.212 1464.71 877.212C1465.7 877.212 1466.52 876.925 1467.15 876.35C1467.81 875.775 1468.26 874.799 1468.5 873.408L1473.68 874.316C1472.59 879.12 1469.52 881.522 1464.47 881.522C1461.55 881.522 1459.24 880.602 1457.51 878.764C1455.78 876.913 1454.92 874.373 1454.92 871.121C1454.92 867.857 1455.78 865.306 1457.51 863.478C1459.24 861.663 1461.58 860.743 1464.54 860.743C1466.98 860.743 1468.91 861.26 1470.34 862.295C1471.78 863.34 1472.81 864.926 1473.42 867.053Z" fill="white"/>
<path d="M1486.54 861.168V865.386H1482.92V873.385C1482.92 875.005 1482.95 875.936 1483.01 876.212C1483.09 876.465 1483.25 876.695 1483.49 876.879C1483.73 877.063 1484.02 877.143 1484.38 877.143C1484.86 877.143 1485.56 876.971 1486.49 876.637L1486.95 880.706C1485.71 881.246 1484.32 881.522 1482.78 881.522C1481.66 881.522 1480.67 881.292 1479.83 880.855C1478.98 880.396 1478.4 879.729 1478.1 878.867C1477.79 877.994 1477.64 876.373 1477.64 874.029V865.386H1475.22V861.168H1477.64V857.215L1482.92 854.146V861.157H1486.54V861.168Z" fill="white"/>
</g>
<g clip-path="url(#clip2_25_3596)">
<mask id="mask5_25_3596" style="mask-type:luminance" maskUnits="userSpaceOnUse" x="363" y="622" width="332" height="315">
<path d="M695 622H363V937H695V622Z" fill="white"/>
</mask>
<g mask="url(#mask5_25_3596)">
<mask id="mask6_25_3596" style="mask-type:luminance" maskUnits="userSpaceOnUse" x="363" y="622" width="332" height="315">
<path d="M404.322 622H653.471C664.428 622 674.936 626.356 682.688 634.113C690.429 641.871 694.793 652.386 694.793 663.362V895.65C694.793 906.614 690.441 917.141 682.688 924.887C674.936 932.644 664.428 937 653.471 937H404.322C393.354 937 382.846 932.644 375.105 924.887C367.353 917.141 363 906.614 363 895.65V663.35C363 652.375 367.353 641.859 375.105 634.102C382.857 626.356 393.366 622 404.322 622Z" fill="white"/>
</mask>
<g mask="url(#mask6_25_3596)">
<path d="M363 622H695V937H363V622Z" fill="#9FC7AA"/>
</g>
</g>
<path d="M466.615 818.178C465.156 818.178 463.709 818.074 462.274 817.856C460.827 817.638 459.414 817.327 458.024 816.902C456.635 816.477 455.268 815.96 453.959 815.339C452.65 814.719 451.386 814.006 450.169 813.202C448.963 812.397 447.815 811.501 446.735 810.524C445.655 809.547 444.656 808.49 443.738 807.375C442.819 806.249 441.98 805.053 441.234 803.812C440.487 802.56 439.833 801.272 439.281 799.916C438.73 798.56 438.271 797.192 437.915 795.779C437.559 794.365 437.318 792.94 437.168 791.492C437.03 790.044 436.984 788.585 437.065 787.136C437.134 785.677 437.306 784.24 437.593 782.815C437.869 781.39 438.259 779.988 438.753 778.62C439.247 777.253 439.833 775.92 440.522 774.633C441.199 773.357 441.98 772.127 442.853 770.955C443.726 769.783 444.668 768.691 445.701 767.657L531.664 681.646C531.848 681.462 532.055 681.324 532.296 681.221C532.537 681.129 532.778 681.083 533.043 681.083C533.295 681.083 533.548 681.129 533.789 681.221C534.03 681.324 534.237 681.462 534.421 681.646L573.515 720.755C573.699 720.939 573.836 721.146 573.928 721.387C574.032 721.629 574.077 721.87 574.077 722.134C574.077 722.399 574.032 722.64 573.928 722.882C573.836 723.123 573.687 723.33 573.515 723.514L487.552 809.536C486.185 810.915 484.692 812.144 483.073 813.225C481.453 814.305 479.754 815.213 477.962 815.96C476.17 816.707 474.321 817.27 472.415 817.638C470.485 817.994 468.556 818.178 466.615 818.178ZM533.031 685.749L448.446 770.392C447.849 770.989 447.286 771.61 446.758 772.265C446.23 772.92 445.724 773.598 445.253 774.299C444.783 775 444.358 775.713 443.956 776.46C443.565 777.207 443.198 777.965 442.876 778.735C442.555 779.517 442.267 780.31 442.026 781.114C441.785 781.919 441.578 782.735 441.406 783.562C441.245 784.39 441.119 785.217 441.039 786.068C440.958 786.907 440.912 787.746 440.912 788.585C440.912 789.424 440.958 790.262 441.039 791.101C441.119 791.94 441.245 792.768 441.406 793.595C441.578 794.423 441.774 795.239 442.026 796.043C442.267 796.848 442.555 797.641 442.876 798.422C443.198 799.204 443.554 799.962 443.956 800.698C444.358 801.445 444.783 802.169 445.253 802.87C445.724 803.571 446.218 804.249 446.758 804.893C447.298 805.548 447.861 806.168 448.446 806.766C449.043 807.363 449.664 807.927 450.318 808.455C450.973 808.984 451.65 809.49 452.351 809.961C453.052 810.432 453.764 810.869 454.51 811.259C455.257 811.65 456.015 812.018 456.784 812.34C457.565 812.661 458.358 812.949 459.161 813.19C459.965 813.432 460.781 813.638 461.608 813.811C462.435 813.972 463.262 814.098 464.1 814.179C464.938 814.259 465.777 814.293 466.627 814.293C467.465 814.293 468.303 814.247 469.142 814.179C469.98 814.098 470.807 813.972 471.634 813.811C472.461 813.638 473.276 813.443 474.08 813.19C474.884 812.949 475.676 812.661 476.457 812.34C477.238 812.018 477.996 811.662 478.731 811.259C479.466 810.857 480.201 810.432 480.902 809.961C481.603 809.49 482.28 808.995 482.923 808.455C483.578 807.927 484.198 807.352 484.795 806.766L569.392 722.112L533.031 685.749Z" fill="#47722E"/>
<path d="M466.615 818.178C465.157 818.178 463.709 818.075 462.274 817.856C460.838 817.649 459.426 817.328 458.025 816.902C456.635 816.489 455.28 815.96 453.97 815.339C452.65 814.719 451.398 813.995 450.18 813.19C448.975 812.386 447.826 811.489 446.758 810.512C445.678 809.536 444.679 808.478 443.761 807.364C442.842 806.237 442.003 805.054 441.257 803.801C440.51 802.548 439.856 801.261 439.304 799.905C438.753 798.549 438.294 797.181 437.938 795.768C437.582 794.354 437.341 792.929 437.191 791.481C437.053 790.033 437.008 788.585 437.088 787.125C437.168 785.666 437.341 784.229 437.616 782.804C437.903 781.379 438.294 779.977 438.788 778.609C439.281 777.241 439.867 775.908 440.556 774.633C441.234 773.346 442.015 772.116 442.888 770.955C443.761 769.794 444.702 768.691 445.724 767.657L464.479 748.889C464.858 748.51 465.306 748.326 465.846 748.326H544.022C544.413 748.326 544.78 748.43 545.102 748.648C545.435 748.866 545.664 749.154 545.814 749.521C545.963 749.889 545.997 750.257 545.917 750.636C545.837 751.027 545.664 751.349 545.389 751.625L487.552 809.501C486.185 810.88 484.692 812.11 483.073 813.19C481.453 814.271 479.754 815.178 477.962 815.926C476.17 816.673 474.321 817.236 472.415 817.603C470.485 817.994 468.567 818.178 466.615 818.178ZM466.627 752.199L448.446 770.392C447.849 770.99 447.286 771.61 446.758 772.265C446.23 772.909 445.724 773.587 445.254 774.288C444.783 774.989 444.358 775.713 443.956 776.46C443.565 777.207 443.198 777.966 442.876 778.736C442.555 779.517 442.267 780.299 442.026 781.114C441.785 781.919 441.578 782.735 441.406 783.562C441.245 784.39 441.119 785.217 441.039 786.056C440.958 786.895 440.912 787.734 440.912 788.573C440.912 789.412 440.958 790.251 441.027 791.102C441.108 791.94 441.234 792.768 441.395 793.595C441.567 794.423 441.762 795.239 442.015 796.043C442.256 796.848 442.543 797.641 442.865 798.422C443.186 799.204 443.542 799.962 443.944 800.698C444.346 801.433 444.771 802.169 445.242 802.87C445.713 803.571 446.207 804.238 446.747 804.893C447.275 805.548 447.849 806.168 448.435 806.766C449.032 807.364 449.652 807.927 450.307 808.455C450.95 808.984 451.628 809.49 452.328 809.961C453.029 810.432 453.752 810.869 454.499 811.26C455.245 811.65 456.003 812.018 456.773 812.34C457.554 812.662 458.346 812.949 459.15 813.19C459.954 813.432 460.769 813.638 461.596 813.811C462.423 813.972 463.25 814.098 464.088 814.179C464.927 814.259 465.765 814.294 466.615 814.294C467.453 814.294 468.292 814.248 469.13 814.179C469.969 814.098 470.796 813.972 471.622 813.811C472.449 813.638 473.265 813.443 474.069 813.19C474.873 812.949 475.665 812.662 476.446 812.34C477.227 812.018 477.985 811.662 478.72 811.26C479.455 810.857 480.19 810.432 480.891 809.961C481.591 809.49 482.269 808.995 482.912 808.455C483.567 807.927 484.187 807.352 484.784 806.766L539.313 752.199H466.627Z" fill="#47722E"/>
<mask id="mask7_25_3596" style="mask-type:luminance" maskUnits="userSpaceOnUse" x="523" y="656" width="76" height="75">
<path d="M598.988 656.788H523.958V730.846H598.988V656.788Z" fill="white"/>
</mask>
<g mask="url(#mask7_25_3596)">
<path d="M579.682 730.203C578.201 730.203 576.926 729.674 575.881 728.629L526.542 679.245C526.037 678.739 525.646 678.153 525.371 677.498C525.107 676.843 524.969 676.154 524.969 675.441C524.969 674.728 525.107 674.039 525.371 673.384C525.646 672.729 526.037 672.143 526.542 671.637L539.382 658.777C539.888 658.283 540.473 657.903 541.139 657.651C541.794 657.386 542.483 657.26 543.195 657.26C543.896 657.26 544.585 657.386 545.239 657.651C545.894 657.915 546.48 658.294 546.997 658.777L596.346 708.16C596.852 708.666 597.242 709.241 597.518 709.907C597.782 710.574 597.92 711.252 597.92 711.976C597.92 712.688 597.782 713.378 597.518 714.033C597.242 714.688 596.852 715.274 596.346 715.78L583.506 728.629C582.438 729.674 581.164 730.203 579.682 730.203ZM543.184 661.087C542.77 661.087 542.414 661.236 542.116 661.535L529.287 674.384C529.149 674.522 529.034 674.694 528.954 674.878C528.885 675.062 528.839 675.257 528.839 675.464C528.839 675.659 528.885 675.855 528.954 676.039C529.034 676.223 529.149 676.383 529.287 676.533L578.625 725.905C578.924 726.204 579.28 726.342 579.694 726.342C580.107 726.342 580.463 726.204 580.762 725.905L593.602 713.056C593.739 712.918 593.854 712.746 593.935 712.562C594.015 712.378 594.049 712.183 594.049 711.976C594.049 711.781 594.015 711.585 593.935 711.401C593.854 711.217 593.739 711.057 593.602 710.907L544.252 661.535C543.953 661.225 543.597 661.087 543.184 661.087Z" fill="#47722E"/>
</g>
<path d="M469.291 783.195C468.682 783.195 468.085 783.138 467.499 783.023C466.902 782.908 466.328 782.724 465.777 782.505C465.225 782.276 464.686 781.988 464.18 781.655C463.686 781.322 463.216 780.942 462.791 780.517C462.366 780.092 461.987 779.632 461.654 779.127C461.321 778.621 461.034 778.092 460.804 777.529C460.574 776.978 460.402 776.403 460.276 775.805C460.161 775.208 460.103 774.622 460.103 774.012C460.103 773.403 460.161 772.806 460.276 772.22C460.39 771.633 460.574 771.047 460.792 770.496C461.022 769.944 461.309 769.404 461.642 768.898C461.975 768.404 462.354 767.933 462.779 767.508C463.204 767.071 463.675 766.703 464.169 766.37C464.663 766.037 465.202 765.749 465.754 765.519C466.316 765.29 466.891 765.117 467.488 764.991C468.074 764.876 468.671 764.818 469.28 764.818C469.888 764.818 470.485 764.876 471.071 765.002C471.668 765.117 472.243 765.301 472.794 765.519C473.345 765.749 473.873 766.037 474.379 766.37C474.884 766.703 475.343 767.082 475.768 767.519C476.193 767.944 476.572 768.416 476.905 768.91C477.238 769.415 477.526 769.944 477.744 770.507C477.973 771.059 478.146 771.633 478.261 772.231C478.375 772.829 478.444 773.426 478.433 774.024C478.433 774.633 478.375 775.219 478.261 775.817C478.146 776.403 477.962 776.978 477.732 777.529C477.503 778.081 477.215 778.609 476.894 779.115C476.561 779.621 476.182 780.081 475.757 780.506C475.332 780.931 474.873 781.31 474.367 781.643C473.862 781.977 473.334 782.264 472.782 782.482C472.231 782.712 471.657 782.885 471.071 783.011C470.485 783.126 469.888 783.183 469.291 783.195ZM469.291 768.691C468.59 768.691 467.913 768.818 467.258 769.094C466.604 769.358 466.029 769.737 465.524 770.231C465.03 770.726 464.64 771.3 464.364 771.944C464.1 772.599 463.962 773.277 463.962 773.978C463.951 774.679 464.088 775.357 464.353 776.012C464.617 776.667 465.007 777.242 465.501 777.748C465.995 778.242 466.569 778.632 467.212 778.908C467.867 779.173 468.545 779.311 469.245 779.311C469.946 779.311 470.623 779.184 471.278 778.908C471.932 778.644 472.507 778.265 473.001 777.77C473.506 777.276 473.885 776.702 474.161 776.047C474.425 775.403 474.562 774.725 474.562 774.012C474.562 773.311 474.436 772.633 474.161 771.978C473.896 771.323 473.517 770.749 473.024 770.254C472.53 769.76 471.955 769.369 471.312 769.094C470.669 768.818 469.992 768.703 469.291 768.691Z" fill="#47722E"/>
<path d="M498.324 780.068C497.716 780.068 497.118 780.011 496.533 779.896C495.936 779.781 495.361 779.597 494.81 779.379C494.259 779.149 493.719 778.862 493.214 778.528C492.708 778.195 492.249 777.816 491.824 777.391C491.388 776.954 491.009 776.494 490.676 776C490.342 775.494 490.055 774.966 489.826 774.414C489.596 773.862 489.424 773.288 489.309 772.69C489.194 772.093 489.125 771.495 489.125 770.897C489.125 770.288 489.183 769.702 489.297 769.105C489.412 768.507 489.596 767.932 489.826 767.381C490.055 766.818 490.331 766.289 490.664 765.783C491.009 765.278 491.376 764.818 491.801 764.393C492.237 763.967 492.697 763.588 493.191 763.255C493.685 762.922 494.224 762.634 494.787 762.416C495.338 762.186 495.913 762.014 496.51 761.887C497.107 761.772 497.693 761.715 498.301 761.715C498.91 761.715 499.507 761.772 500.093 761.899C500.69 762.014 501.264 762.198 501.816 762.416C502.367 762.646 502.895 762.933 503.401 763.266C503.906 763.6 504.365 763.979 504.79 764.404C505.215 764.841 505.594 765.301 505.927 765.795C506.26 766.3 506.547 766.829 506.777 767.392C507.007 767.944 507.179 768.518 507.294 769.116C507.409 769.714 507.466 770.311 507.466 770.909C507.466 771.507 507.409 772.104 507.282 772.702C507.168 773.288 506.984 773.862 506.766 774.414C506.536 774.966 506.249 775.494 505.916 776C505.583 776.494 505.204 776.965 504.779 777.391C504.354 777.816 503.883 778.195 503.389 778.528C502.884 778.862 502.355 779.149 501.804 779.379C501.253 779.609 500.679 779.781 500.093 779.896C499.519 780 498.922 780.068 498.324 780.068ZM498.324 765.576C497.624 765.576 496.946 765.703 496.292 765.979C495.648 766.243 495.074 766.622 494.569 767.116C494.075 767.611 493.685 768.185 493.409 768.829C493.145 769.484 493.007 770.162 493.007 770.863C493.007 771.564 493.133 772.242 493.409 772.897C493.673 773.541 494.052 774.115 494.546 774.621C495.04 775.115 495.614 775.506 496.257 775.782C496.912 776.046 497.589 776.184 498.29 776.184C498.99 776.184 499.668 776.058 500.323 775.782C500.966 775.517 501.54 775.138 502.045 774.644C502.539 774.15 502.93 773.575 503.205 772.932C503.469 772.277 503.607 771.598 503.607 770.897C503.607 770.196 503.481 769.518 503.205 768.863C502.941 768.22 502.562 767.645 502.068 767.139C501.575 766.645 501 766.254 500.357 765.99C499.703 765.714 499.025 765.576 498.324 765.576Z" fill="#47722E"/>
<path d="M519.674 733.949C519.066 733.949 518.469 733.892 517.883 733.777C517.286 733.662 516.711 733.478 516.16 733.26C515.609 733.03 515.069 732.743 514.564 732.409C514.058 732.076 513.599 731.697 513.174 731.272C512.749 730.835 512.37 730.375 512.037 729.881C511.704 729.387 511.417 728.847 511.187 728.295C510.958 727.743 510.785 727.169 510.67 726.571C510.556 725.973 510.487 725.376 510.487 724.778C510.487 724.169 510.544 723.572 510.659 722.985C510.774 722.388 510.958 721.813 511.187 721.262C511.417 720.698 511.704 720.17 512.037 719.664C512.37 719.158 512.749 718.699 513.174 718.273C513.599 717.848 514.058 717.469 514.564 717.136C515.069 716.802 515.597 716.515 516.16 716.297C516.711 716.067 517.286 715.895 517.883 715.768C518.48 715.653 519.077 715.596 519.674 715.596C520.283 715.596 520.88 715.653 521.466 715.78C522.063 715.895 522.637 716.078 523.189 716.297C523.74 716.527 524.28 716.814 524.774 717.147C525.279 717.492 525.738 717.86 526.163 718.296C526.588 718.722 526.967 719.193 527.3 719.687C527.633 720.193 527.92 720.721 528.15 721.273C528.38 721.836 528.552 722.411 528.667 722.997C528.782 723.595 528.839 724.192 528.839 724.79C528.839 725.387 528.782 725.985 528.655 726.583C528.541 727.169 528.357 727.743 528.139 728.295C527.909 728.847 527.622 729.375 527.289 729.881C526.956 730.375 526.577 730.846 526.152 731.272C525.715 731.697 525.256 732.076 524.762 732.409C524.257 732.743 523.729 733.03 523.177 733.26C522.626 733.49 522.052 733.662 521.455 733.777C520.869 733.88 520.272 733.949 519.674 733.949ZM519.674 719.457C518.974 719.457 518.296 719.584 517.642 719.859C516.998 720.124 516.424 720.503 515.919 720.997C515.425 721.491 515.035 722.066 514.759 722.71C514.495 723.365 514.357 724.043 514.357 724.744C514.357 725.445 514.483 726.123 514.759 726.778C515.023 727.433 515.402 728.008 515.896 728.502C516.39 728.996 516.964 729.387 517.607 729.663C518.262 729.927 518.939 730.065 519.64 730.065C520.341 730.076 521.018 729.938 521.673 729.674C522.316 729.41 522.89 729.019 523.395 728.525C523.889 728.031 524.28 727.456 524.555 726.812C524.82 726.169 524.957 725.491 524.957 724.778C524.957 724.077 524.831 723.399 524.555 722.744C524.28 722.089 523.901 721.514 523.407 721.02C522.913 720.526 522.339 720.135 521.696 719.859C521.041 719.595 520.375 719.457 519.674 719.457Z" fill="#47722E"/>
<mask id="mask8_25_3596" style="mask-type:luminance" maskUnits="userSpaceOnUse" x="569" y="746" width="54" height="70">
<path d="M622.968 746.166H569.897V815.121H622.968V746.166Z" fill="white"/>
</mask>
<g mask="url(#mask8_25_3596)">
<path d="M597.104 814.972C596.254 814.972 595.405 814.926 594.566 814.846C593.716 814.766 592.878 814.639 592.04 814.467C591.201 814.294 590.374 814.087 589.559 813.846C588.743 813.593 587.94 813.306 587.159 812.984C586.366 812.651 585.608 812.295 584.85 811.892C584.104 811.49 583.369 811.053 582.668 810.571C581.967 810.1 581.278 809.594 580.624 809.054C579.969 808.514 579.337 807.939 578.729 807.341C578.12 806.744 577.557 806.112 577.018 805.445C576.478 804.79 575.972 804.1 575.502 803.388C575.019 802.687 574.583 801.951 574.181 801.204C573.779 800.446 573.423 799.687 573.09 798.894C572.768 798.113 572.481 797.308 572.228 796.492C571.987 795.676 571.769 794.849 571.608 794.021C571.436 793.182 571.31 792.343 571.229 791.493C571.149 790.643 571.103 789.792 571.103 788.942C571.103 775.07 594.658 749.246 595.669 748.155C596.048 747.741 596.519 747.522 597.093 747.522C597.667 747.522 598.138 747.729 598.517 748.155C599.528 749.246 623.083 775.07 623.083 788.942C623.083 789.792 623.037 790.643 622.956 791.493C622.876 792.343 622.75 793.182 622.577 794.021C622.405 794.849 622.21 795.676 621.957 796.492C621.716 797.308 621.429 798.113 621.107 798.894C620.774 799.676 620.418 800.446 620.016 801.204C619.614 801.963 619.178 802.687 618.707 803.399C618.236 804.112 617.731 804.79 617.191 805.457C616.651 806.112 616.089 806.744 615.48 807.353C614.871 807.962 614.251 808.525 613.585 809.065C612.93 809.605 612.241 810.111 611.541 810.582C610.84 811.053 610.105 811.49 609.347 811.904C608.601 812.306 607.831 812.674 607.039 812.996C606.258 813.329 605.454 813.616 604.638 813.869C603.823 814.11 602.996 814.329 602.158 814.49C601.331 814.662 600.481 814.789 599.631 814.869C598.804 814.926 597.954 814.972 597.104 814.972ZM597.104 752.361C589.812 760.613 574.996 779.345 574.996 788.942C574.985 790.401 575.111 791.849 575.387 793.286C575.662 794.722 576.064 796.113 576.616 797.469C577.167 798.825 577.844 800.112 578.648 801.331C579.452 802.549 580.36 803.687 581.393 804.721C582.427 805.767 583.541 806.686 584.758 807.502C585.964 808.318 587.25 809.008 588.594 809.571C589.938 810.134 591.328 810.559 592.763 810.847C594.187 811.134 595.646 811.283 597.104 811.283C598.563 811.283 600.01 811.145 601.446 810.847C602.87 810.559 604.271 810.134 605.614 809.571C606.958 809.008 608.244 808.318 609.45 807.502C610.656 806.686 611.782 805.755 612.804 804.721C613.838 803.687 614.745 802.549 615.56 801.331C616.364 800.112 617.042 798.825 617.593 797.469C618.144 796.113 618.558 794.722 618.833 793.286C619.098 791.849 619.235 790.401 619.224 788.942C619.212 779.345 604.397 760.601 597.104 752.361Z" fill="#47722E"/>
</g>
<path d="M427.507 889.04V861.63H447.823V866.25H433.008V872.352H446.79V876.972H433.008V884.397H448.317V889.04H427.507Z" fill="white"/>
<path d="M450.435 889.039L457.59 878.811L450.768 869.157H457.154L460.645 874.639L464.378 869.157H470.522L463.803 878.593L471.131 889.028H464.676L460.657 882.845L456.614 889.028H450.435V889.039Z" fill="white"/>
<path d="M474.111 869.169H478.992V872.111C479.646 871.123 480.508 870.318 481.599 869.697C482.678 869.077 483.873 868.767 485.159 868.767C487.49 868.767 489.443 869.674 491.039 871.467C492.647 873.26 493.451 875.766 493.451 879.006C493.451 882.328 492.636 884.914 491.016 886.764C489.385 888.603 487.41 889.522 485.102 889.522C483.999 889.522 483.011 889.304 482.138 888.879C481.254 888.43 480.324 887.672 479.336 886.603V896.59H474.111V869.169ZM479.302 878.765C479.302 880.983 479.738 882.638 480.623 883.718C481.495 884.787 482.586 885.327 483.873 885.327C485.079 885.327 486.089 884.845 486.882 883.868C487.697 882.879 488.099 881.271 488.099 879.029C488.099 876.961 487.686 875.409 486.859 874.409C486.032 873.387 484.975 872.881 483.723 872.881C482.46 872.881 481.403 873.387 480.565 874.386C479.715 875.386 479.302 876.846 479.302 878.765Z" fill="white"/>
<path d="M509.106 882.718L514.343 883.603C512.919 887.545 510.048 889.522 505.706 889.522C502.594 889.522 500.217 888.603 498.574 886.741C496.932 884.89 496.105 882.397 496.105 879.271C496.105 875.984 496.955 873.421 498.666 871.559C500.389 869.697 502.571 868.755 505.201 868.755C508.118 868.755 510.415 869.709 512.092 871.628C513.769 873.536 514.607 876.351 514.607 880.11V880.615H501.446C501.492 882.167 501.916 883.385 502.709 884.258C503.524 885.143 504.535 885.58 505.775 885.58C507.452 885.569 508.566 884.626 509.106 882.718ZM509.393 877.409C509.347 875.915 508.945 874.765 508.199 873.984C507.464 873.191 506.556 872.789 505.5 872.789C504.351 872.789 503.41 873.203 502.674 874.03C501.939 874.846 501.572 875.926 501.572 877.259V877.397H509.393V877.409Z" fill="white"/>
<path d="M523.927 889.039H518.667V869.169H523.525V872.019C524.363 870.674 525.121 869.801 525.776 869.387C526.442 868.973 527.223 868.767 528.096 868.767C529.256 868.767 530.404 869.1 531.541 869.743L529.887 874.318C529.026 873.743 528.211 873.456 527.453 873.456C526.718 873.456 526.086 873.662 525.558 874.076C525.041 874.478 524.65 875.214 524.363 876.283C524.076 877.34 523.927 879.547 523.927 882.914V889.039Z" fill="white"/>
<path d="M533.784 866.491V861.63H539.021V866.491H533.784ZM533.784 889.04V869.169H539.021V889.04H533.784Z" fill="white"/>
<path d="M544.03 869.169H548.865V871.869C550.587 869.801 552.655 868.755 555.067 868.755C557.605 868.755 559.454 869.801 560.637 871.869C562.371 869.801 564.381 868.755 566.666 868.755C568.021 868.755 569.181 869.008 570.157 869.525C571.122 870.019 571.88 870.755 572.408 871.731C572.937 872.708 573.201 874.237 573.201 876.328V889.039H567.964V877.719C567.964 875.581 567.711 874.225 567.217 873.651C566.735 873.076 566.046 872.789 565.139 872.789C564.404 872.789 563.715 873.019 563.083 873.455C562.463 873.892 561.992 874.547 561.693 875.421C561.406 876.283 561.257 877.65 561.257 879.512V889.039H556.02V878.167C556.02 876.237 555.916 874.995 555.71 874.432C555.514 873.858 555.227 873.444 554.848 873.191C554.481 872.927 553.953 872.789 553.263 872.789C552.437 872.789 551.702 873.007 551.058 873.432C550.438 873.869 549.979 874.49 549.692 875.294C549.416 876.11 549.29 877.478 549.29 879.386V889.039H544.03V869.169Z" fill="white"/>
<path d="M589.917 882.718L595.154 883.603C593.729 887.545 590.858 889.522 586.517 889.522C583.405 889.522 581.027 888.603 579.385 886.741C577.743 884.89 576.916 882.397 576.916 879.271C576.916 875.984 577.766 873.421 579.477 871.559C581.2 869.697 583.382 868.755 586.012 868.755C588.929 868.755 591.226 869.709 592.903 871.628C594.579 873.536 595.418 876.351 595.418 880.11V880.615H582.256C582.302 882.167 582.727 883.385 583.52 884.258C584.335 885.143 585.346 885.58 586.586 885.58C588.263 885.569 589.377 884.626 589.917 882.718ZM590.204 877.409C590.158 875.915 589.756 874.765 589.009 873.984C588.274 873.191 587.367 872.789 586.31 872.789C585.162 872.789 584.22 873.203 583.485 874.03C582.75 874.846 582.383 875.926 582.383 877.259V877.397H590.204V877.409Z" fill="white"/>
<path d="M617.727 889.039H612.49V878.892C612.49 876.754 612.375 875.375 612.157 874.754C611.95 874.134 611.594 873.651 611.077 873.318C610.56 872.973 609.951 872.789 609.239 872.789C608.355 872.789 607.551 873.042 606.828 873.536C606.093 874.019 605.587 874.674 605.323 875.501C605.07 876.317 604.944 877.834 604.944 880.052V889.051H599.684V869.18H604.565V872.122C606.299 869.893 608.481 868.767 611.1 868.767C612.283 868.767 613.351 868.973 614.304 869.387C615.257 869.789 615.981 870.318 616.463 870.973C616.946 871.628 617.279 872.375 617.474 873.203C617.669 874.019 617.761 875.191 617.761 876.719V889.039H617.727Z" fill="white"/>
<path d="M632.199 869.168V873.386H628.581V881.385C628.581 883.005 628.615 883.936 628.673 884.212C628.753 884.465 628.914 884.695 629.155 884.879C629.396 885.063 629.684 885.143 630.04 885.143C630.522 885.143 631.222 884.971 632.141 884.637L632.601 888.706C631.372 889.246 629.982 889.522 628.443 889.522C627.329 889.522 626.341 889.292 625.503 888.855C624.653 888.396 624.079 887.729 623.78 886.867C623.47 885.994 623.321 884.373 623.321 882.029V873.386H620.909V869.168H623.321V865.215L628.581 862.146V869.157H632.199V869.168Z" fill="white"/>
</g>
<g clip-path="url(#clip3_25_3596)">
<mask id="mask9_25_3596" style="mask-type:luminance" maskUnits="userSpaceOnUse" x="796" y="237" width="369" height="91">
<path d="M1165 237H796V328H1165V237Z" fill="white"/>
</mask>
<g mask="url(#mask9_25_3596)">
<mask id="mask10_25_3596" style="mask-type:luminance" maskUnits="userSpaceOnUse" x="796" y="237" width="369" height="91">
<path d="M837.454 237H1123.55C1134.54 237 1145.08 241.332 1152.86 249.046C1160.62 256.761 1165 267.219 1165 278.123V286.877C1165 297.792 1160.63 308.25 1152.86 315.954C1145.08 323.668 1134.54 328 1123.55 328H837.454C814.561 328 796 309.587 796 286.877V278.123C796 255.413 814.561 237 837.454 237Z" fill="white"/>
</mask>
<g mask="url(#mask10_25_3596)">
<path d="M796 237V328H1165V237H796Z" fill="url(#paint1_radial_25_3596)"/>
</g>
</g>
<path d="M831.82 274.32C831.82 272.879 831.613 271.805 831.221 271.108C830.818 270.411 830.011 270.056 828.801 270.056H827.96V269.199H839.125C841.878 269.199 844.355 269.794 846.567 270.959C848.78 272.125 849.886 274.377 849.886 277.725C849.886 279.954 849.31 281.657 848.157 282.846C847.017 284.034 845.738 284.834 844.321 285.223C842.892 285.623 841.602 285.817 840.426 285.817H835.703V297.338H831.843V274.32H831.82ZM838.894 284.343C839.816 284.343 840.795 284.114 841.821 283.657C842.858 283.177 843.745 282.434 844.459 281.417C845.196 280.388 845.565 279.086 845.565 277.508C845.565 275.954 845.196 274.674 844.459 273.645C843.745 272.617 842.858 271.874 841.821 271.405C840.795 270.925 839.816 270.696 838.894 270.696C837.903 270.696 836.832 270.834 835.68 271.131V283.92C836.832 284.206 837.903 284.343 838.894 284.343Z" fill="#F8F0D2"/>
<path d="M854.421 282.423C854.421 280.983 854.214 279.909 853.822 279.211C853.419 278.514 852.624 278.16 851.425 278.16H850.988V277.303H854.421C855.504 277.303 856.334 277.463 856.898 277.76C857.451 278.069 857.854 278.56 858.096 279.234H858.292C858.822 278.583 859.513 278.034 860.378 277.566C861.253 277.108 862.279 276.88 863.454 276.88C864.606 276.88 865.47 277.097 866.046 277.52C866.53 277.886 867.025 278.537 867.555 279.451L865.827 280.732C865.505 280.297 865.044 279.989 864.433 279.783C863.834 279.566 863.166 279.451 862.394 279.451C861.53 279.451 860.735 279.646 860.02 280.023C859.306 280.4 858.73 280.926 858.292 281.566V297.35H854.432V282.423H854.421Z" fill="#F8F0D2"/>
<path d="M879.456 297.772C877.497 297.772 875.804 297.315 874.364 296.389C872.935 295.452 871.852 294.195 871.103 292.606C870.366 291.018 869.997 289.258 869.997 287.315C869.997 285.383 870.366 283.623 871.103 282.034C871.852 280.446 872.935 279.2 874.364 278.274C875.804 277.337 877.497 276.868 879.456 276.868C881.392 276.868 883.085 277.337 884.526 278.274C885.966 279.2 887.049 280.457 887.786 282.034C888.535 283.623 888.915 285.383 888.915 287.315C888.915 289.258 888.535 291.018 887.786 292.606C887.049 294.195 885.966 295.452 884.526 296.389C883.074 297.315 881.38 297.772 879.456 297.772ZM879.456 296.058C880.516 296.058 881.449 295.681 882.267 294.915C883.085 294.149 883.708 293.109 884.134 291.772C884.583 290.423 884.802 288.937 884.802 287.315C884.802 285.692 884.572 284.217 884.134 282.891C883.696 281.554 883.074 280.514 882.267 279.748C881.449 278.971 880.516 278.583 879.456 278.583C878.385 278.583 877.44 278.971 876.622 279.748C875.804 280.514 875.17 281.554 874.721 282.891C874.283 284.229 874.076 285.703 874.076 287.315C874.076 288.937 874.294 290.423 874.721 291.772C875.17 293.109 875.804 294.149 876.622 294.915C877.44 295.681 878.373 296.058 879.456 296.058Z" fill="#F8F0D2"/>
<path d="M894.585 282.423C894.585 280.983 894.377 279.908 893.986 279.211C893.582 278.514 892.776 278.16 891.566 278.16H890.725V277.302H894.585C895.645 277.302 896.44 277.44 897.004 277.737C897.557 278.023 897.972 278.445 898.226 279.017H898.444C899.055 278.411 899.839 277.908 900.795 277.497C901.751 277.085 902.834 276.88 904.032 276.88C905.231 276.88 906.268 277.108 907.132 277.542C907.996 277.988 908.676 278.765 909.194 279.874C909.931 278.937 910.876 278.205 912.028 277.68C913.192 277.142 914.39 276.868 915.623 276.868C917.455 276.868 918.918 277.44 920.013 278.583C921.096 279.725 921.649 281.714 921.649 284.56V297.349H917.789V284.56C917.789 282.514 917.501 281.051 916.925 280.16C916.349 279.257 915.496 278.8 914.356 278.8C913.549 278.8 912.708 279.097 911.809 279.68C910.911 280.251 910.254 280.88 909.839 281.566C909.978 282 910.058 282.994 910.058 284.56V297.349H906.164V284.56C906.164 282.514 905.876 281.051 905.3 280.16C904.735 279.257 903.883 278.8 902.73 278.8C901.21 278.8 899.781 279.554 898.433 281.063V297.349H894.573V282.423H894.585Z" fill="#F8F0D2"/>
<path d="M935.977 297.772C934.019 297.772 932.325 297.315 930.885 296.389C929.456 295.452 928.373 294.195 927.624 292.606C926.887 291.018 926.518 289.258 926.518 287.315C926.518 285.383 926.887 283.623 927.624 282.034C928.373 280.446 929.456 279.2 930.885 278.274C932.325 277.337 934.019 276.868 935.977 276.868C937.913 276.868 939.607 277.337 941.047 278.274C942.487 279.2 943.57 280.457 944.307 282.034C945.056 283.623 945.436 285.383 945.436 287.315C945.436 289.258 945.056 291.018 944.307 292.606C943.57 294.195 942.487 295.452 941.047 296.389C939.607 297.315 937.913 297.772 935.977 297.772ZM935.977 296.058C937.037 296.058 937.971 295.681 938.789 294.915C939.607 294.149 940.229 293.109 940.655 291.772C941.104 290.423 941.323 288.937 941.323 287.315C941.323 285.692 941.093 284.217 940.655 282.891C940.217 281.554 939.595 280.514 938.789 279.748C937.971 278.971 937.037 278.583 935.977 278.583C934.906 278.583 933.961 278.971 933.143 279.748C932.325 280.514 931.691 281.554 931.242 282.891C930.804 284.229 930.597 285.703 930.597 287.315C930.597 288.937 930.816 290.423 931.242 291.772C931.691 293.109 932.325 294.149 933.143 294.915C933.961 295.681 934.906 296.058 935.977 296.058Z" fill="#F8F0D2"/>
<path d="M956.44 297.772C954.839 297.772 953.572 297.315 952.65 296.412C951.74 295.497 951.279 294.092 951.279 292.217V279.005H948.283V277.291H951.279V273.462L953.445 270.913H955.15V277.291H960.312V279.005H955.15V292.217C955.15 294.777 956.164 296.046 958.169 296.046C958.848 296.046 959.424 295.978 959.897 295.829C960.381 295.692 960.865 295.475 961.383 295.189L961.821 296.046C961.164 296.538 960.427 296.949 959.609 297.28C958.802 297.612 957.742 297.772 956.44 297.772Z" fill="#F8F0D2"/>
<path d="M967.268 274.753C966.612 274.753 966.047 274.49 965.563 273.942C965.091 273.405 964.872 272.765 964.872 272.01C964.872 271.427 965.045 270.959 965.402 270.627C965.748 270.284 966.231 270.102 966.842 270.102C967.499 270.102 968.052 270.376 968.524 270.913C969.008 271.45 969.239 272.09 969.239 272.822C969.239 273.427 969.054 273.908 968.686 274.25C968.328 274.582 967.856 274.753 967.268 274.753ZM965.632 282.422C965.632 280.982 965.425 279.908 965.033 279.211C964.63 278.514 963.823 278.159 962.614 278.159H961.773V277.302H965.632C966.692 277.302 967.476 277.439 968.006 277.702C968.536 277.976 968.904 278.468 969.135 279.176C969.377 279.885 969.492 280.971 969.492 282.411V297.338H965.632V282.422Z" fill="#F8F0D2"/>
<path d="M983.864 297.772C981.905 297.772 980.211 297.315 978.771 296.389C977.343 295.452 976.26 294.195 975.511 292.606C974.773 291.018 974.405 289.258 974.405 287.315C974.405 285.383 974.773 283.623 975.511 282.034C976.26 280.446 977.343 279.2 978.771 278.274C980.211 277.337 981.905 276.868 983.864 276.868C985.799 276.868 987.493 277.337 988.933 278.274C990.373 279.2 991.456 280.457 992.194 282.034C992.943 283.623 993.323 285.383 993.323 287.315C993.323 289.258 992.943 291.018 992.194 292.606C991.456 294.195 990.373 295.452 988.933 296.389C987.493 297.315 985.799 297.772 983.864 297.772ZM983.864 296.058C984.924 296.058 985.857 295.681 986.675 294.915C987.493 294.149 988.115 293.109 988.541 291.772C988.991 290.423 989.21 288.937 989.21 287.315C989.21 285.692 988.979 284.217 988.541 282.891C988.104 281.554 987.481 280.514 986.675 279.748C985.857 278.971 984.924 278.583 983.864 278.583C982.792 278.583 981.847 278.971 981.029 279.748C980.211 280.514 979.578 281.554 979.128 282.891C978.691 284.229 978.483 285.703 978.483 287.315C978.483 288.937 978.702 290.423 979.128 291.772C979.578 293.109 980.211 294.149 981.029 294.915C981.847 295.681 982.792 296.058 983.864 296.058Z" fill="#F8F0D2"/>
<path d="M998.992 282.423C998.992 280.983 998.785 279.909 998.393 279.211C997.99 278.514 997.183 278.16 995.974 278.16H995.133V277.303H998.992C1000.05 277.303 1000.85 277.44 1001.41 277.737C1001.96 278.023 1002.38 278.446 1002.63 279.017H1002.85C1003.46 278.411 1004.25 277.909 1005.2 277.497C1006.16 277.086 1007.24 276.88 1008.44 276.88C1010.58 276.88 1012.33 277.451 1013.69 278.594C1015.05 279.737 1015.73 281.726 1015.73 284.572V297.361H1011.87V284.572C1011.87 282.572 1011.41 281.109 1010.5 280.194C1009.6 279.28 1008.49 278.811 1007.14 278.811C1005.62 278.811 1004.19 279.566 1002.84 281.074V297.361H998.981V282.423H998.992Z" fill="#F8F0D2"/>
<path d="M1032.86 274.182C1032.15 272.548 1031.46 271.428 1030.82 270.822C1030.2 270.205 1029.3 269.839 1028.14 269.702V268.868C1028.28 268.868 1028.5 268.856 1028.76 268.822C1029.04 268.788 1029.31 268.776 1029.6 268.776C1031.04 268.776 1032.41 269.142 1033.73 269.874C1035.04 270.582 1036.16 272.034 1037.09 274.182L1044.44 291.372L1046.99 285.543C1048.19 282.777 1050.49 277.337 1053.9 269.211H1055.96L1043.62 297.784H1042.85L1032.86 274.182Z" fill="#F8F0D2"/>
<path d="M1062.27 274.753C1061.61 274.753 1061.04 274.49 1060.56 273.942C1060.09 273.405 1059.87 272.765 1059.87 272.01C1059.87 271.427 1060.04 270.959 1060.4 270.627C1060.74 270.284 1061.23 270.102 1061.84 270.102C1062.5 270.102 1063.05 270.376 1063.52 270.913C1064 271.45 1064.24 272.09 1064.24 272.822C1064.24 273.427 1064.05 273.908 1063.68 274.25C1063.34 274.582 1062.85 274.753 1062.27 274.753ZM1060.64 282.422C1060.64 280.982 1060.43 279.908 1060.04 279.211C1059.64 278.514 1058.83 278.159 1057.62 278.159H1056.78V277.302H1060.64C1061.7 277.302 1062.48 277.439 1063.01 277.702C1063.54 277.976 1063.91 278.468 1064.14 279.176C1064.39 279.885 1064.5 280.971 1064.5 282.411V297.338H1060.64V282.422Z" fill="#F8F0D2"/>
<path d="M1077.24 297.773C1074.74 297.773 1072.82 296.801 1071.48 294.847C1070.14 292.881 1069.48 290.367 1069.48 287.326C1069.48 284.275 1070.17 281.783 1071.57 279.829C1072.96 277.863 1074.98 276.88 1077.64 276.88C1078.75 276.88 1079.7 276.994 1080.52 277.234C1081.35 277.463 1082.18 277.771 1083.02 278.16V274.331C1083.02 272.891 1082.81 271.817 1082.42 271.12C1082.02 270.422 1081.22 270.068 1080.02 270.068H1079.16V269.211H1083.02C1084.09 269.211 1084.89 269.348 1085.42 269.611C1085.95 269.885 1086.31 270.377 1086.55 271.085C1086.79 271.794 1086.9 272.88 1086.9 274.32V297.35H1084.74L1083.23 295.418H1083.01C1082.39 296.127 1081.65 296.698 1080.8 297.133C1079.97 297.567 1078.77 297.773 1077.24 297.773ZM1078.51 296.058C1079.7 296.058 1080.59 295.853 1081.18 295.441C1081.79 295.007 1082.4 294.367 1083.02 293.51V279.863C1082.17 279.474 1081.42 279.166 1080.78 278.937C1080.16 278.697 1079.54 278.583 1078.94 278.583C1077.12 278.583 1075.76 279.383 1074.89 280.983C1074 282.572 1073.56 284.686 1073.56 287.315C1073.56 289.932 1073.98 292.047 1074.8 293.647C1075.65 295.27 1076.88 296.058 1078.51 296.058Z" fill="#F8F0D2"/>
<path d="M1100.96 297.772C1099 297.772 1097.37 297.315 1096.02 296.389C1094.67 295.452 1093.66 294.195 1092.97 292.629C1092.27 291.052 1091.93 289.292 1091.93 287.315C1091.93 285.383 1092.27 283.623 1092.97 282.034C1093.65 280.446 1094.65 279.2 1095.94 278.274C1097.25 277.337 1098.77 276.868 1100.52 276.868C1103.42 276.868 1105.57 277.68 1106.98 279.291C1108.39 280.903 1109.11 283.211 1109.11 286.24L1109.02 287.955H1096.01C1096.01 290.332 1096.51 292.286 1097.54 293.784C1098.58 295.292 1100.01 296.047 1101.81 296.047C1103.16 296.047 1104.29 295.772 1105.22 295.212C1106.15 294.641 1107.01 293.784 1107.82 292.641L1108.68 293.281C1107.74 294.835 1106.63 295.967 1105.36 296.687C1104.11 297.418 1102.64 297.772 1100.96 297.772ZM1105.04 286.252C1105.04 283.76 1104.66 281.863 1103.91 280.56C1103.17 279.245 1102.04 278.583 1100.52 278.583C1099.66 278.583 1098.88 278.914 1098.2 279.588C1097.51 280.251 1096.98 281.177 1096.58 282.354C1096.2 283.52 1096.01 284.823 1096.01 286.263H1105.04V286.252Z" fill="#F8F0D2"/>
<path d="M1122.38 297.772C1120.42 297.772 1118.72 297.315 1117.28 296.389C1115.85 295.452 1114.77 294.195 1114.02 292.606C1113.28 291.018 1112.92 289.258 1112.92 287.315C1112.92 285.383 1113.28 283.623 1114.02 282.034C1114.77 280.446 1115.85 279.2 1117.28 278.274C1118.72 277.337 1120.42 276.868 1122.38 276.868C1124.31 276.868 1126 277.337 1127.44 278.274C1128.88 279.2 1129.97 280.457 1130.71 282.034C1131.45 283.623 1131.83 285.383 1131.83 287.315C1131.83 289.258 1131.45 291.018 1130.71 292.606C1129.97 294.195 1128.88 295.452 1127.44 296.389C1125.99 297.315 1124.3 297.772 1122.38 297.772ZM1122.38 296.058C1123.44 296.058 1124.37 295.681 1125.19 294.915C1126 294.149 1126.63 293.109 1127.05 291.772C1127.5 290.423 1127.72 288.937 1127.72 287.315C1127.72 285.692 1127.49 284.217 1127.05 282.891C1126.62 281.554 1125.99 280.514 1125.19 279.748C1124.37 278.971 1123.44 278.583 1122.38 278.583C1121.3 278.583 1120.36 278.971 1119.54 279.748C1118.72 280.514 1118.09 281.554 1117.64 282.891C1117.2 284.229 1116.99 285.703 1116.99 287.315C1116.99 288.937 1117.21 290.423 1117.64 291.772C1118.09 293.109 1118.72 294.149 1119.54 294.915C1120.36 295.681 1121.29 296.058 1122.38 296.058Z" fill="#F8F0D2"/>
</g>
<g clip-path="url(#clip4_25_3596)">
<mask id="mask11_25_3596" style="mask-type:luminance" maskUnits="userSpaceOnUse" x="1265" y="130" width="333" height="315">
<path d="M1598 130H1265V445H1598V130Z" fill="white"/>
</mask>
<g mask="url(#mask11_25_3596)">
<mask id="mask12_25_3596" style="mask-type:luminance" maskUnits="userSpaceOnUse" x="1265" y="130" width="333" height="315">
<path d="M1306.45 130H1556.35C1567.34 130 1577.88 134.356 1585.65 142.113C1593.43 149.859 1597.79 160.386 1597.79 171.35V403.65C1597.79 414.614 1593.43 425.129 1585.65 432.887C1577.88 440.633 1567.34 445 1556.35 445H1306.45C1295.46 445 1284.92 440.644 1277.14 432.887C1269.37 425.141 1265 414.625 1265 403.65V171.35C1265 160.386 1269.37 149.859 1277.14 142.113C1284.92 134.356 1295.46 130 1306.45 130Z" fill="white"/>
</mask>
<g mask="url(#mask12_25_3596)">
<path d="M1265 130H1598V445H1265V130Z" fill="#9FC7AA"/>
</g>
</g>
<path d="M1410.45 211.838L1396.23 240.225L1391.32 237.788L1405.55 209.379L1410.45 211.838ZM1419.9 254.947L1422.35 259.843L1417.45 262.291L1414.99 257.395L1419.9 254.947ZM1429.7 250.051L1432.16 254.947L1427.25 257.383L1424.81 252.487L1429.7 250.051ZM1439.52 245.155L1441.96 250.051L1437.05 252.499L1434.6 247.603L1439.52 245.155ZM1391.26 250.132L1386.36 247.672L1389.1 242.202L1394 244.661L1391.26 250.132ZM1378.44 248.35L1405.8 275.634L1455.46 250.867L1403.28 198.806L1378.44 248.35Z" fill="#3C5923"/>
<path d="M1414.85 295.619L1416.85 293.631C1418.21 292.275 1418.96 290.459 1418.96 288.551C1418.96 286.644 1418.21 284.839 1416.85 283.483L1412.02 278.656L1409.88 279.725L1411.87 281.713L1406.39 287.184L1414.85 295.619Z" fill="#3C5923"/>
<path d="M1411.08 184.728C1410.12 183.786 1408.86 183.269 1407.53 183.269C1404.76 183.269 1402.52 185.51 1402.52 188.268C1402.52 189.601 1403.02 190.865 1403.98 191.808L1462.49 250.178C1463.43 251.121 1464.7 251.638 1466.03 251.638C1468.8 251.638 1471.05 249.397 1471.05 246.639C1471.05 245.305 1470.53 244.041 1469.58 243.099L1411.08 184.728Z" fill="#3C5923"/>
<mask id="mask13_25_3596" style="mask-type:luminance" maskUnits="userSpaceOnUse" x="1350" y="272" width="32" height="32">
<path d="M1381.61 272.956H1350.46V303.607H1381.61V272.956Z" fill="white"/>
</mask>
<g mask="url(#mask13_25_3596)">
<path d="M1350.46 280.093C1351.03 292.781 1361.28 303.01 1374 303.573L1380.83 296.758L1357.29 273.278L1350.46 280.093Z" fill="#3C5923"/>
</g>
<mask id="mask14_25_3596" style="mask-type:luminance" maskUnits="userSpaceOnUse" x="1395" y="289" width="29" height="29">
<path d="M1423.08 289.805H1395.43V317.169H1423.08V289.805Z" fill="white"/>
</mask>
<g mask="url(#mask14_25_3596)">
<path d="M1402.53 291.058L1395.43 298.126L1413.16 315.813C1414.11 316.755 1415.37 317.272 1416.71 317.272C1419.47 317.272 1421.72 315.031 1421.72 312.273C1421.72 310.94 1421.19 309.676 1420.25 308.733L1402.53 291.058Z" fill="#3C5923"/>
</g>
<path d="M1385.27 286.379L1381.4 282.518L1389.63 274.312L1393.5 278.174L1385.27 286.379ZM1373.18 274.312L1381.4 266.106L1385.27 269.968L1377.05 278.174L1373.18 274.312ZM1364.95 266.106L1373.18 257.901L1377.05 261.762L1368.82 269.968L1364.95 266.106ZM1372.37 250.028L1357.06 265.302L1388.82 296.987L1404.13 281.713L1372.37 250.028Z" fill="#3C5923"/>
<mask id="mask15_25_3596" style="mask-type:luminance" maskUnits="userSpaceOnUse" x="1436" y="158" width="74" height="39">
<path d="M1509.36 158.651H1436.9V196.933H1509.36V158.651Z" fill="white"/>
</mask>
<g mask="url(#mask15_25_3596)">
<path d="M1495.72 183.268C1492.69 183.268 1490.24 180.809 1490.24 177.798C1490.24 174.787 1492.69 172.328 1495.72 172.328C1498.74 172.328 1501.2 174.787 1501.2 177.798C1501.2 180.809 1498.74 183.268 1495.72 183.268ZM1473.79 183.268C1470.76 183.268 1468.3 180.809 1468.3 177.798C1468.3 174.787 1470.75 172.328 1473.79 172.328C1476.81 172.328 1479.27 174.787 1479.27 177.798C1479.27 180.809 1476.81 183.268 1473.79 183.268ZM1451.85 183.268C1448.83 183.268 1446.37 180.809 1446.37 177.798C1446.37 174.787 1448.81 172.328 1451.85 172.328C1454.87 172.328 1457.34 174.787 1457.34 177.798C1457.34 180.809 1454.88 183.268 1451.85 183.268ZM1490.24 158.651H1457.35C1446.77 158.651 1438.16 167.236 1438.16 177.798V196.945H1490.24C1500.82 196.945 1509.43 188.36 1509.43 177.798C1509.43 167.236 1500.81 158.651 1490.24 158.651Z" fill="#3C5923"/>
</g>
<path d="M1362.7 370.439H1372.83C1375.57 370.439 1377.63 370.727 1379.03 371.301C1380.42 371.865 1381.63 372.761 1382.66 373.979C1383.68 375.197 1384.44 376.634 1384.96 378.312C1385.47 379.978 1385.73 382.012 1385.73 384.414C1385.73 386.334 1385.52 388.035 1385.11 389.517C1384.71 390.988 1384.13 392.287 1383.36 393.425C1382.6 394.562 1381.72 395.447 1380.72 396.079C1379.71 396.7 1378.64 397.16 1377.51 397.447C1376.37 397.723 1374.93 397.849 1373.16 397.849H1362.73V370.439H1362.7ZM1368.28 375.059V393.206H1372.43C1373.95 393.206 1375.05 393.137 1375.77 392.988C1376.64 392.747 1377.39 392.367 1378 391.839C1378.61 391.298 1379.1 390.425 1379.46 389.207C1379.83 387.977 1380.02 386.299 1380.02 384.173C1380.02 382.369 1379.88 380.932 1379.61 379.84C1379.36 378.737 1378.92 377.829 1378.32 377.105C1377.73 376.37 1376.95 375.852 1376 375.519C1375.05 375.197 1373.31 375.036 1370.79 375.036H1368.28V375.059Z" fill="white"/>
<path d="M1395.46 397.86H1390.18V377.989H1395.05V380.839C1395.89 379.495 1396.65 378.621 1397.31 378.208C1397.98 377.794 1398.76 377.587 1399.64 377.587C1400.8 377.587 1401.95 377.92 1403.09 378.564L1401.44 383.138C1400.57 382.563 1399.75 382.276 1398.99 382.276C1398.26 382.276 1397.62 382.483 1397.09 382.896C1396.57 383.299 1396.18 384.034 1395.89 385.103C1395.61 386.16 1395.46 388.367 1395.46 391.734V397.86Z" fill="white"/>
<path d="M1402.86 377.979H1408.44L1413.22 392.103L1417.85 377.979H1423.33L1415.02 400.561C1414.42 402.055 1413.81 403.159 1413.18 403.871C1412.55 404.572 1411.77 405.078 1410.85 405.4C1409.94 405.733 1408.85 405.905 1407.59 405.905C1406.56 405.905 1405.56 405.802 1404.59 405.595L1404.13 401.504C1404.95 401.665 1405.69 401.745 1406.37 401.745C1407.58 401.745 1408.49 401.389 1409.08 400.665C1409.66 399.952 1410.11 399.021 1410.42 397.907L1402.86 377.979Z" fill="white"/>
<path d="M1437.55 397.861V370.439H1443.09V393.206H1456.89V397.849H1437.55V397.861Z" fill="white"/>
<path d="M1464.71 384.092L1459.96 383.208C1460.49 381.288 1461.4 379.875 1462.71 378.967C1464.02 378.047 1465.97 377.576 1468.56 377.576C1470.92 377.576 1472.67 377.852 1473.81 378.415C1474.96 378.955 1475.78 379.656 1476.25 380.518C1476.74 381.369 1476.97 382.92 1476.97 385.184L1476.88 391.333C1476.88 393.08 1476.96 394.367 1477.12 395.183C1477.29 396.01 1477.61 396.895 1478.07 397.838H1472.89C1472.76 397.539 1472.62 397.125 1472.49 396.596C1472.35 396.056 1472.24 395.746 1472.2 395.665C1470.38 397.435 1468.32 398.32 1466.04 398.32C1463.99 398.32 1462.37 397.769 1461.19 396.642C1460.01 395.528 1459.44 394.114 1459.44 392.402C1459.44 391.287 1459.7 390.298 1460.23 389.437C1460.77 388.563 1461.51 387.897 1462.46 387.425C1463.42 386.943 1464.83 386.529 1466.69 386.161C1469.13 385.701 1470.83 385.288 1471.78 384.92V384.368C1471.78 383.345 1471.53 382.633 1471.03 382.208C1470.54 381.794 1469.61 381.587 1468.22 381.587C1467.28 381.587 1466.54 381.771 1466.01 382.139C1465.47 382.518 1465.04 383.162 1464.71 384.092ZM1471.76 388.322C1471.1 388.552 1470.04 388.816 1468.57 389.138C1467.1 389.448 1466.15 389.747 1465.71 390.046C1465.01 390.528 1464.65 391.137 1464.65 391.884C1464.65 392.62 1464.92 393.264 1465.47 393.804C1466.02 394.332 1466.73 394.597 1467.58 394.597C1468.17 394.597 1468.74 394.482 1469.28 394.24C1469.84 393.999 1470.32 393.7 1470.7 393.332C1471.08 392.965 1471.36 392.562 1471.52 392.114C1471.68 391.655 1471.76 390.735 1471.76 389.356V388.322Z" fill="white"/>
<path d="M1481.9 397.861V370.439H1487.18V380.323C1488.81 378.496 1490.74 377.565 1492.96 377.565C1495.37 377.565 1497.36 378.438 1498.94 380.174C1500.53 381.921 1501.31 384.426 1501.31 387.69C1501.31 391.092 1500.51 393.712 1498.89 395.562C1497.29 397.401 1495.33 398.32 1493.02 398.32C1491.88 398.32 1490.76 398.033 1489.66 397.458C1488.56 396.872 1487.61 396.022 1486.78 394.919V397.838H1481.9V397.861ZM1487.13 387.494C1487.13 389.735 1487.57 391.402 1488.42 392.494C1489.28 393.585 1490.39 394.149 1491.74 394.149C1492.93 394.149 1493.93 393.666 1494.74 392.689C1495.55 391.701 1495.96 390.138 1495.96 388C1495.96 385.725 1495.54 384.081 1494.71 383.093C1493.88 382.104 1492.82 381.61 1491.54 381.61C1490.3 381.61 1489.25 382.104 1488.4 383.07C1487.55 384.012 1487.13 385.495 1487.13 387.494Z" fill="white"/>
</g>
<g clip-path="url(#clip5_25_3596)">
<mask id="mask16_25_3596" style="mask-type:luminance" maskUnits="userSpaceOnUse" x="362" y="133" width="332" height="315">
<path d="M694 133H362V448H694V133Z" fill="white"/>
</mask>
<g mask="url(#mask16_25_3596)">
<mask id="mask17_25_3596" style="mask-type:luminance" maskUnits="userSpaceOnUse" x="362" y="133" width="332" height="315">
<path d="M403.322 133H652.471C663.428 133 673.936 137.356 681.688 145.113C689.429 152.859 693.793 163.386 693.793 174.35V406.65C693.793 417.614 689.441 428.129 681.688 435.887C673.936 443.633 663.428 448 652.471 448H403.322C392.354 448 381.846 443.644 374.105 435.887C366.353 428.141 362 417.625 362 406.65V174.35C362 163.386 366.353 152.859 374.105 145.113C381.857 137.356 392.366 133 403.322 133Z" fill="white"/>
</mask>
<g mask="url(#mask17_25_3596)">
<path d="M362 133H694V448H362V133Z" fill="#9FC7AA"/>
</g>
</g>
<mask id="mask18_25_3596" style="mask-type:luminance" maskUnits="userSpaceOnUse" x="495" y="183" width="71" height="71">
<path d="M565.44 183.729H495.004V253.351H565.44V183.729Z" fill="white"/>
</mask>
<g mask="url(#mask18_25_3596)">
<path d="M495.269 218.436C495.269 199.359 510.727 183.89 529.792 183.89C548.856 183.89 564.315 199.347 564.315 218.436C564.315 237.525 548.856 252.983 529.792 252.983C510.727 252.983 495.269 237.514 495.269 218.436Z" fill="#47722E"/>
</g>
<mask id="mask19_25_3596" style="mask-type:luminance" maskUnits="userSpaceOnUse" x="469" y="251" width="121" height="73">
<path d="M589.937 251.006H469.784V323.317H589.937V251.006Z" fill="white"/>
</mask>
<g mask="url(#mask19_25_3596)">
<path d="M589.122 304.423L584.195 285.437C580.187 269.968 569.356 257.683 555.437 251.488C548.351 257.005 539.462 260.292 529.792 260.292C520.122 260.292 511.221 257.005 504.146 251.488C490.227 257.683 479.397 269.957 475.389 285.437L470.462 304.423C467.981 313.985 475.193 323.305 485.059 323.305H574.525C584.39 323.305 591.602 313.985 589.122 304.423Z" fill="#47722E"/>
</g>
<path d="M432.551 214.011C432.551 198.738 444.931 186.36 460.183 186.36C475.435 186.36 487.815 198.749 487.815 214.011C487.815 229.274 475.446 241.663 460.183 241.663C444.92 241.663 432.551 229.285 432.551 214.011Z" fill="#47722E"/>
<path d="M469.049 285.184C472.885 270.382 482.038 258.085 494.143 250.098C490.376 246.018 485.805 242.731 480.717 240.467C475.044 244.88 467.924 247.512 460.183 247.512C452.442 247.512 445.322 244.88 439.648 240.467C428.508 245.42 419.837 255.246 416.621 267.635L412.682 282.828C410.707 290.482 416.472 297.953 424.373 297.953H465.73L469.049 285.184Z" fill="#47722E"/>
<path d="M627.193 214.011C627.193 198.738 614.824 186.36 599.561 186.36C584.298 186.36 571.929 198.749 571.929 214.011C571.929 229.274 584.298 241.663 599.561 241.663C614.824 241.663 627.193 229.285 627.193 214.011Z" fill="#47722E"/>
<mask id="mask20_25_3596" style="mask-type:luminance" maskUnits="userSpaceOnUse" x="565" y="240" width="83" height="59">
<path d="M647.154 240.214H565.601V298.343H647.154V240.214Z" fill="white"/>
</mask>
<g mask="url(#mask20_25_3596)">
<path d="M590.707 285.184C586.871 270.382 577.717 258.085 565.612 250.098C569.391 246.018 573.95 242.731 579.038 240.467C584.712 244.88 591.832 247.512 599.573 247.512C607.313 247.512 614.434 244.88 620.107 240.467C631.248 245.42 639.907 255.246 643.123 267.635L647.062 282.828C649.049 290.482 643.272 297.953 635.371 297.953H594.026L590.707 285.184Z" fill="#47722E"/>
</g>
<path d="M486.855 400.86V378.07H478.724V373.45H500.476V378.07H492.368V400.86H486.855Z" fill="white"/>
<path d="M515.511 394.54L520.748 395.425C519.324 399.367 516.452 401.343 512.111 401.343C508.999 401.343 506.621 400.424 504.979 398.562C503.337 396.712 502.51 394.218 502.51 391.092C502.51 387.805 503.36 385.242 505.071 383.38C506.794 381.519 508.976 380.576 511.606 380.576C514.523 380.576 516.82 381.53 518.497 383.449C520.173 385.357 521.012 388.173 521.012 391.931V392.437H507.85C507.896 393.988 508.321 395.206 509.114 396.08C509.929 396.965 510.94 397.401 512.18 397.401C513.868 397.39 514.971 396.436 515.511 394.54ZM515.798 389.219C515.752 387.725 515.35 386.575 514.603 385.794C513.868 385.001 512.961 384.599 511.904 384.599C510.756 384.599 509.814 385.012 509.079 385.84C508.344 386.656 507.977 387.736 507.977 389.069V389.207H515.798V389.219Z" fill="white"/>
<path d="M529.206 387.092L524.474 386.208C525.003 384.288 525.91 382.875 527.208 381.967C528.517 381.047 530.458 380.576 533.042 380.576C535.396 380.576 537.142 380.852 538.279 381.415C539.427 381.955 540.243 382.656 540.714 383.518C541.196 384.369 541.426 385.92 541.426 388.184L541.334 394.333C541.334 396.08 541.414 397.367 541.575 398.183C541.747 399.01 542.069 399.895 542.528 400.838H537.36C537.234 400.539 537.096 400.125 536.958 399.596C536.82 399.056 536.717 398.746 536.671 398.665C534.856 400.447 532.801 401.332 530.527 401.332C528.482 401.332 526.875 400.78 525.692 399.654C524.52 398.539 523.946 397.125 523.946 395.413C523.946 394.298 524.21 393.31 524.738 392.448C525.278 391.575 526.013 390.908 526.966 390.437C527.92 389.954 529.321 389.54 531.181 389.173C533.616 388.713 535.304 388.299 536.258 387.931V387.38C536.258 386.357 536.005 385.644 535.511 385.219C535.017 384.805 534.087 384.599 532.709 384.599C531.767 384.599 531.032 384.782 530.504 385.15C529.975 385.518 529.539 386.162 529.206 387.092ZM536.246 391.322C535.591 391.552 534.535 391.816 533.065 392.138C531.595 392.448 530.653 392.747 530.217 393.046C529.516 393.528 529.16 394.137 529.16 394.884C529.16 395.62 529.424 396.264 529.975 396.804C530.527 397.332 531.227 397.597 532.077 397.597C532.663 397.597 533.237 397.482 533.777 397.24C534.328 396.999 534.811 396.7 535.19 396.332C535.569 395.965 535.844 395.562 536.005 395.114C536.166 394.655 536.246 393.735 536.246 392.356V391.322Z" fill="white"/>
<path d="M546.197 380.978H551.033V383.679C552.755 381.61 554.822 380.564 557.234 380.564C559.772 380.564 561.621 381.61 562.804 383.679C564.539 381.61 566.548 380.564 568.834 380.564C570.189 380.564 571.349 380.817 572.325 381.334C573.29 381.829 574.048 382.564 574.576 383.541C575.104 384.518 575.369 386.046 575.369 388.138V400.86H570.132V389.529C570.132 387.391 569.879 386.035 569.385 385.46C568.903 384.886 568.214 384.598 567.306 384.598C566.571 384.598 565.882 384.828 565.251 385.265C564.63 385.702 564.16 386.357 563.861 387.23C563.574 388.092 563.425 389.46 563.425 391.322V400.849H558.187V389.988C558.187 388.058 558.084 386.816 557.877 386.253C557.682 385.679 557.395 385.265 557.016 385.012C556.649 384.748 556.12 384.61 555.431 384.61C554.604 384.61 553.869 384.828 553.226 385.253C552.606 385.69 552.147 386.311 551.859 387.115C551.584 387.931 551.457 389.299 551.457 391.207V400.86H546.197V380.978Z" fill="white"/>
</g>
<defs>
<radialGradient id="paint0_radial_25_3596" cx="0" cy="0" r="1" gradientUnits="userSpaceOnUse" gradientTransform="translate(792.013 727.008) scale(379.191 377.178)">
<stop stop-color="#D7D98A"/>
<stop offset="0.00390625" stop-color="#D6D88A"/>
<stop offset="0.0078125" stop-color="#D5D889"/>
<stop offset="0.0117" stop-color="#D5D889"/>
<stop offset="0.0156" stop-color="#D4D789"/>
<stop offset="0.0195" stop-color="#D4D789"/>
<stop offset="0.0234" stop-color="#D3D788"/>
<stop offset="0.0273" stop-color="#D3D688"/>
<stop offset="0.0312" stop-color="#D2D688"/>
<stop offset="0.0352" stop-color="#D1D688"/>
<stop offset="0.0391" stop-color="#D1D587"/>
<stop offset="0.043" stop-color="#D0D587"/>
<stop offset="0.0469" stop-color="#D0D587"/>
<stop offset="0.0508" stop-color="#CFD487"/>
<stop offset="0.0547" stop-color="#CED486"/>
<stop offset="0.0586" stop-color="#CED486"/>
<stop offset="0.0625" stop-color="#CDD386"/>
<stop offset="0.0664" stop-color="#CDD386"/>
<stop offset="0.0703" stop-color="#CCD385"/>
<stop offset="0.0742" stop-color="#CBD285"/>
<stop offset="0.0781" stop-color="#CBD285"/>
<stop offset="0.082" stop-color="#CAD285"/>
<stop offset="0.0859" stop-color="#CAD184"/>
<stop offset="0.0898" stop-color="#C9D184"/>
<stop offset="0.0938" stop-color="#C9D184"/>
<stop offset="0.0977" stop-color="#C8D084"/>
<stop offset="0.1016" stop-color="#C7D083"/>
<stop offset="0.1055" stop-color="#C7D083"/>
<stop offset="0.1094" stop-color="#C6CF83"/>
<stop offset="0.1133" stop-color="#C6CF83"/>
<stop offset="0.1172" stop-color="#C5CF82"/>
<stop offset="0.1211" stop-color="#C4CE82"/>
<stop offset="0.125" stop-color="#C4CE82"/>
<stop offset="0.1289" stop-color="#C3CE82"/>
<stop offset="0.1328" stop-color="#C3CD81"/>
<stop offset="0.1367" stop-color="#C2CD81"/>
<stop offset="0.1406" stop-color="#C1CD81"/>
<stop offset="0.1445" stop-color="#C1CC81"/>
<stop offset="0.1484" stop-color="#C0CC80"/>
<stop offset="0.1523" stop-color="#C0CC80"/>
<stop offset="0.1562" stop-color="#BFCB80"/>
<stop offset="0.1602" stop-color="#BECB80"/>
<stop offset="0.1641" stop-color="#BECB7F"/>
<stop offset="0.168" stop-color="#BDCA7F"/>
<stop offset="0.1719" stop-color="#BDCA7F"/>
<stop offset="0.1758" stop-color="#BCCA7F"/>
<stop offset="0.1797" stop-color="#BCC97F"/>
<stop offset="0.1836" stop-color="#BBC97E"/>
<stop offset="0.1875" stop-color="#BAC97E"/>
<stop offset="0.1914" stop-color="#BAC87E"/>
<stop offset="0.1953" stop-color="#B9C87E"/>
<stop offset="0.1992" stop-color="#B9C87D"/>
<stop offset="0.2031" stop-color="#B8C77D"/>
<stop offset="0.207" stop-color="#B7C77D"/>
<stop offset="0.2109" stop-color="#B7C77D"/>
<stop offset="0.2148" stop-color="#B6C67C"/>
<stop offset="0.2188" stop-color="#B6C67C"/>
<stop offset="0.2227" stop-color="#B5C67C"/>
<stop offset="0.2266" stop-color="#B4C57C"/>
<stop offset="0.2305" stop-color="#B4C57B"/>
<stop offset="0.2344" stop-color="#B3C57B"/>
<stop offset="0.2383" stop-color="#B3C47B"/>
<stop offset="0.2422" stop-color="#B2C47B"/>
<stop offset="0.2461" stop-color="#B2C47A"/>
<stop offset="0.25" stop-color="#B1C37A"/>
<stop offset="0.2539" stop-color="#B0C37A"/>
<stop offset="0.2578" stop-color="#B0C37A"/>
<stop offset="0.2617" stop-color="#AFC279"/>
<stop offset="0.2656" stop-color="#AFC279"/>
<stop offset="0.2695" stop-color="#AEC279"/>
<stop offset="0.2734" stop-color="#ADC179"/>
<stop offset="0.2773" stop-color="#ADC178"/>
<stop offset="0.2812" stop-color="#ACC178"/>
<stop offset="0.2852" stop-color="#ACC078"/>
<stop offset="0.2891" stop-color="#ABC078"/>
<stop offset="0.293" stop-color="#AAC077"/>
<stop offset="0.2969" stop-color="#AABF77"/>
<stop offset="0.3008" stop-color="#A9BF77"/>
<stop offset="0.3047" stop-color="#A9BF77"/>
<stop offset="0.3086" stop-color="#A8BE76"/>
<stop offset="0.3125" stop-color="#A7BE76"/>
<stop offset="0.3164" stop-color="#A7BE76"/>
<stop offset="0.3203" stop-color="#A6BD76"/>
<stop offset="0.3242" stop-color="#A6BD75"/>
<stop offset="0.3281" stop-color="#A5BD75"/>
<stop offset="0.332" stop-color="#A5BC75"/>
<stop offset="0.3359" stop-color="#A4BC75"/>
<stop offset="0.3398" stop-color="#A3BC74"/>
<stop offset="0.3438" stop-color="#A3BB74"/>
<stop offset="0.3477" stop-color="#A2BB74"/>
<stop offset="0.3516" stop-color="#A2BB74"/>
<stop offset="0.3555" stop-color="#A1BA73"/>
<stop offset="0.3594" stop-color="#A0BA73"/>
<stop offset="0.3633" stop-color="#A0BA73"/>
<stop offset="0.3672" stop-color="#9FB973"/>
<stop offset="0.3711" stop-color="#9FB972"/>
<stop offset="0.375" stop-color="#9EB972"/>
<stop offset="0.3789" stop-color="#9DB872"/>
<stop offset="0.3828" stop-color="#9DB872"/>
<stop offset="0.3867" stop-color="#9CB871"/>
<stop offset="0.3906" stop-color="#9CB771"/>
<stop offset="0.3945" stop-color="#9BB771"/>
<stop offset="0.3984" stop-color="#9BB771"/>
<stop offset="0.4023" stop-color="#9AB670"/>
<stop offset="0.4062" stop-color="#99B670"/>
<stop offset="0.4102" stop-color="#99B670"/>
<stop offset="0.4141" stop-color="#98B570"/>
<stop offset="0.418" stop-color="#98B570"/>
<stop offset="0.4219" stop-color="#97B56F"/>
<stop offset="0.4258" stop-color="#96B46F"/>
<stop offset="0.4297" stop-color="#96B46F"/>
<stop offset="0.4336" stop-color="#95B46F"/>
<stop offset="0.4375" stop-color="#95B36E"/>
<stop offset="0.4414" stop-color="#94B36E"/>
<stop offset="0.4453" stop-color="#93B36E"/>
<stop offset="0.4492" stop-color="#93B26E"/>
<stop offset="0.4531" stop-color="#92B26D"/>
<stop offset="0.457" stop-color="#92B26D"/>
<stop offset="0.4609" stop-color="#91B16D"/>
<stop offset="0.4648" stop-color="#90B16D"/>
<stop offset="0.4688" stop-color="#90B16C"/>
<stop offset="0.4727" stop-color="#8FB06C"/>
<stop offset="0.4766" stop-color="#8FB06C"/>
<stop offset="0.4805" stop-color="#8EB06C"/>
<stop offset="0.4844" stop-color="#8EAF6B"/>
<stop offset="0.4883" stop-color="#8DAF6B"/>
<stop offset="0.4922" stop-color="#8CAF6B"/>
<stop offset="0.4961" stop-color="#8CAE6B"/>
<stop offset="0.5" stop-color="#8BAE6A"/>
<stop offset="0.5039" stop-color="#8BAE6A"/>
<stop offset="0.5078" stop-color="#8AAD6A"/>
<stop offset="0.5117" stop-color="#89AD6A"/>
<stop offset="0.5156" stop-color="#89AD69"/>
<stop offset="0.5195" stop-color="#88AC69"/>
<stop offset="0.5234" stop-color="#88AC69"/>
<stop offset="0.5273" stop-color="#87AC69"/>
<stop offset="0.5312" stop-color="#86AB68"/>
<stop offset="0.5352" stop-color="#86AB68"/>
<stop offset="0.5391" stop-color="#85AB68"/>
<stop offset="0.543" stop-color="#85AA68"/>
<stop offset="0.5469" stop-color="#84AA67"/>
<stop offset="0.5508" stop-color="#84AA67"/>
<stop offset="0.5547" stop-color="#83A967"/>
<stop offset="0.5586" stop-color="#82A967"/>
<stop offset="0.5625" stop-color="#82A866"/>
<stop offset="0.5664" stop-color="#81A866"/>
<stop offset="0.5703" stop-color="#81A866"/>
<stop offset="0.5742" stop-color="#80A766"/>
<stop offset="0.5781" stop-color="#7FA765"/>
<stop offset="0.582" stop-color="#7FA765"/>
<stop offset="0.5859" stop-color="#7EA665"/>
<stop offset="0.5898" stop-color="#7EA665"/>
<stop offset="0.5938" stop-color="#7DA664"/>
<stop offset="0.5977" stop-color="#7CA564"/>
<stop offset="0.6016" stop-color="#7CA564"/>
<stop offset="0.6055" stop-color="#7BA564"/>
<stop offset="0.6094" stop-color="#7BA463"/>
<stop offset="0.6133" stop-color="#7AA463"/>
<stop offset="0.6172" stop-color="#79A463"/>
<stop offset="0.6211" stop-color="#79A363"/>
<stop offset="0.625" stop-color="#78A362"/>
<stop offset="0.6289" stop-color="#78A362"/>
<stop offset="0.6328" stop-color="#77A262"/>
<stop offset="0.6367" stop-color="#77A262"/>
<stop offset="0.6406" stop-color="#76A261"/>
<stop offset="0.6445" stop-color="#75A161"/>
<stop offset="0.6484" stop-color="#75A161"/>
<stop offset="0.6523" stop-color="#74A161"/>
<stop offset="0.6562" stop-color="#74A060"/>
<stop offset="0.6602" stop-color="#73A060"/>
<stop offset="0.6641" stop-color="#72A060"/>
<stop offset="0.668" stop-color="#729F60"/>
<stop offset="0.6719" stop-color="#719F60"/>
<stop offset="0.6758" stop-color="#719F5F"/>
<stop offset="0.6797" stop-color="#709E5F"/>
<stop offset="0.6836" stop-color="#6F9E5F"/>
<stop offset="0.6875" stop-color="#6F9E5F"/>
<stop offset="0.6914" stop-color="#6E9D5E"/>
<stop offset="0.6953" stop-color="#6E9D5E"/>
<stop offset="0.6992" stop-color="#6D9D5E"/>
<stop offset="0.7031" stop-color="#6D9C5E"/>
<stop offset="0.707" stop-color="#6C9C5D"/>
<stop offset="0.7109" stop-color="#6B9C5D"/>
<stop offset="0.7148" stop-color="#6B9B5D"/>
<stop offset="0.7188" stop-color="#6A9B5D"/>
<stop offset="0.7227" stop-color="#6A9B5C"/>
<stop offset="0.7266" stop-color="#699A5C"/>
<stop offset="0.7305" stop-color="#689A5C"/>
<stop offset="0.7344" stop-color="#689A5C"/>
<stop offset="0.7383" stop-color="#67995B"/>
<stop offset="0.7422" stop-color="#67995B"/>
<stop offset="0.7461" stop-color="#66995B"/>
<stop offset="0.75" stop-color="#65985B"/>
<stop offset="0.7539" stop-color="#65985A"/>
<stop offset="0.7578" stop-color="#64985A"/>
<stop offset="0.7617" stop-color="#64975A"/>
<stop offset="0.7656" stop-color="#63975A"/>
<stop offset="0.7695" stop-color="#639759"/>
<stop offset="0.7734" stop-color="#629659"/>
<stop offset="0.7773" stop-color="#619659"/>
<stop offset="0.7812" stop-color="#619659"/>
<stop offset="0.7852" stop-color="#609558"/>
<stop offset="0.7891" stop-color="#609558"/>
<stop offset="0.793" stop-color="#5F9558"/>
<stop offset="0.7969" stop-color="#5E9458"/>
<stop offset="0.8008" stop-color="#5E9457"/>
<stop offset="0.8047" stop-color="#5D9457"/>
<stop offset="0.8086" stop-color="#5D9357"/>
<stop offset="0.8125" stop-color="#5C9357"/>
<stop offset="0.8164" stop-color="#5B9356"/>
<stop offset="0.8203" stop-color="#5B9256"/>
<stop offset="0.8242" stop-color="#5A9256"/>
<stop offset="0.8281" stop-color="#5A9256"/>
<stop offset="0.832" stop-color="#599155"/>
<stop offset="0.8359" stop-color="#589155"/>
<stop offset="0.8398" stop-color="#589155"/>
<stop offset="0.8438" stop-color="#579055"/>
<stop offset="0.8477" stop-color="#579054"/>
<stop offset="0.8516" stop-color="#569054"/>
<stop offset="0.8555" stop-color="#568F54"/>
<stop offset="0.8594" stop-color="#558F54"/>
<stop offset="0.8633" stop-color="#548F53"/>
<stop offset="0.8672" stop-color="#548E53"/>
<stop offset="0.8711" stop-color="#538E53"/>
<stop offset="0.875" stop-color="#538E53"/>
<stop offset="0.8789" stop-color="#528D52"/>
<stop offset="0.8828" stop-color="#518D52"/>
<stop offset="0.8867" stop-color="#518D52"/>
<stop offset="0.8906" stop-color="#508C52"/>
<stop offset="0.8945" stop-color="#508C51"/>
<stop offset="0.8984" stop-color="#4F8C51"/>
<stop offset="0.9023" stop-color="#4E8B51"/>
<stop offset="0.9062" stop-color="#4E8B51"/>
<stop offset="0.9102" stop-color="#4D8B51"/>
<stop offset="0.9141" stop-color="#4D8A50"/>
<stop offset="0.918" stop-color="#4C8A50"/>
<stop offset="0.9219" stop-color="#4C8A50"/>
<stop offset="0.9258" stop-color="#4B8950"/>
<stop offset="0.9297" stop-color="#4A894F"/>
<stop offset="0.9336" stop-color="#4A894F"/>
<stop offset="0.9375" stop-color="#49884F"/>
<stop offset="0.9414" stop-color="#49884F"/>
<stop offset="0.9453" stop-color="#48884E"/>
<stop offset="0.9492" stop-color="#47874E"/>
<stop offset="0.9531" stop-color="#47874E"/>
<stop offset="0.957" stop-color="#46874E"/>
<stop offset="0.9609" stop-color="#46864D"/>
<stop offset="0.9648" stop-color="#45864D"/>
<stop offset="0.9688" stop-color="#44864D"/>
<stop offset="0.9727" stop-color="#44854D"/>
<stop offset="0.9766" stop-color="#43854C"/>
<stop offset="0.9805" stop-color="#43854C"/>
<stop offset="0.9844" stop-color="#42844C"/>
<stop offset="0.9883" stop-color="#41844C"/>
<stop offset="0.9922" stop-color="#41844B"/>
<stop offset="0.9961" stop-color="#40834B"/>
<stop offset="1" stop-color="#40834B"/>
</radialGradient>
<radialGradient id="paint1_radial_25_3596" cx="0" cy="0" r="1" gradientUnits="userSpaceOnUse" gradientTransform="translate(796.016 237.021) scale(380.222 377.178)">
<stop stop-color="#D7D98A"/>
<stop offset="0.00390625" stop-color="#D6D88A"/>
<stop offset="0.0078125" stop-color="#D5D889"/>
<stop offset="0.0117" stop-color="#D5D889"/>
<stop offset="0.0156" stop-color="#D4D789"/>
<stop offset="0.0195" stop-color="#D4D789"/>
<stop offset="0.0234" stop-color="#D3D788"/>
<stop offset="0.0273" stop-color="#D3D688"/>
<stop offset="0.0312" stop-color="#D2D688"/>
<stop offset="0.0352" stop-color="#D1D688"/>
<stop offset="0.0391" stop-color="#D1D587"/>
<stop offset="0.043" stop-color="#D0D587"/>
<stop offset="0.0469" stop-color="#D0D587"/>
<stop offset="0.0508" stop-color="#CFD487"/>
<stop offset="0.0547" stop-color="#CED486"/>
<stop offset="0.0586" stop-color="#CED486"/>
<stop offset="0.0625" stop-color="#CDD386"/>
<stop offset="0.0664" stop-color="#CDD386"/>
<stop offset="0.0703" stop-color="#CCD385"/>
<stop offset="0.0742" stop-color="#CBD285"/>
<stop offset="0.0781" stop-color="#CBD285"/>
<stop offset="0.082" stop-color="#CAD285"/>
<stop offset="0.0859" stop-color="#CAD184"/>
<stop offset="0.0898" stop-color="#C9D184"/>
<stop offset="0.0938" stop-color="#C9D184"/>
<stop offset="0.0977" stop-color="#C8D084"/>
<stop offset="0.1016" stop-color="#C7D083"/>
<stop offset="0.1055" stop-color="#C7D083"/>
<stop offset="0.1094" stop-color="#C6CF83"/>
<stop offset="0.1133" stop-color="#C6CF83"/>
<stop offset="0.1172" stop-color="#C5CF82"/>
<stop offset="0.1211" stop-color="#C4CE82"/>
<stop offset="0.125" stop-color="#C4CE82"/>
<stop offset="0.1289" stop-color="#C3CE82"/>
<stop offset="0.1328" stop-color="#C3CD81"/>
<stop offset="0.1367" stop-color="#C2CD81"/>
<stop offset="0.1406" stop-color="#C1CD81"/>
<stop offset="0.1445" stop-color="#C1CC81"/>
<stop offset="0.1484" stop-color="#C0CC80"/>
<stop offset="0.1523" stop-color="#C0CC80"/>
<stop offset="0.1562" stop-color="#BFCB80"/>
<stop offset="0.1602" stop-color="#BECB80"/>
<stop offset="0.1641" stop-color="#BECB7F"/>
<stop offset="0.168" stop-color="#BDCA7F"/>
<stop offset="0.1719" stop-color="#BDCA7F"/>
<stop offset="0.1758" stop-color="#BCCA7F"/>
<stop offset="0.1797" stop-color="#BCC97F"/>
<stop offset="0.1836" stop-color="#BBC97E"/>
<stop offset="0.1875" stop-color="#BAC97E"/>
<stop offset="0.1914" stop-color="#BAC87E"/>
<stop offset="0.1953" stop-color="#B9C87E"/>
<stop offset="0.1992" stop-color="#B9C87D"/>
<stop offset="0.2031" stop-color="#B8C77D"/>
<stop offset="0.207" stop-color="#B7C77D"/>
<stop offset="0.2109" stop-color="#B7C77D"/>
<stop offset="0.2148" stop-color="#B6C67C"/>
<stop offset="0.2188" stop-color="#B6C67C"/>
<stop offset="0.2227" stop-color="#B5C67C"/>
<stop offset="0.2266" stop-color="#B4C57C"/>
<stop offset="0.2305" stop-color="#B4C57B"/>
<stop offset="0.2344" stop-color="#B3C57B"/>
<stop offset="0.2383" stop-color="#B3C47B"/>
<stop offset="0.2422" stop-color="#B2C47B"/>
<stop offset="0.2461" stop-color="#B2C47A"/>
<stop offset="0.25" stop-color="#B1C37A"/>
<stop offset="0.2539" stop-color="#B0C37A"/>
<stop offset="0.2578" stop-color="#B0C37A"/>
<stop offset="0.2617" stop-color="#AFC279"/>
<stop offset="0.2656" stop-color="#AFC279"/>
<stop offset="0.2695" stop-color="#AEC279"/>
<stop offset="0.2734" stop-color="#ADC179"/>
<stop offset="0.2773" stop-color="#ADC178"/>
<stop offset="0.2812" stop-color="#ACC178"/>
<stop offset="0.2852" stop-color="#ACC078"/>
<stop offset="0.2891" stop-color="#ABC078"/>
<stop offset="0.293" stop-color="#AAC077"/>
<stop offset="0.2969" stop-color="#AABF77"/>
<stop offset="0.3008" stop-color="#A9BF77"/>
<stop offset="0.3047" stop-color="#A9BF77"/>
<stop offset="0.3086" stop-color="#A8BE76"/>
<stop offset="0.3125" stop-color="#A7BE76"/>
<stop offset="0.3164" stop-color="#A7BE76"/>
<stop offset="0.3203" stop-color="#A6BD76"/>
<stop offset="0.3242" stop-color="#A6BD75"/>
<stop offset="0.3281" stop-color="#A5BD75"/>
<stop offset="0.332" stop-color="#A5BC75"/>
<stop offset="0.3359" stop-color="#A4BC75"/>
<stop offset="0.3398" stop-color="#A3BC74"/>
<stop offset="0.3438" stop-color="#A3BB74"/>
<stop offset="0.3477" stop-color="#A2BB74"/>
<stop offset="0.3516" stop-color="#A2BB74"/>
<stop offset="0.3555" stop-color="#A1BA73"/>
<stop offset="0.3594" stop-color="#A0BA73"/>
<stop offset="0.3633" stop-color="#A0BA73"/>
<stop offset="0.3672" stop-color="#9FB973"/>
<stop offset="0.3711" stop-color="#9FB972"/>
<stop offset="0.375" stop-color="#9EB972"/>
<stop offset="0.3789" stop-color="#9DB872"/>
<stop offset="0.3828" stop-color="#9DB872"/>
<stop offset="0.3867" stop-color="#9CB871"/>
<stop offset="0.3906" stop-color="#9CB771"/>
<stop offset="0.3945" stop-color="#9BB771"/>
<stop offset="0.3984" stop-color="#9BB771"/>
<stop offset="0.4023" stop-color="#9AB670"/>
<stop offset="0.4062" stop-color="#99B670"/>
<stop offset="0.4102" stop-color="#99B670"/>
<stop offset="0.4141" stop-color="#98B570"/>
<stop offset="0.418" stop-color="#98B570"/>
<stop offset="0.4219" stop-color="#97B56F"/>
<stop offset="0.4258" stop-color="#96B46F"/>
<stop offset="0.4297" stop-color="#96B46F"/>
<stop offset="0.4336" stop-color="#95B46F"/>
<stop offset="0.4375" stop-color="#95B36E"/>
<stop offset="0.4414" stop-color="#94B36E"/>
<stop offset="0.4453" stop-color="#93B36E"/>
<stop offset="0.4492" stop-color="#93B26E"/>
<stop offset="0.4531" stop-color="#92B26D"/>
<stop offset="0.457" stop-color="#92B26D"/>
<stop offset="0.4609" stop-color="#91B16D"/>
<stop offset="0.4648" stop-color="#90B16D"/>
<stop offset="0.4688" stop-color="#90B16C"/>
<stop offset="0.4727" stop-color="#8FB06C"/>
<stop offset="0.4766" stop-color="#8FB06C"/>
<stop offset="0.4805" stop-color="#8EB06C"/>
<stop offset="0.4844" stop-color="#8EAF6B"/>
<stop offset="0.4883" stop-color="#8DAF6B"/>
<stop offset="0.4922" stop-color="#8CAF6B"/>
<stop offset="0.4961" stop-color="#8CAE6B"/>
<stop offset="0.5" stop-color="#8BAE6A"/>
<stop offset="0.5039" stop-color="#8BAE6A"/>
<stop offset="0.5078" stop-color="#8AAD6A"/>
<stop offset="0.5117" stop-color="#89AD6A"/>
<stop offset="0.5156" stop-color="#89AD69"/>
<stop offset="0.5195" stop-color="#88AC69"/>
<stop offset="0.5234" stop-color="#88AC69"/>
<stop offset="0.5273" stop-color="#87AC69"/>
<stop offset="0.5312" stop-color="#86AB68"/>
<stop offset="0.5352" stop-color="#86AB68"/>
<stop offset="0.5391" stop-color="#85AB68"/>
<stop offset="0.543" stop-color="#85AA68"/>
<stop offset="0.5469" stop-color="#84AA67"/>
<stop offset="0.5508" stop-color="#84AA67"/>
<stop offset="0.5547" stop-color="#83A967"/>
<stop offset="0.5586" stop-color="#82A967"/>
<stop offset="0.5625" stop-color="#82A866"/>
<stop offset="0.5664" stop-color="#81A866"/>
<stop offset="0.5703" stop-color="#81A866"/>
<stop offset="0.5742" stop-color="#80A766"/>
<stop offset="0.5781" stop-color="#7FA765"/>
<stop offset="0.582" stop-color="#7FA765"/>
<stop offset="0.5859" stop-color="#7EA665"/>
<stop offset="0.5898" stop-color="#7EA665"/>
<stop offset="0.5938" stop-color="#7DA664"/>
<stop offset="0.5977" stop-color="#7CA564"/>
<stop offset="0.6016" stop-color="#7CA564"/>
<stop offset="0.6055" stop-color="#7BA564"/>
<stop offset="0.6094" stop-color="#7BA463"/>
<stop offset="0.6133" stop-color="#7AA463"/>
<stop offset="0.6172" stop-color="#79A463"/>
<stop offset="0.6211" stop-color="#79A363"/>
<stop offset="0.625" stop-color="#78A362"/>
<stop offset="0.6289" stop-color="#78A362"/>
<stop offset="0.6328" stop-color="#77A262"/>
<stop offset="0.6367" stop-color="#77A262"/>
<stop offset="0.6406" stop-color="#76A261"/>
<stop offset="0.6445" stop-color="#75A161"/>
<stop offset="0.6484" stop-color="#75A161"/>
<stop offset="0.6523" stop-color="#74A161"/>
<stop offset="0.6562" stop-color="#74A060"/>
<stop offset="0.6602" stop-color="#73A060"/>
<stop offset="0.6641" stop-color="#72A060"/>
<stop offset="0.668" stop-color="#729F60"/>
<stop offset="0.6719" stop-color="#719F60"/>
<stop offset="0.6758" stop-color="#719F5F"/>
<stop offset="0.6797" stop-color="#709E5F"/>
<stop offset="0.6836" stop-color="#6F9E5F"/>
<stop offset="0.6875" stop-color="#6F9E5F"/>
<stop offset="0.6914" stop-color="#6E9D5E"/>
<stop offset="0.6953" stop-color="#6E9D5E"/>
<stop offset="0.6992" stop-color="#6D9D5E"/>
<stop offset="0.7031" stop-color="#6D9C5E"/>
<stop offset="0.707" stop-color="#6C9C5D"/>
<stop offset="0.7109" stop-color="#6B9C5D"/>
<stop offset="0.7148" stop-color="#6B9B5D"/>
<stop offset="0.7188" stop-color="#6A9B5D"/>
<stop offset="0.7227" stop-color="#6A9B5C"/>
<stop offset="0.7266" stop-color="#699A5C"/>
<stop offset="0.7305" stop-color="#689A5C"/>
<stop offset="0.7344" stop-color="#689A5C"/>
<stop offset="0.7383" stop-color="#67995B"/>
<stop offset="0.7422" stop-color="#67995B"/>
<stop offset="0.7461" stop-color="#66995B"/>
<stop offset="0.75" stop-color="#65985B"/>
<stop offset="0.7539" stop-color="#65985A"/>
<stop offset="0.7578" stop-color="#64985A"/>
<stop offset="0.7617" stop-color="#64975A"/>
<stop offset="0.7656" stop-color="#63975A"/>
<stop offset="0.7695" stop-color="#639759"/>
<stop offset="0.7734" stop-color="#629659"/>
<stop offset="0.7773" stop-color="#619659"/>
<stop offset="0.7812" stop-color="#619659"/>
<stop offset="0.7852" stop-color="#609558"/>
<stop offset="0.7891" stop-color="#609558"/>
<stop offset="0.793" stop-color="#5F9558"/>
<stop offset="0.7969" stop-color="#5E9458"/>
<stop offset="0.8008" stop-color="#5E9457"/>
<stop offset="0.8047" stop-color="#5D9457"/>
<stop offset="0.8086" stop-color="#5D9357"/>
<stop offset="0.8125" stop-color="#5C9357"/>
<stop offset="0.8164" stop-color="#5B9356"/>
<stop offset="0.8203" stop-color="#5B9256"/>
<stop offset="0.8242" stop-color="#5A9256"/>
<stop offset="0.8281" stop-color="#5A9256"/>
<stop offset="0.832" stop-color="#599155"/>
<stop offset="0.8359" stop-color="#589155"/>
<stop offset="0.8398" stop-color="#589155"/>
<stop offset="0.8438" stop-color="#579055"/>
<stop offset="0.8477" stop-color="#579054"/>
<stop offset="0.8516" stop-color="#569054"/>
<stop offset="0.8555" stop-color="#568F54"/>
<stop offset="0.8594" stop-color="#558F54"/>
<stop offset="0.8633" stop-color="#548F53"/>
<stop offset="0.8672" stop-color="#548E53"/>
<stop offset="0.8711" stop-color="#538E53"/>
<stop offset="0.875" stop-color="#538E53"/>
<stop offset="0.8789" stop-color="#528D52"/>
<stop offset="0.8828" stop-color="#518D52"/>
<stop offset="0.8867" stop-color="#518D52"/>
<stop offset="0.8906" stop-color="#508C52"/>
<stop offset="0.8945" stop-color="#508C51"/>
<stop offset="0.8984" stop-color="#4F8C51"/>
<stop offset="0.9023" stop-color="#4E8B51"/>
<stop offset="0.9062" stop-color="#4E8B51"/>
<stop offset="0.9102" stop-color="#4D8B51"/>
<stop offset="0.9141" stop-color="#4D8A50"/>
<stop offset="0.918" stop-color="#4C8A50"/>
<stop offset="0.9219" stop-color="#4C8A50"/>
<stop offset="0.9258" stop-color="#4B8950"/>
<stop offset="0.9297" stop-color="#4A894F"/>
<stop offset="0.9336" stop-color="#4A894F"/>
<stop offset="0.9375" stop-color="#49884F"/>
<stop offset="0.9414" stop-color="#49884F"/>
<stop offset="0.9453" stop-color="#48884E"/>
<stop offset="0.9492" stop-color="#47874E"/>
<stop offset="0.9531" stop-color="#47874E"/>
<stop offset="0.957" stop-color="#46874E"/>
<stop offset="0.9609" stop-color="#46864D"/>
<stop offset="0.9648" stop-color="#45864D"/>
<stop offset="0.9688" stop-color="#44864D"/>
<stop offset="0.9727" stop-color="#44854D"/>
<stop offset="0.9766" stop-color="#43854C"/>
<stop offset="0.9805" stop-color="#43854C"/>
<stop offset="0.9844" stop-color="#42844C"/>
<stop offset="0.9883" stop-color="#41844C"/>
<stop offset="0.9922" stop-color="#41844B"/>
<stop offset="0.9961" stop-color="#40834B"/>
<stop offset="1" stop-color="#40834B"/>
</radialGradient>
<clipPath id="clip0_25_3596">
<rect width="368" height="91" fill="white" transform="translate(792 727)"/>
</clipPath>
<clipPath id="clip1_25_3596">
<rect width="333" height="315" fill="white" transform="translate(1256 614)"/>
</clipPath>
<clipPath id="clip2_25_3596">
<rect width="332" height="315" fill="white" transform="translate(363 622)"/>
</clipPath>
<clipPath id="clip3_25_3596">
<rect width="369" height="91" fill="white" transform="translate(796 237)"/>
</clipPath>
<clipPath id="clip4_25_3596">
<rect width="333" height="315" fill="white" transform="translate(1265 130)"/>
</clipPath>
<clipPath id="clip5_25_3596">
<rect width="332" height="315" fill="white" transform="translate(362 133)"/>
</clipPath>
</defs>
</svg>
