<svg width="1920" height="1078" viewBox="0 0 1920 1078" fill="none" xmlns="http://www.w3.org/2000/svg">
<rect width="1920" height="1078" fill="#9B6E2F"/>
<path d="M862.081 831.709C862.081 831.709 859.311 839.589 849.621 839.589C844.061 839.589 839.641 834.839 839.641 829.899C839.641 824.569 843.291 820.209 849.471 820.209C855.261 820.209 859.261 823.609 859.261 827.439L863.091 827.839C863.091 821.589 857.051 816.689 849.611 816.689C840.921 816.689 835.991 822.609 835.991 829.899C835.991 837.189 841.551 843.129 849.611 843.129C861.111 843.129 863.651 832.729 863.651 832.729L862.081 831.709Z" fill="#F8F0D2"/>
<path d="M893.847 838.329V829.889C893.847 825.329 891.887 822.059 889.427 819.909C887.027 817.699 884.047 816.679 879.927 816.679C870.157 816.679 868.697 825.029 868.697 825.029L870.237 826.029C872.257 822.449 874.027 820.199 879.927 820.199C886.177 820.199 890.157 823.779 890.157 829.889V830.219C888.097 829.639 881.137 828.049 875.327 828.049C870.577 828.049 866.597 829.969 866.597 834.239C866.597 840.639 874.037 843.069 879.927 843.069C884.257 843.069 887.697 841.109 890.157 837.949L890.537 842.639H897.057C897.057 842.649 893.847 841.209 893.847 838.329ZM879.927 839.579C874.757 839.579 870.237 838.039 870.237 834.679C870.237 828.389 886.117 831.329 889.907 832.029C889.207 835.609 885.597 839.579 879.927 839.579Z" fill="#F8F0D2"/>
<path d="M918.805 842.609H927.245C927.245 842.609 924.845 841.209 924.845 838.339V829.649C924.805 822.459 922.195 816.689 915.195 816.689C910.635 816.689 907.175 819.479 905.175 823.649V817.169H899.115C899.115 817.169 901.465 818.629 901.465 821.499V838.329C901.465 841.209 899.115 842.599 899.115 842.599H907.535C907.535 842.599 905.115 841.199 905.115 838.329L905.175 829.559C905.175 824.519 908.905 820.209 915.195 820.209C919.695 820.209 921.195 824.329 921.195 829.169V838.339C921.205 841.209 918.805 842.609 918.805 842.609Z" fill="#F8F0D2"/>
<path d="M944.071 842.609H952.491C952.491 842.609 950.141 841.209 950.141 838.339L950.181 817.169H944.081C944.081 817.169 946.431 818.629 946.431 821.499V838.329C946.431 841.209 944.071 842.609 944.071 842.609ZM948.261 814.729C949.661 814.729 950.141 813.329 950.141 811.669C950.141 809.939 949.661 808.549 948.261 808.549C946.821 808.549 946.431 809.949 946.431 811.669C946.431 813.329 946.821 814.729 948.261 814.729Z" fill="#F8F0D2"/>
<path d="M974.797 842.609H983.237C983.237 842.609 980.837 841.209 980.837 838.339V829.649C980.797 822.459 978.187 816.689 971.187 816.689C966.627 816.689 963.167 819.479 961.167 823.649V817.169H955.107C955.107 817.169 957.457 818.629 957.457 821.499V838.329C957.457 841.209 955.107 842.599 955.107 842.599H963.527C963.527 842.599 961.107 841.199 961.107 838.329L961.167 829.559C961.167 824.519 964.897 820.209 971.187 820.209C975.687 820.209 977.187 824.329 977.187 829.169V838.339C977.187 841.209 974.797 842.609 974.797 842.609Z" fill="#F8F0D2"/>
<path d="M1012.11 831.709C1012.11 831.709 1009.34 839.589 999.648 839.589C994.088 839.589 989.668 834.839 989.668 829.899C989.668 824.569 993.318 820.209 999.498 820.209C1005.29 820.209 1009.29 823.609 1009.29 827.439L1013.12 827.839C1013.12 821.589 1007.08 816.689 999.638 816.689C990.948 816.689 986.018 822.609 986.018 829.899C986.018 837.189 991.578 843.129 999.638 843.129C1011.14 843.129 1013.68 832.729 1013.68 832.729L1012.11 831.709Z" fill="#F8F0D2"/>
<path d="M1032.7 816.689C1028.14 816.689 1024.64 819.479 1022.58 823.649L1022.62 817.169H1016.52C1016.52 817.169 1018.87 818.629 1018.87 821.499V838.329C1018.87 841.209 1016.52 842.599 1016.52 842.599H1024.94C1024.94 842.599 1022.59 841.199 1022.59 838.329V829.559C1022.59 824.369 1026.42 820.209 1032.71 820.209C1036.25 820.209 1037.36 823.229 1037.36 828.309L1041.05 828.729C1040.85 822.059 1038.49 816.689 1032.7 816.689Z" fill="#F8F0D2"/>
<path d="M1070.11 833.399C1070.11 833.399 1067.42 839.589 1058.76 839.589C1051.03 839.589 1047.53 834.109 1047.53 829.419C1049.45 829.839 1056.55 831.569 1062.34 831.569C1069.01 831.569 1071.07 827.919 1071.07 825.239C1071.07 822.559 1068.67 816.699 1057.74 816.699C1046.95 816.699 1043.89 824.579 1043.89 829.949C1043.89 833.739 1046.14 843.099 1058.85 843.099C1068.93 843.099 1071.7 834.369 1071.7 834.369L1070.11 833.399ZM1057.73 820.209C1064.35 820.209 1067.42 823.089 1067.42 825.089C1067.42 831.569 1050.4 828.069 1047.8 827.549C1048.53 823.939 1052.28 820.209 1057.73 820.209Z" fill="#F8F0D2"/>
<path d="M1102.02 838.329V829.889C1102.02 825.329 1100.06 822.059 1097.6 819.909C1095.2 817.699 1092.22 816.679 1088.1 816.679C1078.33 816.679 1076.87 825.029 1076.87 825.029L1078.41 826.029C1080.43 822.449 1082.2 820.199 1088.1 820.199C1094.35 820.199 1098.33 823.779 1098.33 829.889V830.219C1096.27 829.639 1089.31 828.049 1083.5 828.049C1078.75 828.049 1074.77 829.969 1074.77 834.239C1074.77 840.639 1082.21 843.069 1088.1 843.069C1092.43 843.069 1095.87 841.109 1098.33 837.949L1098.71 842.639H1105.23C1105.23 842.649 1102.02 841.209 1102.02 838.329ZM1088.11 839.579C1082.94 839.579 1078.42 838.039 1078.42 834.679C1078.42 828.389 1094.3 831.329 1098.09 832.029C1097.38 835.609 1093.77 839.579 1088.11 839.579Z" fill="#F8F0D2"/>
<path d="M1111.91 824.559C1111.91 822.209 1114.24 820.209 1120.1 820.209C1125.95 820.209 1128.56 822.209 1128.56 825.859L1132.21 826.299C1132.21 821.839 1128.79 816.699 1120.11 816.699C1111.3 816.699 1108.28 821.849 1108.28 824.579C1108.28 833.409 1128.86 830.909 1128.86 835.519C1128.86 837.769 1125.44 839.599 1120.26 839.599C1115.66 839.599 1111.34 837.579 1111.34 832.789L1107.69 832.349C1107.69 838.019 1112.54 843.199 1120.25 843.199C1130.85 843.199 1132.5 838.009 1132.5 835.509C1132.49 827.209 1111.91 829.649 1111.91 824.559Z" fill="#F8F0D2"/>
<path d="M1162.32 833.399C1162.32 833.399 1159.63 839.589 1150.97 839.589C1143.24 839.589 1139.74 834.109 1139.74 829.419C1141.66 829.839 1148.76 831.569 1154.55 831.569C1161.22 831.569 1163.28 827.919 1163.28 825.239C1163.28 822.559 1160.88 816.699 1149.95 816.699C1139.16 816.699 1136.1 824.579 1136.1 829.949C1136.1 833.739 1138.35 843.099 1151.06 843.099C1161.14 843.099 1163.91 834.369 1163.91 834.369L1162.32 833.399ZM1149.95 820.209C1156.58 820.209 1159.64 823.089 1159.64 825.089C1159.64 831.569 1142.62 828.069 1140.01 827.549C1140.74 823.939 1144.49 820.209 1149.95 820.209Z" fill="#F8F0D2"/>
<path d="M1193.56 820.209L1195.91 817.169H1187.41V809.209H1183.72V817.169H1181.37V820.209H1183.72V842.609H1189.72C1189.72 842.609 1187.37 841.209 1187.37 838.339V820.219H1193.56V820.209Z" fill="#F8F0D2"/>
<path d="M1217.12 842.609H1225.62C1225.62 842.609 1223.22 841.209 1223.22 838.339V829.649C1223.16 822.459 1220.14 816.689 1213.62 816.689C1209.06 816.689 1205.56 819.479 1203.54 823.649V805.999H1197.46C1197.46 805.999 1199.81 807.439 1199.81 810.309V838.329C1199.81 841.209 1197.46 842.599 1197.46 842.599H1205.9C1205.9 842.599 1203.5 841.199 1203.5 838.329L1203.54 829.559C1203.54 824.999 1207.73 820.209 1213.62 820.209C1218.41 820.209 1219.52 824.329 1219.52 829.169V838.339C1219.52 841.209 1217.12 842.609 1217.12 842.609Z" fill="#F8F0D2"/>
<path d="M1254.59 833.399C1254.59 833.399 1251.9 839.589 1243.24 839.589C1235.51 839.589 1232.01 834.109 1232.01 829.419C1233.93 829.839 1241.03 831.569 1246.82 831.569C1253.49 831.569 1255.55 827.919 1255.55 825.239C1255.55 822.559 1253.15 816.699 1242.22 816.699C1231.43 816.699 1228.37 824.579 1228.37 829.949C1228.37 833.739 1230.62 843.099 1243.33 843.099C1253.41 843.099 1256.18 834.369 1256.18 834.369L1254.59 833.399ZM1242.21 820.209C1248.83 820.209 1251.9 823.089 1251.9 825.089C1251.9 831.569 1234.88 828.069 1232.28 827.549C1233 823.939 1236.75 820.209 1242.21 820.209Z" fill="#F8F0D2"/>
<path d="M1278.15 824.559C1278.15 822.209 1280.48 820.209 1286.34 820.209C1292.2 820.209 1294.8 822.209 1294.8 825.859L1298.45 826.299C1298.45 821.839 1295.03 816.699 1286.35 816.699C1277.54 816.699 1274.52 821.849 1274.52 824.579C1274.52 833.409 1295.1 830.909 1295.1 835.519C1295.1 837.769 1291.68 839.599 1286.5 839.599C1281.9 839.599 1277.58 837.579 1277.58 832.789L1273.93 832.349C1273.93 838.019 1278.78 843.199 1286.49 843.199C1297.09 843.199 1298.74 838.009 1298.74 835.509C1298.73 827.209 1278.15 829.649 1278.15 824.559Z" fill="#F8F0D2"/>
<path d="M1327.27 838.289V821.499C1327.27 818.559 1329.67 817.169 1329.67 817.169H1321.23C1321.23 817.169 1323.63 818.569 1323.63 821.499L1323.59 830.269C1323.59 835.309 1319.84 839.579 1313.57 839.579C1309.05 839.579 1307.57 835.459 1307.57 830.599V821.499C1307.57 818.559 1309.97 817.169 1309.97 817.169H1301.57C1301.57 817.169 1303.92 818.569 1303.92 821.499V830.119C1303.96 837.329 1306.54 843.119 1313.57 843.119C1318.11 843.119 1321.57 840.289 1323.59 836.159V842.599H1329.67C1329.67 842.609 1327.27 841.169 1327.27 838.289Z" fill="#F8F0D2"/>
<path d="M1348.49 816.689C1343.93 816.689 1340.43 819.479 1338.37 823.649L1338.41 817.169H1332.31C1332.31 817.169 1334.66 818.629 1334.66 821.499V838.329C1334.66 841.209 1332.31 842.599 1332.31 842.599H1340.73C1340.73 842.599 1338.38 841.199 1338.38 838.329V829.559C1338.38 824.369 1342.21 820.209 1348.5 820.209C1352.04 820.209 1353.15 823.229 1353.15 828.309L1356.84 828.729C1356.63 822.059 1354.28 816.689 1348.49 816.689Z" fill="#F8F0D2"/>
<path d="M1379.89 817.169L1381.95 818.049C1383.16 818.569 1383.68 819.929 1383.2 821.069L1376.05 839.109H1373.76L1366.61 821.069C1366.13 819.919 1366.69 818.569 1367.84 818.049L1369.9 817.169H1357.98C1360.42 818.339 1362.36 820.339 1363.36 822.879L1371.24 842.609L1378.68 842.649L1386.49 822.879C1387.49 820.339 1389.41 818.339 1391.91 817.169H1379.89Z" fill="#F8F0D2"/>
<path d="M1393.28 842.609H1401.7C1401.7 842.609 1399.35 841.209 1399.35 838.339L1399.39 817.169H1393.29C1393.29 817.169 1395.64 818.629 1395.64 821.499V838.329C1395.64 841.209 1393.28 842.609 1393.28 842.609ZM1397.47 814.729C1398.87 814.729 1399.35 813.329 1399.35 811.669C1399.35 809.939 1398.87 808.549 1397.47 808.549C1396.03 808.549 1395.64 809.949 1395.64 811.669C1395.64 813.329 1396.03 814.729 1397.47 814.729Z" fill="#F8F0D2"/>
<path d="M1424.9 817.169L1426.96 818.049C1428.17 818.569 1428.69 819.929 1428.21 821.069L1421.06 839.109H1418.77L1411.62 821.069C1411.14 819.919 1411.7 818.569 1412.85 818.049L1414.91 817.169H1402.97C1405.41 818.339 1407.35 820.339 1408.35 822.879L1416.23 842.609L1423.67 842.649L1431.48 822.879C1432.48 820.339 1434.4 818.339 1436.9 817.169H1424.9Z" fill="#F8F0D2"/>
<path d="M1465.64 838.329V829.889C1465.64 825.329 1463.68 822.059 1461.22 819.909C1458.82 817.699 1455.84 816.679 1451.72 816.679C1441.95 816.679 1440.49 825.029 1440.49 825.029L1442.03 826.029C1444.05 822.449 1445.82 820.199 1451.72 820.199C1457.97 820.199 1461.95 823.779 1461.95 829.889V830.219C1459.89 829.639 1452.93 828.049 1447.12 828.049C1442.37 828.049 1438.39 829.969 1438.39 834.239C1438.39 840.639 1445.83 843.069 1451.72 843.069C1456.05 843.069 1459.49 841.109 1461.95 837.949L1462.33 842.639H1468.85C1468.85 842.649 1465.64 841.209 1465.64 838.329ZM1451.72 839.579C1446.55 839.579 1442.03 838.039 1442.03 834.679C1442.03 828.389 1457.91 831.329 1461.7 832.029C1460.99 835.609 1457.39 839.579 1451.72 839.579Z" fill="#F8F0D2"/>
<path d="M1470.83 842.609H1479.23C1479.23 842.609 1476.88 841.209 1476.88 838.339L1476.92 806.009H1470.84C1470.84 806.009 1473.18 807.449 1473.18 810.319V838.339C1473.17 841.209 1470.83 842.609 1470.83 842.609Z" fill="#F8F0D2"/>
<path d="M1512.42 816.689C1507.86 816.689 1504.36 819.479 1502.3 823.649L1502.34 817.169H1496.24C1496.24 817.169 1498.59 818.629 1498.59 821.499V838.329C1498.59 841.209 1496.24 842.599 1496.24 842.599H1504.66C1504.66 842.599 1502.31 841.199 1502.31 838.329V829.559C1502.31 824.369 1506.14 820.209 1512.43 820.209C1515.97 820.209 1517.08 823.229 1517.08 828.309L1520.77 828.729C1520.57 822.059 1518.21 816.689 1512.42 816.689Z" fill="#F8F0D2"/>
<path d="M1550.6 838.329V829.889C1550.6 825.329 1548.64 822.059 1546.18 819.909C1543.78 817.699 1540.8 816.679 1536.68 816.679C1526.91 816.679 1525.45 825.029 1525.45 825.029L1526.99 826.029C1529.01 822.449 1530.78 820.199 1536.68 820.199C1542.93 820.199 1546.91 823.779 1546.91 829.889V830.219C1544.85 829.639 1537.89 828.049 1532.08 828.049C1527.33 828.049 1523.35 829.969 1523.35 834.239C1523.35 840.639 1530.79 843.069 1536.68 843.069C1541.01 843.069 1544.45 841.109 1546.91 837.949L1547.29 842.639H1553.81C1553.81 842.649 1550.6 841.209 1550.6 838.329ZM1536.68 839.579C1531.51 839.579 1526.99 838.039 1526.99 834.679C1526.99 828.389 1542.87 831.329 1546.66 832.029C1545.95 835.609 1542.35 839.579 1536.68 839.579Z" fill="#F8F0D2"/>
<path d="M1568.16 820.209L1570.51 817.169H1562.01V809.209H1558.32V817.169H1555.97V820.209H1558.32V842.609H1564.32C1564.32 842.609 1561.97 841.209 1561.97 838.339V820.219H1568.16V820.209Z" fill="#F8F0D2"/>
<path d="M1598.72 833.399C1598.72 833.399 1596.03 839.589 1587.37 839.589C1579.64 839.589 1576.14 834.109 1576.14 829.419C1578.06 829.839 1585.16 831.569 1590.95 831.569C1597.62 831.569 1599.68 827.919 1599.68 825.239C1599.68 822.559 1597.28 816.699 1586.35 816.699C1575.56 816.699 1572.5 824.579 1572.5 829.949C1572.5 833.739 1574.75 843.099 1587.46 843.099C1597.54 843.099 1600.31 834.369 1600.31 834.369L1598.72 833.399ZM1586.35 820.209C1592.98 820.209 1596.04 823.089 1596.04 825.089C1596.04 831.569 1579.02 828.069 1576.42 827.549C1577.14 823.939 1580.89 820.209 1586.35 820.209Z" fill="#F8F0D2"/>
<path d="M1202.5 883.654C1197.94 883.654 1194.4 886.484 1192.38 890.674C1192.38 882.134 1192.38 872.964 1192.38 872.964H1186.34C1186.34 872.964 1188.69 874.404 1188.69 877.274V909.564H1194.73C1194.73 909.564 1192.38 908.164 1192.38 905.294C1192.38 905.294 1192.38 904.484 1192.38 903.084C1194.4 907.204 1197.94 910.084 1202.5 910.084C1209.12 910.084 1214.94 904.144 1214.94 896.854C1214.94 889.574 1209.13 883.654 1202.5 883.654ZM1202.5 906.554C1195.69 906.554 1192.38 901.804 1192.38 896.864C1192.38 891.534 1195.73 887.174 1202.5 887.174C1207.1 887.174 1211.23 891.824 1211.23 896.864C1211.23 902.094 1206.92 906.554 1202.5 906.554Z" fill="#F8F0D2"/>
<path d="M1238.49 884.134L1240.59 885.014C1241.74 885.534 1242.32 886.894 1241.84 888.034L1234.32 906.934H1232.67L1225.15 888.034C1224.67 886.884 1225.23 885.534 1226.4 885.014L1228.46 884.134H1216.65C1219.09 885.304 1221.03 887.304 1222.03 889.844L1229.84 909.574H1233.3L1231.72 913.514C1230.43 916.824 1227.26 918.934 1223.72 918.934V920.814C1229.14 920.814 1234.03 917.504 1235.99 912.464L1237.14 909.634V909.594L1244.97 889.864C1245.97 887.324 1247.89 885.324 1250.35 884.154H1238.49V884.134Z" fill="#F8F0D2"/>
<path d="M373.046 698.334C373.046 695.124 375.396 694.024 375.396 694.024H366.996C366.996 694.024 369.346 695.464 369.346 698.334V723.334C369.346 726.214 366.996 727.604 366.996 727.604H375.396C375.396 727.604 373.046 726.204 373.046 723.334V698.334Z" fill="#89BBE4"/>
<path d="M397.799 727.604H406.239C406.239 727.604 403.839 726.204 403.839 723.334V714.644C403.799 707.454 401.189 701.684 394.189 701.684C389.629 701.684 386.169 704.474 384.169 708.644V702.164H378.109C378.109 702.164 380.459 703.624 380.459 706.494V723.324C380.459 726.204 378.109 727.594 378.109 727.594H386.529C386.529 727.594 384.109 726.194 384.109 723.324L384.169 714.554C384.169 709.514 387.899 705.204 394.189 705.204C398.689 705.204 400.189 709.324 400.189 714.164V723.334C400.199 726.204 397.799 727.604 397.799 727.604Z" fill="#89BBE4"/>
<path d="M435.11 716.704C435.11 716.704 432.34 724.584 422.65 724.584C417.09 724.584 412.67 719.834 412.67 714.894C412.67 709.564 416.32 705.204 422.5 705.204C428.29 705.204 432.29 708.604 432.29 712.434L436.12 712.834C436.12 706.584 430.08 701.684 422.64 701.684C413.95 701.684 409.02 707.604 409.02 714.894C409.02 722.184 414.58 728.124 422.64 728.124C434.14 728.124 436.68 717.724 436.68 717.724L435.11 716.704Z" fill="#89BBE4"/>
<path d="M455.717 701.684C451.157 701.684 447.657 704.474 445.597 708.644L445.637 702.164H439.537C439.537 702.164 441.887 703.624 441.887 706.494V723.324C441.887 726.204 439.537 727.594 439.537 727.594H447.957C447.957 727.594 445.607 726.194 445.607 723.324V714.554C445.607 709.364 449.437 705.204 455.727 705.204C459.267 705.204 460.377 708.224 460.377 713.304L464.067 713.724C463.857 707.064 461.507 701.684 455.717 701.684Z" fill="#89BBE4"/>
<path d="M493.125 718.394C493.125 718.394 490.435 724.584 481.775 724.584C474.045 724.584 470.545 719.104 470.545 714.414C472.465 714.834 479.565 716.564 485.355 716.564C492.025 716.564 494.085 712.914 494.085 710.234C494.085 707.554 491.685 701.694 480.755 701.694C469.965 701.694 466.905 709.574 466.905 714.944C466.905 718.734 469.155 728.094 481.865 728.094C491.945 728.094 494.715 719.364 494.715 719.364L493.125 718.394ZM480.745 705.204C487.365 705.204 490.435 708.084 490.435 710.084C490.435 716.564 473.415 713.064 470.815 712.544C471.535 708.934 475.285 705.204 480.745 705.204Z" fill="#89BBE4"/>
<path d="M525.028 723.334V714.894C525.028 710.334 523.068 707.064 520.608 704.914C518.208 702.704 515.228 701.684 511.108 701.684C501.338 701.684 499.878 710.034 499.878 710.034L501.418 711.034C503.438 707.454 505.208 705.204 511.108 705.204C517.358 705.204 521.338 708.784 521.338 714.894V715.224C519.278 714.644 512.318 713.054 506.508 713.054C501.758 713.054 497.778 714.974 497.778 719.244C497.778 725.644 505.218 728.074 511.108 728.074C515.438 728.074 518.878 726.114 521.338 722.954L521.718 727.644H528.238C528.238 727.644 525.028 726.204 525.028 723.334ZM511.108 724.584C505.938 724.584 501.418 723.044 501.418 719.684C501.418 713.394 517.298 716.334 521.088 717.034C520.378 720.604 516.778 724.584 511.108 724.584Z" fill="#89BBE4"/>
<path d="M534.926 709.564C534.926 707.214 537.256 705.214 543.116 705.214C548.976 705.214 551.576 707.214 551.576 710.864L555.226 711.304C555.226 706.844 551.806 701.704 543.126 701.704C534.316 701.704 531.296 706.854 531.296 709.584C531.296 718.414 551.876 715.914 551.876 720.524C551.876 722.774 548.456 724.604 543.276 724.604C538.676 724.604 534.356 722.584 534.356 717.794L530.706 717.354C530.706 723.024 535.556 728.204 543.266 728.204C553.866 728.204 555.516 723.014 555.516 720.514C555.506 712.204 534.926 714.644 534.926 709.564Z" fill="#89BBE4"/>
<path d="M585.334 718.394C585.334 718.394 582.644 724.584 573.984 724.584C566.254 724.584 562.754 719.104 562.754 714.414C564.674 714.834 571.774 716.564 577.564 716.564C584.234 716.564 586.294 712.914 586.294 710.234C586.294 707.554 583.894 701.694 572.964 701.694C562.174 701.694 559.114 709.574 559.114 714.944C559.114 718.734 561.364 728.094 574.074 728.094C584.154 728.094 586.924 719.364 586.924 719.364L585.334 718.394ZM572.954 705.204C579.574 705.204 582.644 708.084 582.644 710.084C582.644 716.564 565.624 713.064 563.024 712.544C563.744 708.934 567.494 705.204 572.954 705.204Z" fill="#89BBE4"/>
<path d="M604.281 727.604H612.701C612.701 727.604 610.351 726.204 610.351 723.334L610.391 702.164H604.291C604.291 702.164 606.641 703.624 606.641 706.494V723.324C606.631 726.204 604.281 727.604 604.281 727.604ZM608.461 699.734C609.861 699.734 610.341 698.334 610.341 696.674C610.341 694.944 609.861 693.554 608.461 693.554C607.021 693.554 606.631 694.954 606.631 696.674C606.631 698.334 607.031 699.734 608.461 699.734Z" fill="#89BBE4"/>
<path d="M634.997 727.604H643.437C643.437 727.604 641.037 726.204 641.037 723.334V714.644C640.997 707.454 638.387 701.684 631.387 701.684C626.827 701.684 623.367 704.474 621.367 708.644V702.164H615.307C615.307 702.164 617.657 703.624 617.657 706.494V723.324C617.657 726.204 615.307 727.594 615.307 727.594H623.727C623.727 727.594 621.307 726.194 621.307 723.324L621.367 714.554C621.367 709.514 625.097 705.204 631.387 705.204C635.887 705.204 637.387 709.324 637.387 714.164V723.334C637.397 726.204 634.997 727.604 634.997 727.604Z" fill="#89BBE4"/>
<path d="M664.893 709.564C664.893 707.214 667.223 705.214 673.083 705.214C678.943 705.214 681.543 707.214 681.543 710.864L685.193 711.304C685.193 706.844 681.773 701.704 673.093 701.704C664.283 701.704 661.263 706.854 661.263 709.584C661.263 718.414 681.843 715.914 681.843 720.524C681.843 722.774 678.423 724.604 673.243 724.604C668.643 724.604 664.323 722.584 664.323 717.794L660.673 717.354C660.673 723.024 665.523 728.204 673.233 728.204C683.833 728.204 685.483 723.014 685.483 720.514C685.473 712.204 664.893 714.644 664.893 709.564Z" fill="#89BBE4"/>
<path d="M702.59 701.684C695.3 701.684 688.97 707.604 688.97 714.894C688.97 722.184 695.3 728.124 702.59 728.124C709.88 728.124 716.21 722.184 716.21 714.894C716.22 707.604 709.88 701.684 702.59 701.684ZM702.59 724.584C696.84 724.584 692.61 719.874 692.61 714.894C692.61 709.564 696.84 705.204 702.59 705.204C708.34 705.204 712.57 709.804 712.57 714.894C712.57 719.734 708.34 724.584 702.59 724.584Z" fill="#89BBE4"/>
<path d="M719.179 727.604H727.599C727.599 727.604 725.249 726.204 725.249 723.334L725.289 702.164H719.189C719.189 702.164 721.539 703.624 721.539 706.494V723.324C721.539 726.204 719.179 727.604 719.179 727.604ZM723.369 699.734C724.769 699.734 725.249 698.334 725.249 696.674C725.249 694.944 724.769 693.554 723.369 693.554C721.929 693.554 721.539 694.954 721.539 696.674C721.539 698.334 721.929 699.734 723.369 699.734Z" fill="#89BBE4"/>
<path d="M730.135 727.604H738.535C738.535 727.604 736.185 726.204 736.185 723.334L736.225 691.004H730.145C730.145 691.004 732.495 692.444 732.495 695.314V723.334C732.485 726.204 730.135 727.604 730.135 727.604Z" fill="#89BBE4"/>
<path d="M794.024 702.164L795.604 702.854C797.064 703.414 797.814 705.064 797.334 706.544L791.834 724.104H790.334L783.484 702.164H776.604L769.704 724.104H768.264L762.744 706.544C762.264 705.064 762.974 703.424 764.474 702.854L766.014 702.164H754.214C756.614 703.264 758.484 705.334 759.294 707.874L765.544 727.604H772.444L779.364 705.684H780.694L787.614 727.604H794.574L800.804 707.834C801.614 705.294 803.494 703.234 805.884 702.164H794.024Z" fill="#89BBE4"/>
<path d="M834.577 723.334V714.894C834.577 710.334 832.617 707.064 830.157 704.914C827.757 702.704 824.777 701.684 820.657 701.684C810.887 701.684 809.427 710.034 809.427 710.034L810.967 711.034C812.987 707.454 814.757 705.204 820.657 705.204C826.907 705.204 830.887 708.784 830.887 714.894V715.224C828.827 714.644 821.867 713.054 816.057 713.054C811.307 713.054 807.327 714.974 807.327 719.244C807.327 725.644 814.767 728.074 820.657 728.074C824.987 728.074 828.427 726.114 830.887 722.954L831.267 727.644H837.787C837.777 727.644 834.577 726.204 834.577 723.334ZM820.657 724.584C815.487 724.584 810.967 723.044 810.967 719.684C810.967 713.394 826.847 716.334 830.637 717.034C829.927 720.604 826.327 724.584 820.657 724.584Z" fill="#89BBE4"/>
<path d="M852.135 705.204L854.485 702.164H845.985V694.204H842.305V702.164H839.955V705.204H842.305V727.604H848.305C848.305 727.604 845.955 726.204 845.955 723.334V705.214H852.135V705.204Z" fill="#89BBE4"/>
<path d="M882.693 718.394C882.693 718.394 880.003 724.584 871.343 724.584C863.613 724.584 860.113 719.104 860.113 714.414C862.033 714.834 869.133 716.564 874.923 716.564C881.593 716.564 883.653 712.914 883.653 710.234C883.653 707.554 881.253 701.694 870.323 701.694C859.533 701.694 856.473 709.574 856.473 714.944C856.473 718.734 858.723 728.094 871.433 728.094C881.513 728.094 884.283 719.364 884.283 719.364L882.693 718.394ZM870.313 705.204C876.933 705.204 880.003 708.084 880.003 710.084C880.003 716.564 862.983 713.064 860.383 712.544C861.103 708.934 864.853 705.204 870.313 705.204Z" fill="#89BBE4"/>
<path d="M903.436 701.684C898.876 701.684 895.376 704.474 893.316 708.644L893.356 702.164H887.256C887.256 702.164 889.606 703.624 889.606 706.494V723.324C889.606 726.204 887.256 727.594 887.256 727.594H895.676C895.676 727.594 893.326 726.194 893.326 723.324V714.554C893.326 709.364 897.156 705.204 903.446 705.204C906.986 705.204 908.096 708.224 908.096 713.304L911.786 713.724C911.576 707.064 909.226 701.684 903.436 701.684Z" fill="#89BBE4"/>
<path d="M944.839 701.684C940.279 701.684 936.779 704.474 934.719 708.644L934.759 702.164H928.659C928.659 702.164 931.009 703.624 931.009 706.494V723.324C931.009 726.204 928.659 727.594 928.659 727.594H937.079C937.079 727.594 934.729 726.194 934.729 723.324V714.554C934.729 709.364 938.559 705.204 944.849 705.204C948.389 705.204 949.499 708.224 949.499 713.304L953.189 713.724C952.979 707.064 950.629 701.684 944.839 701.684Z" fill="#89BBE4"/>
<path d="M982.247 718.394C982.247 718.394 979.557 724.584 970.897 724.584C963.167 724.584 959.667 719.104 959.667 714.414C961.587 714.834 968.687 716.564 974.477 716.564C981.147 716.564 983.207 712.914 983.207 710.234C983.207 707.554 980.807 701.694 969.877 701.694C959.087 701.694 956.027 709.574 956.027 714.944C956.027 718.734 958.277 728.094 970.987 728.094C981.067 728.094 983.837 719.364 983.837 719.364L982.247 718.394ZM969.867 705.204C976.487 705.204 979.557 708.084 979.557 710.084C979.557 716.564 962.537 713.064 959.937 712.544C960.657 708.934 964.407 705.204 969.867 705.204Z" fill="#89BBE4"/>
<path d="M999.09 705.204L1001.44 702.164H992.94V694.204H989.25V702.164H986.9V705.204H989.25V727.604H995.25C995.25 727.604 992.9 726.204 992.9 723.334V705.214H999.09V705.204Z" fill="#89BBE4"/>
<path d="M1029.65 718.394C1029.65 718.394 1026.96 724.584 1018.3 724.584C1010.57 724.584 1007.07 719.104 1007.07 714.414C1008.99 714.834 1016.09 716.564 1021.88 716.564C1028.55 716.564 1030.61 712.914 1030.61 710.234C1030.61 707.554 1028.21 701.694 1017.28 701.694C1006.49 701.694 1003.43 709.574 1003.43 714.944C1003.43 718.734 1005.68 728.094 1018.39 728.094C1028.47 728.094 1031.24 719.364 1031.24 719.364L1029.65 718.394ZM1017.27 705.204C1023.89 705.204 1026.96 708.084 1026.96 710.084C1026.96 716.564 1009.94 713.064 1007.34 712.544C1008.06 708.934 1011.81 705.204 1017.27 705.204Z" fill="#89BBE4"/>
<path d="M1053.88 727.604H1062.32C1062.32 727.604 1059.92 726.204 1059.92 723.334V714.644C1059.88 707.454 1057.27 701.684 1050.27 701.684C1045.71 701.684 1042.25 704.474 1040.25 708.644V702.164H1034.19C1034.19 702.164 1036.54 703.624 1036.54 706.494V723.324C1036.54 726.204 1034.19 727.594 1034.19 727.594H1042.61C1042.61 727.594 1040.19 726.194 1040.19 723.324L1040.25 714.554C1040.25 709.514 1043.98 705.204 1050.27 705.204C1054.77 705.204 1056.27 709.324 1056.27 714.164V723.334C1056.28 726.204 1053.88 727.604 1053.88 727.604Z" fill="#89BBE4"/>
<path d="M1077.05 705.204L1079.4 702.164H1070.9V694.204H1067.21V702.164H1064.86V705.204H1067.21V727.604H1073.21C1073.21 727.604 1070.86 726.204 1070.86 723.334V705.214H1077.05V705.204Z" fill="#89BBE4"/>
<path d="M1081.02 727.604H1089.44C1089.44 727.604 1087.09 726.204 1087.09 723.334L1087.13 702.164H1081.03C1081.03 702.164 1083.38 703.624 1083.38 706.494V723.324C1083.38 726.204 1081.02 727.604 1081.02 727.604ZM1085.21 699.734C1086.61 699.734 1087.09 698.334 1087.09 696.674C1087.09 694.944 1086.61 693.554 1085.21 693.554C1083.77 693.554 1083.38 694.954 1083.38 696.674C1083.38 698.334 1083.77 699.734 1085.21 699.734Z" fill="#89BBE4"/>
<path d="M1105.94 701.684C1098.65 701.684 1092.32 707.604 1092.32 714.894C1092.32 722.184 1098.65 728.124 1105.94 728.124C1113.23 728.124 1119.56 722.184 1119.56 714.894C1119.56 707.604 1113.23 701.684 1105.94 701.684ZM1105.94 724.584C1100.19 724.584 1095.96 719.874 1095.96 714.894C1095.96 709.564 1100.19 705.204 1105.94 705.204C1111.69 705.204 1115.92 709.804 1115.92 714.894C1115.92 719.734 1111.69 724.584 1105.94 724.584Z" fill="#89BBE4"/>
<path d="M1142.21 727.604H1150.65C1150.65 727.604 1148.25 726.204 1148.25 723.334V714.644C1148.21 707.454 1145.6 701.684 1138.6 701.684C1134.04 701.684 1130.58 704.474 1128.58 708.644V702.164H1122.52C1122.52 702.164 1124.87 703.624 1124.87 706.494V723.324C1124.87 726.204 1122.52 727.594 1122.52 727.594H1130.94C1130.94 727.594 1128.52 726.194 1128.52 723.324L1128.58 714.554C1128.58 709.514 1132.31 705.204 1138.6 705.204C1143.1 705.204 1144.6 709.324 1144.6 714.164V723.334C1144.6 726.204 1142.21 727.604 1142.21 727.604Z" fill="#89BBE4"/>
<g clip-path="url(#clip0_23_467)">
<path d="M937.748 614C885.025 614 842.281 569.277 842.281 514.095C842.281 458.913 886.549 400.224 939.078 350.835C989.561 398.803 1033.22 458.913 1033.22 514.095C1033.22 569.277 990.472 614 937.748 614Z" fill="#73CDFB"/>
<path d="M930.428 387.695C914.905 396.423 877.644 444.932 869.726 461.291C863.675 473.789 858.82 491.74 858.82 505.737C858.82 513.09 854.159 525.851 861.539 530.424C862.719 531.15 864.273 530.424 865.633 530.424C875.433 530.424 879.87 522.22 882.694 513.492C894.811 475.875 904.776 436.914 926.349 403.437C929.023 399.297 933.476 393.797 931.802 388.622" fill="white" fill-opacity="0.525"/>
<path d="M842.505 507.714C897.978 654.552 1018.02 548.73 1030.54 535.97C1025.15 565.6 1004.38 592.249 977.026 605.179C964.446 611.127 951.523 613.815 937.734 614C930.488 614 923.242 613.15 916.175 611.436C888.775 604.824 865.408 585.498 852.724 559.575C846.076 545.996 842.864 531.829 842.311 516.674C842.251 512.704 842.251 515.083 842.416 509.553L842.505 507.714Z" fill="#5191B3" fill-opacity="0.347"/>
<path d="M1012.9 496.19C1006.61 497.765 1002.33 507.436 998.689 512.781C993.475 520.428 990.831 558.586 1007.91 555.527C1010.51 555.064 1013.66 555.064 1015.86 553.395C1025.67 545.918 1041.66 490.783 1011.15 496.251" fill="white" fill-opacity="0.274"/>
<mask id="mask0_23_467" style="mask-type:luminance" maskUnits="userSpaceOnUse" x="1013" y="335" width="104" height="136">
<path d="M1117 335H1013.42V470.128H1117V335Z" fill="white"/>
</mask>
<g mask="url(#mask0_23_467)">
<path d="M1065.59 468.29C1037.29 468.29 1014.36 445.642 1014.36 417.727C1014.36 389.811 1038.12 360.088 1066.31 335.093C1093.39 359.378 1116.82 389.796 1116.82 417.727C1116.82 445.658 1093.87 468.29 1065.59 468.29Z" fill="#73CDFB"/>
</g>
<path d="M1061.66 353.739C1053.33 358.158 1033.34 382.705 1029.09 390.986C1025.85 397.319 1023.24 406.403 1023.24 413.479C1023.24 417.202 1020.73 423.659 1024.7 425.976C1025.33 426.332 1026.16 425.976 1026.9 425.976C1032.16 425.976 1034.53 421.821 1036.04 417.403C1042.55 398.355 1047.89 378.627 1059.47 361.695C1060.9 359.61 1063.29 356.814 1062.39 354.203" fill="white" fill-opacity="0.525"/>
<path d="M1014.48 414.482C1044.26 488.805 1108.68 435.245 1115.4 428.788C1112.5 443.788 1101.36 457.275 1086.69 463.825C1079.93 466.837 1073 468.197 1065.61 468.29C1061.72 468.29 1057.82 467.857 1054.04 466.992C1039.34 463.64 1026.81 453.876 1019.98 440.745C1016.41 433.87 1014.69 426.702 1014.39 419.024C1014.36 417.016 1014.36 418.221 1014.45 415.409L1014.48 414.482Z" fill="#5191B3" fill-opacity="0.347"/>
<path d="M1105.9 408.658C1102.52 409.462 1100.24 414.343 1098.28 417.062C1095.49 420.94 1094.07 440.25 1103.23 438.706C1104.61 438.474 1106.32 438.458 1107.48 437.624C1112.76 433.839 1121.33 405.939 1104.96 408.705" fill="white" fill-opacity="0.274"/>
<mask id="mask1_23_467" style="mask-type:luminance" maskUnits="userSpaceOnUse" x="754" y="437" width="71" height="106">
<path d="M824.174 437.176H754V542.226H824.174V437.176Z" fill="white"/>
</mask>
<g mask="url(#mask1_23_467)">
<path d="M788.437 542.118C769.418 542.118 754 524.352 754 502.431C754 480.494 769.971 457.166 788.915 437.547C807.127 456.61 822.874 480.509 822.874 502.431C822.874 524.352 807.456 542.118 788.437 542.118Z" fill="#73CDFB"/>
</g>
<path d="M785.793 452.177C780.19 455.653 766.759 474.932 763.89 481.436C761.709 486.411 759.946 493.532 759.946 499.094C759.946 502.029 758.273 507.081 760.932 508.904C761.351 509.197 761.918 508.904 762.396 508.904C765.937 508.904 767.536 505.644 768.552 502.184C772.929 487.229 776.515 471.75 784.299 458.433C785.255 456.796 786.868 454.602 786.271 452.548" fill="white" fill-opacity="0.525"/>
<mask id="mask2_23_467" style="mask-type:luminance" maskUnits="userSpaceOnUse" x="754" y="498" width="69" height="45">
<path d="M822.187 498.97H754V542.226H822.187V498.97Z" fill="white"/>
</mask>
<g mask="url(#mask2_23_467)">
<path d="M754.075 499.882C774.094 558.246 817.406 516.18 821.918 511.113C819.961 522.885 812.476 533.467 802.6 538.627C798.058 540.99 793.397 542.056 788.437 542.133C785.822 542.133 783.208 541.794 780.668 541.114C770.778 538.488 762.352 530.81 757.78 520.506C755.389 515.114 754.209 509.475 754.015 503.45C753.985 501.875 753.985 502.817 754.045 500.608L754.075 499.882Z" fill="#5191B3" fill-opacity="0.347"/>
</g>
<path d="M815.538 495.309C813.267 495.943 811.729 499.789 810.414 501.906C808.531 504.934 807.575 520.104 813.731 518.884C814.657 518.698 815.807 518.698 816.599 518.034C820.14 515.068 825.907 493.162 814.896 495.325" fill="white" fill-opacity="0.274"/>
</g>
<g clip-path="url(#clip1_23_467)">
<path d="M1075.11 220.983C1069.17 220.983 1064.53 224.673 1061.9 230.133C1061.9 218.983 1061.9 207.013 1061.9 207.013H1054C1054 207.013 1057.06 208.913 1057.06 212.663V254.813H1064.96C1064.96 254.813 1061.9 253.003 1061.9 249.233C1061.9 249.233 1061.9 248.173 1061.9 246.353C1064.52 251.753 1069.17 255.503 1075.11 255.503C1083.76 255.503 1091.34 247.733 1091.34 238.213C1091.34 228.693 1083.75 220.983 1075.11 220.983ZM1075.11 250.853C1066.21 250.853 1061.9 244.643 1061.9 238.183C1061.9 231.243 1066.28 225.533 1075.11 225.533C1081.13 225.533 1086.51 231.613 1086.51 238.183C1086.5 245.023 1080.88 250.853 1075.11 250.853Z" fill="#73CDFB"/>
<path d="M1130.02 242.773C1130.02 242.773 1126.52 250.853 1115.19 250.853C1105.11 250.853 1100.54 243.703 1100.54 237.563C1103.04 238.123 1112.31 240.393 1119.89 240.393C1128.58 240.393 1131.29 235.623 1131.29 232.123C1131.29 228.603 1128.14 220.973 1113.87 220.973C1099.79 220.973 1095.77 231.243 1095.77 238.243C1095.77 243.203 1098.71 255.413 1115.31 255.413C1128.46 255.413 1132.1 244.013 1132.1 244.013L1130.02 242.773ZM1113.87 225.543C1122.52 225.543 1126.52 229.313 1126.52 231.943C1126.52 240.403 1104.29 235.823 1100.92 235.133C1101.85 230.433 1106.73 225.543 1113.87 225.543Z" fill="#73CDFB"/>
<path d="M1154.76 254.793H1165.72C1165.72 254.793 1162.66 252.983 1162.66 249.213L1162.72 221.613H1154.76C1154.76 221.613 1157.82 223.493 1157.82 227.233V249.213C1157.82 252.983 1154.76 254.793 1154.76 254.793ZM1160.22 218.413C1162.03 218.413 1162.66 216.583 1162.66 214.393C1162.66 212.143 1162.04 210.333 1160.22 210.333C1158.34 210.333 1157.82 212.143 1157.82 214.393C1157.82 216.583 1158.34 218.413 1160.22 218.413Z" fill="#73CDFB"/>
<path d="M1220.46 254.793H1231.48C1231.48 254.793 1228.36 252.983 1228.36 249.213L1228.42 237.883C1228.36 228.483 1225.86 220.983 1215.84 220.983C1209.32 220.983 1203.74 225.363 1201.42 231.563C1200.04 225.353 1197.86 220.983 1190.09 220.983C1184.15 220.983 1179.63 224.603 1176.94 230.063L1177 221.603H1169.04C1169.04 221.603 1172.1 223.413 1172.1 227.223V249.143C1172.1 252.913 1169.04 254.793 1169.04 254.793H1180C1180 254.793 1176.94 252.983 1176.94 249.213V237.753C1176.94 231.253 1182.5 225.543 1190.09 225.543C1196.42 225.543 1197.86 231.443 1197.86 237.253V249.153C1197.86 252.923 1194.74 254.803 1194.74 254.803H1205.76C1205.76 254.803 1202.68 252.993 1202.68 249.223V237.893C1202.68 237.893 1202.68 237.893 1202.68 237.833C1202.68 231.333 1208.26 225.563 1215.85 225.563C1222.16 225.563 1223.6 231.143 1223.6 237.273V249.173C1223.59 252.913 1220.46 254.793 1220.46 254.793Z" fill="#73CDFB"/>
<path d="M1255.53 220.983C1249.59 220.983 1244.95 224.673 1242.32 230.133V221.613H1234.42C1234.42 221.613 1237.48 223.423 1237.48 227.173V263.823C1237.48 267.573 1234.42 269.383 1234.42 269.383H1245.44C1245.44 269.383 1242.32 267.503 1242.32 263.823C1242.32 259.303 1242.32 252.673 1242.32 246.283C1244.94 251.743 1249.59 255.493 1255.53 255.493C1264.18 255.493 1271.76 247.723 1271.76 238.203C1271.76 228.683 1264.18 220.983 1255.53 220.983ZM1255.53 250.853C1246.7 250.853 1242.32 245.143 1242.32 238.183C1242.32 231.743 1246.63 225.533 1255.53 225.533C1261.36 225.533 1266.93 231.363 1266.93 238.183C1266.93 244.833 1261.55 250.853 1255.53 250.853Z" fill="#73CDFB"/>
<path d="M1296.86 220.983C1290.92 220.983 1286.34 224.603 1283.65 230.063L1283.71 221.603H1275.75C1275.75 221.603 1278.81 223.483 1278.81 227.223V249.203C1278.81 252.973 1275.75 254.783 1275.75 254.783H1286.71C1286.71 254.783 1283.65 252.973 1283.65 249.203V237.743C1283.65 230.993 1288.65 225.533 1296.86 225.533C1301.51 225.533 1302.94 229.493 1302.94 236.113L1307.75 236.673C1307.51 227.983 1304.44 220.983 1296.86 220.983Z" fill="#73CDFB"/>
<path d="M1329.12 220.983C1319.6 220.983 1311.33 228.673 1311.33 238.193C1311.33 247.713 1319.6 255.483 1329.12 255.483C1338.64 255.483 1346.91 247.713 1346.91 238.193C1346.91 228.673 1338.64 220.983 1329.12 220.983ZM1329.12 250.853C1321.6 250.853 1316.1 244.703 1316.1 238.183C1316.1 231.243 1321.6 225.533 1329.12 225.533C1336.64 225.533 1342.14 231.553 1342.14 238.183C1342.14 244.523 1336.64 250.853 1329.12 250.853Z" fill="#73CDFB"/>
<path d="M1377.66 221.603L1380.35 222.723C1381.91 223.413 1382.6 225.163 1381.97 226.663L1372.64 250.223H1369.64L1360.31 226.663C1359.69 225.163 1360.43 223.413 1361.93 222.723L1364.62 221.603H1349.04C1352.23 223.103 1354.75 225.723 1356.06 229.063L1366.33 254.793L1376.04 254.853L1386.25 229.063C1387.56 225.733 1390.06 223.103 1393.31 221.603H1377.66Z" fill="#73CDFB"/>
<path d="M1429.81 242.773C1429.81 242.773 1426.31 250.853 1414.98 250.853C1404.9 250.853 1400.33 243.703 1400.33 237.563C1402.83 238.123 1412.1 240.393 1419.68 240.393C1428.37 240.393 1431.08 235.623 1431.08 232.123C1431.08 228.603 1427.93 220.973 1413.66 220.973C1399.58 220.973 1395.56 231.243 1395.56 238.243C1395.56 243.203 1398.5 255.413 1415.1 255.413C1428.25 255.413 1431.89 244.013 1431.89 244.013L1429.81 242.773ZM1413.66 225.543C1422.31 225.543 1426.31 229.313 1426.31 231.943C1426.31 240.403 1404.08 235.823 1400.71 235.133C1401.64 230.433 1406.51 225.543 1413.66 225.543Z" fill="#73CDFB"/>
<path d="M1462.51 254.793L1473.53 254.853C1473.53 254.853 1470.38 252.973 1470.38 249.203V206.993H1462.5C1462.5 206.993 1465.56 208.893 1465.62 212.643C1465.62 217.143 1465.62 223.723 1465.62 230.123C1463 224.663 1458.35 220.973 1452.35 220.973C1443.7 220.973 1436.18 228.663 1436.18 238.183C1436.18 247.703 1443.7 255.473 1452.35 255.473C1458.35 255.473 1463 251.723 1465.62 246.323C1465.62 248.133 1465.62 249.203 1465.62 249.203C1465.63 252.983 1462.51 254.793 1462.51 254.793ZM1452.36 250.853C1446.59 250.853 1440.96 245.023 1440.96 238.183C1440.96 231.623 1446.34 225.533 1452.36 225.533C1461.26 225.533 1465.63 231.243 1465.63 238.183C1465.63 244.643 1461.32 250.853 1452.36 250.853Z" fill="#73CDFB"/>
</g>
<path d="M375.476 231.061L377.286 228.711H370.686V222.501H367.806V228.711H365.996V231.061H367.806V248.481H372.476C372.476 248.481 370.666 247.401 370.666 245.171V231.071H375.476V231.061Z" fill="#F8F7F2"/>
<path d="M393.792 248.481H400.392C400.392 248.481 398.512 247.401 398.512 245.171V238.401C398.492 232.821 396.132 228.341 391.052 228.341C387.512 228.341 384.782 230.511 383.222 233.761V220.011H378.492C378.492 220.011 380.302 221.131 380.302 223.391V245.181C380.302 247.411 378.492 248.491 378.492 248.491H385.052C385.052 248.491 383.172 247.411 383.172 245.181L383.212 238.351C383.212 234.811 386.462 231.081 391.042 231.081C394.772 231.081 395.622 234.291 395.622 238.061V245.181C395.652 247.391 393.792 248.481 393.792 248.481Z" fill="#F8F7F2"/>
<path d="M422.921 241.311C422.921 241.311 420.841 246.121 414.091 246.121C408.091 246.121 405.361 241.871 405.361 238.201C406.841 238.551 412.381 239.891 416.881 239.891C422.071 239.891 423.671 237.061 423.671 234.971C423.671 232.871 421.821 228.321 413.291 228.321C404.891 228.321 402.521 234.441 402.521 238.611C402.521 241.571 404.271 248.841 414.141 248.841C421.991 248.841 424.141 242.051 424.141 242.051L422.921 241.311ZM413.301 231.061C418.451 231.061 420.841 233.291 420.841 234.851C420.841 239.891 407.591 237.161 405.591 236.771C406.131 233.961 409.051 231.061 413.301 231.061Z" fill="#F8F7F2"/>
<path d="M453.666 228.711L455.286 229.381C456.206 229.801 456.616 230.841 456.246 231.731L450.686 245.751H448.896L443.336 231.731C442.956 230.831 443.416 229.791 444.316 229.381L445.916 228.711H436.626C438.526 229.611 440.026 231.171 440.816 233.151L446.916 248.481L452.706 248.521L458.786 233.141C459.556 231.161 461.056 229.601 462.996 228.701H453.666V228.711Z" fill="#F8F7F2"/>
<path d="M484.748 241.311C484.748 241.311 482.668 246.121 475.918 246.121C469.918 246.121 467.188 241.871 467.188 238.201C468.668 238.551 474.208 239.891 478.708 239.891C483.898 239.891 485.498 237.061 485.498 234.971C485.498 232.871 483.648 228.321 475.118 228.321C466.718 228.321 464.348 234.441 464.348 238.611C464.348 241.571 466.098 248.841 475.968 248.841C483.818 248.841 485.968 242.051 485.968 242.051L484.748 241.311ZM475.118 231.061C480.268 231.061 482.658 233.291 482.658 234.851C482.658 239.891 469.408 237.161 467.408 236.771C467.958 233.961 470.868 231.061 475.118 231.061Z" fill="#F8F7F2"/>
<path d="M502.958 229.081C501.728 228.581 499.898 228.331 498.058 228.331C491.768 228.331 488.708 231.541 488.708 235.541C488.708 237.961 490.088 240.081 492.248 241.391L489.418 243.061V244.481C489.418 246.131 491.128 247.771 492.768 247.771H504.848C506.118 247.771 506.198 248.891 506.198 249.481C506.198 251.541 503.578 254.861 498.278 254.861C491.968 254.861 489.318 251.421 489.318 249.341C489.318 249.191 489.318 249.011 489.358 248.821L487.568 248.631C487.668 253.401 491.898 257.591 498.278 257.591C504.878 257.591 509.178 253.151 509.068 248.211C509.028 246.651 507.648 245.041 506.108 245.041H493.508C492.158 245.041 492.318 244.331 492.318 244.331L494.838 242.391C495.818 242.621 496.858 242.771 498.048 242.771C504.398 242.771 507.428 239.521 507.428 235.541C507.428 233.851 506.948 232.291 505.908 231.061C508.098 231.061 508.888 232.501 509.118 233.061C509.178 233.181 509.178 233.251 509.178 233.251V228.711L502.958 229.081ZM498.068 240.041C494.988 240.041 491.628 239.231 491.628 235.541C491.628 231.641 494.978 231.061 498.068 231.061C501.218 231.061 504.568 231.731 504.568 235.541C504.568 239.101 501.208 240.041 498.068 240.041Z" fill="#F8F7F2"/>
<path d="M532.201 241.311C532.201 241.311 530.121 246.121 523.371 246.121C517.371 246.121 514.641 241.871 514.641 238.201C516.121 238.551 521.661 239.891 526.161 239.891C531.351 239.891 532.951 237.061 532.951 234.971C532.951 232.871 531.101 228.321 522.571 228.321C514.171 228.321 511.801 234.441 511.801 238.611C511.801 241.571 513.551 248.841 523.421 248.841C531.271 248.841 533.421 242.051 533.421 242.051L532.201 241.311ZM522.581 231.061C527.731 231.061 530.121 233.291 530.121 234.851C530.121 239.891 516.871 237.161 514.871 236.771C515.411 233.961 518.331 231.061 522.581 231.061Z" fill="#F8F7F2"/>
<path d="M545.312 231.061L547.122 228.711H540.522V222.501H537.642V228.711H535.832V231.061H537.642V248.481H542.312C542.312 248.481 540.502 247.401 540.502 245.171V231.071H545.312V231.061Z" fill="#F8F7F2"/>
<path d="M569.668 245.171V238.591C569.668 235.051 568.148 232.511 566.228 230.841C564.378 229.111 562.058 228.341 558.848 228.341C551.228 228.341 550.118 234.821 550.118 234.821L551.308 235.611C552.868 232.821 554.248 231.071 558.848 231.071C563.678 231.071 566.788 233.861 566.788 238.591V238.861C565.188 238.401 559.768 237.171 555.268 237.171C551.558 237.171 548.478 238.671 548.478 241.981C548.478 246.961 554.248 248.861 558.858 248.861C562.208 248.861 564.898 247.321 566.798 244.861L567.088 248.531H572.168C572.168 248.521 569.668 247.391 569.668 245.171ZM558.858 246.121C554.818 246.121 551.318 244.931 551.318 242.311C551.318 237.431 563.668 239.711 566.608 240.271C566.048 243.041 563.258 246.121 558.858 246.121Z" fill="#F8F7F2"/>
<path d="M583.336 231.061L585.146 228.711H578.546V222.501H575.666V228.711H573.856V231.061H575.666V248.481H580.336C580.336 248.481 578.526 247.401 578.526 245.171V231.071H583.336V231.061Z" fill="#F8F7F2"/>
<path d="M586.422 248.481H592.962C592.962 248.481 591.132 247.401 591.132 245.171L591.172 228.711H586.422C586.422 228.711 588.252 229.811 588.252 232.061V245.161C588.252 247.391 586.422 248.481 586.422 248.481ZM589.672 226.791C590.752 226.791 591.132 225.711 591.132 224.411C591.132 223.061 590.752 221.971 589.672 221.971C588.552 221.971 588.252 223.051 588.252 224.411C588.252 225.711 588.542 226.791 589.672 226.791Z" fill="#F8F7F2"/>
<path d="M605.788 228.331C600.118 228.331 595.188 232.911 595.188 238.581C595.188 244.271 600.128 248.891 605.788 248.891C611.448 248.891 616.368 244.261 616.368 238.581C616.378 232.921 611.458 228.331 605.788 228.331ZM605.788 246.121C601.308 246.121 598.018 242.471 598.018 238.581C598.018 234.461 601.308 231.061 605.788 231.061C610.268 231.061 613.538 234.641 613.538 238.581C613.538 242.351 610.268 246.121 605.788 246.121Z" fill="#F8F7F2"/>
<path d="M633.987 248.481H640.567C640.567 248.481 638.687 247.401 638.687 245.171V238.401C638.647 232.821 636.647 228.341 631.187 228.341C627.647 228.341 624.957 230.511 623.397 233.761V228.721H618.687C618.687 228.721 620.517 229.821 620.517 232.071V245.171C620.517 247.401 618.687 248.481 618.687 248.481H625.227C625.227 248.481 623.347 247.401 623.347 245.171L623.387 238.341C623.387 234.421 626.307 231.071 631.177 231.071C634.677 231.071 635.847 234.281 635.847 238.051V245.171C635.857 247.391 633.987 248.481 633.987 248.481Z" fill="#F8F7F2"/>
<path d="M657.237 234.461C657.237 232.631 659.067 231.061 663.617 231.061C668.177 231.061 670.197 232.621 670.197 235.461L673.027 235.791C673.027 232.311 670.377 228.331 663.607 228.331C656.757 228.331 654.397 232.311 654.397 234.451C654.397 241.301 670.397 239.371 670.397 242.951C670.397 244.701 667.747 246.121 663.727 246.121C660.147 246.121 656.787 244.561 656.787 240.831L653.937 240.501C653.937 244.901 657.707 248.921 663.727 248.921C671.977 248.921 673.227 244.901 673.227 242.961C673.237 236.501 657.237 238.391 657.237 234.461Z" fill="#F8F7F2"/>
<path d="M695.44 245.121V232.061C695.44 229.791 697.32 228.711 697.32 228.711H690.74C690.74 228.711 692.62 229.791 692.62 232.061L692.58 238.891C692.58 242.811 689.66 246.121 684.79 246.121C681.271 246.121 680.12 242.911 680.12 239.141V232.061C680.12 229.791 681.97 228.711 681.97 228.711H675.451C675.451 228.711 677.28 229.791 677.28 232.061V238.771C677.32 244.371 679.32 248.901 684.78 248.901C688.32 248.901 691.01 246.691 692.57 243.481V248.481H697.32C697.32 248.481 695.44 247.351 695.44 245.121Z" fill="#F8F7F2"/>
<path d="M711.935 228.331C708.395 228.331 705.665 230.501 704.055 233.751L704.095 228.711H699.345C699.345 228.711 701.175 229.811 701.175 232.061V245.161C701.175 247.391 699.345 248.471 699.345 248.471H705.885C705.885 248.471 704.055 247.391 704.055 245.161V238.331C704.055 234.291 707.035 231.061 711.935 231.061C714.685 231.061 715.535 233.391 715.535 237.351L718.415 237.681C718.275 232.501 716.435 228.331 711.935 228.331Z" fill="#F8F7F2"/>
<path d="M736.36 228.711L737.98 229.381C738.9 229.801 739.31 230.841 738.94 231.731L733.38 245.751H731.59L726.03 231.731C725.65 230.831 726.11 229.791 727.01 229.381L728.61 228.711H719.32C721.22 229.611 722.72 231.171 723.51 233.151L729.61 248.481L735.4 248.521L741.48 233.141C742.25 231.161 743.75 229.601 745.69 228.701H736.36V228.711Z" fill="#F8F7F2"/>
<path d="M746.781 248.481H753.321C753.321 248.481 751.491 247.401 751.491 245.171L751.531 228.711H746.781C746.781 228.711 748.611 229.811 748.611 232.061V245.161C748.611 247.391 746.781 248.481 746.781 248.481ZM750.031 226.791C751.111 226.791 751.491 225.711 751.491 224.411C751.491 223.061 751.111 221.971 750.031 221.971C748.911 221.971 748.611 223.051 748.611 224.411C748.611 225.711 748.901 226.791 750.031 226.791Z" fill="#F8F7F2"/>
<path d="M771.357 228.711L772.977 229.381C773.897 229.801 774.307 230.841 773.937 231.731L768.377 245.751H766.587L761.027 231.731C760.647 230.831 761.107 229.791 762.007 229.381L763.607 228.711H754.317C756.217 229.611 757.717 231.171 758.507 233.151L764.607 248.481L770.397 248.521L776.477 233.141C777.247 231.161 778.747 229.601 780.687 228.701H771.357V228.711Z" fill="#F8F7F2"/>
<path d="M803.049 245.171V238.591C803.049 235.051 801.529 232.511 799.609 230.841C797.759 229.111 795.439 228.341 792.229 228.341C784.609 228.341 783.499 234.821 783.499 234.821L784.689 235.611C786.249 232.821 787.629 231.071 792.229 231.071C797.059 231.071 800.169 233.861 800.169 238.591V238.861C798.569 238.401 793.149 237.171 788.649 237.171C784.939 237.171 781.859 238.671 781.859 241.981C781.859 246.961 787.629 248.861 792.239 248.861C795.589 248.861 798.279 247.321 800.179 244.861L800.469 248.531H805.549C805.549 248.521 803.049 247.391 803.049 245.171ZM792.229 246.121C788.189 246.121 784.689 244.931 784.689 242.311C784.689 237.431 797.039 239.711 799.979 240.271C799.419 243.041 796.629 246.121 792.229 246.121Z" fill="#F8F7F2"/>
<path d="M807.087 248.481H813.607C813.607 248.481 811.777 247.401 811.777 245.171L811.817 220.001H807.087C807.087 220.001 808.897 221.121 808.897 223.381V245.171C808.897 247.391 807.087 248.481 807.087 248.481Z" fill="#F8F7F2"/>
<path d="M839.432 228.331C835.892 228.331 833.162 230.501 831.552 233.751L831.592 228.711H826.842C826.842 228.711 828.672 229.811 828.672 232.061V245.161C828.672 247.391 826.842 248.471 826.842 248.471H833.382C833.382 248.471 831.552 247.391 831.552 245.161V238.331C831.552 234.291 834.532 231.061 839.432 231.061C842.182 231.061 843.032 233.391 843.032 237.351L845.902 237.681C845.762 232.501 843.932 228.331 839.432 228.331Z" fill="#F8F7F2"/>
<path d="M869.126 245.171V238.591C869.126 235.051 867.606 232.511 865.686 230.841C863.836 229.111 861.516 228.341 858.316 228.341C850.696 228.341 849.586 234.821 849.586 234.821L850.776 235.611C852.336 232.821 853.716 231.071 858.316 231.071C863.146 231.071 866.256 233.861 866.256 238.591V238.861C864.656 238.401 859.236 237.171 854.736 237.171C851.026 237.171 847.946 238.671 847.946 241.981C847.946 246.961 853.716 248.861 858.326 248.861C861.676 248.861 864.366 247.321 866.266 244.861L866.556 248.531H871.636C871.626 248.521 869.126 247.391 869.126 245.171ZM858.306 246.121C854.266 246.121 850.766 244.931 850.766 242.311C850.766 237.431 863.116 239.711 866.056 240.271C865.496 243.041 862.706 246.121 858.306 246.121Z" fill="#F8F7F2"/>
<path d="M882.784 231.061L884.594 228.711H877.994V222.501H875.114V228.711H873.304V231.061H875.114V248.481H879.784C879.784 248.481 877.974 247.401 877.974 245.171V231.071H882.784V231.061Z" fill="#F8F7F2"/>
<path d="M906.54 241.311C906.54 241.311 904.46 246.121 897.71 246.121C891.71 246.121 888.98 241.871 888.98 238.201C890.46 238.551 896 239.891 900.5 239.891C905.69 239.891 907.29 237.061 907.29 234.971C907.29 232.871 905.44 228.321 896.91 228.321C888.51 228.321 886.14 234.441 886.14 238.611C886.14 241.571 887.89 248.841 897.76 248.841C905.61 248.841 907.76 242.051 907.76 242.051L906.54 241.311ZM896.91 231.061C902.06 231.061 904.45 233.291 904.45 234.851C904.45 239.891 891.2 237.161 889.2 236.771C889.74 233.961 892.66 231.061 896.91 231.061Z" fill="#F8F7F2"/>
<path d="M941.836 240.001C941.836 240.001 939.666 246.121 932.126 246.121C927.816 246.121 924.376 242.431 924.376 238.581C924.376 234.461 927.206 231.061 932.026 231.061C936.546 231.061 939.626 233.711 939.626 236.681L942.626 236.971C942.626 232.141 937.916 228.321 932.126 228.321C925.376 228.321 921.546 232.901 921.546 238.571C921.546 244.261 925.856 248.881 932.126 248.881C941.086 248.881 943.066 240.781 943.066 240.781L941.836 240.001Z" fill="#F8F7F2"/>
<path d="M966.538 245.171V238.591C966.538 235.051 965.018 232.511 963.098 230.841C961.248 229.111 958.928 228.341 955.718 228.341C948.098 228.341 946.988 234.821 946.988 234.821L948.178 235.611C949.738 232.821 951.118 231.071 955.718 231.071C960.548 231.071 963.658 233.861 963.658 238.591V238.861C962.058 238.401 956.638 237.171 952.138 237.171C948.428 237.171 945.348 238.671 945.348 241.981C945.348 246.961 951.118 248.861 955.728 248.861C959.078 248.861 961.768 247.321 963.668 244.861L963.958 248.531H969.038C969.038 248.521 966.538 247.391 966.538 245.171ZM955.728 246.121C951.688 246.121 948.188 244.931 948.188 242.311C948.188 237.431 960.538 239.711 963.478 240.271C962.908 243.041 960.118 246.121 955.728 246.121Z" fill="#F8F7F2"/>
<path d="M985.926 248.481H992.506C992.506 248.481 990.626 247.401 990.626 245.171V238.401C990.586 232.821 988.586 228.341 983.126 228.341C979.586 228.341 976.896 230.511 975.336 233.761V228.721H970.626C970.626 228.721 972.456 229.821 972.456 232.071V245.171C972.456 247.401 970.626 248.481 970.626 248.481H977.166C977.166 248.481 975.286 247.401 975.286 245.171L975.326 238.341C975.326 234.421 978.246 231.071 983.116 231.071C986.616 231.071 987.786 234.281 987.786 238.051V245.171C987.806 247.391 985.926 248.481 985.926 248.481Z" fill="#F8F7F2"/>
<path d="M374.707 166.247C372.877 166.247 371.487 166.017 370.557 165.537C369.637 165.067 368.977 164.217 368.577 162.977C368.187 161.727 367.997 159.827 367.997 157.287V116.997H374.707V157.287C374.707 159.827 375.047 161.717 375.747 162.937C376.437 164.147 377.837 164.747 379.937 164.747H381.437V166.247H374.707Z" fill="#F8F7F2"/>
<path d="M389.117 140.127C389.117 137.597 388.767 135.727 388.057 134.507C387.357 133.287 385.977 132.677 383.887 132.677H382.387V131.177H389.117C390.947 131.177 392.347 131.427 393.327 131.927C394.297 132.427 395.007 133.177 395.447 134.177H395.827C396.867 133.137 398.227 132.257 399.887 131.527C401.557 130.807 403.437 130.447 405.537 130.447C407.617 130.447 409.397 130.837 410.887 131.617C412.387 132.387 413.587 133.727 414.487 135.657C415.777 134.017 417.427 132.737 419.447 131.827C421.457 130.907 423.537 130.447 425.677 130.447C428.857 130.447 431.387 131.437 433.277 133.427C435.167 135.417 436.107 138.897 436.107 143.867V166.267H429.397V143.867C429.397 140.287 428.897 137.717 427.897 136.157C426.907 134.587 425.417 133.807 423.417 133.807C422.027 133.807 420.567 134.327 419.017 135.347C417.477 136.367 416.327 137.467 415.577 138.657C415.827 139.397 415.957 141.127 415.957 143.867V166.267H409.247V143.867C409.247 140.287 408.747 137.717 407.747 136.157C406.747 134.587 405.257 133.807 403.267 133.807C400.627 133.807 398.147 135.127 395.807 137.767V166.267H389.097V140.127H389.117Z" fill="#F8F7F2"/>
<path d="M447.699 140.127C447.699 137.597 447.349 135.727 446.639 134.507C445.939 133.287 444.559 132.677 442.469 132.677H440.969V131.177H447.699C449.589 131.177 451.009 131.447 451.969 131.967C452.939 132.497 453.629 133.357 454.029 134.547H454.409C455.299 133.397 456.559 132.427 458.199 131.627C459.849 130.837 461.949 130.437 464.489 130.437C468.769 130.437 472.069 132.167 474.409 135.627C476.749 139.087 477.909 143.447 477.909 148.707C477.909 154.037 476.699 158.427 474.279 161.857C471.869 165.287 468.359 167.007 463.739 167.007C461.849 167.007 460.179 166.807 458.739 166.407C457.289 166.017 455.849 165.467 454.409 164.757V180.447H447.699V140.127ZM461.489 164.017C464.679 164.017 467.039 162.617 468.549 159.827C470.059 157.037 470.819 153.327 470.819 148.707C470.819 144.137 470.099 140.447 468.649 137.647C467.199 134.827 465.069 133.417 462.229 133.417C458.899 133.417 456.279 134.907 454.399 137.897V161.777C455.879 162.477 457.179 163.017 458.279 163.427C459.369 163.827 460.449 164.017 461.489 164.017Z" fill="#F8F7F2"/>
<path d="M501.119 166.997C497.739 166.997 494.809 166.197 492.309 164.577C489.819 162.957 487.929 160.757 486.639 157.977C485.349 155.187 484.699 152.097 484.699 148.707C484.699 145.327 485.349 142.247 486.639 139.457C487.929 136.667 489.819 134.467 492.309 132.857C494.809 131.247 497.749 130.437 501.119 130.437C504.509 130.437 507.439 131.247 509.929 132.857C512.409 134.467 514.309 136.667 515.599 139.457C516.889 142.247 517.539 145.337 517.539 148.707C517.539 152.097 516.889 155.187 515.599 157.977C514.309 160.757 512.419 162.957 509.929 164.577C507.439 166.197 504.499 166.997 501.119 166.997ZM501.119 164.017C502.959 164.017 504.599 163.347 506.019 161.997C507.439 160.657 508.529 158.807 509.289 156.477C510.069 154.137 510.459 151.537 510.459 148.707C510.459 145.877 510.069 143.287 509.289 140.957C508.519 138.617 507.439 136.767 506.019 135.437C504.599 134.097 502.969 133.417 501.119 133.417C499.289 133.417 497.659 134.097 496.239 135.437C494.819 136.767 493.719 138.617 492.949 140.957C492.169 143.287 491.779 145.877 491.779 148.707C491.779 151.537 492.169 154.137 492.949 156.477C493.729 158.807 494.829 160.657 496.239 161.997C497.659 163.347 499.279 164.017 501.119 164.017Z" fill="#F8F7F2"/>
<path d="M526.87 140.127C526.87 137.597 526.52 135.727 525.81 134.507C525.11 133.287 523.73 132.677 521.64 132.677H520.89V131.177H526.87C528.76 131.177 530.18 131.447 531.14 131.967C532.11 132.497 532.8 133.357 533.2 134.547H533.58C534.47 133.397 535.67 132.427 537.18 131.627C538.71 130.837 540.49 130.437 542.53 130.437C544.51 130.437 546.01 130.807 547.01 131.537C547.85 132.197 548.72 133.317 549.61 134.917L546.63 137.147C546.07 136.397 545.28 135.847 544.23 135.477C543.19 135.097 541.99 134.917 540.65 134.917C539.16 134.917 537.8 135.247 536.55 135.917C535.31 136.587 534.32 137.497 533.57 138.647V166.247H526.86V140.127H526.87Z" fill="#F8F7F2"/>
<path d="M566.268 166.997C563.478 166.997 561.278 166.207 559.688 164.617C558.108 163.027 557.308 160.577 557.308 157.287V134.167H552.078V131.167H557.308V124.457L561.038 119.977H564.018V131.167H572.978V134.167H564.018V157.297C564.018 161.787 565.758 164.027 569.248 164.027C570.438 164.027 571.448 163.907 572.268 163.647C573.088 163.397 573.948 163.027 574.848 162.527L575.598 164.027C574.438 164.857 573.168 165.567 571.788 166.147C570.398 166.717 568.558 166.997 566.268 166.997Z" fill="#F8F7F2"/>
<path d="M589.464 166.997C587.864 166.997 586.244 166.667 584.614 165.997C582.974 165.317 581.574 164.207 580.404 162.667C579.234 161.127 578.654 159.087 578.654 156.547C578.654 152.767 580.404 150.087 583.904 148.507C587.414 146.917 592.004 146.107 597.674 146.107H599.924C599.924 141.227 599.244 137.897 597.904 136.107C596.554 134.317 594.614 133.417 592.074 133.417C589.834 133.417 588.044 133.887 586.694 134.837C585.364 135.787 584.414 137.417 583.864 139.757H580.514C580.514 138.077 580.604 136.747 580.804 135.777C581.014 134.807 581.534 133.897 582.384 133.047C583.274 132.157 584.744 131.507 586.824 131.087C588.894 130.657 591.144 130.437 593.574 130.437C597.604 130.437 600.784 131.517 603.114 133.687C605.454 135.847 606.634 139.977 606.634 146.107V166.257H602.904L600.284 162.907H599.934C599.024 164.047 597.704 165.017 595.954 165.827C594.204 166.607 592.054 166.997 589.464 166.997ZM592.824 163.647C594.464 163.647 595.834 163.247 596.924 162.457C598.014 161.657 599.014 160.557 599.924 159.167V149.087H597.674C593.994 149.087 591.084 149.777 588.944 151.147C586.804 152.507 585.734 154.307 585.734 156.547C585.734 158.837 586.414 160.597 587.774 161.817C589.154 163.037 590.834 163.647 592.824 163.647Z" fill="#F8F7F2"/>
<path d="M618.133 140.127C618.133 137.597 617.783 135.727 617.073 134.507C616.373 133.287 614.993 132.677 612.903 132.677H611.403V131.177H618.133C619.963 131.177 621.363 131.427 622.343 131.927C623.313 132.427 624.023 133.177 624.463 134.177H624.843C625.883 133.137 627.243 132.257 628.903 131.527C630.573 130.807 632.453 130.447 634.553 130.447C638.273 130.447 641.313 131.437 643.673 133.427C646.053 135.417 647.233 138.897 647.233 143.867V166.267H640.503V143.867C640.503 140.397 639.713 137.857 638.153 136.247C636.593 134.627 634.643 133.807 632.303 133.807C629.663 133.807 627.183 135.127 624.843 137.767V166.267H618.133V140.127Z" fill="#F8F7F2"/>
<path d="M667.968 166.997C665.178 166.997 662.978 166.207 661.388 164.617C659.808 163.027 659.008 160.577 659.008 157.287V134.167H653.778V131.167H659.008V124.457L662.738 119.977H665.718V131.167H674.678V134.167H665.718V157.297C665.718 161.787 667.458 164.027 670.948 164.027C672.138 164.027 673.148 163.907 673.968 163.647C674.788 163.397 675.648 163.027 676.548 162.527L677.298 164.027C676.138 164.857 674.868 165.567 673.488 166.147C672.098 166.717 670.268 166.997 667.968 166.997Z" fill="#F8F7F2"/>
<path d="M683.114 125.957C683.114 123.417 682.764 121.537 682.074 120.337C681.374 119.117 679.984 118.507 677.884 118.507H676.404V117.007H683.114C684.954 117.007 686.344 117.247 687.264 117.717C688.184 118.187 688.834 119.047 689.244 120.297C689.644 121.537 689.844 123.417 689.844 125.967V166.257H683.114V125.957Z" fill="#F8F7F2"/>
<path d="M703.338 178.937C705.778 178.937 707.778 178.377 709.338 177.247C710.908 176.137 712.268 174.087 713.418 171.097L714.898 166.997L702.958 137.897C701.568 134.317 698.838 132.327 694.748 131.917V130.437H701.098C705.418 130.437 708.398 132.427 710.038 136.397L718.558 157.067L727.958 131.167H731.688L717.148 171.107C715.698 175.037 714.108 177.697 712.358 179.087C710.618 180.467 708.358 181.167 705.588 181.167H703.338V178.937Z" fill="#F8F7F2"/>
<defs>
<clipPath id="clip0_23_467">
<rect width="363" height="279" fill="white" transform="translate(754 335)"/>
</clipPath>
<clipPath id="clip1_23_467">
<rect width="419.53" height="62.38" fill="white" transform="translate(1054 207)"/>
</clipPath>
</defs>
</svg>
