<svg width="567" height="177" viewBox="0 0 567 177" fill="none" xmlns="http://www.w3.org/2000/svg">
<path d="M4.47363 9.08301C5.30371 9.08301 6.37793 8.375 7.69629 6.95898C8.91699 6.95898 9.64941 6.95898 9.89355 6.95898C10.7725 7.00781 11.3096 7.03223 11.5049 7.03223L15.46 6.88574C15.7529 6.88574 16.9492 7.34961 19.0488 8.27734C19.1465 8.32617 19.2686 8.35059 19.415 8.35059C19.5615 8.35059 20.0498 8.13086 20.8799 7.69141H21.6855L35.3818 7.25195C35.7725 7.20312 36.3584 7.44727 37.1396 7.98438C37.5303 8.27734 38.1895 8.57031 39.1172 8.86328L40.3623 7.61816C43.0479 7.61816 45.8066 7.81348 48.6387 8.2041L48.8584 7.98438C49.6885 9.10742 50.4697 9.66895 51.2021 9.66895C51.8857 9.66895 52.5449 9.08301 53.1797 7.91113C54.5469 8.00879 55.7432 8.05762 56.7686 8.05762L67.0225 9.37598L70.2451 9.44922C71.8564 9.83984 73.2725 10.084 74.4932 10.1816C74.6885 11.1582 74.9814 11.6953 75.3721 11.793C75.5674 11.9395 76.5439 12.0859 78.3018 12.2324C78.8389 11.1582 79.4004 10.6211 79.9863 10.6211C80.084 10.6211 80.5723 10.7676 81.4512 11.0605L83.9414 11.1338C84.4297 11.1338 85.2598 11.5 86.4316 12.2324C87.9941 13.209 88.9951 13.6973 89.4346 13.6973L90.9727 13.2578L97.7109 16.1143C102.105 17.042 104.571 17.7012 105.108 18.0918C105.743 18.5801 106.109 18.8242 106.207 18.8242L107.672 19.0439C108.795 19.874 109.625 20.46 110.162 20.8018L113.238 23.2188L116.534 25.2695C118.39 26.6855 119.879 27.6621 121.002 28.1992C120.709 29.2734 120.562 30.0303 120.562 30.4697C120.562 31.7393 120.978 32.374 121.808 32.374C122.491 32.374 123.248 32.2031 124.078 31.8613C125.006 32.9844 126.3 34.3271 127.96 35.8896C129.083 37.0127 129.596 37.7207 129.498 38.0137L130.011 40.2109L131.842 45.2646L131.988 48.6338L133.233 53.1748L133.453 58.7412L133.966 61.085L133.6 66.6514C133.502 69.4834 133.282 71.6562 132.94 73.1699C132.647 74.4395 132.086 76.1973 131.256 78.4434H129.938C129.889 78.6387 129.864 78.8096 129.864 78.9561C129.864 79.0537 130.133 79.5908 130.67 80.5674C130.719 80.7139 130.743 80.9092 130.743 81.1533C130.743 81.8369 130.572 82.6182 130.23 83.4971C129.84 84.4736 129.62 85.0596 129.571 85.2549C128.839 87.5498 128.131 88.6973 127.447 88.6973C126.861 88.6973 126.251 87.9404 125.616 86.4268L124.005 89.0635L124.518 89.9424L124.151 91.4072L125.47 93.3115C124.688 94.3369 123.639 96.2656 122.32 99.0977L120.489 101.441L120.196 102.32L116.9 105.763L116.388 107.081L114.264 109.571C113.482 110.499 112.97 110.963 112.726 110.963C112.481 110.963 112.14 110.743 111.7 110.304H110.602L109.649 109.059C108.771 110.035 108.331 110.792 108.331 111.329C108.331 111.769 108.673 112.403 109.356 113.233C108.185 114.356 106.695 115.504 104.889 116.676C103.863 117.359 103.058 118.067 102.472 118.8C100.958 118.165 99.3955 117.75 97.7842 117.555L97.4912 118.434C98.126 119.312 98.541 120.045 98.7363 120.631C97.8086 121.559 96.1484 122.853 93.7559 124.513L88.7754 127.076C88.3848 127.271 87.5791 127.955 86.3584 129.127C85.2354 128.102 84.21 127.564 83.2822 127.516C82.9404 129.078 82.501 130.079 81.9639 130.519C81.7197 130.665 80.2061 131.104 77.4229 131.837C77.1299 131.886 76.7637 132.081 76.3242 132.423C74.5176 133.937 73.5654 134.693 73.4678 134.693H71.8564C71.6611 134.693 70.9775 135.133 69.8057 136.012C69.5615 136.207 68.4873 136.622 66.583 137.257C66.2412 137.403 65.8018 137.599 65.2646 137.843C62.3838 139.21 60.333 139.991 59.1123 140.187C57.7939 140.284 56.1826 140.626 54.2783 141.212L47.2471 143.629L42.4131 144.068L40.582 144.654L39.3369 144.801L36.627 145.167H35.0156L31.9395 145.899L27.7646 146.046L21.9785 146.485L20.6602 146.412C19.3906 146.363 18.4141 146.29 17.7305 146.192L6.59766 146.632C6.54883 146.632 6.3291 146.705 5.93848 146.852C5.79199 146.9 5.64551 146.925 5.49902 146.925C4.22949 146.925 3.59473 146.314 3.59473 145.094C3.59473 144.703 3.74121 144.41 4.03418 144.215C4.37598 144.02 5.49902 143.556 7.40332 142.823C9.40527 142.091 10.8213 141.432 11.6514 140.846C11.8467 139.527 12.335 138.355 13.1162 137.33C12.9697 135.768 12.8965 134.62 12.8965 133.888L13.8486 128.321V128.248C13.8486 127.711 13.7754 127.125 13.6289 126.49C13.4336 125.807 13.3359 125.465 13.3359 125.465C13.3359 125.318 13.6777 123.78 14.3613 120.851C14.459 120.411 14.5078 119.996 14.5078 119.605C14.5078 119.117 14.2148 118.214 13.6289 116.896L19.6348 115.211L13.8486 105.909C13.8486 105.909 13.8975 105.812 13.9951 105.616C15.8506 105.226 16.7783 104.591 16.7783 103.712C16.7783 103.175 16.4365 102.418 15.7529 101.441C15.3135 101.637 14.8984 101.734 14.5078 101.734C13.7754 101.734 13.4092 100.929 13.4092 99.3174L13.5557 97.4863V87.5986C13.5557 86.915 13.5068 86.3291 13.4092 85.8408C13.3604 85.3525 13.3359 85.0596 13.3359 84.9619C13.3359 84.1807 13.751 83.1309 14.5811 81.8125L13.3359 80.9336V78.8096L14.5078 77.6377C13.5801 76.71 13.1162 75.6113 13.1162 74.3418V74.0488V72.4375C13.1162 69.5566 13.043 67.5059 12.8965 66.2852C12.8477 65.6016 12.8232 65.04 12.8232 64.6006C12.8232 64.1611 12.9697 63.624 13.2627 62.9893C13.8486 63.0869 14.3613 63.1357 14.8008 63.1357C15.4355 63.1357 15.7529 62.8672 15.7529 62.3301C15.7529 62.1836 15.46 61.8174 14.874 61.2314C14.4346 60.5967 13.9951 60.1084 13.5557 59.7666C12.335 59.6689 11.6758 59.1074 11.5781 58.082L12.0908 54.0537L11.5049 39.5518L12.0176 39.0391H12.6035C13.1406 37.4766 13.4092 36.4268 13.4092 35.8896C13.4092 35.2061 12.7012 34.5225 11.2852 33.8389C11.1875 32.7646 10.7236 30.5674 9.89355 27.2471L9.74707 24.6104C9.35645 23.292 9.16113 21.9736 9.16113 20.6553C9.1123 19.3369 8.84375 16.9932 8.35547 13.624C7.28125 13.624 6.59766 13.5996 6.30469 13.5508C6.01172 13.502 5.86523 13.4775 5.86523 13.4775C5.62109 13.4775 5.08398 13.624 4.25391 13.917C3.7168 14.1611 2.71582 14.2832 1.25098 14.2832C0.958008 13.6484 0.811523 13.1113 0.811523 12.6719C0.811523 11.5977 1.4707 10.7676 2.78906 10.1816C3.61914 9.83984 4.18066 9.47363 4.47363 9.08301ZM20.0742 25.5625H21.832C22.2227 26.5391 22.54 28.126 22.7842 30.3232L23.1504 31.9346L23.0039 36.6221L23.2236 39.332C22.4912 40.9434 22.125 41.8467 22.125 42.042C22.125 42.2373 22.3203 43.0186 22.7109 44.3857L22.418 49.7324L22.4912 51.2705L22.5645 53.6875C22.9062 55.25 23.0771 56.1777 23.0771 56.4707C23.0771 56.8613 22.9551 57.3008 22.7109 57.7891L20.8066 57.2031C20.5137 57.7891 20.3672 58.2529 20.3672 58.5947C20.3672 59.4736 20.7334 60.0107 21.4658 60.2061C21.5635 60.2549 21.832 60.3037 22.2715 60.3525C22.7109 60.4014 23.2969 60.5479 24.0293 60.792C23.0039 61.8174 22.2227 62.5254 21.6855 62.916C19.3418 64.6738 18.1699 66.0898 18.1699 67.1641C18.1699 67.3105 20.1475 70.4111 24.1025 76.4658C23.6631 78.5654 23.4189 80.4453 23.3701 82.1055L21.6123 82.9111L21.9785 83.6436L23.8096 84.3027L23.9561 85.0352V95.5088C23.9561 102.003 24.0781 105.47 24.3223 105.909C24.3711 106.251 24.3955 106.52 24.3955 106.715C24.3955 106.812 24.2734 107.618 24.0293 109.132C23.9805 109.62 23.9561 110.035 23.9561 110.377C23.9561 111.256 24.2246 113.258 24.7617 116.383C24.8105 116.676 24.835 116.969 24.835 117.262C24.835 117.701 24.6641 118.214 24.3223 118.8L21.3193 117.848C20.7822 118.629 20.5137 119.264 20.5137 119.752C20.5137 121.363 21.417 122.169 23.2236 122.169C23.4678 122.169 23.7363 122.169 24.0293 122.169C24.0781 123.243 24.2246 124.317 24.4688 125.392C24.6641 126.271 24.7617 127.882 24.7617 130.226C24.7617 130.958 24.957 132.765 25.3477 135.646C23.8828 136.671 22.8818 137.843 22.3447 139.161L20.2207 140.04V140.479L20.4404 140.772C20.9287 140.577 21.2217 140.479 21.3193 140.479L25.2744 140.626C26.9346 140.626 27.8623 140.65 28.0576 140.699C28.2529 140.748 28.7168 140.992 29.4492 141.432L30.4746 139.967C31.1582 140.064 31.6221 140.113 31.8662 140.113L39.1904 139.894C39.2881 139.894 39.7031 140.064 40.4355 140.406C40.9238 139.43 41.3877 138.819 41.8271 138.575C42.5107 138.282 43.5361 138.136 44.9033 138.136H45.6357C48.3701 138.136 50.1035 137.989 50.8359 137.696L52.8135 136.817L55.7432 135.938C60.04 134.181 62.6768 133.009 63.6533 132.423L65.9971 131.764C68.6338 130.641 70.0986 130.03 70.3916 129.933C70.5869 129.933 71.1484 129.908 72.0762 129.859L75.958 127.735C77.7158 127.345 78.668 127.052 78.8145 126.856C78.8633 126.71 78.9121 126.417 78.9609 125.978C79.9375 125.538 80.5967 125.245 80.9385 125.099C82.6475 124.415 84.8447 123.17 87.5303 121.363C89.0439 120.631 90.0693 120.094 90.6064 119.752C90.9482 119.508 93.3652 117.506 97.8574 113.746L101.959 110.523L104.083 107.374L107.672 104.005C108.014 103.712 108.453 103.053 108.99 102.027C109.332 101.295 110.943 99.1953 113.824 95.7285C113.873 95.6797 114.117 95.0693 114.557 93.8975C114.752 93.458 115.265 92.4326 116.095 90.8213C116.681 89.6494 116.998 88.3066 117.047 86.793C117.096 85.9141 117.633 84.3271 118.658 82.0322C119.635 79.7373 120.05 78.3213 119.903 77.7842L119.977 74.415L120.636 70.46C120.782 68.8486 120.953 67.6768 121.148 66.9443C122.955 66.5537 123.858 65.2109 123.858 62.916C123.858 61.5488 122.955 60.4502 121.148 59.6201C121.051 58.3506 120.758 56.6172 120.27 54.4199L120.123 52.2959C119.537 50.5381 119.244 49.5127 119.244 49.2197C119.244 48.585 119.342 47.7793 119.537 46.8027C118.561 45.9238 117.608 44.7031 116.681 43.1406C115.265 40.6504 114.508 39.2832 114.41 39.0391C114.361 38.9902 114.264 38.3066 114.117 36.9883L113.312 36.1826C112.53 36.1826 111.969 36.1338 111.627 36.0361C111.139 35.9873 110.26 35.4258 108.99 34.3516C109.283 33.5703 109.43 32.9111 109.43 32.374C109.43 32.0322 109.21 31.5684 108.771 30.9824C108.038 30.8848 107.379 30.8359 106.793 30.8359C106.646 30.8359 105.987 30.9336 104.815 31.1289C104.767 31.1289 104.718 31.1289 104.669 31.1289C104.376 31.1289 102.887 30.0303 100.201 27.833L96.832 25.8555L94.6348 24.0977L92.3643 22.999L87.1641 20.2891L84.9668 19.6299L83.0625 18.9707L79.3271 18.458L76.5439 17.6523L70.6113 16.7002L66.1436 15.748C62.2373 15.0645 60.1621 14.6494 59.918 14.5029C59.7715 14.4053 59.2832 13.9902 58.4531 13.2578C57.9648 12.8184 57.5986 12.5986 57.3545 12.5986C56.915 12.5986 56.3291 12.7939 55.5967 13.1846C55.0596 13.4775 54.5957 13.624 54.2051 13.624C54.1562 13.624 53.3262 13.502 51.7148 13.2578L48.7119 13.1846L40.9482 12.6719L34.6494 12.8916H31.207H30.4746H30.0352C29.4004 12.8916 28.8145 12.7695 28.2773 12.5254C26.959 11.9883 26.2266 11.7197 26.0801 11.7197C26.0312 11.7197 25.6406 11.8662 24.9082 12.1592C24.5176 12.3057 23.9072 12.4277 23.0771 12.5254C22.6377 13.3066 22.418 13.8193 22.418 14.0635L22.6377 16.7002L22.0518 18.8242C21.8564 20.5332 21.5879 21.9004 21.2461 22.9258L19.9277 22.4863C19.4883 23.2188 19.2686 23.8047 19.2686 24.2441C19.2686 24.5371 19.3662 24.7812 19.5615 24.9766L20.0742 25.5625ZM151.617 73.6094C151.91 72.7305 152.374 71.9248 153.009 71.1924C153.497 70.6553 154.767 69.8984 156.817 68.9219C158.917 67.6035 160.113 66.9443 160.406 66.9443C161.285 66.9443 161.944 67.2617 162.384 67.8965L162.677 69.1416L163.263 71.4121C163.116 71.9492 163.043 72.3643 163.043 72.6572C163.043 73.0967 163.312 73.6094 163.849 74.1953C164.825 73.9023 166.144 73.292 167.804 72.3643L170.88 71.3389L173.956 69.2881L175.934 68.4824C177.008 67.9453 177.594 67.6768 177.691 67.6768C177.691 67.6768 178.229 67.7744 179.303 67.9697C179.4 67.9697 179.474 67.9697 179.522 67.9697C179.767 67.9697 181.427 67.457 184.503 66.4316C184.845 66.334 185.577 66.2852 186.7 66.2852C187.53 66.2852 188.116 66.4072 188.458 66.6514C188.507 66.7002 189.02 67.1885 189.996 68.1162C190.582 68.2627 190.924 68.3359 191.021 68.3359C191.119 68.3359 191.827 67.9941 193.146 67.3105C193.243 67.2617 193.365 67.2373 193.512 67.2373C194.146 67.2373 194.879 67.6035 195.709 68.3359C196.49 69.0195 197.052 70.0693 197.394 71.4854C196.661 72.2178 195.196 73.3652 192.999 74.9277C191.925 76.2949 191.144 76.9785 190.655 76.9785C189.874 76.9785 188.849 76.1973 187.579 74.6348C186.7 74.7324 185.968 74.7812 185.382 74.7812C184.747 74.7812 183.697 74.4883 182.232 73.9023C181.061 73.4629 179.864 73.1699 178.644 73.0234C178.155 74 177.35 74.5371 176.227 74.6348C174.859 74.7324 174.005 74.8301 173.663 74.9277C171.71 75.5137 170.733 75.8066 170.733 75.8066C170.538 75.8066 170.147 75.6357 169.562 75.2939C168.585 76.1729 166.876 77.4912 164.435 79.249C162.872 80.3721 162.115 82.3496 162.164 85.1816V85.4014C162.164 85.9873 162.164 86.7686 162.164 87.7451C162.213 88.624 162.237 89.3564 162.237 89.9424C162.237 90.4795 161.676 91.2852 160.553 92.3594C161.383 93.2383 161.798 93.9951 161.798 94.6299C161.798 94.9717 161.749 95.3867 161.651 95.875L162.75 96.168L162.97 98.3652L163.336 111.476L163.043 112.281L161.139 113.307C158.404 113.844 157.037 114.21 157.037 114.405C157.037 114.601 158.575 114.918 161.651 115.357L162.896 115.064C163.385 116.676 163.629 117.774 163.629 118.36C163.629 119.483 163.067 120.362 161.944 120.997C161.505 121.241 160.26 121.485 158.209 121.729C157.818 121.827 156.769 122.438 155.06 123.561C154.767 123.756 154.425 123.854 154.034 123.854C152.862 123.854 152.276 123.341 152.276 122.315C152.276 122.022 152.643 120.631 153.375 118.141C153.473 117.848 153.521 117.555 153.521 117.262C153.521 117.164 153.399 116.065 153.155 113.966C153.155 113.819 153.253 113.404 153.448 112.721L155.206 112.208C155.255 111.769 155.279 111.378 155.279 111.036C155.279 110.401 154.913 109.645 154.181 108.766C154.181 108.082 154.181 107.472 154.181 106.935C154.181 106.495 154.034 105.348 153.741 103.492C153.888 101.881 153.961 100.514 153.961 99.3906C155.768 98.7559 156.671 97.9746 156.671 97.0469C156.671 96.7539 156.598 96.3633 156.451 95.875C155.865 96.0215 155.377 96.0947 154.986 96.0947C154.645 96.0947 154.229 95.8994 153.741 95.5088C153.741 94.5322 153.741 93.458 153.741 92.2861V90.748V88.7705V88.1846C153.741 87.7939 153.717 87.3545 153.668 86.8662C153.668 86.3779 153.668 85.9873 153.668 85.6943C153.668 84.9131 153.985 83.8633 154.62 82.5449C153.985 82.0078 153.619 81.5439 153.521 81.1533C153.473 81.0068 153.375 79.4199 153.229 76.3926C153.18 75.8066 152.643 74.8789 151.617 73.6094ZM195.855 157.472C196.344 158.399 197.027 159.889 197.906 161.939L199.957 164.723C201.715 167.506 202.813 169.117 203.253 169.557C204.571 169.703 205.401 169.85 205.743 169.996L211.017 171.974C211.31 172.071 211.92 172.12 212.848 172.12C213.482 172.12 214.19 172.096 214.972 172.047C215.753 172.633 216.339 172.926 216.729 172.926C217.12 172.926 217.706 172.608 218.487 171.974C219.22 172.12 219.854 172.193 220.392 172.193C220.733 172.193 222.735 171.632 226.397 170.509L229.107 168.824C231.842 167.262 233.404 166.31 233.795 165.968C234.039 165.724 234.967 164.649 236.578 162.745C237.018 162.257 237.994 161.622 239.508 160.841C241.119 159.815 242.34 157.96 243.17 155.274C244.293 151.856 244.952 150.001 245.147 149.708C245.392 149.269 246.051 148.536 247.125 147.511C246.881 145.704 246.759 144.654 246.759 144.361C246.759 144.166 247.247 141.725 248.224 137.037C248.321 136.598 248.37 136.158 248.37 135.719C248.37 135.621 248.248 134.767 248.004 133.155C248.248 132.032 248.59 130.47 249.029 128.468C249.664 126.563 249.981 125.416 249.981 125.025C249.981 124.684 249.762 123.585 249.322 121.729C249.273 121.437 249.078 118.922 248.736 114.186C248.688 113.453 248.663 112.721 248.663 111.988C248.663 111.061 248.81 110.279 249.103 109.645C249.444 108.912 249.615 108.448 249.615 108.253C249.615 107.96 249.566 107.594 249.469 107.154C249.176 107.008 248.98 106.935 248.883 106.935C248.59 106.935 247.345 107.594 245.147 108.912L243.39 110.743L241.412 112.135L239.142 113.746L236.871 114.991L233.722 117.994L232.33 118.873C228.619 121.412 226.593 122.779 226.251 122.975C225.909 123.121 224.542 123.365 222.149 123.707C220.538 124.195 218.707 124.562 216.656 124.806C215.582 124.806 213.409 124.22 210.138 123.048C207.94 122.218 206.109 120.729 204.645 118.58C204.596 118.531 204.156 117.506 203.326 115.504C202.936 114.576 202.74 113.868 202.74 113.38C202.74 112.745 203.351 111.988 204.571 111.109C203.497 109.889 202.96 108.399 202.96 106.642C202.96 105.421 203.912 103.37 205.816 100.489L205.23 98.3652V98.2188L205.45 96.168C205.646 94.2148 206.305 91.1143 207.428 86.8662V84.1562C208.355 80.4453 208.819 78.4434 208.819 78.1504C208.819 77.8086 208.624 77.3203 208.233 76.6855H206.476L205.89 76.0264V75.2939C206.671 74.6104 207.403 73.7803 208.087 72.8037L212.335 71.3389C216.144 68.9951 218.194 67.8232 218.487 67.8232C219.073 67.8232 219.586 68.0918 220.025 68.6289C220.562 69.2148 220.831 69.8252 220.831 70.46C220.831 70.6553 220.392 71.6562 219.513 73.4629C219.024 74.4883 218.609 76.3193 218.268 78.9561L216.217 86.5C216.021 88.8926 215.777 90.333 215.484 90.8213C215.094 91.4072 214.215 91.7246 212.848 91.7734C212.213 92.6523 211.896 93.3115 211.896 93.751C211.896 94.3369 212.774 94.7764 214.532 95.0693C214.288 95.9971 214.142 97.2178 214.093 98.7314L213.141 103.419C213.092 104.64 212.921 106.251 212.628 108.253C212.335 109.522 212.188 110.206 212.188 110.304C212.188 110.743 212.579 111.598 213.36 112.867C214.19 114.332 214.703 115.162 214.898 115.357C215.045 115.504 216.437 116.188 219.073 117.408C220.05 118.727 220.831 119.386 221.417 119.386C222.149 119.386 222.979 118.873 223.907 117.848C226.397 117.555 228.131 117.115 229.107 116.529C229.84 116.09 232.501 114.21 237.091 110.89L241.266 106.935L245.001 104.518L248.224 98.2188C248.37 97.9746 248.761 97.4863 249.396 96.7539C249.298 95.6309 249.2 94.8984 249.103 94.5566C248.956 94.0684 248.883 93.6777 248.883 93.3848C248.883 93.2871 249.054 92.8965 249.396 92.2129L249.103 90.0889L249.249 88.3311L248.37 85.9141L248.663 80.7139L248.224 78.9561L247.638 76.2461C246.417 74.0488 245.807 72.877 245.807 72.7305C245.807 71.7051 246.759 71.1436 248.663 71.0459L250.714 69.0684H251.3C252.179 69.0195 252.96 68.9219 253.644 68.7754C254.376 68.6289 255.255 68.4824 256.28 68.3359C257.159 69.752 257.599 70.4844 257.599 70.5332L251.153 73.3164L256.134 74.9277C257.013 75.3672 257.452 75.9531 257.452 76.6855C257.452 77.3203 256.915 78.248 255.841 79.4688C254.864 80.543 253.79 81.4463 252.618 82.1787C252.374 82.374 252.252 82.4717 252.252 82.4717C252.301 82.8623 253.644 83.5947 256.28 84.6689C257.354 85.6943 257.965 86.5977 258.111 87.3789C258.111 87.6719 258.111 88.1602 258.111 88.8438L258.551 93.165C257.867 94.874 257.525 95.9238 257.525 96.3145C257.525 97.877 258.185 99.3174 259.503 100.636C259.21 102.345 259.063 103.688 259.063 104.664L259.43 108.399V108.473C259.43 108.57 259.088 109.84 258.404 112.281C257.721 113.6 257.354 114.527 257.306 115.064C257.306 115.357 257.306 115.724 257.306 116.163L258.844 117.408C258.453 119.312 258.258 120.704 258.258 121.583C258.258 121.925 258.282 122.267 258.331 122.608C258.526 124.122 258.624 125.001 258.624 125.245C258.624 125.343 258.355 126.1 257.818 127.516V129.127L257.599 131.251L257.965 134.181L257.013 136.671L256.5 139.454C255.719 140.772 255.328 141.627 255.328 142.018C255.328 142.262 255.353 142.53 255.401 142.823C255.548 143.653 255.621 144.264 255.621 144.654C255.621 144.947 255.206 145.802 254.376 147.218C254.083 147.755 253.595 149.024 252.911 151.026C252.765 151.417 252.057 152.027 250.787 152.857C250.641 153.004 249.957 153.907 248.736 155.567L247.491 157.325L246.319 158.644C244.024 162.013 242.438 164.161 241.559 165.089C241.021 165.577 239.996 166.261 238.482 167.14L236.944 168.897L234.894 170.216L233.795 171.095L231.231 171.827L229.4 172.853L227.643 173.438L222.882 175.27L220.538 175.855C217.999 176.588 216.485 176.954 215.997 176.954C215.606 176.954 214.068 176.661 211.383 176.075C206.988 176.075 203.131 174.61 199.811 171.681L197.687 171.534C197.296 170.46 196.905 169.703 196.515 169.264C196.417 169.215 195.489 168.775 193.731 167.945C193.341 167.75 192.975 167.359 192.633 166.773C192.096 165.748 191.827 164.82 191.827 163.99C191.827 162.916 192.169 161.451 192.853 159.596C193.341 158.18 194.146 157.472 195.27 157.472C195.416 157.472 195.611 157.472 195.855 157.472ZM311.505 146.778C311.944 146.144 312.555 145.533 313.336 144.947C314.02 144.459 315.167 143.556 316.778 142.237C316.681 141.798 316.632 141.383 316.632 140.992C316.632 140.748 316.778 140.479 317.071 140.187C318.683 137.989 320.343 135.792 322.052 133.595C322.491 132.862 323.517 131.764 325.128 130.299L318.976 128.834L325.274 124.806L319.122 118.8L319.342 116.31L319.488 114.186C320.221 112.379 320.587 111.109 320.587 110.377V110.23V108.033C320.587 107.252 321.051 106.642 321.979 106.202L322.711 105.763L323.956 105.982C323.956 105.982 324.029 105.958 324.176 105.909C324.322 105.616 324.396 105.372 324.396 105.177C324.396 104.786 323.81 104.078 322.638 103.053V101.075L320.514 101.588L319.928 101.002C320.27 99.8301 320.44 99.0977 320.44 98.8047L320.221 95.4355L320.587 88.9902C320.587 88.7461 320.367 87.5498 319.928 85.4014C320.27 84.2295 320.465 83.1797 320.514 82.252H321.539C321.539 81.0312 321.832 79.7617 322.418 78.4434C320.807 78.1992 320.001 77.7354 320.001 77.0518C320.001 76.7588 320.099 76.2461 320.294 75.5137C320.392 74.9766 320.44 73.9512 320.44 72.4375C320.44 71.8027 320.44 71.0459 320.44 70.167C320.489 69.3857 320.514 68.7998 320.514 68.4092C320.514 67.8721 320.465 67.4082 320.367 67.0176C320.172 66.4805 320.074 66.1143 320.074 65.9189C320.074 65.7236 320.221 65.3818 320.514 64.8936H321.832L322.125 63.7217L320.953 63.4287V62.916C321.002 62.2812 321.197 61.6953 321.539 61.1582L322.491 59.8398C322.491 59.7422 322.784 59.6201 323.37 59.4736L323.59 58.5215L321.905 57.7891L322.491 55.7383C321.808 56.1777 321.197 56.3975 320.66 56.3975C319.977 56.3975 319.635 55.8848 319.635 54.8594C319.635 54.7617 319.732 53.7363 319.928 51.7832V51.71L319.562 45.8506V42.7744C319.562 42.1885 319.537 41.4805 319.488 40.6504C319.488 40.1621 319.488 39.8203 319.488 39.625C319.488 38.5508 319.708 37.1592 320.147 35.4502L319.269 34.498V28.126C319.562 28.0283 319.708 27.9551 319.708 27.9062C319.757 27.8086 319.806 27.1982 319.854 26.0752C319.171 24.8545 318.829 24 318.829 23.5117C318.829 23.2676 318.829 22.9746 318.829 22.6328C318.146 21.8027 317.804 21.2656 317.804 21.0215L317.73 18.165C317.584 16.749 317.486 15.8213 317.438 15.3818C317.389 14.7471 316.998 13.9658 316.266 13.0381L314.947 12.7451L314.215 10.5479C315.289 10.0107 315.997 9.64453 316.339 9.44922C317.511 8.86328 318.683 8.52148 319.854 8.42383L321.1 7.83789L322.491 7.17871L323.663 6.00684L324.542 5.64062C327.032 4.56641 328.912 4.0293 330.182 4.0293C331.256 4.0293 331.793 4.49316 331.793 5.4209V7.61816L332.232 9.44922C331.598 10.3281 331.28 11.085 331.28 11.7197C331.28 12.2568 331.329 12.9648 331.427 13.8438C331.476 14.7227 331.549 16.0166 331.646 17.7256H331.866V18.2383C331.183 18.4336 330.67 18.5312 330.328 18.5312C330.035 18.5312 329.62 18.4824 329.083 18.3848L328.79 18.6777C328.692 19.5566 328.131 20.2646 327.105 20.8018L328.717 23.292L330.548 22.999L331.646 24.9033H332.379L332.599 25.0498C331.915 26.2217 330.768 27.5889 329.156 29.1514L328.277 33.9854L324.835 37.7939L325.86 40.6504L326.52 50.3184C326.666 50.6602 327.496 51.1484 329.01 51.7832C330.426 52.3691 331.134 52.9795 331.134 53.6143C331.134 53.6143 331.109 53.6631 331.061 53.7607C331.012 54.0049 330.89 54.3955 330.694 54.9326L329.596 55.1523C330.719 56.1777 331.28 57.9844 331.28 60.5723C331.28 61.5488 330.523 62.4766 329.01 63.3555C329.547 64.4297 329.938 65.1377 330.182 65.4795C330.914 66.8467 331.28 67.9453 331.28 68.7754C331.28 68.8242 331.061 69.6299 330.621 71.1924L330.694 71.7783C330.694 71.7783 330.694 71.8027 330.694 71.8516C330.646 71.998 330.621 72.4131 330.621 73.0967C330.67 77.2471 330.646 80.0059 330.548 81.373C330.548 81.8125 330.548 82.3984 330.548 83.1309C330.548 84.4492 330.572 85.7432 330.621 87.0127C330.67 87.4521 330.694 87.8428 330.694 88.1846C330.694 88.4287 330.621 88.7217 330.475 89.0635L330.401 88.7705L328.863 89.8691C329.059 91.3828 329.693 92.6523 330.768 93.6777L330.548 94.4834L330.841 104.884L330.914 106.056C330.914 106.593 330.914 107.032 330.914 107.374C330.914 107.96 330.548 109.889 329.815 113.16L329.596 117.042L328.863 118.141C328.814 118.238 328.766 118.702 328.717 119.532C328.473 120.899 328.302 122.022 328.204 122.901L329.889 122.682C330.377 124.098 330.621 124.903 330.621 125.099L330.475 136.598C330.475 137.623 331.012 138.282 332.086 138.575C332.916 138.771 333.648 139.137 334.283 139.674C334.771 139.625 335.187 139.601 335.528 139.601C335.87 139.601 336.651 139.771 337.872 140.113L340.729 140.406L345.636 141.505H349.957L352.301 144.801L358.38 141.871L360.943 142.311L362.921 142.53L364.898 143.189C364.947 143.189 365.851 143.043 367.608 142.75C367.901 142.701 368.17 142.677 368.414 142.677C368.805 142.677 369.903 142.896 371.71 143.336C374.054 142.945 375.299 142.75 375.445 142.75C376.129 142.75 377.35 142.848 379.107 143.043C379.742 143.092 380.328 143.116 380.865 143.116C381.5 143.116 382.599 142.945 384.161 142.604L387.75 142.311C390.045 141.871 392.486 141.554 395.074 141.358C396.148 141.31 396.881 141.188 397.271 140.992C397.955 140.748 398.468 140.626 398.81 140.626C398.956 140.626 399.64 141.773 400.86 144.068C400.909 144.117 400.982 144.142 401.08 144.142C401.764 144.142 402.447 143.507 403.131 142.237C403.473 141.603 403.644 140.504 403.644 138.941C405.304 138.502 406.402 138.16 406.939 137.916C409.967 136.549 411.847 135.865 412.579 135.865C412.579 135.865 412.701 135.89 412.945 135.938C412.896 137.403 412.726 138.331 412.433 138.722L411.261 140.26L408.697 143.995C407.672 144.972 406.842 145.875 406.207 146.705H404.449L403.644 148.17L399.029 144.654L389.215 148.243C389.215 148.243 389.02 148.17 388.629 148.023C387.799 147.779 386.139 147.657 383.648 147.657H383.429C383.038 147.657 379.059 147.926 371.49 148.463L366.656 147.804C364.898 148.097 363.995 148.243 363.946 148.243C362.872 148.243 361.871 147.804 360.943 146.925C359.332 145.46 358.502 144.728 358.453 144.728L350.836 147.657L349.005 147.291L347.247 147.145L345.416 146.925C342.193 146.827 340.216 146.729 339.483 146.632L340.289 146.119H337.213L336.773 147.657C335.846 147.169 335.235 146.803 334.942 146.559C334.21 146.119 333.355 145.826 332.379 145.68C330.816 146.998 329.059 147.657 327.105 147.657C325.982 147.657 324.615 147.511 323.004 147.218C321.783 148.048 320.489 148.463 319.122 148.463C318.731 148.463 317.901 148.292 316.632 147.95C314.63 147.608 312.921 147.218 311.505 146.778ZM435.65 97.7061C436.236 96.7783 436.798 96.1436 437.335 95.8018C437.726 95.5576 439.19 95.167 441.729 94.6299C443.585 93.7021 444.83 93.1406 445.465 92.9453C445.904 92.8477 447.369 92.6768 449.859 92.4326L452.203 91.627L453.595 91.4805L454.913 91.334H457.77L463.556 90.6016C465.265 90.4551 466.339 90.2354 466.778 89.9424C467.657 89.3076 468.097 88.3799 468.097 87.1592C468.097 86.915 467.901 86.1338 467.511 84.8154L471.319 80.0547C471.319 80.0059 469.806 79.5176 466.778 78.5898C466.534 78.4922 465.802 78.4434 464.581 78.4434C462.481 75.7578 461.236 74.2686 460.846 73.9756C460.357 73.7803 458.502 73.4385 455.279 72.9502H452.936C451.861 72.6572 451.153 72.5107 450.812 72.5107C450.421 72.5107 449.859 72.5596 449.127 72.6572L447.735 70.8994C446.661 71.29 445.831 71.8271 445.245 72.5107C444.757 73.0479 444 73.5117 442.975 73.9023C440.436 74.9766 438.336 76.1729 436.676 77.4912L435.65 78.1504C435.016 79.0781 434.601 79.5908 434.405 79.6885C433.819 80.0303 433.136 80.2012 432.354 80.2012C432.062 80.2012 431.158 79.9326 429.645 79.3955C427.984 79.0049 426.959 78.6875 426.568 78.4434C426.129 78.1504 425.567 77.54 424.884 76.6123C425.714 75.9775 426.3 75.5137 426.642 75.2207C427.472 74.4883 428.033 74.0977 428.326 74.0488L431.769 73.2432L433.966 72.0713L438.653 70.6064L441.583 69.3613H444.586L447.882 68.4092L449.273 68.3359L451.837 67.8965C454.229 67.9453 455.743 67.9697 456.378 67.9697C457.062 68.0186 458.38 68.3604 460.333 68.9951L462.091 69.2148C463.995 69.5566 465.338 69.8008 466.119 69.9473C466.803 69.9961 467.682 70.5332 468.756 71.5586C467.926 72.291 467.511 72.9014 467.511 73.3896C467.511 74.0732 467.804 74.415 468.39 74.415C468.78 74.415 469.342 74.2197 470.074 73.8291C470.562 73.6338 471.246 73.4141 472.125 73.1699C472.76 73.8047 473.102 74.6348 473.15 75.6602L474.981 76.9785C475.079 77.5156 475.128 77.8574 475.128 78.0039L474.908 80.8604C475.445 83.0088 475.982 84.3516 476.52 84.8887H476.812C476.959 85.9629 477.154 87.1348 477.398 88.4043C477.545 91.2363 477.643 93.1162 477.691 94.0439C476.568 94.7275 476.007 95.3867 476.007 96.0215C476.007 96.7539 476.666 97.4131 477.984 97.999C478.033 98.6338 478.058 99.1709 478.058 99.6104C478.058 100.05 477.96 100.904 477.765 102.174C477.716 102.711 477.691 103.248 477.691 103.785C477.691 105.396 477.96 107.398 478.497 109.791C477.618 110.67 477.179 111.549 477.179 112.428C477.179 113.16 477.594 114.112 478.424 115.284C478.521 115.479 478.692 115.943 478.937 116.676C479.083 117.018 479.352 117.677 479.742 118.653C479.205 119.288 478.814 119.898 478.57 120.484C478.18 120.826 477.423 121.217 476.3 121.656L473.517 122.901L471.759 123.414C469.952 124.049 468.951 124.366 468.756 124.366C468.268 124.366 467.73 124.098 467.145 123.561L468.243 118.653C466.827 118.995 464.776 119.752 462.091 120.924L459.967 121.363C458.697 121.656 458.038 121.803 457.989 121.803L455.279 121.51L452.569 122.901L451.104 123.048L445.172 124.293L442.096 124.073C440.582 124.61 439.557 124.879 439.02 124.879C438.336 124.879 436.432 124.562 433.307 123.927L430.23 123.634L427.96 122.682C426.251 122.047 424.981 121.412 424.151 120.777C423.419 120.24 422.833 119.312 422.394 117.994L420.709 117.408C420.514 116.92 420.294 116.041 420.05 114.771L419.317 111.622V111.549C419.269 111.109 419.586 110.401 420.27 109.425C420.807 108.692 421.49 107.447 422.32 105.689C424.713 103.346 426.3 101.832 427.081 101.148C427.765 100.611 429.303 99.8545 431.695 98.8779C433.062 97.999 433.917 97.5596 434.259 97.5596C434.649 97.5596 435.113 97.6084 435.65 97.7061ZM431.109 113.233C430.719 113.868 430.353 114.527 430.011 115.211C429.474 116.09 429.229 116.676 429.278 116.969L430.011 118.36L432.062 116.603C433.722 117.774 434.869 118.409 435.504 118.507C437.311 118.995 438.287 119.264 438.434 119.312C438.727 119.508 439.142 120.021 439.679 120.851C440.802 120.997 441.559 121.095 441.949 121.144C442.34 121.192 442.657 121.217 442.901 121.217C443.438 121.217 444.098 120.875 444.879 120.191C445.562 120.68 446.148 120.924 446.637 120.924C446.734 120.924 447.271 120.606 448.248 119.972L450.299 120.411C450.299 120.411 451.617 119.947 454.254 119.02L456.158 118.141L457.77 118.434L460.553 117.262L463.775 116.017C464.605 114.747 465.118 114.015 465.313 113.819C465.753 113.38 466.607 112.989 467.877 112.647L468.316 110.304C469.195 109.815 469.732 109.132 469.928 108.253C469.244 107.765 468.756 107.252 468.463 106.715C468.512 105.885 468.536 105.274 468.536 104.884V103.712C468.487 102.394 468.438 101.271 468.39 100.343C468.341 100.05 468.316 99.7812 468.316 99.5371C468.316 98.9512 468.512 98.0967 468.902 96.9736C468.463 96.9248 467.901 96.6318 467.218 96.0947L464.068 96.168L461.212 96.0215L459.015 96.0947H457.623C457.428 96.0947 456.695 95.7041 455.426 94.9229L453.814 95.4355C451.861 95.4355 450.421 95.582 449.493 95.875C448.907 96.1191 448.419 96.2412 448.028 96.2412C447.931 96.2412 447.369 96.0947 446.344 95.8018C446.295 95.8018 446.246 95.8018 446.197 95.8018C445.953 95.8018 445.172 96.2412 443.854 97.1201C443.658 97.2666 442.389 97.7549 440.045 98.585C436.92 99.9521 434.674 101.246 433.307 102.467C433.16 102.613 432.623 103.346 431.695 104.664C431.402 105.104 430.548 105.519 429.132 105.909C428.937 106.251 428.839 106.52 428.839 106.715C428.839 106.861 429.034 107.154 429.425 107.594L429.938 111.549C430.035 111.891 430.426 112.452 431.109 113.233ZM498.126 118.946C499.64 118.067 500.641 117.384 501.129 116.896C501.324 116.7 501.764 115.846 502.447 114.332C503.229 113.111 503.619 112.403 503.619 112.208C503.619 111.817 503.497 111.158 503.253 110.23C503.058 109.449 502.96 108.644 502.96 107.813C502.96 105.079 503.937 103.639 505.89 103.492L506.329 100.782L503.473 99.4639L503.912 87.4521L503.619 85.5479L505.23 85.1084L505.597 83.4971C504.376 83.0088 503.766 82.4473 503.766 81.8125C503.766 81.373 503.814 80.6406 503.912 79.6152C503.961 79.2246 503.985 78.8584 503.985 78.5166C503.985 78.2236 503.717 76.7588 503.18 74.1221L506.915 70.3135L503.033 65.6992C503.033 65.6992 503.058 65.626 503.106 65.4795C504.229 64.6006 504.791 63.7461 504.791 62.916C504.791 62.1836 504.254 61.3535 503.18 60.4258C503.131 59.1562 503.082 56.2998 503.033 51.8564C503.033 51.2705 502.984 50.8066 502.887 50.4648C502.838 50.2207 502.813 50.0742 502.813 50.0254C502.813 49.6836 502.911 49.4639 503.106 49.3662L508.453 47.3887L502.667 45.5576L502.887 44.3125L502.813 42.4814L503.18 38.2334C502.74 35.499 502.521 33.9121 502.521 33.4727C502.521 32.3984 503.106 31.2266 504.278 29.957C504.229 29.3711 503.839 28.4922 503.106 27.3203C502.911 26.9785 502.813 26.6367 502.813 26.2949C502.813 25.9043 502.887 25.416 503.033 24.8301C504.498 24.3418 505.23 23.5117 505.23 22.3398C505.23 21.998 505.035 21.5098 504.645 20.875L502.813 20.582C502.618 19.7031 502.447 19.1416 502.301 18.8975C501.959 18.165 501.788 17.6523 501.788 17.3594C501.788 17.1641 503.473 16.3096 506.842 14.7959V12.4521L508.526 10.1816C508.526 9.88867 507.892 9.52246 506.622 9.08301C506.28 8.98535 505.914 8.8877 505.523 8.79004C504.4 8.49707 502.765 8.00879 500.616 7.3252V6.22656C501.397 5.64062 501.886 5.25 502.081 5.05469C503.546 3.88281 504.449 3.24805 504.791 3.15039L507.867 2.34473C509.771 1.36816 511.065 0.879883 511.749 0.879883C512.579 0.879883 513.336 1.19727 514.02 1.83203C513.971 3.10156 513.849 3.90723 513.653 4.24902C512.97 6.00684 512.628 7.00781 512.628 7.25195C512.628 7.34961 513.019 8.13086 513.8 9.5957C513.849 9.74219 513.873 9.83984 513.873 9.88867C513.873 9.98633 512.945 10.792 511.09 12.3057L510.357 15.6748L507.135 18.0186C510.016 21.4854 511.7 23.5361 512.188 24.1709C512.677 24.8057 512.921 25.3428 512.921 25.7822C512.921 26.0752 512.896 26.4414 512.848 26.8809C511.871 28.1016 511.383 29.2002 511.383 30.1768C511.383 30.5674 511.456 30.8604 511.603 31.0557C512.726 32.5693 513.287 33.8389 513.287 34.8643C513.287 35.3037 513.238 35.8164 513.141 36.4023C512.848 37.8672 512.701 38.7705 512.701 39.1123L512.848 42.1152C512.848 42.2617 512.75 42.6279 512.555 43.2139C512.652 44.2393 512.726 44.9229 512.774 45.2646L512.921 46.8027C512.97 47.4375 513.019 47.877 513.067 48.1211C513.165 48.6582 513.214 49.0488 513.214 49.293C513.214 49.5371 513.019 49.9521 512.628 50.5381C511.505 50.9775 510.602 51.5391 509.918 52.2227L510.138 52.4424C510.138 53.7119 510.235 54.6152 510.431 55.1523C510.577 55.6895 511.383 56.2998 512.848 56.9834C512.701 57.7158 512.628 58.1797 512.628 58.375C512.628 59.0098 512.726 60.1328 512.921 61.7441C513.116 63.0625 513.092 63.9902 512.848 64.5273C512.799 64.625 512.433 65.3086 511.749 66.5781C511.261 67.457 511.017 68.3359 511.017 69.2148C511.017 69.8496 511.529 70.167 512.555 70.167C513.775 70.7041 514.459 70.9727 514.605 70.9727C515.289 70.9727 516.119 70.2891 517.096 68.9219C517.73 69.1172 518.146 69.2148 518.341 69.2148C518.39 69.2148 520.099 68.8486 523.468 68.1162C525.958 67.1396 527.838 66.5049 529.107 66.2119C530.035 67.2373 530.89 67.75 531.671 67.75C532.208 67.75 532.818 67.6523 533.502 67.457L533.795 65.9189C534.576 66.2119 535.162 66.3584 535.553 66.3584L538.995 66.2852L540.899 67.3105C541.339 67.2129 541.607 67.1641 541.705 67.1641C545.562 67.1641 548.614 67.6768 550.86 68.7021C552.276 69.3857 553.326 70.8994 554.01 73.2432C554.889 73.2432 555.572 72.9746 556.061 72.4375C556.354 72.1445 556.695 71.998 557.086 71.998C557.477 71.998 558.038 72.4863 558.771 73.4629C560.187 74.7812 560.943 75.4893 561.041 75.5869C561.09 75.6357 561.188 76.0508 561.334 76.832C561.48 77.6133 562.53 78.834 564.483 80.4941C564.728 82.6914 565.436 85.2793 566.607 88.2578C566.754 88.6973 566.827 89.918 566.827 91.9199C566.827 93.3848 566.461 94.7275 565.729 95.9482C565.533 96.2412 565.338 96.5342 565.143 96.8271C564.898 97.2178 564.532 97.8037 564.044 98.585H562.726C562.091 99.3174 561.773 99.8057 561.773 100.05L561.847 105.177C561.847 105.274 561.505 105.665 560.821 106.349C560.528 106.69 559.503 108.009 557.745 110.304C557.208 111.036 556.134 111.866 554.522 112.794L552.325 114.771L549.615 117.115C548.053 118.629 546.979 119.532 546.393 119.825C542.682 121.388 539.752 122.438 537.604 122.975L535.772 123.561L534.381 123.707C531.793 124.293 530.206 124.586 529.62 124.586C528.302 124.586 527.301 124.22 526.617 123.487L524.64 121.217L521.783 123.561C516.559 122.145 513.897 121.437 513.8 121.437C513.702 121.388 512.701 121.314 510.797 121.217C509.82 121.168 508.355 120.802 506.402 120.118C506.109 120.021 505.914 119.972 505.816 119.972C505.133 119.972 503.106 120.729 499.737 122.242C499.347 122.438 499.127 122.535 499.078 122.535C498.541 122.535 498.175 122.096 497.979 121.217C497.931 121.07 497.906 120.948 497.906 120.851L498.126 118.946ZM519.513 118.214C520.196 118.116 520.807 118.067 521.344 118.067C521.734 118.067 522.467 118.336 523.541 118.873C524.566 119.41 525.348 119.654 525.885 119.605L529.62 119.312L532.403 119.386L534.308 119.459C534.308 119.459 536.261 118.897 540.167 117.774C542.511 117.042 544.464 116.09 546.026 114.918C546.417 114.674 547.491 113.502 549.249 111.402L551.153 109.425C551.202 109.376 551.471 108.717 551.959 107.447C552.105 106.91 552.569 106.08 553.351 104.957C554.425 103.346 555.06 101.759 555.255 100.196C555.401 98.7803 555.499 97.9502 555.548 97.7061C555.792 97.0713 555.914 96.7295 555.914 96.6807L555.694 94.7764L561.48 92.1396C561.48 92.1396 561.139 91.0654 560.455 88.917C560.357 88.624 560.26 87.5498 560.162 85.6943C560.162 84.9619 559.991 84.4492 559.649 84.1562C559.454 84.0098 558.575 83.6191 557.013 82.9844C555.938 81.2754 555.23 80.25 554.889 79.9082C554.596 79.7129 553.692 79.2002 552.179 78.3701L550.641 77.4912L548.517 76.3926L546.612 75.3672L542.877 73.9756L541.046 73.0967C539.532 73.0967 538.214 72.999 537.091 72.8037C536.407 72.7061 534.82 72.584 532.33 72.4375C530.914 72.3398 528.839 72.0469 526.104 71.5586C526.007 71.5586 525.958 71.5586 525.958 71.5586C525.86 71.5586 525.714 71.583 525.519 71.6318C525.47 71.6318 525.445 71.6318 525.445 71.6318C525.396 71.6318 525.299 71.583 525.152 71.4854L523.395 71.8516C521.832 71.998 520.929 72.0957 520.685 72.1445C520.538 72.1934 519.61 72.7793 517.901 73.9023C516.729 74.293 515.094 75.0498 512.994 76.1729C512.604 76.3682 511.944 76.6611 511.017 77.0518C508.917 78.0283 507.867 79.249 507.867 80.7139C507.867 81.3975 508.038 81.959 508.38 82.3984L510.431 85.1084L511.236 88.7705C512.359 90.6748 512.921 91.9443 512.921 92.5791C512.921 93.0674 512.408 94.2881 511.383 96.2412C511.285 96.3877 511.236 96.5098 511.236 96.6074C511.236 96.6562 511.383 97.3398 511.676 98.6582L511.969 100.343L512.994 102.979C512.701 104.933 512.555 106.104 512.555 106.495L512.994 110.67V114.186V115.138C512.945 115.577 512.262 116.456 510.943 117.774C510.846 117.872 510.797 118.067 510.797 118.36C510.797 118.849 511.358 119.508 512.481 120.338L516.949 116.749C517.877 117.872 518.561 118.434 519 118.434C519.049 118.434 519.22 118.36 519.513 118.214Z" fill="#3C5923"/>
</svg>
