<svg width="208" height="72" viewBox="0 0 208 72" fill="none" xmlns="http://www.w3.org/2000/svg">
<rect x="3" y="3" width="202" height="66" fill="#447C94" fill-opacity="0.5" stroke="#447C94" stroke-width="6" stroke-dasharray="12 12"/>
<path d="M45.1914 27.5117C49.319 23.2799 52.3594 20.2721 54.3125 18.4883C54.7812 18.0456 55.0872 18.1367 55.2305 18.7617C55.3737 19.4388 55.25 20.2656 54.8594 21.2422C54.4688 22.2057 53.7135 23.2214 52.5938 24.2891C49.5339 27.2188 47.2292 29.4583 45.6797 31.0078C46.5391 37.0495 47.5156 41.0078 48.6094 42.8828C48.7396 43.1042 48.7656 43.2865 48.6875 43.4297C48.6224 43.5729 48.4727 43.6315 48.2383 43.6055C47.3398 43.5404 46.5391 43.1302 45.8359 42.375C45.1328 41.6068 44.5599 40.3112 44.1172 38.4883C43.7266 36.7565 43.4076 35.1289 43.1602 33.6055C39.4362 37.4206 36.5977 40.6823 34.6445 43.3906C34.5273 43.5469 34.4036 43.612 34.2734 43.5859C34.1562 43.5599 34.0651 43.4688 34 43.3125C33.5312 42.1536 33.8242 40.7539 34.8789 39.1133C35.8164 37.6159 38.388 34.6471 42.5938 30.207C42.5677 30.0638 42.5026 29.6471 42.3984 28.957C42.3073 28.2539 42.2422 27.8047 42.2031 27.6094C42.1771 27.401 42.1185 26.9909 42.0273 26.3789C41.9362 25.7539 41.8646 25.3047 41.8125 25.0312C41.7734 24.7578 41.7083 24.3542 41.6172 23.8203C41.526 23.2734 41.4479 22.8372 41.3828 22.5117C41.3177 22.1732 41.2396 21.7826 41.1484 21.3398C41.0573 20.8841 40.9661 20.4609 40.875 20.0703C40.7839 19.6797 40.6927 19.2956 40.6016 18.918C40.5625 18.7227 40.5885 18.5729 40.6797 18.4688C40.7839 18.3516 40.9336 18.3125 41.1289 18.3516C42.5482 18.5729 43.5703 19.7643 44.1953 21.9258C44.4557 22.8763 44.7878 24.7383 45.1914 27.5117ZM59.2734 24.6406C59.5078 25.1875 59.5924 25.6953 59.5273 26.1641C59.4622 26.6198 59.2865 27.0039 59 27.3164C58.7526 27.6159 58.388 27.7135 57.9062 27.6094C57.4245 27.5052 57.0404 27.2057 56.7539 26.7109C56.4414 26.151 56.3112 25.6107 56.3633 25.0898C56.4154 24.569 56.6107 24.1263 56.9492 23.7617C57.2747 23.4232 57.6719 23.3516 58.1406 23.5469C58.6224 23.7292 59 24.0938 59.2734 24.6406ZM52.75 43.6055C51.7604 43.6055 50.9922 43.3451 50.4453 42.8242C49.9115 42.3034 49.6315 41.6133 49.6055 40.7539C49.5664 39.8815 49.7227 38.8854 50.0742 37.7656C50.543 36.3854 51.3112 34.7057 52.3789 32.7266C53.4466 30.7344 54.3841 29.1719 55.1914 28.0391C55.543 27.5573 55.862 27.4792 56.1484 27.8047C56.487 28.1693 56.6758 28.7292 56.7148 29.4844C56.7539 30.2266 56.5521 31.1185 56.1094 32.1602C55.901 32.5898 55.3672 33.5924 54.5078 35.168C53.6484 36.7305 53.0625 37.8893 52.75 38.6445C52.4245 39.4258 52.2161 40.1094 52.125 40.6953C52.0469 41.2682 52.0924 41.7109 52.2617 42.0234C52.444 42.3359 52.7435 42.4727 53.1602 42.4336C54.0195 42.4206 54.944 41.8737 55.9336 40.793C56.9232 39.6992 57.7305 38.4232 58.3555 36.9648C58.4596 36.7956 58.5703 36.7174 58.6875 36.7305C58.8177 36.7305 58.9219 36.8086 59 36.9648C59.2995 37.5898 59.2018 38.4167 58.707 39.4453C58.1211 40.6693 57.2617 41.6719 56.1289 42.4531C55.0091 43.2214 53.8828 43.6055 52.75 43.6055ZM64.4297 31.2422C65.4583 30.1484 66.5326 29.1979 67.6523 28.3906C68.7852 27.5833 69.6576 27.2253 70.2695 27.3164C70.7253 27.3815 71.1289 27.6224 71.4805 28.0391C71.8451 28.4557 72.0729 28.9701 72.1641 29.582C72.2552 30.194 72.1445 30.8516 71.832 31.5547C71.5977 32.0625 70.9987 33.1367 70.0352 34.7773C69.0846 36.4049 68.4401 37.5964 68.1016 38.3516C67.5807 39.5104 67.3789 40.5 67.4961 41.3203C67.6133 42.1276 68.0299 42.5117 68.7461 42.4727C69.5143 42.4336 70.3411 41.8997 71.2266 40.8711C72.125 39.8424 73.0039 38.5404 73.8633 36.9648C73.9544 36.7956 74.0651 36.7109 74.1953 36.7109C74.3385 36.6979 74.4557 36.7695 74.5469 36.9258C74.8724 37.4466 74.7487 38.2865 74.1758 39.4453C73.6159 40.6042 72.7695 41.6068 71.6367 42.4531C70.5169 43.2995 69.3906 43.7227 68.2578 43.7227C67.151 43.7227 66.2982 43.4688 65.6992 42.9609C65.1003 42.4401 64.7812 41.737 64.7422 40.8516C64.7031 39.9661 64.8659 38.9375 65.2305 37.7656C65.5951 36.6719 66.1875 35.4154 67.0078 33.9961C67.8281 32.5768 68.4727 31.4635 68.9414 30.6562C69.4102 29.8359 69.5469 29.3802 69.3516 29.2891C69.2083 29.224 68.8893 29.3086 68.3945 29.543C67.9128 29.7643 67.2617 30.1875 66.4414 30.8125C65.6341 31.4375 64.8398 32.1797 64.0586 33.0391C63.4987 33.651 62.9583 34.3411 62.4375 35.1094C61.9167 35.8646 61.3893 36.7435 60.8555 37.7461C60.3346 38.7487 59.9049 39.6016 59.5664 40.3047C59.2279 40.9948 58.7786 41.9583 58.2188 43.1953C58.0365 43.625 57.7826 43.6771 57.457 43.3516C56.5846 42.4792 56.4544 41.1055 57.0664 39.2305C57.457 38.0065 58.2969 36.2161 59.5859 33.8594C60.875 31.4896 62.1706 29.3477 63.4727 27.4336C63.6159 27.2122 63.7591 27.1081 63.9023 27.1211C64.0586 27.1211 64.1953 27.2253 64.3125 27.4336C64.8854 28.3841 64.9245 29.6536 64.4297 31.2422ZM88.8438 39.1133C88.1146 40.2591 87.1185 41.2487 85.8555 42.082C84.5924 42.9154 83.0234 43.7161 81.1484 44.4844C80.5885 45.8125 80.1068 46.9193 79.7031 47.8047C79.3125 48.7031 78.8047 49.7578 78.1797 50.9688C77.5677 52.1927 77.0013 53.1953 76.4805 53.9766C75.9596 54.7578 75.3672 55.487 74.7031 56.1641C74.0391 56.8411 73.388 57.3034 72.75 57.5508C72.3984 57.7331 72.0208 57.7656 71.6172 57.6484C71.2005 57.5312 70.8164 57.2188 70.4648 56.7109C70.2174 56.3464 70.0221 56.0208 69.8789 55.7344C69.7357 55.4609 69.6055 55.1159 69.4883 54.6992C69.3581 54.2826 69.3125 53.8268 69.3516 53.332C69.3776 52.8503 69.4883 52.3294 69.6836 51.7695C70.7513 48.5404 73.6029 46.0143 78.2383 44.1914C78.9935 42.4076 79.4036 41.4505 79.4688 41.3203C77.9714 42.8958 76.5195 43.6315 75.1133 43.5273C74.4232 43.4753 73.8698 43.2669 73.4531 42.9023C73.0495 42.5378 72.7891 42.0755 72.6719 41.5156C72.5547 40.9557 72.5352 40.3568 72.6133 39.7188C72.6914 39.0807 72.8477 38.4167 73.082 37.7266C73.5638 36.3333 74.2799 34.7253 75.2305 32.9023C76.194 31.0664 77.2878 29.3021 78.5117 27.6094C78.668 27.388 78.8372 27.2839 79.0195 27.2969C79.2018 27.2969 79.3646 27.401 79.5078 27.6094C79.9896 28.2474 80.1654 28.9961 80.0352 29.8555C79.918 30.7148 79.4883 31.737 78.7461 32.9219C77.418 35.0703 76.3958 37.0169 75.6797 38.7617C75.276 39.7383 75.0938 40.5456 75.1328 41.1836C75.1719 41.8216 75.4193 42.1602 75.875 42.1992C77.2422 42.3034 79.1107 40.3307 81.4805 36.2812C81.819 35.6823 82.5742 34.2956 83.7461 32.1211C84.918 29.9466 85.7773 28.4688 86.3242 27.6875C86.6497 27.1927 86.9818 27.0951 87.3203 27.3945C87.5286 27.6549 87.6784 28 87.7695 28.4297C87.8607 28.8464 87.8607 29.3672 87.7695 29.9922C87.6914 30.6172 87.4896 31.2487 87.1641 31.8867C84.7031 36.6914 82.9258 40.3568 81.832 42.8828C84.6836 41.3464 87.0469 39.2891 88.9219 36.7109C88.987 36.6198 89.0586 36.5612 89.1367 36.5352C89.2279 36.4961 89.3125 36.5026 89.3906 36.5547C89.4688 36.5938 89.5208 36.6784 89.5469 36.8086C89.599 37.0299 89.5729 37.3555 89.4688 37.7852C89.3646 38.2018 89.1562 38.6445 88.8438 39.1133ZM77.5547 45.8711C76.8385 46.2878 76.1615 46.763 75.5234 47.2969C74.8984 47.8307 74.3581 48.3646 73.9023 48.8984C73.4596 49.4323 73.0495 49.9857 72.6719 50.5586C72.2943 51.1315 72.0078 51.6654 71.8125 52.1602C71.6042 52.6549 71.4284 53.1237 71.2852 53.5664C71.1419 54.0221 71.0833 54.3932 71.1094 54.6797C71.1354 54.9661 71.1875 55.194 71.2656 55.3633C71.4479 55.6237 71.8776 55.3698 72.5547 54.6016C73.2318 53.8464 74.0391 52.6615 74.9766 51.0469C75.9141 49.4453 76.7734 47.7201 77.5547 45.8711ZM97.6719 24.6406C97.9062 25.1875 97.9909 25.6953 97.9258 26.1641C97.8607 26.6198 97.6849 27.0039 97.3984 27.3164C97.151 27.6159 96.7865 27.7135 96.3047 27.6094C95.8229 27.5052 95.4388 27.2057 95.1523 26.7109C94.8398 26.151 94.7096 25.6107 94.7617 25.0898C94.8138 24.569 95.0091 24.1263 95.3477 23.7617C95.6732 23.4232 96.0703 23.3516 96.5391 23.5469C97.0208 23.7292 97.3984 24.0938 97.6719 24.6406ZM91.1484 43.6055C90.1589 43.6055 89.3906 43.3451 88.8438 42.8242C88.3099 42.3034 88.0299 41.6133 88.0039 40.7539C87.9648 39.8815 88.1211 38.8854 88.4727 37.7656C88.9414 36.3854 89.7096 34.7057 90.7773 32.7266C91.8451 30.7344 92.7826 29.1719 93.5898 28.0391C93.9414 27.5573 94.2604 27.4792 94.5469 27.8047C94.8854 28.1693 95.0742 28.7292 95.1133 29.4844C95.1523 30.2266 94.9505 31.1185 94.5078 32.1602C94.2995 32.5898 93.7656 33.5924 92.9062 35.168C92.0469 36.7305 91.4609 37.8893 91.1484 38.6445C90.8229 39.4258 90.6146 40.1094 90.5234 40.6953C90.4453 41.2682 90.4909 41.7109 90.6602 42.0234C90.8424 42.3359 91.1419 42.4727 91.5586 42.4336C92.418 42.4206 93.3424 41.8737 94.332 40.793C95.3216 39.6992 96.1289 38.4232 96.7539 36.9648C96.8581 36.7956 96.9688 36.7174 97.0859 36.7305C97.2161 36.7305 97.3203 36.8086 97.3984 36.9648C97.6979 37.5898 97.6003 38.4167 97.1055 39.4453C96.5195 40.6693 95.6602 41.6719 94.5273 42.4531C93.4076 43.2214 92.2812 43.6055 91.1484 43.6055ZM121.324 36.0469C121.454 34.888 121.663 33.8073 121.949 32.8047C122.236 31.7891 122.542 30.9557 122.867 30.3047C123.206 29.6406 123.557 29.0677 123.922 28.5859C124.286 28.0911 124.612 27.7331 124.898 27.5117C125.185 27.2904 125.419 27.1602 125.602 27.1211C125.862 27.082 126.044 27.1927 126.148 27.4531C126.266 27.7135 126.285 28.0586 126.207 28.4883C126.038 29.3607 125.706 30.3503 125.211 31.457C124.729 32.5638 123.902 34.1068 122.73 36.0859C119.684 41.1901 116.936 43.7096 114.488 43.6445C113.655 43.6315 113.004 43.2995 112.535 42.6484C112.066 41.9974 111.865 41.2227 111.93 40.3242C110.224 42.4987 108.596 43.5404 107.047 43.4492C106.253 43.3971 105.647 43.0977 105.23 42.5508C104.814 42.0039 104.618 41.3203 104.645 40.5C104.671 39.6667 104.846 38.7422 105.172 37.7266C105.667 36.2943 106.402 34.6602 107.379 32.8242C108.355 30.9883 109.475 29.2174 110.738 27.5117C110.895 27.2904 111.064 27.1862 111.246 27.1992C111.428 27.1992 111.578 27.2904 111.695 27.4727C112.646 28.8008 112.405 30.6042 110.973 32.8828C109.514 35.1875 108.421 37.2122 107.691 38.957C107.431 39.6081 107.255 40.1875 107.164 40.6953C107.086 41.2031 107.105 41.6003 107.223 41.8867C107.34 42.1602 107.548 42.2904 107.848 42.2773C108.186 42.2643 108.525 42.1471 108.863 41.9258C109.215 41.6914 109.599 41.3008 110.016 40.7539C110.432 40.207 110.79 39.7057 111.09 39.25C111.402 38.7812 111.845 38.0846 112.418 37.1602C112.704 36.6914 112.926 36.3333 113.082 36.0859C113.889 34.7969 114.82 33.1953 115.875 31.2812C116.93 29.3672 117.685 28.1107 118.141 27.5117C118.336 27.2513 118.505 27.1016 118.648 27.0625C118.805 27.0234 118.967 27.0951 119.137 27.2773C119.345 27.5378 119.495 27.8828 119.586 28.3125C119.69 28.7422 119.703 29.2695 119.625 29.8945C119.547 30.5195 119.358 31.1445 119.059 31.7695C118.798 32.3034 118.173 33.4036 117.184 35.0703C116.194 36.737 115.523 37.9544 115.172 38.7227C114.638 39.8685 114.391 40.7604 114.43 41.3984C114.469 42.0365 114.781 42.3685 115.367 42.3945C116.057 42.4076 116.949 41.8346 118.043 40.6758C119.137 39.5039 120.23 37.9609 121.324 36.0469ZM137.789 29.9922C138.479 28.7292 138.954 27.9154 139.215 27.5508C139.566 27.0299 139.885 26.9518 140.172 27.3164C140.51 27.7331 140.699 28.319 140.738 29.0742C140.777 29.8294 140.576 30.7279 140.133 31.7695C139.885 32.2643 139.273 33.3451 138.297 35.0117C137.32 36.6784 136.656 37.9023 136.305 38.6836C135.784 39.8034 135.536 40.7409 135.562 41.4961C135.602 42.2383 135.953 42.5898 136.617 42.5508C137.398 42.5117 138.277 41.9518 139.254 40.8711C140.23 39.7773 141.096 38.4883 141.852 37.0039C141.956 36.8216 142.066 36.7305 142.184 36.7305C142.314 36.7174 142.418 36.7956 142.496 36.9648C142.6 37.0951 142.626 37.4141 142.574 37.9219C142.522 38.4297 142.379 38.9375 142.145 39.4453C141.598 40.6042 140.764 41.6198 139.645 42.4922C138.525 43.3646 137.438 43.7747 136.383 43.7227C135.315 43.6706 134.501 43.3516 133.941 42.7656C133.382 42.1797 133.102 41.4049 133.102 40.4414C131.461 42.5247 129.794 43.5664 128.102 43.5664C127.19 43.5664 126.454 43.2734 125.895 42.6875C125.335 42.1016 124.996 41.3529 124.879 40.4414C124.762 39.5169 124.872 38.4492 125.211 37.2383C125.562 36.0143 126.142 34.8164 126.949 33.6445C128.46 31.444 129.957 29.8099 131.441 28.7422C132.939 27.6615 134.241 27.1211 135.348 27.1211C136.168 27.1211 136.786 27.3945 137.203 27.9414C137.633 28.4883 137.828 29.1719 137.789 29.9922ZM134.293 36.2031C135.1 34.7969 135.699 33.5599 136.09 32.4922C136.493 31.4115 136.676 30.6042 136.637 30.0703C136.611 29.5234 136.402 29.2305 136.012 29.1914C135.348 29.1263 134.384 29.6862 133.121 30.8711C131.871 32.043 130.706 33.5013 129.625 35.2461C128.935 36.3659 128.408 37.4727 128.043 38.5664C127.691 39.6471 127.555 40.526 127.633 41.2031C127.724 41.8802 128.023 42.2253 128.531 42.2383C130.029 42.2773 131.949 40.2656 134.293 36.2031ZM147.516 31.2422C148.544 30.1484 149.618 29.1979 150.738 28.3906C151.871 27.5833 152.743 27.2253 153.355 27.3164C153.811 27.3815 154.215 27.6224 154.566 28.0391C154.931 28.4557 155.159 28.9701 155.25 29.582C155.341 30.194 155.23 30.8516 154.918 31.5547C154.684 32.0625 154.085 33.1367 153.121 34.7773C152.171 36.4049 151.526 37.5964 151.188 38.3516C150.667 39.5104 150.465 40.5 150.582 41.3203C150.699 42.1276 151.116 42.5117 151.832 42.4727C152.6 42.4336 153.427 41.8997 154.312 40.8711C155.211 39.8424 156.09 38.5404 156.949 36.9648C157.04 36.7956 157.151 36.7109 157.281 36.7109C157.424 36.6979 157.542 36.7695 157.633 36.9258C157.958 37.4466 157.835 38.2865 157.262 39.4453C156.702 40.6042 155.855 41.6068 154.723 42.4531C153.603 43.2995 152.477 43.7227 151.344 43.7227C150.237 43.7227 149.384 43.4688 148.785 42.9609C148.186 42.4401 147.867 41.737 147.828 40.8516C147.789 39.9661 147.952 38.9375 148.316 37.7656C148.681 36.6719 149.273 35.4154 150.094 33.9961C150.914 32.5768 151.559 31.4635 152.027 30.6562C152.496 29.8359 152.633 29.3802 152.438 29.2891C152.294 29.224 151.975 29.3086 151.48 29.543C150.999 29.7643 150.348 30.1875 149.527 30.8125C148.72 31.4375 147.926 32.1797 147.145 33.0391C146.585 33.651 146.044 34.3411 145.523 35.1094C145.003 35.8646 144.475 36.7435 143.941 37.7461C143.421 38.7487 142.991 39.6016 142.652 40.3047C142.314 40.9948 141.865 41.9583 141.305 43.1953C141.122 43.625 140.868 43.6771 140.543 43.3516C139.671 42.4792 139.54 41.1055 140.152 39.2305C140.543 38.0065 141.383 36.2161 142.672 33.8594C143.961 31.4896 145.257 29.3477 146.559 27.4336C146.702 27.2122 146.845 27.1081 146.988 27.1211C147.145 27.1211 147.281 27.2253 147.398 27.4336C147.971 28.3841 148.01 29.6536 147.516 31.2422ZM173.082 39.4062C171.728 41.5286 169.143 43.2734 165.328 44.6406C164.794 45.9167 164.319 47.0169 163.902 47.9414C163.499 48.8789 162.997 49.9401 162.398 51.125C161.799 52.3099 161.233 53.2995 160.699 54.0938C160.178 54.888 159.592 55.6172 158.941 56.2812C158.303 56.9453 157.672 57.401 157.047 57.6484C156.135 58 155.361 57.7201 154.723 56.8086C154.475 56.457 154.28 56.1315 154.137 55.832C153.98 55.5456 153.844 55.194 153.727 54.7773C153.609 54.3737 153.57 53.9245 153.609 53.4297C153.635 52.9349 153.74 52.4076 153.922 51.8477C154.964 48.6055 157.815 46.0859 162.477 44.2891C162.633 43.9505 162.848 43.4427 163.121 42.7656C163.408 42.0885 163.583 41.6719 163.648 41.5156C162.307 42.8568 160.96 43.5273 159.605 43.5273C158.707 43.5273 157.978 43.2409 157.418 42.668C156.871 42.082 156.539 41.3398 156.422 40.4414C156.292 39.5299 156.396 38.4753 156.734 37.2773C157.086 36.0794 157.652 34.8945 158.434 33.7227C159.892 31.5612 161.37 29.9466 162.867 28.8789C164.378 27.8112 165.699 27.2773 166.832 27.2773C167.6 27.2773 168.193 27.5312 168.609 28.0391C169.026 28.5469 169.221 29.1719 169.195 29.9141C170.029 28.5599 170.471 27.8307 170.523 27.7266C170.68 27.4531 170.849 27.2969 171.031 27.2578C171.227 27.2188 171.389 27.2904 171.52 27.4727C171.871 27.8893 172.06 28.4753 172.086 29.2305C172.112 29.9727 171.897 30.8581 171.441 31.8867C171.35 32.082 170.882 33.013 170.035 34.6797C169.189 36.3464 168.434 37.8633 167.77 39.2305C167.118 40.5846 166.539 41.8411 166.031 43C168.87 41.5807 171.259 39.582 173.199 37.0039C173.316 36.8477 173.447 36.776 173.59 36.7891C173.746 36.7891 173.844 36.8867 173.883 37.082C173.922 37.2773 173.876 37.5898 173.746 38.0195C173.616 38.4492 173.395 38.9115 173.082 39.4062ZM165.719 36.2812C167.385 33.3646 168.167 31.3073 168.062 30.1094C168.01 29.6146 167.802 29.3542 167.438 29.3281C166.799 29.2891 165.849 29.849 164.586 31.0078C163.323 32.1667 162.158 33.5924 161.09 35.2852C160.387 36.4049 159.859 37.5117 159.508 38.6055C159.156 39.6862 159.033 40.5651 159.137 41.2422C159.241 41.9193 159.553 42.2643 160.074 42.2773C161.507 42.3164 163.388 40.3177 165.719 36.2812ZM161.793 45.9297C161.077 46.3464 160.4 46.8216 159.762 47.3555C159.137 47.9023 158.603 48.4427 158.16 48.9766C157.717 49.5104 157.307 50.0638 156.93 50.6367C156.552 51.2096 156.266 51.737 156.07 52.2188C155.875 52.7135 155.706 53.1823 155.562 53.625C155.419 54.0807 155.361 54.4518 155.387 54.7383C155.413 55.0247 155.458 55.2461 155.523 55.4023C155.706 55.6628 156.122 55.4219 156.773 54.6797C157.424 53.9505 158.219 52.7852 159.156 51.1836C160.094 49.5951 160.973 47.8438 161.793 45.9297Z" fill="#3C5923"/>
</svg>
