<svg width="208" height="72" viewBox="0 0 208 72" fill="none" xmlns="http://www.w3.org/2000/svg">
<rect x="3" y="3" width="202" height="66" fill="#F3C52C" fill-opacity="0.5" stroke="#F3C52C" stroke-width="6" stroke-dasharray="12 12"/>
<path d="M40.9531 35.1289C39.3516 38.0065 38.0885 40.7604 37.1641 43.3906C37.0078 43.7812 36.7539 43.8268 36.4023 43.5273C36.0508 43.2279 35.8229 42.7526 35.7188 42.1016C35.6276 41.4505 35.7188 40.5911 35.9922 39.5234C36.3047 38.3516 37.1315 36.418 38.4727 33.7227C38.5768 27.2383 38.9674 22.3034 39.6445 18.918C39.7487 18.332 40.0286 18.1888 40.4844 18.4883C41.0052 18.8138 41.3828 19.3281 41.6172 20.0312C41.8646 20.7344 41.9492 21.763 41.8711 23.1172C41.832 23.7943 41.7344 25.0052 41.5781 26.75C41.4349 28.4948 41.3372 29.901 41.2852 30.9688C43.069 28.9896 45.1849 26.7891 47.6328 24.3672C50.0807 21.9453 52.138 19.9987 53.8047 18.5273C54.2474 18.1888 54.5273 18.2539 54.6445 18.7227C55.0482 20.2201 54.2344 21.9648 52.2031 23.957C51.8906 24.2695 50.9531 25.1615 49.3906 26.6328C47.8411 28.0911 46.4154 29.4779 45.1133 30.793C43.8112 32.0951 42.4245 33.5404 40.9531 35.1289ZM56.9883 39.7578C55.0091 42.401 53.0885 43.6576 51.2266 43.5273C50.5495 43.4753 50.0026 43.2734 49.5859 42.9219C49.1823 42.5573 48.9284 42.0951 48.8242 41.5352C48.707 40.9753 48.681 40.3763 48.7461 39.7383C48.8112 39.0872 48.9609 38.4167 49.1953 37.7266C49.651 36.3594 50.3672 34.7578 51.3438 32.9219C52.3333 31.0729 53.4596 29.2695 54.7227 27.5117C54.8919 27.2904 55.0612 27.1862 55.2305 27.1992C55.4128 27.1992 55.5885 27.2904 55.7578 27.4727C56.6693 28.8398 56.4154 30.6432 54.9961 32.8828C53.7852 34.8099 52.7435 36.7695 51.8711 38.7617C51.4544 39.7383 51.2656 40.5521 51.3047 41.2031C51.3568 41.8542 51.6172 42.1992 52.0859 42.2383C53.4141 42.3424 55.3867 40.2917 58.0039 36.0859C58.8112 34.7708 59.7292 33.1628 60.7578 31.2617C61.7865 29.3477 62.5221 28.0977 62.9648 27.5117C63.3294 26.9779 63.6615 26.8997 63.9609 27.2773C64.2995 27.694 64.4883 28.2865 64.5273 29.0547C64.5664 29.8229 64.3646 30.7279 63.9219 31.7695C63.6745 32.2904 63.0625 33.3776 62.0859 35.0312C61.1094 36.6719 60.4518 37.8633 60.1133 38.6055C59.7747 39.3607 59.5599 40.0378 59.4688 40.6367C59.3906 41.2357 59.4557 41.6979 59.6641 42.0234C59.8724 42.349 60.2109 42.4987 60.6797 42.4727C61.4609 42.4336 62.3138 41.8997 63.2383 40.8711C64.1758 39.8294 65.0807 38.5273 65.9531 36.9648C66.0573 36.7826 66.181 36.6914 66.3242 36.6914C66.4805 36.6784 66.5977 36.7565 66.6758 36.9258C66.7799 37.0299 66.8125 37.3555 66.7734 37.9023C66.7344 38.4362 66.5846 38.9505 66.3242 39.4453C65.7253 40.6172 64.8594 41.6263 63.7266 42.4727C62.5938 43.306 61.4544 43.7227 60.3086 43.7227C59.0456 43.7227 58.1341 43.3646 57.5742 42.6484C57.0273 41.9323 56.832 40.9688 56.9883 39.7578ZM69 36.1641C68.388 38 68.2643 39.4974 68.6289 40.6562C68.9935 41.8021 69.7227 42.4076 70.8164 42.4727C72.3138 42.5378 73.7526 42.0104 75.1328 40.8906C76.513 39.7708 77.724 38.4102 78.7656 36.8086C78.8568 36.6523 78.974 36.5807 79.1172 36.5938C79.2604 36.5938 79.3711 36.6784 79.4492 36.8477C79.5404 37.0299 79.5273 37.375 79.4102 37.8828C79.306 38.3776 79.0911 38.8594 78.7656 39.3281C77.9062 40.5781 76.7604 41.6068 75.3281 42.4141C73.9089 43.2214 72.444 43.6315 70.9336 43.6445C69.6966 43.6576 68.6419 43.3841 67.7695 42.8242C66.8971 42.2513 66.2786 41.5026 65.9141 40.5781C65.5625 39.6406 65.4453 38.5534 65.5625 37.3164C65.6797 36.0794 66.0573 34.8294 66.6953 33.5664C67.9323 31.1185 69.4167 29.3411 71.1484 28.2344C72.8932 27.1146 74.2995 26.8607 75.3672 27.4727C76.3698 28.0846 77.1576 28.7812 77.7305 29.5625C77.9518 29.9401 78.069 30.4023 78.082 30.9492C78.1081 31.4961 77.9714 32.1471 77.6719 32.9023C77.3854 33.6445 76.9753 34.3411 76.4414 34.9922C75.7643 35.8255 75.0417 36.457 74.2734 36.8867C73.5052 37.3164 72.6589 37.4857 71.7344 37.3945C70.8099 37.3034 69.8984 36.8932 69 36.1641ZM69.3711 35.2852C69.7487 35.5195 70.1263 35.6562 70.5039 35.6953C70.8945 35.7214 71.2461 35.6758 71.5586 35.5586C71.8711 35.4414 72.1901 35.2526 72.5156 34.9922C72.8542 34.7188 73.1406 34.4518 73.375 34.1914C73.6224 33.931 73.8763 33.625 74.1367 33.2734C74.8008 32.4141 75.2956 31.5547 75.6211 30.6953C75.9596 29.8359 75.9922 29.2956 75.7188 29.0742C75.4323 28.8398 74.931 28.9245 74.2148 29.3281C73.5117 29.7188 72.724 30.3958 71.8516 31.3594C70.9922 32.3229 70.2695 33.4036 69.6836 34.6016C69.5534 34.862 69.4492 35.0898 69.3711 35.2852ZM93.2578 31.6328C94.2083 30.5391 95.3021 29.5365 96.5391 28.625C97.7891 27.7135 98.7591 27.2643 99.4492 27.2773C100.113 27.2904 100.608 27.7266 100.934 28.5859C101.259 29.4323 101.285 30.3047 101.012 31.2031C102.04 30.1875 103.128 29.3086 104.273 28.5664C105.419 27.8242 106.305 27.4596 106.93 27.4727C107.398 27.4857 107.75 27.7201 107.984 28.1758C108.232 28.6315 108.342 29.1979 108.316 29.875C108.29 30.5521 108.147 31.2227 107.887 31.8867C107.626 32.5378 107.014 33.6315 106.051 35.168C105.1 36.7044 104.488 37.7526 104.215 38.3125C103.85 39.0547 103.648 39.7448 103.609 40.3828C103.583 41.0208 103.701 41.5221 103.961 41.8867C104.234 42.2383 104.612 42.4076 105.094 42.3945C106.409 42.3685 108.076 40.5456 110.094 36.9258C110.185 36.7565 110.302 36.6654 110.445 36.6523C110.602 36.6393 110.725 36.7044 110.816 36.8477C110.921 36.9648 110.934 37.3099 110.855 37.8828C110.79 38.4427 110.654 38.9375 110.445 39.3672C109.872 40.5391 109.013 41.5482 107.867 42.3945C106.721 43.2279 105.582 43.6445 104.449 43.6445C103.603 43.6445 102.874 43.4818 102.262 43.1562C101.663 42.8307 101.22 42.401 100.934 41.8672C100.66 41.3203 100.536 40.6758 100.562 39.9336C100.602 39.1914 100.803 38.4167 101.168 37.6094C101.572 36.6979 102.203 35.5651 103.062 34.2109C103.922 32.8438 104.599 31.75 105.094 30.9297C105.602 30.0964 105.771 29.6536 105.602 29.6016C105.471 29.5495 105.25 29.582 104.938 29.6992C104.638 29.8164 104.156 30.1159 103.492 30.5977C102.841 31.0794 102.118 31.7174 101.324 32.5117C99.8138 34.0221 98.5312 35.6562 97.4766 37.4141C96.4219 39.1589 95.3867 41.1706 94.3711 43.4492C94.1237 43.9831 93.8177 44.0482 93.4531 43.6445C93.1927 43.4232 92.9909 43.1172 92.8477 42.7266C92.7174 42.3359 92.6784 41.776 92.7305 41.0469C92.7956 40.3177 93.0104 39.5039 93.375 38.6055C93.7396 37.707 94.3971 36.4896 95.3477 34.9531C96.2982 33.4036 97.0729 32.1276 97.6719 31.125C98.2708 30.1094 98.4531 29.5625 98.2188 29.4844C98.0495 29.4193 97.7435 29.4974 97.3008 29.7188C96.8581 29.9271 96.2656 30.3372 95.5234 30.9492C94.7812 31.5482 94.013 32.2839 93.2188 33.1562C91.2005 35.3438 89.2344 38.6901 87.3203 43.1953C87.138 43.599 86.8906 43.6641 86.5781 43.3906C85.6536 42.5833 85.5169 41.2161 86.168 39.2891C86.5977 38 87.444 36.151 88.707 33.7422C89.9701 31.3333 91.2201 29.2044 92.457 27.3555C92.6003 27.1341 92.7435 27.0299 92.8867 27.043C93.043 27.043 93.1797 27.1471 93.2969 27.3555C93.9479 28.4102 93.9349 29.8359 93.2578 31.6328ZM113.219 36.1641C112.607 38 112.483 39.4974 112.848 40.6562C113.212 41.8021 113.941 42.4076 115.035 42.4727C116.533 42.5378 117.971 42.0104 119.352 40.8906C120.732 39.7708 121.943 38.4102 122.984 36.8086C123.076 36.6523 123.193 36.5807 123.336 36.5938C123.479 36.5938 123.59 36.6784 123.668 36.8477C123.759 37.0299 123.746 37.375 123.629 37.8828C123.525 38.3776 123.31 38.8594 122.984 39.3281C122.125 40.5781 120.979 41.6068 119.547 42.4141C118.128 43.2214 116.663 43.6315 115.152 43.6445C113.915 43.6576 112.861 43.3841 111.988 42.8242C111.116 42.2513 110.497 41.5026 110.133 40.5781C109.781 39.6406 109.664 38.5534 109.781 37.3164C109.898 36.0794 110.276 34.8294 110.914 33.5664C112.151 31.1185 113.635 29.3411 115.367 28.2344C117.112 27.1146 118.518 26.8607 119.586 27.4727C120.589 28.0846 121.376 28.7812 121.949 29.5625C122.171 29.9401 122.288 30.4023 122.301 30.9492C122.327 31.4961 122.19 32.1471 121.891 32.9023C121.604 33.6445 121.194 34.3411 120.66 34.9922C119.983 35.8255 119.26 36.457 118.492 36.8867C117.724 37.3164 116.878 37.4857 115.953 37.3945C115.029 37.3034 114.117 36.8932 113.219 36.1641ZM113.59 35.2852C113.967 35.5195 114.345 35.6562 114.723 35.6953C115.113 35.7214 115.465 35.6758 115.777 35.5586C116.09 35.4414 116.409 35.2526 116.734 34.9922C117.073 34.7188 117.359 34.4518 117.594 34.1914C117.841 33.931 118.095 33.625 118.355 33.2734C119.02 32.4141 119.514 31.5547 119.84 30.6953C120.178 29.8359 120.211 29.2956 119.938 29.0742C119.651 28.8398 119.15 28.9245 118.434 29.3281C117.73 29.7188 116.943 30.3958 116.07 31.3594C115.211 32.3229 114.488 33.4036 113.902 34.6016C113.772 34.862 113.668 35.0898 113.59 35.2852ZM128.766 31.2422C129.794 30.1484 130.868 29.1979 131.988 28.3906C133.121 27.5833 133.993 27.2253 134.605 27.3164C135.061 27.3815 135.465 27.6224 135.816 28.0391C136.181 28.4557 136.409 28.9701 136.5 29.582C136.591 30.194 136.48 30.8516 136.168 31.5547C135.934 32.0625 135.335 33.1367 134.371 34.7773C133.421 36.4049 132.776 37.5964 132.438 38.3516C131.917 39.5104 131.715 40.5 131.832 41.3203C131.949 42.1276 132.366 42.5117 133.082 42.4727C133.85 42.4336 134.677 41.8997 135.562 40.8711C136.461 39.8424 137.34 38.5404 138.199 36.9648C138.29 36.7956 138.401 36.7109 138.531 36.7109C138.674 36.6979 138.792 36.7695 138.883 36.9258C139.208 37.4466 139.085 38.2865 138.512 39.4453C137.952 40.6042 137.105 41.6068 135.973 42.4531C134.853 43.2995 133.727 43.7227 132.594 43.7227C131.487 43.7227 130.634 43.4688 130.035 42.9609C129.436 42.4401 129.117 41.737 129.078 40.8516C129.039 39.9661 129.202 38.9375 129.566 37.7656C129.931 36.6719 130.523 35.4154 131.344 33.9961C132.164 32.5768 132.809 31.4635 133.277 30.6562C133.746 29.8359 133.883 29.3802 133.688 29.2891C133.544 29.224 133.225 29.3086 132.73 29.543C132.249 29.7643 131.598 30.1875 130.777 30.8125C129.97 31.4375 129.176 32.1797 128.395 33.0391C127.835 33.651 127.294 34.3411 126.773 35.1094C126.253 35.8646 125.725 36.7435 125.191 37.7461C124.671 38.7487 124.241 39.6016 123.902 40.3047C123.564 40.9948 123.115 41.9583 122.555 43.1953C122.372 43.625 122.118 43.6771 121.793 43.3516C120.921 42.4792 120.79 41.1055 121.402 39.2305C121.793 38.0065 122.633 36.2161 123.922 33.8594C125.211 31.4896 126.507 29.3477 127.809 27.4336C127.952 27.2122 128.095 27.1081 128.238 27.1211C128.395 27.1211 128.531 27.2253 128.648 27.4336C129.221 28.3841 129.26 29.6536 128.766 31.2422ZM154.332 39.4062C152.978 41.5286 150.393 43.2734 146.578 44.6406C146.044 45.9167 145.569 47.0169 145.152 47.9414C144.749 48.8789 144.247 49.9401 143.648 51.125C143.049 52.3099 142.483 53.2995 141.949 54.0938C141.428 54.888 140.842 55.6172 140.191 56.2812C139.553 56.9453 138.922 57.401 138.297 57.6484C137.385 58 136.611 57.7201 135.973 56.8086C135.725 56.457 135.53 56.1315 135.387 55.832C135.23 55.5456 135.094 55.194 134.977 54.7773C134.859 54.3737 134.82 53.9245 134.859 53.4297C134.885 52.9349 134.99 52.4076 135.172 51.8477C136.214 48.6055 139.065 46.0859 143.727 44.2891C143.883 43.9505 144.098 43.4427 144.371 42.7656C144.658 42.0885 144.833 41.6719 144.898 41.5156C143.557 42.8568 142.21 43.5273 140.855 43.5273C139.957 43.5273 139.228 43.2409 138.668 42.668C138.121 42.082 137.789 41.3398 137.672 40.4414C137.542 39.5299 137.646 38.4753 137.984 37.2773C138.336 36.0794 138.902 34.8945 139.684 33.7227C141.142 31.5612 142.62 29.9466 144.117 28.8789C145.628 27.8112 146.949 27.2773 148.082 27.2773C148.85 27.2773 149.443 27.5312 149.859 28.0391C150.276 28.5469 150.471 29.1719 150.445 29.9141C151.279 28.5599 151.721 27.8307 151.773 27.7266C151.93 27.4531 152.099 27.2969 152.281 27.2578C152.477 27.2188 152.639 27.2904 152.77 27.4727C153.121 27.8893 153.31 28.4753 153.336 29.2305C153.362 29.9727 153.147 30.8581 152.691 31.8867C152.6 32.082 152.132 33.013 151.285 34.6797C150.439 36.3464 149.684 37.8633 149.02 39.2305C148.368 40.5846 147.789 41.8411 147.281 43C150.12 41.5807 152.509 39.582 154.449 37.0039C154.566 36.8477 154.697 36.776 154.84 36.7891C154.996 36.7891 155.094 36.8867 155.133 37.082C155.172 37.2773 155.126 37.5898 154.996 38.0195C154.866 38.4492 154.645 38.9115 154.332 39.4062ZM146.969 36.2812C148.635 33.3646 149.417 31.3073 149.312 30.1094C149.26 29.6146 149.052 29.3542 148.688 29.3281C148.049 29.2891 147.099 29.849 145.836 31.0078C144.573 32.1667 143.408 33.5924 142.34 35.2852C141.637 36.4049 141.109 37.5117 140.758 38.6055C140.406 39.6862 140.283 40.5651 140.387 41.2422C140.491 41.9193 140.803 42.2643 141.324 42.2773C142.757 42.3164 144.638 40.3177 146.969 36.2812ZM143.043 45.9297C142.327 46.3464 141.65 46.8216 141.012 47.3555C140.387 47.9023 139.853 48.4427 139.41 48.9766C138.967 49.5104 138.557 50.0638 138.18 50.6367C137.802 51.2096 137.516 51.737 137.32 52.2188C137.125 52.7135 136.956 53.1823 136.812 53.625C136.669 54.0807 136.611 54.4518 136.637 54.7383C136.663 55.0247 136.708 55.2461 136.773 55.4023C136.956 55.6628 137.372 55.4219 138.023 54.6797C138.674 53.9505 139.469 52.7852 140.406 51.1836C141.344 49.5951 142.223 47.8438 143.043 45.9297ZM164.762 40.7539C167.053 40.1419 169.078 39.7708 170.836 39.6406C172.672 39.4974 173.844 40.0964 174.352 41.4375C174.508 41.8411 174.378 42.043 173.961 42.043C173.076 42.0299 171.773 42.1927 170.055 42.5312C168.349 42.8568 166.741 43.2148 165.23 43.6055C164.762 43.7357 164.397 43.7747 164.137 43.7227C163.876 43.6836 163.642 43.5078 163.434 43.1953C162.848 42.3229 162.503 41.75 162.398 41.4766C162.138 40.8255 162.177 40.0508 162.516 39.1523C163.44 36.7565 165.178 33.1888 167.73 28.4492C170.283 23.7096 172.197 20.4544 173.473 18.6836C173.655 18.4362 173.831 18.3255 174 18.3516C174.169 18.3646 174.312 18.5013 174.43 18.7617C175.094 20.1159 174.762 21.9974 173.434 24.4062C173.238 24.7708 172.477 26.1315 171.148 28.4883C169.833 30.832 168.661 32.987 167.633 34.9531C166.604 36.9062 165.647 38.8398 164.762 40.7539ZM185.953 24.6406C186.188 25.1875 186.272 25.6953 186.207 26.1641C186.142 26.6198 185.966 27.0039 185.68 27.3164C185.432 27.6159 185.068 27.7135 184.586 27.6094C184.104 27.5052 183.72 27.2057 183.434 26.7109C183.121 26.151 182.991 25.6107 183.043 25.0898C183.095 24.569 183.29 24.1263 183.629 23.7617C183.954 23.4232 184.352 23.3516 184.82 23.5469C185.302 23.7292 185.68 24.0938 185.953 24.6406ZM179.43 43.6055C178.44 43.6055 177.672 43.3451 177.125 42.8242C176.591 42.3034 176.311 41.6133 176.285 40.7539C176.246 39.8815 176.402 38.8854 176.754 37.7656C177.223 36.3854 177.991 34.7057 179.059 32.7266C180.126 30.7344 181.064 29.1719 181.871 28.0391C182.223 27.5573 182.542 27.4792 182.828 27.8047C183.167 28.1693 183.355 28.7292 183.395 29.4844C183.434 30.2266 183.232 31.1185 182.789 32.1602C182.581 32.5898 182.047 33.5924 181.188 35.168C180.328 36.7305 179.742 37.8893 179.43 38.6445C179.104 39.4258 178.896 40.1094 178.805 40.6953C178.727 41.2682 178.772 41.7109 178.941 42.0234C179.124 42.3359 179.423 42.4727 179.84 42.4336C180.699 42.4206 181.624 41.8737 182.613 40.793C183.603 39.6992 184.41 38.4232 185.035 36.9648C185.139 36.7956 185.25 36.7174 185.367 36.7305C185.497 36.7305 185.602 36.8086 185.68 36.9648C185.979 37.5898 185.882 38.4167 185.387 39.4453C184.801 40.6693 183.941 41.6719 182.809 42.4531C181.689 43.2214 180.562 43.6055 179.43 43.6055Z" fill="#3C5923"/>
</svg>
