<svg width="208" height="72" viewBox="0 0 208 72" fill="none" xmlns="http://www.w3.org/2000/svg">
<rect x="3" y="3" width="202" height="66" fill="#F5F2D2" fill-opacity="0.5" stroke="#C25B3A" stroke-width="6" stroke-dasharray="12 12"/>
<path d="M64.4414 25.5977C59.4544 33.1107 55.9844 39.0742 54.0312 43.4883C53.875 43.8659 53.6536 43.8919 53.3672 43.5664C53.1589 43.3451 53.0026 43.0586 52.8984 42.707C52.7812 42.3555 52.7487 41.8737 52.8008 41.2617C52.8398 40.6367 53.0026 39.9466 53.2891 39.1914C54.0182 37.3034 55.6979 34.1849 58.3281 29.8359C60.9583 25.474 63.3672 21.8086 65.5547 18.8398C65.9323 18.2669 66.362 18.1888 66.8438 18.6055C67.3906 19.0872 67.7812 19.5755 68.0156 20.0703C68.263 20.5521 68.3737 21.1576 68.3477 21.8867C68.3216 22.6029 68.1393 23.4818 67.8008 24.5234C66.3815 28.7422 64.9688 33.4492 63.5625 38.6445C64.7865 36.6263 66.2969 34.4518 68.0938 32.1211C69.9036 29.7773 71.7331 27.4271 73.582 25.0703C75.431 22.7005 76.9544 20.5846 78.1523 18.7227C78.4779 18.1888 78.8685 18.1497 79.3242 18.6055C80.7305 20.0378 80.7695 21.9844 79.4414 24.4453C75.2878 32.1797 72.3516 38.5273 70.6328 43.4883C70.5547 43.6836 70.4701 43.7878 70.3789 43.8008C70.2878 43.8138 70.1641 43.7487 70.0078 43.6055C69.1354 42.8893 68.9857 41.431 69.5586 39.2305C69.8451 38.0977 70.5352 36.3138 71.6289 33.8789C72.7227 31.431 73.9531 28.8984 75.3203 26.2812C69.6302 33.1953 65.6003 38.8594 63.2305 43.2734C63.0352 43.6771 62.8008 43.7747 62.5273 43.5664C61.8372 43.0716 61.362 42.4401 61.1016 41.6719C60.8411 40.9036 60.8086 39.9206 61.0039 38.7227C61.1992 37.4466 61.6159 35.5586 62.2539 33.0586C62.8919 30.5586 63.6211 28.0716 64.4414 25.5977ZM84.4219 39.7578C82.4427 42.401 80.5221 43.6576 78.6602 43.5273C77.9831 43.4753 77.4362 43.2734 77.0195 42.9219C76.6159 42.5573 76.362 42.0951 76.2578 41.5352C76.1406 40.9753 76.1146 40.3763 76.1797 39.7383C76.2448 39.0872 76.3945 38.4167 76.6289 37.7266C77.0846 36.3594 77.8008 34.7578 78.7773 32.9219C79.7669 31.0729 80.8932 29.2695 82.1562 27.5117C82.3255 27.2904 82.4948 27.1862 82.6641 27.1992C82.8464 27.1992 83.0221 27.2904 83.1914 27.4727C84.1029 28.8398 83.849 30.6432 82.4297 32.8828C81.2188 34.8099 80.1771 36.7695 79.3047 38.7617C78.888 39.7383 78.6992 40.5521 78.7383 41.2031C78.7904 41.8542 79.0508 42.1992 79.5195 42.2383C80.8477 42.3424 82.8203 40.2917 85.4375 36.0859C86.2448 34.7708 87.1628 33.1628 88.1914 31.2617C89.2201 29.3477 89.9557 28.0977 90.3984 27.5117C90.763 26.9779 91.0951 26.8997 91.3945 27.2773C91.7331 27.694 91.9219 28.2865 91.9609 29.0547C92 29.8229 91.7982 30.7279 91.3555 31.7695C91.1081 32.2904 90.4961 33.3776 89.5195 35.0312C88.543 36.6719 87.8854 37.8633 87.5469 38.6055C87.2083 39.3607 86.9935 40.0378 86.9023 40.6367C86.8242 41.2357 86.8893 41.6979 87.0977 42.0234C87.306 42.349 87.6445 42.4987 88.1133 42.4727C88.8945 42.4336 89.7474 41.8997 90.6719 40.8711C91.6094 39.8294 92.5143 38.5273 93.3867 36.9648C93.4909 36.7826 93.6146 36.6914 93.7578 36.6914C93.9141 36.6784 94.0312 36.7565 94.1094 36.9258C94.2135 37.0299 94.2461 37.3555 94.207 37.9023C94.168 38.4362 94.0182 38.9505 93.7578 39.4453C93.1589 40.6172 92.293 41.6263 91.1602 42.4727C90.0273 43.306 88.888 43.7227 87.7422 43.7227C86.4792 43.7227 85.5677 43.3646 85.0078 42.6484C84.4609 41.9323 84.2656 40.9688 84.4219 39.7578ZM108.23 39.1133C107.501 40.2591 106.505 41.2487 105.242 42.082C103.979 42.9154 102.41 43.7161 100.535 44.4844C99.9753 45.8125 99.4935 46.9193 99.0898 47.8047C98.6992 48.7031 98.1914 49.7578 97.5664 50.9688C96.9544 52.1927 96.388 53.1953 95.8672 53.9766C95.3464 54.7578 94.7539 55.487 94.0898 56.1641C93.4258 56.8411 92.7747 57.3034 92.1367 57.5508C91.7852 57.7331 91.4076 57.7656 91.0039 57.6484C90.5872 57.5312 90.2031 57.2188 89.8516 56.7109C89.6042 56.3464 89.4089 56.0208 89.2656 55.7344C89.1224 55.4609 88.9922 55.1159 88.875 54.6992C88.7448 54.2826 88.6992 53.8268 88.7383 53.332C88.7643 52.8503 88.875 52.3294 89.0703 51.7695C90.138 48.5404 92.9896 46.0143 97.625 44.1914C98.3802 42.4076 98.7904 41.4505 98.8555 41.3203C97.3581 42.8958 95.9062 43.6315 94.5 43.5273C93.8099 43.4753 93.2565 43.2669 92.8398 42.9023C92.4362 42.5378 92.1758 42.0755 92.0586 41.5156C91.9414 40.9557 91.9219 40.3568 92 39.7188C92.0781 39.0807 92.2344 38.4167 92.4688 37.7266C92.9505 36.3333 93.6667 34.7253 94.6172 32.9023C95.5807 31.0664 96.6745 29.3021 97.8984 27.6094C98.0547 27.388 98.224 27.2839 98.4062 27.2969C98.5885 27.2969 98.7513 27.401 98.8945 27.6094C99.3763 28.2474 99.5521 28.9961 99.4219 29.8555C99.3047 30.7148 98.875 31.737 98.1328 32.9219C96.8047 35.0703 95.7826 37.0169 95.0664 38.7617C94.6628 39.7383 94.4805 40.5456 94.5195 41.1836C94.5586 41.8216 94.806 42.1602 95.2617 42.1992C96.6289 42.3034 98.4974 40.3307 100.867 36.2812C101.206 35.6823 101.961 34.2956 103.133 32.1211C104.305 29.9466 105.164 28.4688 105.711 27.6875C106.036 27.1927 106.368 27.0951 106.707 27.3945C106.915 27.6549 107.065 28 107.156 28.4297C107.247 28.8464 107.247 29.3672 107.156 29.9922C107.078 30.6172 106.876 31.2487 106.551 31.8867C104.09 36.6914 102.312 40.3568 101.219 42.8828C104.07 41.3464 106.434 39.2891 108.309 36.7109C108.374 36.6198 108.445 36.5612 108.523 36.5352C108.615 36.4961 108.699 36.5026 108.777 36.5547C108.855 36.5938 108.908 36.6784 108.934 36.8086C108.986 37.0299 108.96 37.3555 108.855 37.7852C108.751 38.2018 108.543 38.6445 108.23 39.1133ZM96.9414 45.8711C96.2253 46.2878 95.5482 46.763 94.9102 47.2969C94.2852 47.8307 93.7448 48.3646 93.2891 48.8984C92.8464 49.4323 92.4362 49.9857 92.0586 50.5586C91.681 51.1315 91.3945 51.6654 91.1992 52.1602C90.9909 52.6549 90.8151 53.1237 90.6719 53.5664C90.5286 54.0221 90.4701 54.3932 90.4961 54.6797C90.5221 54.9661 90.5742 55.194 90.6523 55.3633C90.8346 55.6237 91.2643 55.3698 91.9414 54.6016C92.6185 53.8464 93.4258 52.6615 94.3633 51.0469C95.3008 49.4453 96.1602 47.7201 96.9414 45.8711ZM120.73 29.9922C121.421 28.7292 121.896 27.9154 122.156 27.5508C122.508 27.0299 122.827 26.9518 123.113 27.3164C123.452 27.7331 123.641 28.319 123.68 29.0742C123.719 29.8294 123.517 30.7279 123.074 31.7695C122.827 32.2643 122.215 33.3451 121.238 35.0117C120.262 36.6784 119.598 37.9023 119.246 38.6836C118.725 39.8034 118.478 40.7409 118.504 41.4961C118.543 42.2383 118.895 42.5898 119.559 42.5508C120.34 42.5117 121.219 41.9518 122.195 40.8711C123.172 39.7773 124.038 38.4883 124.793 37.0039C124.897 36.8216 125.008 36.7305 125.125 36.7305C125.255 36.7174 125.359 36.7956 125.438 36.9648C125.542 37.0951 125.568 37.4141 125.516 37.9219C125.464 38.4297 125.32 38.9375 125.086 39.4453C124.539 40.6042 123.706 41.6198 122.586 42.4922C121.466 43.3646 120.379 43.7747 119.324 43.7227C118.257 43.6706 117.443 43.3516 116.883 42.7656C116.323 42.1797 116.043 41.4049 116.043 40.4414C114.402 42.5247 112.736 43.5664 111.043 43.5664C110.132 43.5664 109.396 43.2734 108.836 42.6875C108.276 42.1016 107.938 41.3529 107.82 40.4414C107.703 39.5169 107.814 38.4492 108.152 37.2383C108.504 36.0143 109.083 34.8164 109.891 33.6445C111.401 31.444 112.898 29.8099 114.383 28.7422C115.88 27.6615 117.182 27.1211 118.289 27.1211C119.109 27.1211 119.728 27.3945 120.145 27.9414C120.574 28.4883 120.77 29.1719 120.73 29.9922ZM117.234 36.2031C118.042 34.7969 118.641 33.5599 119.031 32.4922C119.435 31.4115 119.617 30.6042 119.578 30.0703C119.552 29.5234 119.344 29.2305 118.953 29.1914C118.289 29.1263 117.326 29.6862 116.062 30.8711C114.812 32.043 113.647 33.5013 112.566 35.2461C111.876 36.3659 111.349 37.4727 110.984 38.5664C110.633 39.6471 110.496 40.526 110.574 41.2031C110.665 41.8802 110.965 42.2253 111.473 42.2383C112.97 42.2773 114.891 40.2656 117.234 36.2031ZM130.457 31.2422C131.486 30.1484 132.56 29.1979 133.68 28.3906C134.812 27.5833 135.685 27.2253 136.297 27.3164C136.753 27.3815 137.156 27.6224 137.508 28.0391C137.872 28.4557 138.1 28.9701 138.191 29.582C138.283 30.194 138.172 30.8516 137.859 31.5547C137.625 32.0625 137.026 33.1367 136.062 34.7773C135.112 36.4049 134.467 37.5964 134.129 38.3516C133.608 39.5104 133.406 40.5 133.523 41.3203C133.641 42.1276 134.057 42.5117 134.773 42.4727C135.542 42.4336 136.368 41.8997 137.254 40.8711C138.152 39.8424 139.031 38.5404 139.891 36.9648C139.982 36.7956 140.092 36.7109 140.223 36.7109C140.366 36.6979 140.483 36.7695 140.574 36.9258C140.9 37.4466 140.776 38.2865 140.203 39.4453C139.643 40.6042 138.797 41.6068 137.664 42.4531C136.544 43.2995 135.418 43.7227 134.285 43.7227C133.178 43.7227 132.326 43.4688 131.727 42.9609C131.128 42.4401 130.809 41.737 130.77 40.8516C130.73 39.9661 130.893 38.9375 131.258 37.7656C131.622 36.6719 132.215 35.4154 133.035 33.9961C133.855 32.5768 134.5 31.4635 134.969 30.6562C135.438 29.8359 135.574 29.3802 135.379 29.2891C135.236 29.224 134.917 29.3086 134.422 29.543C133.94 29.7643 133.289 30.1875 132.469 30.8125C131.661 31.4375 130.867 32.1797 130.086 33.0391C129.526 33.651 128.986 34.3411 128.465 35.1094C127.944 35.8646 127.417 36.7435 126.883 37.7461C126.362 38.7487 125.932 39.6016 125.594 40.3047C125.255 40.9948 124.806 41.9583 124.246 43.1953C124.064 43.625 123.81 43.6771 123.484 43.3516C122.612 42.4792 122.482 41.1055 123.094 39.2305C123.484 38.0065 124.324 36.2161 125.613 33.8594C126.902 31.4896 128.198 29.3477 129.5 27.4336C129.643 27.2122 129.786 27.1081 129.93 27.1211C130.086 27.1211 130.223 27.2253 130.34 27.4336C130.913 28.3841 130.952 29.6536 130.457 31.2422ZM150.398 40.7539C152.69 40.1419 154.715 39.7708 156.473 39.6406C158.309 39.4974 159.48 40.0964 159.988 41.4375C160.145 41.8411 160.014 42.043 159.598 42.043C158.712 42.0299 157.41 42.1927 155.691 42.5312C153.986 42.8568 152.378 43.2148 150.867 43.6055C150.398 43.7357 150.034 43.7747 149.773 43.7227C149.513 43.6836 149.279 43.5078 149.07 43.1953C148.484 42.3229 148.139 41.75 148.035 41.4766C147.775 40.8255 147.814 40.0508 148.152 39.1523C149.077 36.7565 150.815 33.1888 153.367 28.4492C155.919 23.7096 157.833 20.4544 159.109 18.6836C159.292 18.4362 159.467 18.3255 159.637 18.3516C159.806 18.3646 159.949 18.5013 160.066 18.7617C160.73 20.1159 160.398 21.9974 159.07 24.4062C158.875 24.7708 158.113 26.1315 156.785 28.4883C155.47 30.832 154.298 32.987 153.27 34.9531C152.241 36.9062 151.284 38.8398 150.398 40.7539ZM171.59 24.6406C171.824 25.1875 171.909 25.6953 171.844 26.1641C171.779 26.6198 171.603 27.0039 171.316 27.3164C171.069 27.6159 170.704 27.7135 170.223 27.6094C169.741 27.5052 169.357 27.2057 169.07 26.7109C168.758 26.151 168.628 25.6107 168.68 25.0898C168.732 24.569 168.927 24.1263 169.266 23.7617C169.591 23.4232 169.988 23.3516 170.457 23.5469C170.939 23.7292 171.316 24.0938 171.59 24.6406ZM165.066 43.6055C164.077 43.6055 163.309 43.3451 162.762 42.8242C162.228 42.3034 161.948 41.6133 161.922 40.7539C161.883 39.8815 162.039 38.8854 162.391 37.7656C162.859 36.3854 163.628 34.7057 164.695 32.7266C165.763 30.7344 166.701 29.1719 167.508 28.0391C167.859 27.5573 168.178 27.4792 168.465 27.8047C168.803 28.1693 168.992 28.7292 169.031 29.4844C169.07 30.2266 168.868 31.1185 168.426 32.1602C168.217 32.5898 167.684 33.5924 166.824 35.168C165.965 36.7305 165.379 37.8893 165.066 38.6445C164.741 39.4258 164.533 40.1094 164.441 40.6953C164.363 41.2682 164.409 41.7109 164.578 42.0234C164.76 42.3359 165.06 42.4727 165.477 42.4336C166.336 42.4206 167.26 41.8737 168.25 40.793C169.24 39.6992 170.047 38.4232 170.672 36.9648C170.776 36.7956 170.887 36.7174 171.004 36.7305C171.134 36.7305 171.238 36.8086 171.316 36.9648C171.616 37.5898 171.518 38.4167 171.023 39.4453C170.438 40.6693 169.578 41.6719 168.445 42.4531C167.326 43.2214 166.199 43.6055 165.066 43.6055Z" fill="#3C5923"/>
</svg>
