<svg width="208" height="72" viewBox="0 0 208 72" fill="none" xmlns="http://www.w3.org/2000/svg">
<rect x="3" y="3" width="202" height="66" fill="#EFDC99" fill-opacity="0.5" stroke="#4D5D31" stroke-width="6" stroke-dasharray="12 12"/>
<path d="M60.7969 26.7695C56.2656 32.7331 52.3854 38.2734 49.1562 43.3906C48.8307 43.9245 48.4336 43.9961 47.9648 43.6055C47.2617 42.9805 46.8255 42.2513 46.6562 41.418C46.487 40.5716 46.5586 39.4583 46.8711 38.0781C47.5872 35.0703 48.6224 31.6263 49.9766 27.7461C51.3438 23.8529 52.5221 20.9492 53.5117 19.0352C53.668 18.7357 53.8372 18.5729 54.0195 18.5469C54.2148 18.5208 54.3776 18.6315 54.5078 18.8789C54.8724 19.3867 55.0352 20.0964 54.9961 21.0078C54.957 21.9062 54.6641 23.0911 54.1172 24.5625C51.8255 30.7474 50.1589 35.5716 49.1172 39.0352C50.888 36.1315 53.1146 32.8242 55.7969 29.1133C58.4922 25.4023 60.9336 22.2188 63.1211 19.5625C63.2773 19.3932 63.4401 19.3021 63.6094 19.2891C63.7786 19.276 63.9479 19.3802 64.1172 19.6016C64.5469 20.2135 64.7682 20.8451 64.7812 21.4961C64.8073 22.1341 64.5859 23.2344 64.1172 24.7969C62.151 30.526 60.6602 35.3372 59.6445 39.2305C61.5977 36.0404 64.1758 32.2969 67.3789 28C70.5951 23.7031 73.1211 20.5716 74.957 18.6055C75.2044 18.3581 75.4128 18.2539 75.582 18.293C75.7643 18.319 75.875 18.4753 75.9141 18.7617C76.1615 20.2591 75.3867 22.1927 73.5898 24.5625C73.3294 24.9141 72.4635 26.0404 70.9922 27.9414C69.5208 29.8294 68.3099 31.3984 67.3594 32.6484C66.4219 33.8984 65.224 35.5391 63.7656 37.5703C62.3203 39.5885 61.0378 41.4635 59.918 43.1953C59.5664 43.7422 59.1628 43.8073 58.707 43.3906C58.0039 42.7526 57.5547 42.0365 57.3594 41.2422C57.1641 40.4349 57.2031 39.3151 57.4766 37.8828C58.1146 34.9531 59.2214 31.2487 60.7969 26.7695ZM73.8633 36.1641C73.2513 38 73.1276 39.4974 73.4922 40.6562C73.8568 41.8021 74.5859 42.4076 75.6797 42.4727C77.1771 42.5378 78.6159 42.0104 79.9961 40.8906C81.3763 39.7708 82.5872 38.4102 83.6289 36.8086C83.7201 36.6523 83.8372 36.5807 83.9805 36.5938C84.1237 36.5938 84.2344 36.6784 84.3125 36.8477C84.4036 37.0299 84.3906 37.375 84.2734 37.8828C84.1693 38.3776 83.9544 38.8594 83.6289 39.3281C82.7695 40.5781 81.6237 41.6068 80.1914 42.4141C78.7721 43.2214 77.3073 43.6315 75.7969 43.6445C74.5599 43.6576 73.5052 43.3841 72.6328 42.8242C71.7604 42.2513 71.1419 41.5026 70.7773 40.5781C70.4258 39.6406 70.3086 38.5534 70.4258 37.3164C70.543 36.0794 70.9206 34.8294 71.5586 33.5664C72.7956 31.1185 74.2799 29.3411 76.0117 28.2344C77.7565 27.1146 79.1628 26.8607 80.2305 27.4727C81.2331 28.0846 82.0208 28.7812 82.5938 29.5625C82.8151 29.9401 82.9323 30.4023 82.9453 30.9492C82.9714 31.4961 82.8346 32.1471 82.5352 32.9023C82.2487 33.6445 81.8385 34.3411 81.3047 34.9922C80.6276 35.8255 79.9049 36.457 79.1367 36.8867C78.3685 37.3164 77.5221 37.4857 76.5977 37.3945C75.6732 37.3034 74.7617 36.8932 73.8633 36.1641ZM74.2344 35.2852C74.612 35.5195 74.9896 35.6562 75.3672 35.6953C75.7578 35.7214 76.1094 35.6758 76.4219 35.5586C76.7344 35.4414 77.0534 35.2526 77.3789 34.9922C77.7174 34.7188 78.0039 34.4518 78.2383 34.1914C78.4857 33.931 78.7396 33.625 79 33.2734C79.6641 32.4141 80.1589 31.5547 80.4844 30.6953C80.8229 29.8359 80.8555 29.2956 80.582 29.0742C80.2956 28.8398 79.7943 28.9245 79.0781 29.3281C78.375 29.7188 77.5872 30.3958 76.7148 31.3594C75.8555 32.3229 75.1328 33.4036 74.5469 34.6016C74.4167 34.862 74.3125 35.0898 74.2344 35.2852ZM92.3008 24.6406C92.5352 25.1875 92.6198 25.6953 92.5547 26.1641C92.4896 26.6198 92.3138 27.0039 92.0273 27.3164C91.7799 27.6159 91.4154 27.7135 90.9336 27.6094C90.4518 27.5052 90.0677 27.2057 89.7812 26.7109C89.4688 26.151 89.3385 25.6107 89.3906 25.0898C89.4427 24.569 89.638 24.1263 89.9766 23.7617C90.3021 23.4232 90.6992 23.3516 91.168 23.5469C91.6497 23.7292 92.0273 24.0938 92.3008 24.6406ZM85.7773 43.6055C84.7878 43.6055 84.0195 43.3451 83.4727 42.8242C82.9388 42.3034 82.6589 41.6133 82.6328 40.7539C82.5938 39.8815 82.75 38.8854 83.1016 37.7656C83.5703 36.3854 84.3385 34.7057 85.4062 32.7266C86.474 30.7344 87.4115 29.1719 88.2188 28.0391C88.5703 27.5573 88.8893 27.4792 89.1758 27.8047C89.5143 28.1693 89.7031 28.7292 89.7422 29.4844C89.7812 30.2266 89.5794 31.1185 89.1367 32.1602C88.9284 32.5898 88.3945 33.5924 87.5352 35.168C86.6758 36.7305 86.0898 37.8893 85.7773 38.6445C85.4518 39.4258 85.2435 40.1094 85.1523 40.6953C85.0742 41.2682 85.1198 41.7109 85.2891 42.0234C85.4714 42.3359 85.7708 42.4727 86.1875 42.4336C87.0469 42.4206 87.9714 41.8737 88.9609 40.793C89.9505 39.6992 90.7578 38.4232 91.3828 36.9648C91.487 36.7956 91.5977 36.7174 91.7148 36.7305C91.8451 36.7305 91.9492 36.8086 92.0273 36.9648C92.3268 37.5898 92.2292 38.4167 91.7344 39.4453C91.1484 40.6693 90.2891 41.6719 89.1562 42.4531C88.0365 43.2214 86.9102 43.6055 85.7773 43.6055ZM94.7227 36.1641C94.1107 38 93.987 39.4974 94.3516 40.6562C94.7161 41.8021 95.4453 42.4076 96.5391 42.4727C98.0365 42.5378 99.4753 42.0104 100.855 40.8906C102.236 39.7708 103.447 38.4102 104.488 36.8086C104.579 36.6523 104.697 36.5807 104.84 36.5938C104.983 36.5938 105.094 36.6784 105.172 36.8477C105.263 37.0299 105.25 37.375 105.133 37.8828C105.029 38.3776 104.814 38.8594 104.488 39.3281C103.629 40.5781 102.483 41.6068 101.051 42.4141C99.6315 43.2214 98.1667 43.6315 96.6562 43.6445C95.4193 43.6576 94.3646 43.3841 93.4922 42.8242C92.6198 42.2513 92.0013 41.5026 91.6367 40.5781C91.2852 39.6406 91.168 38.5534 91.2852 37.3164C91.4023 36.0794 91.7799 34.8294 92.418 33.5664C93.6549 31.1185 95.1393 29.3411 96.8711 28.2344C98.6159 27.1146 100.022 26.8607 101.09 27.4727C102.092 28.0846 102.88 28.7812 103.453 29.5625C103.674 29.9401 103.792 30.4023 103.805 30.9492C103.831 31.4961 103.694 32.1471 103.395 32.9023C103.108 33.6445 102.698 34.3411 102.164 34.9922C101.487 35.8255 100.764 36.457 99.9961 36.8867C99.2279 37.3164 98.3815 37.4857 97.457 37.3945C96.5326 37.3034 95.6211 36.8932 94.7227 36.1641ZM95.0938 35.2852C95.4714 35.5195 95.849 35.6562 96.2266 35.6953C96.6172 35.7214 96.9688 35.6758 97.2812 35.5586C97.5938 35.4414 97.9128 35.2526 98.2383 34.9922C98.5768 34.7188 98.8633 34.4518 99.0977 34.1914C99.3451 33.931 99.599 33.625 99.8594 33.2734C100.523 32.4141 101.018 31.5547 101.344 30.6953C101.682 29.8359 101.715 29.2956 101.441 29.0742C101.155 28.8398 100.654 28.9245 99.9375 29.3281C99.2344 29.7188 98.4466 30.3958 97.5742 31.3594C96.7148 32.3229 95.9922 33.4036 95.4062 34.6016C95.276 34.862 95.1719 35.0898 95.0938 35.2852ZM110.27 31.2422C111.298 30.1484 112.372 29.1979 113.492 28.3906C114.625 27.5833 115.497 27.2253 116.109 27.3164C116.565 27.3815 116.969 27.6224 117.32 28.0391C117.685 28.4557 117.913 28.9701 118.004 29.582C118.095 30.194 117.984 30.8516 117.672 31.5547C117.438 32.0625 116.839 33.1367 115.875 34.7773C114.924 36.4049 114.28 37.5964 113.941 38.3516C113.421 39.5104 113.219 40.5 113.336 41.3203C113.453 42.1276 113.87 42.5117 114.586 42.4727C115.354 42.4336 116.181 41.8997 117.066 40.8711C117.965 39.8424 118.844 38.5404 119.703 36.9648C119.794 36.7956 119.905 36.7109 120.035 36.7109C120.178 36.6979 120.296 36.7695 120.387 36.9258C120.712 37.4466 120.589 38.2865 120.016 39.4453C119.456 40.6042 118.609 41.6068 117.477 42.4531C116.357 43.2995 115.23 43.7227 114.098 43.7227C112.991 43.7227 112.138 43.4688 111.539 42.9609C110.94 42.4401 110.621 41.737 110.582 40.8516C110.543 39.9661 110.706 38.9375 111.07 37.7656C111.435 36.6719 112.027 35.4154 112.848 33.9961C113.668 32.5768 114.312 31.4635 114.781 30.6562C115.25 29.8359 115.387 29.3802 115.191 29.2891C115.048 29.224 114.729 29.3086 114.234 29.543C113.753 29.7643 113.102 30.1875 112.281 30.8125C111.474 31.4375 110.68 32.1797 109.898 33.0391C109.339 33.651 108.798 34.3411 108.277 35.1094C107.757 35.8646 107.229 36.7435 106.695 37.7461C106.174 38.7487 105.745 39.6016 105.406 40.3047C105.068 40.9948 104.618 41.9583 104.059 43.1953C103.876 43.625 103.622 43.6771 103.297 43.3516C102.424 42.4792 102.294 41.1055 102.906 39.2305C103.297 38.0065 104.137 36.2161 105.426 33.8594C106.715 31.4896 108.01 29.3477 109.312 27.4336C109.456 27.2122 109.599 27.1081 109.742 27.1211C109.898 27.1211 110.035 27.2253 110.152 27.4336C110.725 28.3841 110.764 29.6536 110.27 31.2422ZM137.066 43.6445C137.353 43.7878 137.685 43.957 138.062 44.1523C138.44 44.3607 138.772 44.543 139.059 44.6992C139.358 44.8555 139.684 45.0247 140.035 45.207C140.387 45.3893 140.706 45.5456 140.992 45.6758C141.292 45.806 141.604 45.9362 141.93 46.0664C142.268 46.2096 142.587 46.3203 142.887 46.3984C143.186 46.4766 143.492 46.5417 143.805 46.5938C144.117 46.6458 144.43 46.6654 144.742 46.6523C145.055 46.6523 145.361 46.6198 145.66 46.5547C145.973 46.5026 146.155 46.5352 146.207 46.6523C146.259 46.7695 146.214 46.8997 146.07 47.043C145.654 47.5898 145.087 47.987 144.371 48.2344C143.655 48.4818 142.932 48.5859 142.203 48.5469C141.474 48.5208 140.771 48.3906 140.094 48.1562C139.456 47.9479 138.779 47.6549 138.062 47.2773C137.359 46.9128 136.747 46.5612 136.227 46.2227C135.706 45.8841 135.1 45.5326 134.41 45.168C133.733 44.8164 133.108 44.5495 132.535 44.3672C131.962 44.1849 131.266 44.0547 130.445 43.9766C129.638 43.8984 128.844 43.9701 128.062 44.1914C127.867 44.2305 127.737 44.2044 127.672 44.1133C127.594 44.0221 127.607 43.9049 127.711 43.7617C128.089 43.2669 128.648 42.8828 129.391 42.6094C130.146 42.3229 131.025 42.1992 132.027 42.2383H132.301C130.439 40.819 129.508 38.6576 129.508 35.7539C129.521 34.1263 129.794 32.4922 130.328 30.8516C130.875 29.2109 131.572 27.7331 132.418 26.418C133.277 25.0898 134.234 23.8724 135.289 22.7656C136.344 21.6458 137.392 20.7279 138.434 20.0117C139.475 19.2826 140.445 18.7617 141.344 18.4492C142.568 18.0456 143.642 17.9219 144.566 18.0781C145.504 18.2344 146.272 18.6185 146.871 19.2305C148.03 19.7513 148.883 20.5977 149.43 21.7695C149.99 22.9414 150.237 24.263 150.172 25.7344C150.107 27.1927 149.853 28.7031 149.41 30.2656C148.98 31.8151 148.388 33.2995 147.633 34.7188C146.266 37.2839 144.658 39.3932 142.809 41.0469C140.973 42.6875 139.059 43.5534 137.066 43.6445ZM144.703 33.6055C145.849 31.4961 146.65 29.4323 147.105 27.4141C147.574 25.3958 147.698 23.7552 147.477 22.4922C147.255 21.2161 146.773 20.4284 146.031 20.1289C145.536 19.9206 144.872 19.9466 144.039 20.207C143.219 20.4544 142.327 20.8906 141.363 21.5156C140.4 22.1406 139.371 23.0195 138.277 24.1523C137.197 25.2721 136.207 26.5286 135.309 27.9219C134.085 29.7969 133.219 31.75 132.711 33.7812C132.216 35.8125 132.099 37.5443 132.359 38.9766C132.633 40.4089 133.212 41.3203 134.098 41.7109C135.452 42.3229 137.158 41.8672 139.215 40.3438C141.272 38.8203 143.102 36.5742 144.703 33.6055ZM163.395 34.4062C163.134 34.6927 162.776 34.862 162.32 34.9141C161.865 36.737 161.051 38.4818 159.879 40.1484C158.707 41.8151 157.418 42.8828 156.012 43.3516C155.491 43.4948 154.957 43.5664 154.41 43.5664C153.863 43.5794 153.277 43.4167 152.652 43.0781C152.027 42.7396 151.461 42.2448 150.953 41.5938C150.38 40.8385 150.042 39.9531 149.938 38.9375C149.846 37.9219 149.944 36.8932 150.23 35.8516C150.53 34.7969 150.986 33.7161 151.598 32.6094C152.405 31.1771 153.375 29.9727 154.508 28.9961C155.654 28.0195 156.806 27.4857 157.965 27.3945C158.577 27.3685 159.078 27.4596 159.469 27.668C159.872 27.8633 160.276 28.2279 160.68 28.7617C160.823 28.944 161.051 29.2044 161.363 29.543C161.689 29.8815 161.923 30.1549 162.066 30.3633C162.223 30.5716 162.353 30.9232 162.457 31.418C162.574 31.8997 162.607 32.4792 162.555 33.1562C162.542 33.2604 162.529 33.4167 162.516 33.625C162.503 33.8203 162.49 33.9701 162.477 34.0742C162.542 34.0742 162.665 34.0612 162.848 34.0352C163.03 34.0091 163.173 33.9961 163.277 33.9961C163.408 33.9961 163.479 34.0417 163.492 34.1328C163.518 34.2109 163.486 34.3021 163.395 34.4062ZM159.957 33.3125C160.283 32.0104 160.393 31.0273 160.289 30.3633C160.224 29.9596 160.107 29.6992 159.938 29.582C159.768 29.4518 159.599 29.4779 159.43 29.6602C159.26 29.8294 159.143 30.1029 159.078 30.4805C158.987 31.0013 159.026 31.5286 159.195 32.0625C159.365 32.5833 159.618 33 159.957 33.3125ZM159.684 34.4062C159.436 34.3021 159.182 34.1393 158.922 33.918C158.453 33.5534 158.03 33.0521 157.652 32.4141C157.288 31.763 157.099 31.0924 157.086 30.4023C155.797 31.4961 154.768 32.7461 154 34.1523C153.167 35.6758 152.62 37.2188 152.359 38.7812C152.112 40.3307 152.249 41.3268 152.77 41.7695C153.355 42.2513 154.182 42.1211 155.25 41.3789C156.331 40.6237 157.34 39.3672 158.277 37.6094C158.876 36.5026 159.345 35.4349 159.684 34.4062Z" fill="#3C5923"/>
</svg>
