<svg width="208" height="72" viewBox="0 0 208 72" fill="none" xmlns="http://www.w3.org/2000/svg">
<rect x="3" y="3" width="202" height="66" fill="#C3C4A2" fill-opacity="0.5" stroke="#7E9938" stroke-width="6" stroke-dasharray="12 12"/>
<path d="M60.0352 35.1289C58.4336 38.0065 57.1706 40.7604 56.2461 43.3906C56.0898 43.7812 55.8359 43.8268 55.4844 43.5273C55.1328 43.2279 54.9049 42.7526 54.8008 42.1016C54.7096 41.4505 54.8008 40.5911 55.0742 39.5234C55.3867 38.3516 56.2135 36.418 57.5547 33.7227C57.6589 27.2383 58.0495 22.3034 58.7266 18.918C58.8307 18.332 59.1107 18.1888 59.5664 18.4883C60.0872 18.8138 60.4648 19.3281 60.6992 20.0312C60.9466 20.7344 61.0312 21.763 60.9531 23.1172C60.9141 23.7943 60.8164 25.0052 60.6602 26.75C60.5169 28.4948 60.4193 29.901 60.3672 30.9688C62.151 28.9896 64.2669 26.7891 66.7148 24.3672C69.1628 21.9453 71.2201 19.9987 72.8867 18.5273C73.3294 18.1888 73.6094 18.2539 73.7266 18.7227C74.1302 20.2201 73.3164 21.9648 71.2852 23.957C70.9727 24.2695 70.0352 25.1615 68.4727 26.6328C66.9232 28.0911 65.4974 29.4779 64.1953 30.793C62.8932 32.0951 61.5065 33.5404 60.0352 35.1289ZM76.0703 39.7578C74.0911 42.401 72.1706 43.6576 70.3086 43.5273C69.6315 43.4753 69.0846 43.2734 68.668 42.9219C68.2643 42.5573 68.0104 42.0951 67.9062 41.5352C67.7891 40.9753 67.763 40.3763 67.8281 39.7383C67.8932 39.0872 68.043 38.4167 68.2773 37.7266C68.7331 36.3594 69.4492 34.7578 70.4258 32.9219C71.4154 31.0729 72.5417 29.2695 73.8047 27.5117C73.974 27.2904 74.1432 27.1862 74.3125 27.1992C74.4948 27.1992 74.6706 27.2904 74.8398 27.4727C75.7513 28.8398 75.4974 30.6432 74.0781 32.8828C72.8672 34.8099 71.8255 36.7695 70.9531 38.7617C70.5365 39.7383 70.3477 40.5521 70.3867 41.2031C70.4388 41.8542 70.6992 42.1992 71.168 42.2383C72.4961 42.3424 74.4688 40.2917 77.0859 36.0859C77.8932 34.7708 78.8112 33.1628 79.8398 31.2617C80.8685 29.3477 81.6042 28.0977 82.0469 27.5117C82.4115 26.9779 82.7435 26.8997 83.043 27.2773C83.3815 27.694 83.5703 28.2865 83.6094 29.0547C83.6484 29.8229 83.4466 30.7279 83.0039 31.7695C82.7565 32.2904 82.1445 33.3776 81.168 35.0312C80.1914 36.6719 79.5339 37.8633 79.1953 38.6055C78.8568 39.3607 78.6419 40.0378 78.5508 40.6367C78.4727 41.2357 78.5378 41.6979 78.7461 42.0234C78.9544 42.349 79.293 42.4987 79.7617 42.4727C80.543 42.4336 81.3958 41.8997 82.3203 40.8711C83.2578 39.8294 84.1628 38.5273 85.0352 36.9648C85.1393 36.7826 85.263 36.6914 85.4062 36.6914C85.5625 36.6784 85.6797 36.7565 85.7578 36.9258C85.862 37.0299 85.8945 37.3555 85.8555 37.9023C85.8164 38.4362 85.6667 38.9505 85.4062 39.4453C84.8073 40.6172 83.9414 41.6263 82.8086 42.4727C81.6758 43.306 80.5365 43.7227 79.3906 43.7227C78.1276 43.7227 77.2161 43.3646 76.6562 42.6484C76.1094 41.9323 75.9141 40.9688 76.0703 39.7578ZM108.727 34.7578C108.818 34.5234 108.954 34.4128 109.137 34.4258C109.332 34.4388 109.475 34.5755 109.566 34.8359C109.879 35.6562 109.866 36.5547 109.527 37.5312C109.189 38.4948 108.727 39.3216 108.141 40.0117C107.568 40.6888 106.962 41.2552 106.324 41.7109C105.413 42.362 104.436 42.8177 103.395 43.0781C102.353 43.3385 101.37 43.4102 100.445 43.293C99.5339 43.1888 98.707 42.9414 97.9648 42.5508C97.0143 42.043 96.2135 41.1901 95.5625 39.9922C94.9115 38.7943 94.5664 37.4076 94.5273 35.832C94.5013 34.2044 94.7357 32.5768 95.2305 30.9492C95.7253 29.3086 96.3763 27.8307 97.1836 26.5156C98.0039 25.2005 98.9219 23.9831 99.9375 22.8633C100.966 21.7305 101.995 20.793 103.023 20.0508C104.065 19.2956 105.042 18.7422 105.953 18.3906C108.375 17.4531 110.178 17.4987 111.363 18.5273C112.457 19.4779 113.16 20.4479 113.473 21.4375C113.824 22.5964 113.707 23.7682 113.121 24.9531C112.939 25.3177 112.405 26.6393 111.52 28.918C111.363 29.3477 111.07 29.4258 110.641 29.1523C109.469 28.3711 109.15 27.0951 109.684 25.3242C109.788 24.9727 109.938 24.5495 110.133 24.0547C110.328 23.5599 110.491 23.1367 110.621 22.7852C110.764 22.4206 110.888 22.0495 110.992 21.6719C111.109 21.2812 111.155 20.9427 111.129 20.6562C111.103 20.3698 111.005 20.1354 110.836 19.9531C110.654 19.8099 110.4 19.7318 110.074 19.7188C109.749 19.6927 109.332 19.7839 108.824 19.9922C108.329 20.1875 107.802 20.4349 107.242 20.7344C106.695 21.0339 106.096 21.4375 105.445 21.9453C104.794 22.4401 104.163 22.9805 103.551 23.5664C102.939 24.1393 102.32 24.8099 101.695 25.5781C101.083 26.3464 100.53 27.1406 100.035 27.9609C99.1888 29.3542 98.5443 30.793 98.1016 32.2773C97.6589 33.7487 97.4245 35.0768 97.3984 36.2617C97.3724 37.4336 97.4896 38.4688 97.75 39.3672C98.0104 40.2656 98.388 40.9167 98.8828 41.3203C100.172 42.362 101.754 42.2708 103.629 41.0469C105.517 39.8099 107.216 37.7135 108.727 34.7578ZM127.633 39.3672C127.06 40.5521 126.214 41.5612 125.094 42.3945C123.987 43.2279 122.861 43.6445 121.715 43.6445C120.087 43.6445 119.02 43.0977 118.512 42.0039C118.004 40.8971 118.069 39.4714 118.707 37.7266C119.072 36.6458 119.658 35.4089 120.465 34.0156C121.285 32.6094 121.936 31.5026 122.418 30.6953C122.9 29.875 123.049 29.4193 122.867 29.3281C122.659 29.2109 122.138 29.3997 121.305 29.8945C120.471 30.3893 119.495 31.1576 118.375 32.1992C117.268 33.2409 116.357 34.3477 115.641 35.5195C113.948 38.2799 112.652 40.8125 111.754 43.1172C111.676 43.2995 111.572 43.4036 111.441 43.4297C111.311 43.4557 111.188 43.4036 111.07 43.2734C110.289 42.388 110.237 40.9753 110.914 39.0352C111.604 37.069 113.525 33.4102 116.676 28.0586C119.827 22.694 122.229 18.9831 123.883 16.9258C124.065 16.6784 124.241 16.5612 124.41 16.5742C124.592 16.5872 124.736 16.7174 124.84 16.9648C125.022 17.3685 125.113 17.8438 125.113 18.3906C125.126 18.9245 125.016 19.569 124.781 20.3242C124.547 21.0664 124.189 21.8411 123.707 22.6484C123.303 23.3125 121.708 25.819 118.922 30.168C119.781 29.3346 120.66 28.6445 121.559 28.0977C122.47 27.5508 123.186 27.3034 123.707 27.3555C124.449 27.4466 125.009 27.9154 125.387 28.7617C125.764 29.5951 125.725 30.526 125.27 31.5547C125.048 31.9974 124.456 33.0391 123.492 34.6797C122.542 36.3203 121.897 37.5312 121.559 38.3125C121.051 39.4714 120.855 40.4609 120.973 41.2812C121.09 42.0885 121.513 42.4727 122.242 42.4336C123.01 42.3945 123.876 41.8216 124.84 40.7148C125.816 39.5951 126.643 38.332 127.32 36.9258C127.398 36.7565 127.516 36.6719 127.672 36.6719C127.841 36.6589 127.965 36.7305 128.043 36.8867C128.303 37.4857 128.167 38.3125 127.633 39.3672ZM130.426 36.1641C129.814 38 129.69 39.4974 130.055 40.6562C130.419 41.8021 131.148 42.4076 132.242 42.4727C133.74 42.5378 135.178 42.0104 136.559 40.8906C137.939 39.7708 139.15 38.4102 140.191 36.8086C140.283 36.6523 140.4 36.5807 140.543 36.5938C140.686 36.5938 140.797 36.6784 140.875 36.8477C140.966 37.0299 140.953 37.375 140.836 37.8828C140.732 38.3776 140.517 38.8594 140.191 39.3281C139.332 40.5781 138.186 41.6068 136.754 42.4141C135.335 43.2214 133.87 43.6315 132.359 43.6445C131.122 43.6576 130.068 43.3841 129.195 42.8242C128.323 42.2513 127.704 41.5026 127.34 40.5781C126.988 39.6406 126.871 38.5534 126.988 37.3164C127.105 36.0794 127.483 34.8294 128.121 33.5664C129.358 31.1185 130.842 29.3411 132.574 28.2344C134.319 27.1146 135.725 26.8607 136.793 27.4727C137.796 28.0846 138.583 28.7812 139.156 29.5625C139.378 29.9401 139.495 30.4023 139.508 30.9492C139.534 31.4961 139.397 32.1471 139.098 32.9023C138.811 33.6445 138.401 34.3411 137.867 34.9922C137.19 35.8255 136.467 36.457 135.699 36.8867C134.931 37.3164 134.085 37.4857 133.16 37.3945C132.236 37.3034 131.324 36.8932 130.426 36.1641ZM130.797 35.2852C131.174 35.5195 131.552 35.6562 131.93 35.6953C132.32 35.7214 132.672 35.6758 132.984 35.5586C133.297 35.4414 133.616 35.2526 133.941 34.9922C134.28 34.7188 134.566 34.4518 134.801 34.1914C135.048 33.931 135.302 33.625 135.562 33.2734C136.227 32.4141 136.721 31.5547 137.047 30.6953C137.385 29.8359 137.418 29.2956 137.145 29.0742C136.858 28.8398 136.357 28.9245 135.641 29.3281C134.938 29.7188 134.15 30.3958 133.277 31.3594C132.418 32.3229 131.695 33.4036 131.109 34.6016C130.979 34.862 130.875 35.0898 130.797 35.2852ZM145.973 31.2422C147.001 30.1484 148.076 29.1979 149.195 28.3906C150.328 27.5833 151.201 27.2253 151.812 27.3164C152.268 27.3815 152.672 27.6224 153.023 28.0391C153.388 28.4557 153.616 28.9701 153.707 29.582C153.798 30.194 153.688 30.8516 153.375 31.5547C153.141 32.0625 152.542 33.1367 151.578 34.7773C150.628 36.4049 149.983 37.5964 149.645 38.3516C149.124 39.5104 148.922 40.5 149.039 41.3203C149.156 42.1276 149.573 42.5117 150.289 42.4727C151.057 42.4336 151.884 41.8997 152.77 40.8711C153.668 39.8424 154.547 38.5404 155.406 36.9648C155.497 36.7956 155.608 36.7109 155.738 36.7109C155.882 36.6979 155.999 36.7695 156.09 36.9258C156.415 37.4466 156.292 38.2865 155.719 39.4453C155.159 40.6042 154.312 41.6068 153.18 42.4531C152.06 43.2995 150.934 43.7227 149.801 43.7227C148.694 43.7227 147.841 43.4688 147.242 42.9609C146.643 42.4401 146.324 41.737 146.285 40.8516C146.246 39.9661 146.409 38.9375 146.773 37.7656C147.138 36.6719 147.73 35.4154 148.551 33.9961C149.371 32.5768 150.016 31.4635 150.484 30.6562C150.953 29.8359 151.09 29.3802 150.895 29.2891C150.751 29.224 150.432 29.3086 149.938 29.543C149.456 29.7643 148.805 30.1875 147.984 30.8125C147.177 31.4375 146.383 32.1797 145.602 33.0391C145.042 33.651 144.501 34.3411 143.98 35.1094C143.46 35.8646 142.932 36.7435 142.398 37.7461C141.878 38.7487 141.448 39.6016 141.109 40.3047C140.771 40.9948 140.322 41.9583 139.762 43.1953C139.579 43.625 139.326 43.6771 139 43.3516C138.128 42.4792 137.997 41.1055 138.609 39.2305C139 38.0065 139.84 36.2161 141.129 33.8594C142.418 31.4896 143.714 29.3477 145.016 27.4336C145.159 27.2122 145.302 27.1081 145.445 27.1211C145.602 27.1211 145.738 27.2253 145.855 27.4336C146.428 28.3841 146.467 29.6536 145.973 31.2422Z" fill="#3C5923"/>
</svg>
