<svg width="208" height="72" viewBox="0 0 208 72" fill="none" xmlns="http://www.w3.org/2000/svg">
<rect x="3" y="3" width="202" height="66" fill="#F5F2D2" fill-opacity="0.5" stroke="#C25B3A" stroke-width="6" stroke-dasharray="12 12"/>
<path d="M29.9375 38.207C28.7526 40.5638 27.5677 43.2005 26.3828 46.1172C26.2266 46.4948 26.0117 46.5469 25.7383 46.2734C24.9961 45.4792 24.8789 44.1641 25.3867 42.3281C25.8815 40.5182 26.9427 37.9661 28.5703 34.6719C30.2109 31.3646 31.9102 28.3242 33.668 25.5508C32.4961 25.4466 31.6432 24.9193 31.1094 23.9688C30.9141 23.5781 31.0573 23.3503 31.5391 23.2852C32.6328 23.1549 34.1823 22.7708 36.1875 22.1328C38.2057 21.4948 39.6706 21.1562 40.582 21.1172C41.7148 21.0781 42.6784 21.293 43.4727 21.7617C44.2799 22.2305 44.9049 23.0964 45.3477 24.3594C45.7513 25.5833 45.8359 26.7747 45.6016 27.9336C45.3802 29.0924 44.8789 30.1927 44.0977 31.2344C43.0169 32.6667 41.4805 33.9688 39.4883 35.1406C37.4961 36.3125 35.3932 37.1589 33.1797 37.6797C35.0286 39.9453 36.2982 41.7747 36.9883 43.168C37.2878 43.7279 37.457 44.3008 37.4961 44.8867C37.5352 45.4727 37.431 45.974 37.1836 46.3906C36.9492 46.7552 36.7344 46.7878 36.5391 46.4883C33.987 43.0117 31.7865 40.2513 29.9375 38.207ZM36.1094 25.3164C36.1094 26.4492 35.6016 27.9596 34.5859 29.8477C34.2865 30.3815 33.7786 31.2604 33.0625 32.4844C32.3594 33.7083 31.8125 34.6784 31.4219 35.3945C32.5026 35.1602 33.5378 34.8607 34.5273 34.4961C35.5299 34.1315 36.4284 33.7344 37.2227 33.3047C38.0169 32.875 38.7656 32.4128 39.4688 31.918C40.1849 31.4232 40.7839 30.9219 41.2656 30.4141C41.7604 29.9062 42.2031 29.3919 42.5938 28.8711C42.9974 28.3372 43.2839 27.8294 43.4531 27.3477C43.6224 26.8659 43.7331 26.4036 43.7852 25.9609C43.8503 25.5182 43.7982 25.1211 43.6289 24.7695C43.4857 24.4049 43.2513 24.1445 42.9258 23.9883C42.6133 23.819 42.2682 23.7409 41.8906 23.7539C41.513 23.7539 41.0508 23.819 40.5039 23.9492C39.9701 24.0664 39.4818 24.2031 39.0391 24.3594C38.6094 24.5026 38.1016 24.6784 37.5156 24.8867C36.9297 25.082 36.4609 25.2253 36.1094 25.3164ZM50.9336 42.7578C48.9544 45.401 47.0339 46.6576 45.1719 46.5273C44.4948 46.4753 43.9479 46.2734 43.5312 45.9219C43.1276 45.5573 42.8737 45.0951 42.7695 44.5352C42.6523 43.9753 42.6263 43.3763 42.6914 42.7383C42.7565 42.0872 42.9062 41.4167 43.1406 40.7266C43.5964 39.3594 44.3125 37.7578 45.2891 35.9219C46.2786 34.0729 47.4049 32.2695 48.668 30.5117C48.8372 30.2904 49.0065 30.1862 49.1758 30.1992C49.3581 30.1992 49.5339 30.2904 49.7031 30.4727C50.6146 31.8398 50.3607 33.6432 48.9414 35.8828C47.7305 37.8099 46.6888 39.7695 45.8164 41.7617C45.3997 42.7383 45.2109 43.5521 45.25 44.2031C45.3021 44.8542 45.5625 45.1992 46.0312 45.2383C47.3594 45.3424 49.332 43.2917 51.9492 39.0859C52.7565 37.7708 53.6745 36.1628 54.7031 34.2617C55.7318 32.3477 56.4674 31.0977 56.9102 30.5117C57.2747 29.9779 57.6068 29.8997 57.9062 30.2773C58.2448 30.694 58.4336 31.2865 58.4727 32.0547C58.5117 32.8229 58.3099 33.7279 57.8672 34.7695C57.6198 35.2904 57.0078 36.3776 56.0312 38.0312C55.0547 39.6719 54.3971 40.8633 54.0586 41.6055C53.7201 42.3607 53.5052 43.0378 53.4141 43.6367C53.3359 44.2357 53.401 44.6979 53.6094 45.0234C53.8177 45.349 54.1562 45.4987 54.625 45.4727C55.4062 45.4336 56.2591 44.8997 57.1836 43.8711C58.1211 42.8294 59.026 41.5273 59.8984 39.9648C60.0026 39.7826 60.1263 39.6914 60.2695 39.6914C60.4258 39.6784 60.543 39.7565 60.6211 39.9258C60.7253 40.0299 60.7578 40.3555 60.7188 40.9023C60.6797 41.4362 60.5299 41.9505 60.2695 42.4453C59.6706 43.6172 58.8047 44.6263 57.6719 45.4727C56.5391 46.306 55.3997 46.7227 54.2539 46.7227C52.9909 46.7227 52.0794 46.3646 51.5195 45.6484C50.9727 44.9323 50.7773 43.9688 50.9336 42.7578ZM72.9453 37.4062C72.6849 37.6927 72.3268 37.862 71.8711 37.9141C71.4154 39.737 70.6016 41.4818 69.4297 43.1484C68.2578 44.8151 66.9688 45.8828 65.5625 46.3516C65.0417 46.4948 64.5078 46.5664 63.9609 46.5664C63.4141 46.5794 62.8281 46.4167 62.2031 46.0781C61.5781 45.7396 61.0117 45.2448 60.5039 44.5938C59.931 43.8385 59.5924 42.9531 59.4883 41.9375C59.3971 40.9219 59.4948 39.8932 59.7812 38.8516C60.0807 37.7969 60.5365 36.7161 61.1484 35.6094C61.9557 34.1771 62.9258 32.9727 64.0586 31.9961C65.2044 31.0195 66.3568 30.4857 67.5156 30.3945C68.1276 30.3685 68.6289 30.4596 69.0195 30.668C69.4232 30.8633 69.8268 31.2279 70.2305 31.7617C70.3737 31.944 70.6016 32.2044 70.9141 32.543C71.2396 32.8815 71.474 33.1549 71.6172 33.3633C71.7734 33.5716 71.9036 33.9232 72.0078 34.418C72.125 34.8997 72.1576 35.4792 72.1055 36.1562C72.0924 36.2604 72.0794 36.4167 72.0664 36.625C72.0534 36.8203 72.0404 36.9701 72.0273 37.0742C72.0924 37.0742 72.2161 37.0612 72.3984 37.0352C72.5807 37.0091 72.724 36.9961 72.8281 36.9961C72.9583 36.9961 73.0299 37.0417 73.043 37.1328C73.069 37.2109 73.0365 37.3021 72.9453 37.4062ZM69.5078 36.3125C69.8333 35.0104 69.944 34.0273 69.8398 33.3633C69.7747 32.9596 69.6576 32.6992 69.4883 32.582C69.319 32.4518 69.1497 32.4779 68.9805 32.6602C68.8112 32.8294 68.694 33.1029 68.6289 33.4805C68.5378 34.0013 68.5768 34.5286 68.7461 35.0625C68.9154 35.5833 69.1693 36 69.5078 36.3125ZM69.2344 37.4062C68.987 37.3021 68.7331 37.1393 68.4727 36.918C68.0039 36.5534 67.5807 36.0521 67.2031 35.4141C66.8385 34.763 66.6497 34.0924 66.6367 33.4023C65.3477 34.4961 64.319 35.7461 63.5508 37.1523C62.7174 38.6758 62.1706 40.2188 61.9102 41.7812C61.6628 43.3307 61.7995 44.3268 62.3203 44.7695C62.9062 45.2513 63.7331 45.1211 64.8008 44.3789C65.8815 43.6237 66.8906 42.3672 67.8281 40.6094C68.4271 39.5026 68.8958 38.4349 69.2344 37.4062ZM79.5078 38.793C78.8307 34.2878 78.3424 32.0221 78.043 31.9961C77.7565 31.9701 77.2747 32.3477 76.5977 33.1289C75.9206 33.9102 75.3086 34.9062 74.7617 36.1172C74.6836 36.2865 74.5664 36.3841 74.4102 36.4102C74.2669 36.4232 74.1693 36.3516 74.1172 36.1953C73.9349 35.6615 74.013 34.9453 74.3516 34.0469C74.7552 33.0182 75.4648 32.1198 76.4805 31.3516C77.4961 30.5703 78.4792 30.2643 79.4297 30.4336C80.0286 30.5508 80.4844 30.8242 80.7969 31.2539C81.1224 31.6836 81.3763 32.3477 81.5586 33.2461C81.7669 34.2878 81.9492 35.4336 82.1055 36.6836C84.7227 34.5612 86.7279 32.6016 88.1211 30.8047C88.3164 30.5312 88.4987 30.401 88.668 30.4141C88.8372 30.4141 88.9219 30.5703 88.9219 30.8828C88.9219 31.5078 88.7461 32.1263 88.3945 32.7383C88.056 33.3372 87.5091 34.0664 86.7539 34.9258C86.6628 35.0299 86.5586 35.1406 86.4414 35.2578C86.3372 35.375 86.207 35.5052 86.0508 35.6484C85.9076 35.7786 85.7773 35.8958 85.6602 36C85.543 36.1042 85.3802 36.2474 85.1719 36.4297C84.9766 36.599 84.8203 36.7357 84.7031 36.8398C84.5859 36.931 84.4036 37.0807 84.1562 37.2891C83.9089 37.4974 83.7266 37.6471 83.6094 37.7383C83.5052 37.8164 83.3034 37.9792 83.0039 38.2266C82.7044 38.4609 82.5026 38.6237 82.3984 38.7148C82.4766 39.1576 82.5872 39.8997 82.7305 40.9414C82.8867 41.9701 83.0039 42.6797 83.082 43.0703C83.3555 44.5026 83.7786 45.2383 84.3516 45.2773C85.5625 45.3424 87.0143 43.5846 88.707 40.0039C88.7852 39.8346 88.8893 39.7435 89.0195 39.7305C89.1628 39.7044 89.2604 39.7695 89.3125 39.9258C89.4297 40.1211 89.4622 40.4661 89.4102 40.9609C89.3711 41.4557 89.2214 41.9505 88.9609 42.4453C88.349 43.6562 87.5547 44.6589 86.5781 45.4531C85.6146 46.2474 84.6445 46.6445 83.668 46.6445C82.5872 46.6445 81.7604 46.293 81.1875 45.5898C80.6146 44.8867 80.2044 43.7148 79.957 42.0742C79.944 42.0091 79.918 41.8464 79.8789 41.5859C79.8529 41.3255 79.8268 41.1042 79.8008 40.9219C77.4831 42.875 75.6406 44.6979 74.2734 46.3906C74.1693 46.5078 74.0391 46.599 73.8828 46.6641C73.7266 46.7292 73.5898 46.7292 73.4727 46.6641C73.3685 46.612 73.3294 46.4818 73.3555 46.2734C73.4076 45.6224 73.6224 44.9779 74 44.3398C74.3906 43.7018 74.9766 42.9596 75.7578 42.1133C76.5 41.306 77.75 40.1992 79.5078 38.793ZM97.4766 27.6406C97.7109 28.1875 97.7956 28.6953 97.7305 29.1641C97.6654 29.6198 97.4896 30.0039 97.2031 30.3164C96.9557 30.6159 96.5911 30.7135 96.1094 30.6094C95.6276 30.5052 95.2435 30.2057 94.957 29.7109C94.6445 29.151 94.5143 28.6107 94.5664 28.0898C94.6185 27.569 94.8138 27.1263 95.1523 26.7617C95.4779 26.4232 95.875 26.3516 96.3438 26.5469C96.8255 26.7292 97.2031 27.0938 97.4766 27.6406ZM90.9531 46.6055C89.9635 46.6055 89.1953 46.3451 88.6484 45.8242C88.1146 45.3034 87.8346 44.6133 87.8086 43.7539C87.7695 42.8815 87.9258 41.8854 88.2773 40.7656C88.7461 39.3854 89.5143 37.7057 90.582 35.7266C91.6497 33.7344 92.5872 32.1719 93.3945 31.0391C93.7461 30.5573 94.0651 30.4792 94.3516 30.8047C94.6901 31.1693 94.8789 31.7292 94.918 32.4844C94.957 33.2266 94.7552 34.1185 94.3125 35.1602C94.1042 35.5898 93.5703 36.5924 92.7109 38.168C91.8516 39.7305 91.2656 40.8893 90.9531 41.6445C90.6276 42.4258 90.4193 43.1094 90.3281 43.6953C90.25 44.2682 90.2956 44.7109 90.4648 45.0234C90.6471 45.3359 90.9466 45.4727 91.3633 45.4336C92.2227 45.4206 93.1471 44.8737 94.1367 43.793C95.1263 42.6992 95.9336 41.4232 96.5586 39.9648C96.6628 39.7956 96.7734 39.7174 96.8906 39.7305C97.0208 39.7305 97.125 39.8086 97.2031 39.9648C97.5026 40.5898 97.4049 41.4167 96.9102 42.4453C96.3242 43.6693 95.4648 44.6719 94.332 45.4531C93.2122 46.2214 92.0859 46.6055 90.9531 46.6055ZM102.633 34.2422C103.661 33.1484 104.736 32.1979 105.855 31.3906C106.988 30.5833 107.861 30.2253 108.473 30.3164C108.928 30.3815 109.332 30.6224 109.684 31.0391C110.048 31.4557 110.276 31.9701 110.367 32.582C110.458 33.194 110.348 33.8516 110.035 34.5547C109.801 35.0625 109.202 36.1367 108.238 37.7773C107.288 39.4049 106.643 40.5964 106.305 41.3516C105.784 42.5104 105.582 43.5 105.699 44.3203C105.816 45.1276 106.233 45.5117 106.949 45.4727C107.717 45.4336 108.544 44.8997 109.43 43.8711C110.328 42.8424 111.207 41.5404 112.066 39.9648C112.158 39.7956 112.268 39.7109 112.398 39.7109C112.542 39.6979 112.659 39.7695 112.75 39.9258C113.076 40.4466 112.952 41.2865 112.379 42.4453C111.819 43.6042 110.973 44.6068 109.84 45.4531C108.72 46.2995 107.594 46.7227 106.461 46.7227C105.354 46.7227 104.501 46.4688 103.902 45.9609C103.303 45.4401 102.984 44.737 102.945 43.8516C102.906 42.9661 103.069 41.9375 103.434 40.7656C103.798 39.6719 104.391 38.4154 105.211 36.9961C106.031 35.5768 106.676 34.4635 107.145 33.6562C107.613 32.8359 107.75 32.3802 107.555 32.2891C107.411 32.224 107.092 32.3086 106.598 32.543C106.116 32.7643 105.465 33.1875 104.645 33.8125C103.837 34.4375 103.043 35.1797 102.262 36.0391C101.702 36.651 101.161 37.3411 100.641 38.1094C100.12 38.8646 99.5924 39.7435 99.0586 40.7461C98.5378 41.7487 98.1081 42.6016 97.7695 43.3047C97.431 43.9948 96.9818 44.9583 96.4219 46.1953C96.2396 46.625 95.9857 46.6771 95.6602 46.3516C94.7878 45.4792 94.6576 44.1055 95.2695 42.2305C95.6602 41.0065 96.5 39.2161 97.7891 36.8594C99.0781 34.4896 100.374 32.3477 101.676 30.4336C101.819 30.2122 101.962 30.1081 102.105 30.1211C102.262 30.1211 102.398 30.2253 102.516 30.4336C103.089 31.3841 103.128 32.6536 102.633 34.2422ZM127.32 38.1289C125.719 41.0065 124.456 43.7604 123.531 46.3906C123.375 46.7812 123.121 46.8268 122.77 46.5273C122.418 46.2279 122.19 45.7526 122.086 45.1016C121.995 44.4505 122.086 43.5911 122.359 42.5234C122.672 41.3516 123.499 39.418 124.84 36.7227C124.944 30.2383 125.335 25.3034 126.012 21.918C126.116 21.332 126.396 21.1888 126.852 21.4883C127.372 21.8138 127.75 22.3281 127.984 23.0312C128.232 23.7344 128.316 24.763 128.238 26.1172C128.199 26.7943 128.102 28.0052 127.945 29.75C127.802 31.4948 127.704 32.901 127.652 33.9688C129.436 31.9896 131.552 29.7891 134 27.3672C136.448 24.9453 138.505 22.9987 140.172 21.5273C140.615 21.1888 140.895 21.2539 141.012 21.7227C141.415 23.2201 140.602 24.9648 138.57 26.957C138.258 27.2695 137.32 28.1615 135.758 29.6328C134.208 31.0911 132.783 32.4779 131.48 33.793C130.178 35.0951 128.792 36.5404 127.32 38.1289ZM148.492 32.9922C149.182 31.7292 149.658 30.9154 149.918 30.5508C150.27 30.0299 150.589 29.9518 150.875 30.3164C151.214 30.7331 151.402 31.319 151.441 32.0742C151.48 32.8294 151.279 33.7279 150.836 34.7695C150.589 35.2643 149.977 36.3451 149 38.0117C148.023 39.6784 147.359 40.9023 147.008 41.6836C146.487 42.8034 146.24 43.7409 146.266 44.4961C146.305 45.2383 146.656 45.5898 147.32 45.5508C148.102 45.5117 148.98 44.9518 149.957 43.8711C150.934 42.7773 151.799 41.4883 152.555 40.0039C152.659 39.8216 152.77 39.7305 152.887 39.7305C153.017 39.7174 153.121 39.7956 153.199 39.9648C153.303 40.0951 153.329 40.4141 153.277 40.9219C153.225 41.4297 153.082 41.9375 152.848 42.4453C152.301 43.6042 151.467 44.6198 150.348 45.4922C149.228 46.3646 148.141 46.7747 147.086 46.7227C146.018 46.6706 145.204 46.3516 144.645 45.7656C144.085 45.1797 143.805 44.4049 143.805 43.4414C142.164 45.5247 140.497 46.5664 138.805 46.5664C137.893 46.5664 137.158 46.2734 136.598 45.6875C136.038 45.1016 135.699 44.3529 135.582 43.4414C135.465 42.5169 135.576 41.4492 135.914 40.2383C136.266 39.0143 136.845 37.8164 137.652 36.6445C139.163 34.444 140.66 32.8099 142.145 31.7422C143.642 30.6615 144.944 30.1211 146.051 30.1211C146.871 30.1211 147.49 30.3945 147.906 30.9414C148.336 31.4883 148.531 32.1719 148.492 32.9922ZM144.996 39.2031C145.803 37.7969 146.402 36.5599 146.793 35.4922C147.197 34.4115 147.379 33.6042 147.34 33.0703C147.314 32.5234 147.105 32.2305 146.715 32.1914C146.051 32.1263 145.087 32.6862 143.824 33.8711C142.574 35.043 141.409 36.5013 140.328 38.2461C139.638 39.3659 139.111 40.4727 138.746 41.5664C138.395 42.6471 138.258 43.526 138.336 44.2031C138.427 44.8802 138.727 45.2253 139.234 45.2383C140.732 45.2773 142.652 43.2656 144.996 39.2031ZM158.219 34.2422C159.247 33.1484 160.322 32.1979 161.441 31.3906C162.574 30.5833 163.447 30.2253 164.059 30.3164C164.514 30.3815 164.918 30.6224 165.27 31.0391C165.634 31.4557 165.862 31.9701 165.953 32.582C166.044 33.194 165.934 33.8516 165.621 34.5547C165.387 35.0625 164.788 36.1367 163.824 37.7773C162.874 39.4049 162.229 40.5964 161.891 41.3516C161.37 42.5104 161.168 43.5 161.285 44.3203C161.402 45.1276 161.819 45.5117 162.535 45.4727C163.303 45.4336 164.13 44.8997 165.016 43.8711C165.914 42.8424 166.793 41.5404 167.652 39.9648C167.743 39.7956 167.854 39.7109 167.984 39.7109C168.128 39.6979 168.245 39.7695 168.336 39.9258C168.661 40.4466 168.538 41.2865 167.965 42.4453C167.405 43.6042 166.559 44.6068 165.426 45.4531C164.306 46.2995 163.18 46.7227 162.047 46.7227C160.94 46.7227 160.087 46.4688 159.488 45.9609C158.889 45.4401 158.57 44.737 158.531 43.8516C158.492 42.9661 158.655 41.9375 159.02 40.7656C159.384 39.6719 159.977 38.4154 160.797 36.9961C161.617 35.5768 162.262 34.4635 162.73 33.6562C163.199 32.8359 163.336 32.3802 163.141 32.2891C162.997 32.224 162.678 32.3086 162.184 32.543C161.702 32.7643 161.051 33.1875 160.23 33.8125C159.423 34.4375 158.629 35.1797 157.848 36.0391C157.288 36.651 156.747 37.3411 156.227 38.1094C155.706 38.8646 155.178 39.7435 154.645 40.7461C154.124 41.7487 153.694 42.6016 153.355 43.3047C153.017 43.9948 152.568 44.9583 152.008 46.1953C151.826 46.625 151.572 46.6771 151.246 46.3516C150.374 45.4792 150.243 44.1055 150.855 42.2305C151.246 41.0065 152.086 39.2161 153.375 36.8594C154.664 34.4896 155.96 32.3477 157.262 30.4336C157.405 30.2122 157.548 30.1081 157.691 30.1211C157.848 30.1211 157.984 30.2253 158.102 30.4336C158.674 31.3841 158.714 32.6536 158.219 34.2422ZM183.785 42.4062C182.431 44.5286 179.846 46.2734 176.031 47.6406C175.497 48.9167 175.022 50.0169 174.605 50.9414C174.202 51.8789 173.701 52.9401 173.102 54.125C172.503 55.3099 171.936 56.2995 171.402 57.0938C170.882 57.888 170.296 58.6172 169.645 59.2812C169.007 59.9453 168.375 60.401 167.75 60.6484C166.839 61 166.064 60.7201 165.426 59.8086C165.178 59.457 164.983 59.1315 164.84 58.832C164.684 58.5456 164.547 58.194 164.43 57.7773C164.312 57.3737 164.273 56.9245 164.312 56.4297C164.339 55.9349 164.443 55.4076 164.625 54.8477C165.667 51.6055 168.518 49.0859 173.18 47.2891C173.336 46.9505 173.551 46.4427 173.824 45.7656C174.111 45.0885 174.286 44.6719 174.352 44.5156C173.01 45.8568 171.663 46.5273 170.309 46.5273C169.41 46.5273 168.681 46.2409 168.121 45.668C167.574 45.082 167.242 44.3398 167.125 43.4414C166.995 42.5299 167.099 41.4753 167.438 40.2773C167.789 39.0794 168.355 37.8945 169.137 36.7227C170.595 34.5612 172.073 32.9466 173.57 31.8789C175.081 30.8112 176.402 30.2773 177.535 30.2773C178.303 30.2773 178.896 30.5312 179.312 31.0391C179.729 31.5469 179.924 32.1719 179.898 32.9141C180.732 31.5599 181.174 30.8307 181.227 30.7266C181.383 30.4531 181.552 30.2969 181.734 30.2578C181.93 30.2188 182.092 30.2904 182.223 30.4727C182.574 30.8893 182.763 31.4753 182.789 32.2305C182.815 32.9727 182.6 33.8581 182.145 34.8867C182.053 35.082 181.585 36.013 180.738 37.6797C179.892 39.3464 179.137 40.8633 178.473 42.2305C177.822 43.5846 177.242 44.8411 176.734 46C179.573 44.5807 181.962 42.582 183.902 40.0039C184.02 39.8477 184.15 39.776 184.293 39.7891C184.449 39.7891 184.547 39.8867 184.586 40.082C184.625 40.2773 184.579 40.5898 184.449 41.0195C184.319 41.4492 184.098 41.9115 183.785 42.4062ZM176.422 39.2812C178.089 36.3646 178.87 34.3073 178.766 33.1094C178.714 32.6146 178.505 32.3542 178.141 32.3281C177.503 32.2891 176.552 32.849 175.289 34.0078C174.026 35.1667 172.861 36.5924 171.793 38.2852C171.09 39.4049 170.562 40.5117 170.211 41.6055C169.859 42.6862 169.736 43.5651 169.84 44.2422C169.944 44.9193 170.257 45.2643 170.777 45.2773C172.21 45.3164 174.091 43.3177 176.422 39.2812ZM172.496 48.9297C171.78 49.3464 171.103 49.8216 170.465 50.3555C169.84 50.9023 169.306 51.4427 168.863 51.9766C168.421 52.5104 168.01 53.0638 167.633 53.6367C167.255 54.2096 166.969 54.737 166.773 55.2188C166.578 55.7135 166.409 56.1823 166.266 56.625C166.122 57.0807 166.064 57.4518 166.09 57.7383C166.116 58.0247 166.161 58.2461 166.227 58.4023C166.409 58.6628 166.826 58.4219 167.477 57.6797C168.128 56.9505 168.922 55.7852 169.859 54.1836C170.797 52.5951 171.676 50.8438 172.496 48.9297Z" fill="#3C5923"/>
</svg>
