<svg width="208" height="72" viewBox="0 0 208 72" fill="none" xmlns="http://www.w3.org/2000/svg">
<rect x="3" y="3" width="202" height="66" fill="#C3C4A2" fill-opacity="0.5" stroke="#7E9938" stroke-width="6" stroke-dasharray="12 12"/>
<path d="M56.2852 24.4062C55.9336 25.0573 55.25 26.2682 54.2344 28.0391C53.2188 29.7969 52.4049 31.2357 51.793 32.3555C52.6003 32.694 53.1211 33.2799 53.3555 34.1133C53.3815 34.2826 53.362 34.4128 53.2969 34.5039C53.2318 34.582 53.1081 34.6016 52.9258 34.5625C52.2747 34.4453 51.526 34.4062 50.6797 34.4453C49.2734 37.1146 47.9128 39.9401 46.5977 42.9219C46.5456 43.0521 46.4805 43.1432 46.4023 43.1953C46.3242 43.2474 46.2396 43.2539 46.1484 43.2148C46.0703 43.1888 45.9922 43.1172 45.9141 43C45.1979 41.9974 45.1589 40.5326 45.7969 38.6055C46.1094 37.707 46.6693 36.4245 47.4766 34.7578C46.9036 34.8229 45.9857 34.9466 44.7227 35.1289C43.4727 35.2982 42.444 35.4284 41.6367 35.5195C40.8424 35.5977 40.1654 35.6367 39.6055 35.6367C38.1471 38.5664 36.9297 41.1706 35.9531 43.4492C35.875 43.6445 35.7643 43.7617 35.6211 43.8008C35.4909 43.8398 35.3672 43.7747 35.25 43.6055C34.5469 42.6419 34.4753 41.1706 35.0352 39.1914C35.1393 38.8268 35.7122 37.4727 36.7539 35.1289C36.1549 34.8555 35.7057 34.4258 35.4062 33.8398C35.276 33.5924 35.2435 33.4297 35.3086 33.3516C35.3737 33.2604 35.5755 33.2214 35.9141 33.2344C36.0052 33.2344 36.2526 33.2539 36.6562 33.293C37.0729 33.332 37.3854 33.3516 37.5938 33.3516C38.9089 30.6302 40.3542 27.8112 41.9297 24.8945C43.5182 21.9648 44.7161 19.9336 45.5234 18.8008C45.7057 18.5664 45.8815 18.4557 46.0508 18.4688C46.2201 18.4818 46.3633 18.6055 46.4805 18.8398C47.1966 20.1549 46.8646 22.1276 45.4844 24.7578C45.0938 25.526 44.3776 26.8477 43.3359 28.7227C42.2943 30.5977 41.487 32.0755 40.9141 33.1562C41.5521 33.0781 42.776 32.8763 44.5859 32.5508C46.3958 32.2253 47.8021 32.0299 48.8047 31.9648C50.1849 29.2174 51.6237 26.5091 53.1211 23.8398C54.6185 21.1706 55.7513 19.3281 56.5195 18.3125C56.9232 17.7656 57.2552 17.7786 57.5156 18.3516C58.1927 19.7188 57.7826 21.737 56.2852 24.4062ZM66.4609 29.9922C67.151 28.7292 67.6263 27.9154 67.8867 27.5508C68.2383 27.0299 68.5573 26.9518 68.8438 27.3164C69.1823 27.7331 69.3711 28.319 69.4102 29.0742C69.4492 29.8294 69.2474 30.7279 68.8047 31.7695C68.5573 32.2643 67.9453 33.3451 66.9688 35.0117C65.9922 36.6784 65.3281 37.9023 64.9766 38.6836C64.4557 39.8034 64.2083 40.7409 64.2344 41.4961C64.2734 42.2383 64.625 42.5898 65.2891 42.5508C66.0703 42.5117 66.9492 41.9518 67.9258 40.8711C68.9023 39.7773 69.7682 38.4883 70.5234 37.0039C70.6276 36.8216 70.7383 36.7305 70.8555 36.7305C70.9857 36.7174 71.0898 36.7956 71.168 36.9648C71.2721 37.0951 71.2982 37.4141 71.2461 37.9219C71.194 38.4297 71.0508 38.9375 70.8164 39.4453C70.2695 40.6042 69.4362 41.6198 68.3164 42.4922C67.1966 43.3646 66.1094 43.7747 65.0547 43.7227C63.987 43.6706 63.1732 43.3516 62.6133 42.7656C62.0534 42.1797 61.7734 41.4049 61.7734 40.4414C60.1328 42.5247 58.4661 43.5664 56.7734 43.5664C55.862 43.5664 55.1263 43.2734 54.5664 42.6875C54.0065 42.1016 53.668 41.3529 53.5508 40.4414C53.4336 39.5169 53.5443 38.4492 53.8828 37.2383C54.2344 36.0143 54.8138 34.8164 55.6211 33.6445C57.1315 31.444 58.6289 29.8099 60.1133 28.7422C61.6107 27.6615 62.9128 27.1211 64.0195 27.1211C64.8398 27.1211 65.4583 27.3945 65.875 27.9414C66.3047 28.4883 66.5 29.1719 66.4609 29.9922ZM62.9648 36.2031C63.7721 34.7969 64.3711 33.5599 64.7617 32.4922C65.1654 31.4115 65.3477 30.6042 65.3086 30.0703C65.2826 29.5234 65.0742 29.2305 64.6836 29.1914C64.0195 29.1263 63.056 29.6862 61.793 30.8711C60.543 32.043 59.3776 33.5013 58.2969 35.2461C57.6068 36.3659 57.0794 37.4727 56.7148 38.5664C56.3633 39.6471 56.2266 40.526 56.3047 41.2031C56.3958 41.8802 56.6953 42.2253 57.2031 42.2383C58.7005 42.2773 60.6211 40.2656 62.9648 36.2031ZM83.4531 34.4062C83.1927 34.6927 82.8346 34.862 82.3789 34.9141C81.9232 36.737 81.1094 38.4818 79.9375 40.1484C78.7656 41.8151 77.4766 42.8828 76.0703 43.3516C75.5495 43.4948 75.0156 43.5664 74.4688 43.5664C73.9219 43.5794 73.3359 43.4167 72.7109 43.0781C72.0859 42.7396 71.5195 42.2448 71.0117 41.5938C70.4388 40.8385 70.1003 39.9531 69.9961 38.9375C69.9049 37.9219 70.0026 36.8932 70.2891 35.8516C70.5885 34.7969 71.0443 33.7161 71.6562 32.6094C72.4635 31.1771 73.4336 29.9727 74.5664 28.9961C75.7122 28.0195 76.8646 27.4857 78.0234 27.3945C78.6354 27.3685 79.1367 27.4596 79.5273 27.668C79.931 27.8633 80.3346 28.2279 80.7383 28.7617C80.8815 28.944 81.1094 29.2044 81.4219 29.543C81.7474 29.8815 81.9818 30.1549 82.125 30.3633C82.2812 30.5716 82.4115 30.9232 82.5156 31.418C82.6328 31.8997 82.6654 32.4792 82.6133 33.1562C82.6003 33.2604 82.5872 33.4167 82.5742 33.625C82.5612 33.8203 82.5482 33.9701 82.5352 34.0742C82.6003 34.0742 82.724 34.0612 82.9062 34.0352C83.0885 34.0091 83.2318 33.9961 83.3359 33.9961C83.4661 33.9961 83.5378 34.0417 83.5508 34.1328C83.5768 34.2109 83.5443 34.3021 83.4531 34.4062ZM80.0156 33.3125C80.3411 32.0104 80.4518 31.0273 80.3477 30.3633C80.2826 29.9596 80.1654 29.6992 79.9961 29.582C79.8268 29.4518 79.6576 29.4779 79.4883 29.6602C79.319 29.8294 79.2018 30.1029 79.1367 30.4805C79.0456 31.0013 79.0846 31.5286 79.2539 32.0625C79.4232 32.5833 79.6771 33 80.0156 33.3125ZM79.7422 34.4062C79.4948 34.3021 79.2409 34.1393 78.9805 33.918C78.5117 33.5534 78.0885 33.0521 77.7109 32.4141C77.3464 31.763 77.1576 31.0924 77.1445 30.4023C75.8555 31.4961 74.8268 32.7461 74.0586 34.1523C73.2253 35.6758 72.6784 37.2188 72.418 38.7812C72.1706 40.3307 72.3073 41.3268 72.8281 41.7695C73.4141 42.2513 74.2409 42.1211 75.3086 41.3789C76.3893 40.6237 77.3984 39.3672 78.3359 37.6094C78.9349 36.5026 79.4036 35.4349 79.7422 34.4062ZM95.543 36.9648C94.6185 39.0352 93.5638 40.6367 92.3789 41.7695C91.207 42.8893 90.0352 43.4492 88.8633 43.4492C86.8451 43.4492 85.4453 42.4987 84.6641 40.5977C84.5469 40.8841 84.3516 41.3268 84.0781 41.9258C83.8177 42.5117 83.6289 42.9479 83.5117 43.2344C83.4336 43.4297 83.3359 43.5339 83.2188 43.5469C83.1016 43.5729 82.9844 43.5078 82.8672 43.3516C82.6328 43.0521 82.4635 42.7396 82.3594 42.4141C82.2422 42.0755 82.2031 41.6068 82.2422 41.0078C82.2812 40.4089 82.4245 39.7253 82.6719 38.957C83.2057 37.2904 84.944 33.6966 87.8867 28.1758C90.8294 22.6419 92.9844 18.918 94.3516 17.0039C94.7031 16.4701 95.0352 16.4831 95.3477 17.043C96.0768 18.3711 95.7253 20.3438 94.293 22.9609C94.1107 23.2865 93.5833 24.1849 92.7109 25.6562C91.8385 27.1146 91.181 28.2409 90.7383 29.0352C91.9883 27.9154 93.1341 27.3555 94.1758 27.3555C95.2695 27.3555 96.0508 27.8177 96.5195 28.7422C96.9883 29.6667 97.125 30.8581 96.9297 32.3164C96.7474 33.7747 96.2852 35.3242 95.543 36.9648ZM93.5898 28.9961C92.7435 28.918 91.7669 29.4518 90.6602 30.5977C89.0326 32.2904 87.3008 35.0508 85.4648 38.8789C85.5039 39.5169 85.6667 40.0964 85.9531 40.6172C86.2526 41.138 86.6497 41.4505 87.1445 41.5547C88.8372 41.9323 90.6927 40.0964 92.7109 36.0469C93.1536 35.1875 93.5052 34.3737 93.7656 33.6055C94.026 32.8242 94.1953 32.1667 94.2734 31.6328C94.3516 31.099 94.3711 30.6302 94.332 30.2266C94.293 29.8229 94.2083 29.5234 94.0781 29.3281C93.9479 29.1198 93.7852 29.0091 93.5898 28.9961ZM106.422 24.6406C106.656 25.1875 106.741 25.6953 106.676 26.1641C106.611 26.6198 106.435 27.0039 106.148 27.3164C105.901 27.6159 105.536 27.7135 105.055 27.6094C104.573 27.5052 104.189 27.2057 103.902 26.7109C103.59 26.151 103.46 25.6107 103.512 25.0898C103.564 24.569 103.759 24.1263 104.098 23.7617C104.423 23.4232 104.82 23.3516 105.289 23.5469C105.771 23.7292 106.148 24.0938 106.422 24.6406ZM99.8984 43.6055C98.9089 43.6055 98.1406 43.3451 97.5938 42.8242C97.0599 42.3034 96.7799 41.6133 96.7539 40.7539C96.7148 39.8815 96.8711 38.8854 97.2227 37.7656C97.6914 36.3854 98.4596 34.7057 99.5273 32.7266C100.595 30.7344 101.533 29.1719 102.34 28.0391C102.691 27.5573 103.01 27.4792 103.297 27.8047C103.635 28.1693 103.824 28.7292 103.863 29.4844C103.902 30.2266 103.701 31.1185 103.258 32.1602C103.049 32.5898 102.516 33.5924 101.656 35.168C100.797 36.7305 100.211 37.8893 99.8984 38.6445C99.5729 39.4258 99.3646 40.1094 99.2734 40.6953C99.1953 41.2682 99.2409 41.7109 99.4102 42.0234C99.5924 42.3359 99.8919 42.4727 100.309 42.4336C101.168 42.4206 102.092 41.8737 103.082 40.793C104.072 39.6992 104.879 38.4232 105.504 36.9648C105.608 36.7956 105.719 36.7174 105.836 36.7305C105.966 36.7305 106.07 36.8086 106.148 36.9648C106.448 37.5898 106.35 38.4167 105.855 39.4453C105.27 40.6693 104.41 41.6719 103.277 42.4531C102.158 43.2214 101.031 43.6055 99.8984 43.6055ZM111.578 31.2422C112.607 30.1484 113.681 29.1979 114.801 28.3906C115.934 27.5833 116.806 27.2253 117.418 27.3164C117.874 27.3815 118.277 27.6224 118.629 28.0391C118.993 28.4557 119.221 28.9701 119.312 29.582C119.404 30.194 119.293 30.8516 118.98 31.5547C118.746 32.0625 118.147 33.1367 117.184 34.7773C116.233 36.4049 115.589 37.5964 115.25 38.3516C114.729 39.5104 114.527 40.5 114.645 41.3203C114.762 42.1276 115.178 42.5117 115.895 42.4727C116.663 42.4336 117.49 41.8997 118.375 40.8711C119.273 39.8424 120.152 38.5404 121.012 36.9648C121.103 36.7956 121.214 36.7109 121.344 36.7109C121.487 36.6979 121.604 36.7695 121.695 36.9258C122.021 37.4466 121.897 38.2865 121.324 39.4453C120.764 40.6042 119.918 41.6068 118.785 42.4531C117.665 43.2995 116.539 43.7227 115.406 43.7227C114.299 43.7227 113.447 43.4688 112.848 42.9609C112.249 42.4401 111.93 41.737 111.891 40.8516C111.852 39.9661 112.014 38.9375 112.379 37.7656C112.743 36.6719 113.336 35.4154 114.156 33.9961C114.977 32.5768 115.621 31.4635 116.09 30.6562C116.559 29.8359 116.695 29.3802 116.5 29.2891C116.357 29.224 116.038 29.3086 115.543 29.543C115.061 29.7643 114.41 30.1875 113.59 30.8125C112.783 31.4375 111.988 32.1797 111.207 33.0391C110.647 33.651 110.107 34.3411 109.586 35.1094C109.065 35.8646 108.538 36.7435 108.004 37.7461C107.483 38.7487 107.053 39.6016 106.715 40.3047C106.376 40.9948 105.927 41.9583 105.367 43.1953C105.185 43.625 104.931 43.6771 104.605 43.3516C103.733 42.4792 103.603 41.1055 104.215 39.2305C104.605 38.0065 105.445 36.2161 106.734 33.8594C108.023 31.4896 109.319 29.3477 110.621 27.4336C110.764 27.2122 110.908 27.1081 111.051 27.1211C111.207 27.1211 111.344 27.2253 111.461 27.4336C112.034 28.3841 112.073 29.6536 111.578 31.2422ZM136.266 35.1289C134.664 38.0065 133.401 40.7604 132.477 43.3906C132.32 43.7812 132.066 43.8268 131.715 43.5273C131.363 43.2279 131.135 42.7526 131.031 42.1016C130.94 41.4505 131.031 40.5911 131.305 39.5234C131.617 38.3516 132.444 36.418 133.785 33.7227C133.889 27.2383 134.28 22.3034 134.957 18.918C135.061 18.332 135.341 18.1888 135.797 18.4883C136.318 18.8138 136.695 19.3281 136.93 20.0312C137.177 20.7344 137.262 21.763 137.184 23.1172C137.145 23.7943 137.047 25.0052 136.891 26.75C136.747 28.4948 136.65 29.901 136.598 30.9688C138.382 28.9896 140.497 26.7891 142.945 24.3672C145.393 21.9453 147.451 19.9987 149.117 18.5273C149.56 18.1888 149.84 18.2539 149.957 18.7227C150.361 20.2201 149.547 21.9648 147.516 23.957C147.203 24.2695 146.266 25.1615 144.703 26.6328C143.154 28.0911 141.728 29.4779 140.426 30.793C139.124 32.0951 137.737 33.5404 136.266 35.1289ZM157.438 29.9922C158.128 28.7292 158.603 27.9154 158.863 27.5508C159.215 27.0299 159.534 26.9518 159.82 27.3164C160.159 27.7331 160.348 28.319 160.387 29.0742C160.426 29.8294 160.224 30.7279 159.781 31.7695C159.534 32.2643 158.922 33.3451 157.945 35.0117C156.969 36.6784 156.305 37.9023 155.953 38.6836C155.432 39.8034 155.185 40.7409 155.211 41.4961C155.25 42.2383 155.602 42.5898 156.266 42.5508C157.047 42.5117 157.926 41.9518 158.902 40.8711C159.879 39.7773 160.745 38.4883 161.5 37.0039C161.604 36.8216 161.715 36.7305 161.832 36.7305C161.962 36.7174 162.066 36.7956 162.145 36.9648C162.249 37.0951 162.275 37.4141 162.223 37.9219C162.171 38.4297 162.027 38.9375 161.793 39.4453C161.246 40.6042 160.413 41.6198 159.293 42.4922C158.173 43.3646 157.086 43.7747 156.031 43.7227C154.964 43.6706 154.15 43.3516 153.59 42.7656C153.03 42.1797 152.75 41.4049 152.75 40.4414C151.109 42.5247 149.443 43.5664 147.75 43.5664C146.839 43.5664 146.103 43.2734 145.543 42.6875C144.983 42.1016 144.645 41.3529 144.527 40.4414C144.41 39.5169 144.521 38.4492 144.859 37.2383C145.211 36.0143 145.79 34.8164 146.598 33.6445C148.108 31.444 149.605 29.8099 151.09 28.7422C152.587 27.6615 153.889 27.1211 154.996 27.1211C155.816 27.1211 156.435 27.3945 156.852 27.9414C157.281 28.4883 157.477 29.1719 157.438 29.9922ZM153.941 36.2031C154.749 34.7969 155.348 33.5599 155.738 32.4922C156.142 31.4115 156.324 30.6042 156.285 30.0703C156.259 29.5234 156.051 29.2305 155.66 29.1914C154.996 29.1263 154.033 29.6862 152.77 30.8711C151.52 32.043 150.354 33.5013 149.273 35.2461C148.583 36.3659 148.056 37.4727 147.691 38.5664C147.34 39.6471 147.203 40.526 147.281 41.2031C147.372 41.8802 147.672 42.2253 148.18 42.2383C149.677 42.2773 151.598 40.2656 153.941 36.2031ZM174.43 34.4062C174.169 34.6927 173.811 34.862 173.355 34.9141C172.9 36.737 172.086 38.4818 170.914 40.1484C169.742 41.8151 168.453 42.8828 167.047 43.3516C166.526 43.4948 165.992 43.5664 165.445 43.5664C164.898 43.5794 164.312 43.4167 163.688 43.0781C163.062 42.7396 162.496 42.2448 161.988 41.5938C161.415 40.8385 161.077 39.9531 160.973 38.9375C160.882 37.9219 160.979 36.8932 161.266 35.8516C161.565 34.7969 162.021 33.7161 162.633 32.6094C163.44 31.1771 164.41 29.9727 165.543 28.9961C166.689 28.0195 167.841 27.4857 169 27.3945C169.612 27.3685 170.113 27.4596 170.504 27.668C170.908 27.8633 171.311 28.2279 171.715 28.7617C171.858 28.944 172.086 29.2044 172.398 29.543C172.724 29.8815 172.958 30.1549 173.102 30.3633C173.258 30.5716 173.388 30.9232 173.492 31.418C173.609 31.8997 173.642 32.4792 173.59 33.1562C173.577 33.2604 173.564 33.4167 173.551 33.625C173.538 33.8203 173.525 33.9701 173.512 34.0742C173.577 34.0742 173.701 34.0612 173.883 34.0352C174.065 34.0091 174.208 33.9961 174.312 33.9961C174.443 33.9961 174.514 34.0417 174.527 34.1328C174.553 34.2109 174.521 34.3021 174.43 34.4062ZM170.992 33.3125C171.318 32.0104 171.428 31.0273 171.324 30.3633C171.259 29.9596 171.142 29.6992 170.973 29.582C170.803 29.4518 170.634 29.4779 170.465 29.6602C170.296 29.8294 170.178 30.1029 170.113 30.4805C170.022 31.0013 170.061 31.5286 170.23 32.0625C170.4 32.5833 170.654 33 170.992 33.3125ZM170.719 34.4062C170.471 34.3021 170.217 34.1393 169.957 33.918C169.488 33.5534 169.065 33.0521 168.688 32.4141C168.323 31.763 168.134 31.0924 168.121 30.4023C166.832 31.4961 165.803 32.7461 165.035 34.1523C164.202 35.6758 163.655 37.2188 163.395 38.7812C163.147 40.3307 163.284 41.3268 163.805 41.7695C164.391 42.2513 165.217 42.1211 166.285 41.3789C167.366 40.6237 168.375 39.3672 169.312 37.6094C169.911 36.5026 170.38 35.4349 170.719 34.4062Z" fill="#3C5923"/>
</svg>
