<svg width="208" height="72" viewBox="0 0 208 72" fill="none" xmlns="http://www.w3.org/2000/svg">
<rect x="3" y="3" width="202" height="66" fill="#447C94" fill-opacity="0.5" stroke="#447C94" stroke-width="6" stroke-dasharray="12 12"/>
<path d="M32.6719 37.6484C33.3359 37.4531 34.0391 37.4336 34.7812 37.5898C35.5365 37.7461 36.181 38.0456 36.7148 38.4883C39.5013 40.7279 41.8125 41.8477 43.6484 41.8477C44.7422 41.8477 45.569 41.6068 46.1289 41.125C46.4414 40.7214 46.5781 40.3372 46.5391 39.9727C46.513 39.6081 46.3438 39.2956 46.0312 39.0352C45.6927 38.7487 45.1328 38.3711 44.3516 37.9023C43.5703 37.4206 42.8216 36.9453 42.1055 36.4766C41.4023 35.9948 40.6927 35.4609 39.9766 34.875C39.2604 34.2891 38.681 33.6315 38.2383 32.9023C37.8086 32.1732 37.5938 31.418 37.5938 30.6367C37.5938 29.5951 37.8151 28.5404 38.2578 27.4727C38.7135 26.4049 39.293 25.4414 39.9961 24.582C40.6992 23.7227 41.4935 22.9154 42.3789 22.1602C43.2773 21.3919 44.1432 20.7474 44.9766 20.2266C45.8099 19.7057 46.6042 19.2826 47.3594 18.957C49.6641 17.9935 51.3828 18.0195 52.5156 19.0352C52.9974 19.4779 53.4141 20.0052 53.7656 20.6172C54.1302 21.2292 54.3841 21.8216 54.5273 22.3945C54.8138 23.5794 54.4232 24.9141 53.3555 26.3984C52.6784 27.3229 51.7604 28.8008 50.6016 30.832C50.3542 31.2617 50.0612 31.3073 49.7227 30.9688C48.7331 29.9792 48.5964 28.6836 49.3125 27.082C49.4948 26.6523 49.918 25.9427 50.582 24.9531C51.2591 23.9505 51.7669 23.0911 52.1055 22.375C52.457 21.6458 52.4896 21.1315 52.2031 20.832C51.9948 20.6628 51.6432 20.6107 51.1484 20.6758C50.6667 20.7279 50.0742 20.9297 49.3711 21.2812C48.681 21.6198 47.9583 22.0234 47.2031 22.4922C46.4479 22.9609 45.6927 23.5273 44.9375 24.1914C44.1823 24.8555 43.5052 25.526 42.9062 26.2031C42.3073 26.8802 41.8125 27.6029 41.4219 28.3711C41.0312 29.1393 40.8229 29.8685 40.7969 30.5586C40.7708 31.0534 40.9271 31.5482 41.2656 32.043C41.6042 32.5378 42.0729 33.013 42.6719 33.4688C43.2708 33.9245 43.8633 34.3346 44.4492 34.6992C45.0482 35.0638 45.7057 35.4609 46.4219 35.8906C47.151 36.3073 47.6914 36.6393 48.043 36.8867C48.7982 37.4336 49.1302 38.1432 49.0391 39.0156C48.9609 39.875 48.4792 40.819 47.5938 41.8477C46.9688 42.5638 46.1029 43.0911 44.9961 43.4297C43.9023 43.7812 42.6784 43.9049 41.3242 43.8008C39.9831 43.6966 38.5247 43.2018 36.9492 42.3164C35.3867 41.431 33.9349 40.181 32.5938 38.5664C32.2031 38.0977 32.2292 37.7917 32.6719 37.6484ZM67.7305 39.3672C67.1576 40.5521 66.3112 41.5612 65.1914 42.3945C64.0846 43.2279 62.9583 43.6445 61.8125 43.6445C60.1849 43.6445 59.1172 43.0977 58.6094 42.0039C58.1016 40.8971 58.1667 39.4714 58.8047 37.7266C59.1693 36.6458 59.7552 35.4089 60.5625 34.0156C61.3828 32.6094 62.0339 31.5026 62.5156 30.6953C62.9974 29.875 63.1471 29.4193 62.9648 29.3281C62.7565 29.2109 62.2357 29.3997 61.4023 29.8945C60.569 30.3893 59.5924 31.1576 58.4727 32.1992C57.3659 33.2409 56.4544 34.3477 55.7383 35.5195C54.0456 38.2799 52.75 40.8125 51.8516 43.1172C51.7734 43.2995 51.6693 43.4036 51.5391 43.4297C51.4089 43.4557 51.2852 43.4036 51.168 43.2734C50.3867 42.388 50.3346 40.9753 51.0117 39.0352C51.7018 37.069 53.6224 33.4102 56.7734 28.0586C59.9245 22.694 62.3268 18.9831 63.9805 16.9258C64.1628 16.6784 64.3385 16.5612 64.5078 16.5742C64.6901 16.5872 64.8333 16.7174 64.9375 16.9648C65.1198 17.3685 65.2109 17.8438 65.2109 18.3906C65.224 18.9245 65.1133 19.569 64.8789 20.3242C64.6445 21.0664 64.2865 21.8411 63.8047 22.6484C63.401 23.3125 61.806 25.819 59.0195 30.168C59.8789 29.3346 60.7578 28.6445 61.6562 28.0977C62.5677 27.5508 63.2839 27.3034 63.8047 27.3555C64.5469 27.4466 65.1068 27.9154 65.4844 28.7617C65.862 29.5951 65.8229 30.526 65.3672 31.5547C65.1458 31.9974 64.5534 33.0391 63.5898 34.6797C62.6393 36.3203 61.9948 37.5312 61.6562 38.3125C61.1484 39.4714 60.9531 40.4609 61.0703 41.2812C61.1875 42.0885 61.6107 42.4727 62.3398 42.4336C63.1081 42.3945 63.974 41.8216 64.9375 40.7148C65.9141 39.5951 66.7409 38.332 67.418 36.9258C67.4961 36.7565 67.6133 36.6719 67.7695 36.6719C67.9388 36.6589 68.0625 36.7305 68.1406 36.8867C68.401 37.4857 68.2643 38.3125 67.7305 39.3672ZM76.1484 24.6406C76.3828 25.1875 76.4674 25.6953 76.4023 26.1641C76.3372 26.6198 76.1615 27.0039 75.875 27.3164C75.6276 27.6159 75.263 27.7135 74.7812 27.6094C74.2995 27.5052 73.9154 27.2057 73.6289 26.7109C73.3164 26.151 73.1862 25.6107 73.2383 25.0898C73.2904 24.569 73.4857 24.1263 73.8242 23.7617C74.1497 23.4232 74.5469 23.3516 75.0156 23.5469C75.4974 23.7292 75.875 24.0938 76.1484 24.6406ZM69.625 43.6055C68.6354 43.6055 67.8672 43.3451 67.3203 42.8242C66.7865 42.3034 66.5065 41.6133 66.4805 40.7539C66.4414 39.8815 66.5977 38.8854 66.9492 37.7656C67.418 36.3854 68.1862 34.7057 69.2539 32.7266C70.3216 30.7344 71.2591 29.1719 72.0664 28.0391C72.418 27.5573 72.737 27.4792 73.0234 27.8047C73.362 28.1693 73.5508 28.7292 73.5898 29.4844C73.6289 30.2266 73.4271 31.1185 72.9844 32.1602C72.776 32.5898 72.2422 33.5924 71.3828 35.168C70.5234 36.7305 69.9375 37.8893 69.625 38.6445C69.2995 39.4258 69.0911 40.1094 69 40.6953C68.9219 41.2682 68.9674 41.7109 69.1367 42.0234C69.319 42.3359 69.6185 42.4727 70.0352 42.4336C70.8945 42.4206 71.819 41.8737 72.8086 40.793C73.7982 39.6992 74.6055 38.4232 75.2305 36.9648C75.3346 36.7956 75.4453 36.7174 75.5625 36.7305C75.6927 36.7305 75.7969 36.8086 75.875 36.9648C76.1745 37.5898 76.0768 38.4167 75.582 39.4453C74.9961 40.6693 74.1367 41.6719 73.0039 42.4531C71.8841 43.2214 70.7578 43.6055 69.625 43.6055ZM81.3047 31.2422C82.3333 30.1484 83.4076 29.1979 84.5273 28.3906C85.6602 27.5833 86.5326 27.2253 87.1445 27.3164C87.6003 27.3815 88.0039 27.6224 88.3555 28.0391C88.7201 28.4557 88.9479 28.9701 89.0391 29.582C89.1302 30.194 89.0195 30.8516 88.707 31.5547C88.4727 32.0625 87.8737 33.1367 86.9102 34.7773C85.9596 36.4049 85.3151 37.5964 84.9766 38.3516C84.4557 39.5104 84.2539 40.5 84.3711 41.3203C84.4883 42.1276 84.9049 42.5117 85.6211 42.4727C86.3893 42.4336 87.2161 41.8997 88.1016 40.8711C89 39.8424 89.8789 38.5404 90.7383 36.9648C90.8294 36.7956 90.9401 36.7109 91.0703 36.7109C91.2135 36.6979 91.3307 36.7695 91.4219 36.9258C91.7474 37.4466 91.6237 38.2865 91.0508 39.4453C90.4909 40.6042 89.6445 41.6068 88.5117 42.4531C87.3919 43.2995 86.2656 43.7227 85.1328 43.7227C84.026 43.7227 83.1732 43.4688 82.5742 42.9609C81.9753 42.4401 81.6562 41.737 81.6172 40.8516C81.5781 39.9661 81.7409 38.9375 82.1055 37.7656C82.4701 36.6719 83.0625 35.4154 83.8828 33.9961C84.7031 32.5768 85.3477 31.4635 85.8164 30.6562C86.2852 29.8359 86.4219 29.3802 86.2266 29.2891C86.0833 29.224 85.7643 29.3086 85.2695 29.543C84.7878 29.7643 84.1367 30.1875 83.3164 30.8125C82.5091 31.4375 81.7148 32.1797 80.9336 33.0391C80.3737 33.651 79.8333 34.3411 79.3125 35.1094C78.7917 35.8646 78.2643 36.7435 77.7305 37.7461C77.2096 38.7487 76.7799 39.6016 76.4414 40.3047C76.1029 40.9948 75.6536 41.9583 75.0938 43.1953C74.9115 43.625 74.6576 43.6771 74.332 43.3516C73.4596 42.4792 73.3294 41.1055 73.9414 39.2305C74.332 38.0065 75.1719 36.2161 76.4609 33.8594C77.75 31.4896 79.0456 29.3477 80.3477 27.4336C80.4909 27.2122 80.6341 27.1081 80.7773 27.1211C80.9336 27.1211 81.0703 27.2253 81.1875 27.4336C81.7604 28.3841 81.7995 29.6536 81.3047 31.2422ZM103.219 29.9922C103.909 28.7292 104.384 27.9154 104.645 27.5508C104.996 27.0299 105.315 26.9518 105.602 27.3164C105.94 27.7331 106.129 28.319 106.168 29.0742C106.207 29.8294 106.005 30.7279 105.562 31.7695C105.315 32.2643 104.703 33.3451 103.727 35.0117C102.75 36.6784 102.086 37.9023 101.734 38.6836C101.214 39.8034 100.966 40.7409 100.992 41.4961C101.031 42.2383 101.383 42.5898 102.047 42.5508C102.828 42.5117 103.707 41.9518 104.684 40.8711C105.66 39.7773 106.526 38.4883 107.281 37.0039C107.385 36.8216 107.496 36.7305 107.613 36.7305C107.743 36.7174 107.848 36.7956 107.926 36.9648C108.03 37.0951 108.056 37.4141 108.004 37.9219C107.952 38.4297 107.809 38.9375 107.574 39.4453C107.027 40.6042 106.194 41.6198 105.074 42.4922C103.954 43.3646 102.867 43.7747 101.812 43.7227C100.745 43.6706 99.931 43.3516 99.3711 42.7656C98.8112 42.1797 98.5312 41.4049 98.5312 40.4414C96.8906 42.5247 95.224 43.5664 93.5312 43.5664C92.6198 43.5664 91.8841 43.2734 91.3242 42.6875C90.7643 42.1016 90.4258 41.3529 90.3086 40.4414C90.1914 39.5169 90.3021 38.4492 90.6406 37.2383C90.9922 36.0143 91.5716 34.8164 92.3789 33.6445C93.8893 31.444 95.3867 29.8099 96.8711 28.7422C98.3685 27.6615 99.6706 27.1211 100.777 27.1211C101.598 27.1211 102.216 27.3945 102.633 27.9414C103.062 28.4883 103.258 29.1719 103.219 29.9922ZM99.7227 36.2031C100.53 34.7969 101.129 33.5599 101.52 32.4922C101.923 31.4115 102.105 30.6042 102.066 30.0703C102.04 29.5234 101.832 29.2305 101.441 29.1914C100.777 29.1263 99.8138 29.6862 98.5508 30.8711C97.3008 32.043 96.1354 33.5013 95.0547 35.2461C94.3646 36.3659 93.8372 37.4727 93.4727 38.5664C93.1211 39.6471 92.9844 40.526 93.0625 41.2031C93.1536 41.8802 93.4531 42.2253 93.9609 42.2383C95.4583 42.2773 97.3789 40.2656 99.7227 36.2031ZM112.945 31.2422C113.974 30.1484 115.048 29.1979 116.168 28.3906C117.301 27.5833 118.173 27.2253 118.785 27.3164C119.241 27.3815 119.645 27.6224 119.996 28.0391C120.361 28.4557 120.589 28.9701 120.68 29.582C120.771 30.194 120.66 30.8516 120.348 31.5547C120.113 32.0625 119.514 33.1367 118.551 34.7773C117.6 36.4049 116.956 37.5964 116.617 38.3516C116.096 39.5104 115.895 40.5 116.012 41.3203C116.129 42.1276 116.546 42.5117 117.262 42.4727C118.03 42.4336 118.857 41.8997 119.742 40.8711C120.641 39.8424 121.52 38.5404 122.379 36.9648C122.47 36.7956 122.581 36.7109 122.711 36.7109C122.854 36.6979 122.971 36.7695 123.062 36.9258C123.388 37.4466 123.264 38.2865 122.691 39.4453C122.132 40.6042 121.285 41.6068 120.152 42.4531C119.033 43.2995 117.906 43.7227 116.773 43.7227C115.667 43.7227 114.814 43.4688 114.215 42.9609C113.616 42.4401 113.297 41.737 113.258 40.8516C113.219 39.9661 113.382 38.9375 113.746 37.7656C114.111 36.6719 114.703 35.4154 115.523 33.9961C116.344 32.5768 116.988 31.4635 117.457 30.6562C117.926 29.8359 118.062 29.3802 117.867 29.2891C117.724 29.224 117.405 29.3086 116.91 29.543C116.428 29.7643 115.777 30.1875 114.957 30.8125C114.15 31.4375 113.355 32.1797 112.574 33.0391C112.014 33.651 111.474 34.3411 110.953 35.1094C110.432 35.8646 109.905 36.7435 109.371 37.7461C108.85 38.7487 108.421 39.6016 108.082 40.3047C107.743 40.9948 107.294 41.9583 106.734 43.1953C106.552 43.625 106.298 43.6771 105.973 43.3516C105.1 42.4792 104.97 41.1055 105.582 39.2305C105.973 38.0065 106.812 36.2161 108.102 33.8594C109.391 31.4896 110.686 29.3477 111.988 27.4336C112.132 27.2122 112.275 27.1081 112.418 27.1211C112.574 27.1211 112.711 27.2253 112.828 27.4336C113.401 28.3841 113.44 29.6536 112.945 31.2422ZM132.887 40.7539C135.178 40.1419 137.203 39.7708 138.961 39.6406C140.797 39.4974 141.969 40.0964 142.477 41.4375C142.633 41.8411 142.503 42.043 142.086 42.043C141.201 42.0299 139.898 42.1927 138.18 42.5312C136.474 42.8568 134.866 43.2148 133.355 43.6055C132.887 43.7357 132.522 43.7747 132.262 43.7227C132.001 43.6836 131.767 43.5078 131.559 43.1953C130.973 42.3229 130.628 41.75 130.523 41.4766C130.263 40.8255 130.302 40.0508 130.641 39.1523C131.565 36.7565 133.303 33.1888 135.855 28.4492C138.408 23.7096 140.322 20.4544 141.598 18.6836C141.78 18.4362 141.956 18.3255 142.125 18.3516C142.294 18.3646 142.438 18.5013 142.555 18.7617C143.219 20.1159 142.887 21.9974 141.559 24.4062C141.363 24.7708 140.602 26.1315 139.273 28.4883C137.958 30.832 136.786 32.987 135.758 34.9531C134.729 36.9062 133.772 38.8398 132.887 40.7539ZM154.078 24.6406C154.312 25.1875 154.397 25.6953 154.332 26.1641C154.267 26.6198 154.091 27.0039 153.805 27.3164C153.557 27.6159 153.193 27.7135 152.711 27.6094C152.229 27.5052 151.845 27.2057 151.559 26.7109C151.246 26.151 151.116 25.6107 151.168 25.0898C151.22 24.569 151.415 24.1263 151.754 23.7617C152.079 23.4232 152.477 23.3516 152.945 23.5469C153.427 23.7292 153.805 24.0938 154.078 24.6406ZM147.555 43.6055C146.565 43.6055 145.797 43.3451 145.25 42.8242C144.716 42.3034 144.436 41.6133 144.41 40.7539C144.371 39.8815 144.527 38.8854 144.879 37.7656C145.348 36.3854 146.116 34.7057 147.184 32.7266C148.251 30.7344 149.189 29.1719 149.996 28.0391C150.348 27.5573 150.667 27.4792 150.953 27.8047C151.292 28.1693 151.48 28.7292 151.52 29.4844C151.559 30.2266 151.357 31.1185 150.914 32.1602C150.706 32.5898 150.172 33.5924 149.312 35.168C148.453 36.7305 147.867 37.8893 147.555 38.6445C147.229 39.4258 147.021 40.1094 146.93 40.6953C146.852 41.2682 146.897 41.7109 147.066 42.0234C147.249 42.3359 147.548 42.4727 147.965 42.4336C148.824 42.4206 149.749 41.8737 150.738 40.793C151.728 39.6992 152.535 38.4232 153.16 36.9648C153.264 36.7956 153.375 36.7174 153.492 36.7305C153.622 36.7305 153.727 36.8086 153.805 36.9648C154.104 37.5898 154.007 38.4167 153.512 39.4453C152.926 40.6693 152.066 41.6719 150.934 42.4531C149.814 43.2214 148.688 43.6055 147.555 43.6055ZM160.66 39.7578C158.681 42.401 156.76 43.6576 154.898 43.5273C154.221 43.4753 153.674 43.2734 153.258 42.9219C152.854 42.5573 152.6 42.0951 152.496 41.5352C152.379 40.9753 152.353 40.3763 152.418 39.7383C152.483 39.0872 152.633 38.4167 152.867 37.7266C153.323 36.3594 154.039 34.7578 155.016 32.9219C156.005 31.0729 157.132 29.2695 158.395 27.5117C158.564 27.2904 158.733 27.1862 158.902 27.1992C159.085 27.1992 159.26 27.2904 159.43 27.4727C160.341 28.8398 160.087 30.6432 158.668 32.8828C157.457 34.8099 156.415 36.7695 155.543 38.7617C155.126 39.7383 154.938 40.5521 154.977 41.2031C155.029 41.8542 155.289 42.1992 155.758 42.2383C157.086 42.3424 159.059 40.2917 161.676 36.0859C162.483 34.7708 163.401 33.1628 164.43 31.2617C165.458 29.3477 166.194 28.0977 166.637 27.5117C167.001 26.9779 167.333 26.8997 167.633 27.2773C167.971 27.694 168.16 28.2865 168.199 29.0547C168.238 29.8229 168.036 30.7279 167.594 31.7695C167.346 32.2904 166.734 33.3776 165.758 35.0312C164.781 36.6719 164.124 37.8633 163.785 38.6055C163.447 39.3607 163.232 40.0378 163.141 40.6367C163.062 41.2357 163.128 41.6979 163.336 42.0234C163.544 42.349 163.883 42.4987 164.352 42.4727C165.133 42.4336 165.986 41.8997 166.91 40.8711C167.848 39.8294 168.753 38.5273 169.625 36.9648C169.729 36.7826 169.853 36.6914 169.996 36.6914C170.152 36.6784 170.27 36.7565 170.348 36.9258C170.452 37.0299 170.484 37.3555 170.445 37.9023C170.406 38.4362 170.257 38.9505 169.996 39.4453C169.397 40.6172 168.531 41.6263 167.398 42.4727C166.266 43.306 165.126 43.7227 163.98 43.7227C162.717 43.7227 161.806 43.3646 161.246 42.6484C160.699 41.9323 160.504 40.9688 160.66 39.7578Z" fill="#3C5923"/>
</svg>
