<svg width="585" height="149" viewBox="0 0 585 149" fill="none" xmlns="http://www.w3.org/2000/svg">
<path d="M13.6992 4.68848C14.334 6.10449 14.7246 7.17871 14.8711 7.91113C14.9688 8.30176 15.2373 10.377 15.6768 14.1367L16.4824 16.8467L16.4092 18.8242C16.4092 19.2637 16.6533 20.3135 17.1416 21.9736C16.8975 22.0225 16.6777 22.1445 16.4824 22.3398C15.8965 22.9258 15.6035 23.3652 15.6035 23.6582C15.6035 24.1953 15.75 24.8545 16.043 25.6357C17.2148 25.7822 17.874 26.0752 18.0205 26.5146C18.167 26.8564 18.3135 27.54 18.46 28.5654C18.46 28.8584 18.582 29.4932 18.8262 30.4697L20.5107 30.6895C20.4619 34.4492 21.1455 38.1113 22.5615 41.6758C21.292 43.2383 20.6572 44.3125 20.6572 44.8984C20.6572 45.1914 20.877 45.6309 21.3164 46.2168C21.8047 46.8027 22.0977 47.0957 22.1953 47.0957L23.0742 47.1689C23.2695 47.1689 23.4404 47.3398 23.5869 47.6816C23.9775 48.4141 24.1729 49.2197 24.1729 50.0986C24.1729 51.1729 23.6602 52.0762 22.6348 52.8086L22.9277 55.3721C23.123 55.3232 23.2451 55.2988 23.2939 55.2988C23.9287 55.2988 24.7832 55.5674 25.8574 56.1045C26.1504 57.1299 26.6143 58.1797 27.249 59.2539C27.6885 60.0352 27.9814 60.6699 28.1279 61.1582L32.083 74.8545C32.8154 77.3447 33.1816 78.6875 33.1816 78.8828C33.1816 78.9316 32.9619 79.7129 32.5225 81.2266C33.5479 81.959 34.4268 83.0332 35.1592 84.4492L36.1113 86.1338L36.6973 88.9902L37.5029 92.2129L31.6436 94.1904C34.8662 96.0459 37.0635 97.4619 38.2354 98.4385L40.1396 98.6582C40.5791 100.953 40.9209 102.711 41.165 103.932C41.4092 104.957 42.3613 107.545 44.0215 111.695C44.4609 114.332 44.8271 116.188 45.1201 117.262H46.6582L47.8301 120.045H48.123C48.5625 118.482 48.8799 117.457 49.0752 116.969C49.6611 115.26 50.0029 113.844 50.1006 112.721C50.2471 111.305 50.418 110.279 50.6133 109.645L53.9092 99.7568C54.0557 99.3174 54.2021 98.7314 54.3486 97.999C54.6416 96.3389 54.8369 95.4111 54.9346 95.2158L56.8389 90.8945L57.3516 88.624L58.3037 86.4268C59.5732 80.9092 60.2812 78.0283 60.4277 77.7842C60.7207 77.2959 61.2334 76.71 61.9658 76.0264C61.8193 75.2939 61.7461 74.8789 61.7461 74.7812C61.7461 74.2441 62.4053 70.8262 63.7236 64.5273C64.0654 62.8672 65.0908 60.3281 66.7998 56.9102C67.1904 53.8828 67.5811 51.7344 67.9717 50.4648C70.2178 44.0195 71.3408 39.3076 71.3408 36.3291C71.3408 36.085 71.1943 35.2793 70.9014 33.9121L75.9551 30.543L77.7129 28.0527C80.0078 26.4414 81.1553 25.5869 81.1553 25.4893C81.1553 25.2451 80.8867 25.0254 80.3496 24.8301C77.8594 23.9023 75.1738 23.2676 72.293 22.9258L75.1494 18.165C74.3193 17.2373 73.9043 16.4805 73.9043 15.8945C73.9043 15.1621 74.1973 14.0391 74.7832 12.5254C74.9785 11.9395 75.6133 11.207 76.6875 10.3281L78.958 8.64355C81.1553 6.73926 82.3516 5.73828 82.5469 5.64062C82.9375 5.44531 83.3037 5.34766 83.6455 5.34766H83.792H84.1582L87.0879 7.98438C82.3027 9.79102 79.9102 11.3535 79.9102 12.6719C79.9102 13.2578 80.96 14.5029 83.0596 16.4072C83.6943 16.9932 84.8662 18.5312 86.5752 21.0215L89.2852 24.2441C89.2852 24.5859 88.8213 25.2451 87.8936 26.2217C88.2354 27.833 88.8457 29.1514 89.7246 30.1768C91.2383 31.9346 92.0439 32.8867 92.1416 33.0332C92.2393 33.1797 92.5322 34.0342 93.0205 35.5967C93.2158 36.1826 93.9727 38.6484 95.291 42.9941C95.8281 46.9492 96.1699 49.1221 96.3164 49.5127C96.5117 50.0986 97.0244 50.9043 97.8545 51.9297L97.6348 52.1494C95.1445 52.5889 93.8018 53.0039 93.6064 53.3945C93.6064 53.3945 93.7529 53.6143 94.0459 54.0537C94.5342 54.835 94.7783 56.0801 94.7783 57.7891L98.8066 62.0371L100.564 65.5527C101.395 66.5781 101.81 67.2617 101.81 67.6035C101.81 67.75 101.81 67.8721 101.81 67.9697H101.224L100.784 68.4092C100.931 69.3857 101.028 70.0449 101.077 70.3867C101.272 71.6074 101.663 72.8525 102.249 74.1221H103.714C104.446 75.6357 105.398 78.3457 106.57 82.252L107.815 86.2803L108.035 89.5029C108.816 90.7236 109.329 91.7734 109.573 92.6523C110.403 95.2891 110.818 96.8027 110.818 97.1934C110.818 97.6328 110.721 98.0723 110.525 98.5117C110.037 99.7812 109.793 100.489 109.793 100.636C109.793 101.222 110.184 101.881 110.965 102.613C111.307 102.906 111.648 103.053 111.99 103.053C112.332 103.053 112.796 102.931 113.382 102.687C113.724 103.907 114.139 105.812 114.627 108.399C114.773 108.888 115.359 110.157 116.385 112.208C116.775 111.769 117.239 111.354 117.776 110.963C118.606 110.328 119.021 109.352 119.021 108.033C119.021 107.496 118.753 106.715 118.216 105.689C118.997 105.299 119.485 104.933 119.681 104.591C119.974 104.005 120.584 102.101 121.512 98.8779L121.292 97.2666L121.951 94.9229L122.61 91.7734L123.636 90.2354L124.368 87.5254L126.053 82.6914L127.591 74.9277C128.665 71.7051 129.3 69.7764 129.495 69.1416C129.788 68.2627 130.35 67.3105 131.18 66.2852C131.277 64.8691 132.156 61.085 133.816 54.9326C134.5 51.1729 135.135 48.5361 135.721 47.0225C136.209 45.8506 136.453 44.9473 136.453 44.3125C136.453 44.2637 136.16 43.0918 135.574 40.7969L137.112 36.4756C137.405 33.79 137.674 31.9346 137.918 30.9092C138.406 30.958 138.821 30.9824 139.163 30.9824C139.7 30.9824 140.311 30.7871 140.994 30.3965C140.994 29.4199 140.262 28.5898 138.797 27.9062C138.846 26.7832 139.163 25.0742 139.749 22.7793V19.0439L140.262 17.0664C140.359 15.0156 140.53 13.624 140.774 12.8916C142.142 9.52246 144.241 7.56934 147.073 7.03223C148.147 5.61621 148.978 4.81055 149.563 4.61523C149.612 4.46875 150.271 4.29785 151.541 4.10254C151.785 4.63965 151.907 5.05469 151.907 5.34766C151.907 5.78711 151.834 6.27539 151.688 6.8125C151.443 7.69141 151.297 9.18066 151.248 11.2803L150.662 13.2578C150.516 15.0645 150.271 16.4316 149.93 17.3594C149.637 18.1406 149.026 19.2148 148.099 20.582C148.245 21.3145 148.318 21.9492 148.318 22.4863C148.318 22.7305 148.123 23.4873 147.732 24.7568C147.684 24.9033 147.659 25.123 147.659 25.416C147.659 25.8066 147.684 26.2461 147.732 26.7344C147.098 27.6133 146.78 28.3213 146.78 28.8584C146.78 29.1025 146.805 29.3711 146.854 29.6641C145.877 29.8594 145.315 30.0791 145.169 30.3232C145.169 30.3232 145.291 31.2754 145.535 33.1797C145.535 33.3262 145.535 33.4238 145.535 33.4727C145.535 34.0098 145.267 35.0352 144.729 36.5488C143.997 36.6465 143.265 36.8662 142.532 37.208C141.849 37.5498 141.531 37.8428 141.58 38.0869L141.727 38.8193L141.873 40.1377C142.85 41.4561 143.338 42.2129 143.338 42.4082C143.338 42.457 142.874 43.2627 141.946 44.8252C141.751 45.1182 141.507 45.7773 141.214 46.8027C139.944 51.0508 139.261 53.541 139.163 54.2734C139.017 55.3477 138.504 57.0078 137.625 59.2539C137.234 60.4258 136.722 61.3291 136.087 61.9639C136.087 62.4521 136.087 62.8428 136.087 63.1357C136.087 63.624 136.038 64.3076 135.94 65.1865C135.843 66.3584 135.745 67.0908 135.647 67.3838C135.452 67.8721 134.915 68.4336 134.036 69.0684V70.2402L131.766 79.7617C131.082 83.3262 130.618 85.5479 130.374 86.4268C130.081 87.5986 129.471 89.21 128.543 91.2607C127.176 91.8955 126.492 92.6035 126.492 93.3848C126.492 94.0684 126.98 94.8496 127.957 95.7285C127.859 96.8516 127.493 98.1699 126.858 99.6836L127.518 103.272C127.518 103.272 127.249 103.565 126.712 104.151C126.37 104.786 125.54 107.301 124.222 111.695L123.782 116.017L122.684 120.558C122.684 120.753 122.879 121.192 123.27 121.876C122.244 122.56 121.683 123.048 121.585 123.341C121.292 123.536 120.975 124.342 120.633 125.758C121.512 126.881 121.951 127.711 121.951 128.248C121.951 128.395 121.731 129.493 121.292 131.544C121.487 133.448 121.585 134.522 121.585 134.767C121.585 135.157 121.561 136.109 121.512 137.623C121.512 138.111 121.512 138.844 121.512 139.82C120.584 140.406 119.974 140.772 119.681 140.919C117.923 141.847 116.727 142.701 116.092 143.482H115.286C114.798 142.75 114.334 141.676 113.895 140.26L111.99 135.719L111.258 133.888C110.33 132.618 109.695 131.202 109.354 129.64C109.158 128.907 109.036 128.468 108.987 128.321C108.597 126.856 108.401 125.807 108.401 125.172C108.401 124.732 108.694 124.049 109.28 123.121L109.134 122.901L108.182 122.755C107.986 122.315 107.498 121.681 106.717 120.851C106.082 119.972 105.301 116.798 104.373 111.329C104.031 106.983 103.714 104.249 103.421 103.126C102.493 102.882 101.932 102.564 101.736 102.174C101.541 101.832 101.15 99.9033 100.564 96.3877L98.5869 89.8691L97.8545 86.2803C97.7568 85.9385 96.9023 83.7412 95.291 79.6885C94.7051 78.1748 94.3877 76.832 94.3389 75.6602C94.29 74.9766 94.1191 74.1221 93.8262 73.0967C94.7051 72.2666 95.1445 71.583 95.1445 71.0459C95.1445 70.8506 94.998 70.4844 94.7051 69.9473C94.168 70.5332 93.7041 70.8262 93.3135 70.8262C92.9229 70.8262 92.5078 70.2402 92.0684 69.0684C90.5059 64.7715 89.5781 61.2314 89.2852 58.4482C90.2129 57.9111 90.6768 57.374 90.6768 56.8369C90.6768 56.7393 90.3838 56.2021 89.7979 55.2256C89.749 55.1279 89.7246 55.0059 89.7246 54.8594C89.7246 54.4199 89.8711 53.8584 90.1641 53.1748C89.2363 53.2236 87.9912 53.541 86.4287 54.127C85.8916 53.541 85.4766 52.5156 85.1836 51.0508C84.793 49.7812 83.7432 46.583 82.0342 41.4561C81.5947 40.6748 81.2773 39.8691 81.082 39.0391L80.4961 37.1348L80.1299 34.9375C80.0322 34.5469 79.5195 33.9365 78.5918 33.1064C77.7617 34.3271 77.2734 35.2793 77.127 35.9629C77.0781 36.1094 76.7119 38.1357 76.0283 42.042L75.0762 44.5322L74.8564 47.0225L74.1973 48.3408L73.7578 51.1973L72.2197 53.9805L70.9014 59.1074C69.7783 61.207 69.1924 62.6475 69.1436 63.4287C68.9971 66.0166 68.6553 68.3115 68.1182 70.3135L65.4814 79.7617L63.1377 89.7227C62.2588 93.2871 61.6729 95.3135 61.3799 95.8018C61.2334 96.0459 60.6963 96.6807 59.7686 97.7061C59.085 100.636 58.499 102.589 58.0107 103.565L59.2559 104.518C58.6211 106.031 57.6201 109.376 56.2529 114.552L55.0811 119.093L54.7881 121.217L54.3486 123.414L54.2021 125.172L53.4697 128.102L53.1035 129.64C52.5664 131.3 52.2979 132.228 52.2979 132.423C52.2979 133.155 52.542 133.961 53.0303 134.84C54.251 137.135 54.8613 138.502 54.8613 138.941C54.8613 139.234 54.1533 140.162 52.7373 141.725C51.9561 143.287 51.3945 144.215 51.0527 144.508C50.7598 144.752 49.5635 145.24 47.4639 145.973C45.999 146.656 45.1201 146.998 44.8271 146.998C44.4365 146.998 43.875 146.729 43.1426 146.192C42.6543 142.872 42.3369 139.771 42.1904 136.891C42.0928 136.305 41.6045 134.474 40.7256 131.397L39.4072 130.958C39.1143 129.786 38.2109 127.149 36.6973 123.048C36.4531 122.364 36.3311 121.729 36.3311 121.144C36.3311 120.46 36.7217 118.971 37.5029 116.676C36.7217 116.48 36.209 116.31 35.9648 116.163C35.1348 115.772 34.6221 115.577 34.4268 115.577C34.2314 115.577 33.9385 115.699 33.5479 115.943C33.1084 115.455 32.8398 114.747 32.7422 113.819C32.5957 112.354 32.376 111.158 32.083 110.23C31.8389 109.352 31.7168 108.741 31.7168 108.399C31.7168 107.96 32.0098 107.301 32.5957 106.422L30.7646 105.909C30.6182 104.981 30.2275 103.81 29.5928 102.394C29.4951 102.149 29.0801 100.392 28.3477 97.1201C28.0059 95.7041 27.4932 94.3125 26.8096 92.9453C26.4678 92.2129 26.2969 91.6025 26.2969 91.1143C26.2969 91.0166 26.4922 90.5771 26.8828 89.7959C27.127 89.21 27.2734 88.6973 27.3223 88.2578C26.8828 87.6719 26.0283 87.2568 24.7588 87.0127C24.5635 85.0596 24.2949 83.7656 23.9531 83.1309L22.2686 79.9814C22.2197 79.835 22.1953 79.3711 22.1953 78.5898L23.5137 77.7842C23.8555 76.7588 24.0264 75.8311 24.0264 75.001C24.0264 74.6104 23.7822 73.9512 23.2939 73.0234C22.8057 73.4629 22.4395 73.6826 22.1953 73.6826C21.9512 73.6826 21.585 73.4629 21.0967 73.0234H19.5586C19.2656 72.1934 18.7285 70.0693 17.9473 66.6514L16.1162 59.6201L16.2627 56.7637C16.2627 54.8594 15.2617 53.6387 13.2598 53.1016C12.9668 51.3438 12.5518 49.7324 12.0146 48.2676L8.93848 39.8447C8.88965 39.6982 8.79199 38.9658 8.64551 37.6475L9.6709 36.6953C9.03613 35.5723 8.05957 33.4238 6.74121 30.25L5.78906 30.0303C4.95898 27.7842 4.22656 25.1719 3.5918 22.1934C1.73633 17.9941 0.808594 15.6992 0.808594 15.3086C0.808594 14.7227 1.00391 14.2344 1.39453 13.8438C1.58984 13.7461 2.17578 13.5264 3.15234 13.1846C3.88477 11.915 4.34863 11.1826 4.54395 10.9873C4.69043 10.8408 5.39844 10.3037 6.66797 9.37598L7.83984 8.42383C9.54883 7.10547 10.5498 6.39746 10.8428 6.2998L12.1611 6.08008C12.5518 6.03125 13.0645 5.56738 13.6992 4.68848ZM208.377 69.5078L210.721 68.043C211.453 68.9219 211.966 69.4834 212.259 69.7275C212.356 69.8252 212.869 70.0693 213.797 70.46C214.285 70.7041 216.385 72.7549 220.096 76.6123C221.268 77.833 222.073 78.9805 222.513 80.0547C222.903 80.9824 223.318 82.1055 223.758 83.4238C224.051 84.1074 224.393 84.9863 224.783 86.0605L224.271 86.5732C223.733 86.4756 223.001 86.2559 222.073 85.9141L219.29 86.9395L216.8 86.5L214.603 87.0859C211.575 84.9375 209.988 83.8633 209.842 83.8633C209.549 83.8633 208.401 84.8643 206.399 86.8662C203.274 86.2803 201.614 85.9873 201.419 85.9873C200.638 85.9873 199.71 86.0605 198.636 86.207L198.27 85.9141C197.488 86.0117 195.364 86.0605 191.897 86.0605L189.188 86.3535L185.818 86.6465L182.376 87.2324L179.3 87.1592C176.468 88.0381 174.539 88.5508 173.514 88.6973C173.27 90.3574 173.025 91.5049 172.781 92.1396C172.488 92.8721 171.902 93.6777 171.023 94.5566C172.586 95.6309 173.416 96.3877 173.514 96.8271C174.002 99.9521 174.466 102.052 174.905 103.126L176.224 103.858L175.857 106.568L178.128 107.154C178.616 109.156 179.251 110.499 180.032 111.183C180.765 111.817 181.985 112.257 183.694 112.501C183.938 114.015 184.329 114.918 184.866 115.211C185.257 115.504 186.136 115.699 187.503 115.797L188.748 117.701C189.285 117.604 189.749 117.555 190.14 117.555C190.433 117.555 191.897 118.165 194.534 119.386C195.12 119.679 195.755 119.825 196.438 119.825C197.073 119.825 198.318 119.532 200.174 118.946L204.861 118.434L208.45 117.408C210.159 117.311 211.307 117.164 211.893 116.969C212.723 116.627 214.236 115.772 216.434 114.405C218.582 113.087 219.827 112.184 220.169 111.695C221.048 110.67 221.878 109.498 222.659 108.18C223.05 107.594 223.733 107.301 224.71 107.301C225.149 107.301 225.784 107.618 226.614 108.253C226.272 110.011 225.955 111.158 225.662 111.695C223.611 115.162 222.317 117.457 221.78 118.58C221.146 118.287 220.608 118.141 220.169 118.141C219.876 118.141 219.07 118.629 217.752 119.605C216.873 120.191 215.774 120.533 214.456 120.631C211.429 121.461 209.329 121.949 208.157 122.096C206.155 122.291 204.886 122.462 204.349 122.608C202.835 123.097 202.054 123.341 202.005 123.341L197.684 122.682L195.12 123.121L193.875 123.194C192.703 123.341 191.8 123.414 191.165 123.414C190.53 123.414 188.748 123.243 185.818 122.901C184.891 122.804 184.427 122.755 184.427 122.755L182.889 121.803C179.227 120.68 177.2 120.021 176.81 119.825C176.565 119.679 175.735 118.946 174.319 117.628C174.222 117.53 173.367 116.993 171.756 116.017C170.389 115.187 169.656 114.552 169.559 114.112L168.24 111.769C168.045 111.378 167.215 110.45 165.75 108.985C166.238 108.204 166.482 107.618 166.482 107.228C166.482 107.081 165.848 105.714 164.578 103.126C164.236 102.442 164.065 100.367 164.065 96.9004C164.065 95.8262 164.407 94.0684 165.091 91.627C165.677 89.7227 166.092 88.624 166.336 88.3311L168.826 85.4014L170.438 81.959C172.098 80.3965 174.002 78.6387 176.15 76.6855L181.497 73.3896L186.917 69.6543L188.895 69.2881L194.461 67.5303L198.05 67.2373C200.931 66.1631 202.518 65.626 202.811 65.626C205.545 65.626 207.4 66.9199 208.377 69.5078ZM199.881 80.4941L201.126 82.0322C202.103 81.8369 202.762 81.7148 203.104 81.666C204.422 81.4707 205.74 81.1289 207.059 80.6406L211.233 81.0068C211.282 81.0068 211.404 80.7627 211.6 80.2744C211.648 79.9814 211.673 79.7373 211.673 79.542C211.673 79.1025 211.38 78.5654 210.794 77.9307C210.696 77.833 210.452 77.54 210.062 77.0518C208.89 75.4893 208.157 74.7568 207.864 74.8545L205.447 73.6826C205.154 73.5361 204.69 72.9746 204.056 71.998C202.64 71.8027 200.223 71.7051 196.805 71.7051L195.34 71.6318L192.85 73.0967C192.752 73.1943 191.409 73.5361 188.821 74.1221C186.771 74.8545 184.964 75.5625 183.401 76.2461C183.06 76.4902 182.107 77.3203 180.545 78.7363C180.252 78.9805 179.69 79.4199 178.86 80.0547V80.4941L179.007 80.6406L184.354 82.7646L185.965 84.376L188.821 80.9336C189.065 80.7383 189.334 80.6406 189.627 80.6406C189.773 80.6406 190.97 80.958 193.216 81.5928C193.265 81.5928 193.313 81.5928 193.362 81.5928C193.997 81.5928 195.389 81.3486 197.537 80.8604C198.025 80.7139 198.807 80.5918 199.881 80.4941ZM240.384 71.998C240.774 70.0938 241.434 69.1416 242.361 69.1416H242.435L246.023 69.3613H246.17C248.904 68.9707 250.467 68.751 250.857 68.7021C250.857 67.8232 250.857 67.2373 250.857 66.9443C250.857 62.3545 250.76 58.5947 250.564 55.665C250.467 54.3955 250.174 53.248 249.686 52.2227L248.953 50.6846C248.758 50.2939 248.66 49.8789 248.66 49.4395C248.66 48.707 249.246 47.8281 250.418 46.8027C252.225 45.1426 254.52 44.0439 257.303 43.5068C257.938 42.1885 258.621 41.5293 259.354 41.5293C259.646 41.5293 259.891 41.6514 260.086 41.8955C260.77 42.6279 261.111 43.5801 261.111 44.752C261.111 44.8008 260.892 48.6582 260.452 56.3242C259.866 58.3262 259.5 59.498 259.354 59.8398C259.158 60.5234 258.597 61.2314 257.669 61.9639C257.669 62.9404 257.815 63.8926 258.108 64.8203H259.793L259.354 68.5557C260.574 68.6533 263.113 69.2393 266.971 70.3135C267.215 70.3623 268.045 70.3867 269.461 70.3867C270.34 70.3867 271.78 70.0938 273.782 69.5078L278.616 69.0684C281.106 68.0918 282.571 67.6035 283.011 67.6035C283.646 67.6035 284.427 67.6768 285.354 67.8232C285.257 69.1904 285.11 70.167 284.915 70.7529C284.72 71.4854 283.182 72.7305 280.301 74.4883C279.617 74.8789 279.129 75.2451 278.836 75.5869C278.104 76.4658 277.713 76.9053 277.664 76.9053C277.42 77.1006 276.834 77.1982 275.906 77.1982C275.174 77.1982 274.637 77.1006 274.295 76.9053L271.292 75.2939L269.461 74.8545L267.264 73.2432L263.528 76.0996L260.306 75.6602C260.062 75.6602 259.573 75.9043 258.841 76.3926C259.231 78.7363 259.427 80.7139 259.427 82.3252C259.427 83.1064 259.402 84.2539 259.354 85.7676C257.547 86.0605 256.644 86.793 256.644 87.9648C256.644 88.4043 256.741 88.9414 256.937 89.5762C258.011 89.6738 258.914 89.8203 259.646 90.0156L259.5 99.1709C258.768 98.9756 258.157 98.8779 257.669 98.8779C256.79 98.8779 256.351 99.2441 256.351 99.9766C256.351 100.562 256.57 101.271 257.01 102.101C257.693 101.661 258.279 101.441 258.768 101.441C259.5 101.441 259.866 101.905 259.866 102.833L259.646 105.763V105.909C259.744 107.911 259.817 109.352 259.866 110.23C259.964 111.158 260.257 112.086 260.745 113.014L261.624 114.552C261.722 114.747 261.771 115.04 261.771 115.431C261.771 115.87 261.722 116.432 261.624 117.115C263.138 117.994 264.822 118.434 266.678 118.434C268.24 118.434 269.803 118.043 271.365 117.262C272.635 116.578 273.318 116.188 273.416 116.09L277.444 112.428C279.446 110.768 280.667 109.938 281.106 109.938C281.546 109.938 282.156 110.157 282.938 110.597C282.791 111.524 282.693 112.159 282.645 112.501C282.303 115.04 281.961 116.529 281.619 116.969C281.277 117.359 279.788 117.97 277.151 118.8C275.149 119.825 272.122 121.021 268.069 122.389L265.579 123.194C263.919 124.122 262.967 124.586 262.723 124.586C262.283 124.586 261.795 124.146 261.258 123.268L259.939 122.901L259.134 124.732C258.45 124.83 257.864 124.879 257.376 124.879C256.106 124.879 254.593 124.049 252.835 122.389C252.054 121.607 251.419 120.802 250.931 119.972C250.882 119.923 250.687 119.288 250.345 118.067C249.808 116.456 249.539 115.528 249.539 115.284C249.539 114.845 249.588 114.137 249.686 113.16C249.783 112.379 249.832 110.743 249.832 108.253C249.881 106.642 250.32 105.421 251.15 104.591C250.857 103.663 250.711 102.54 250.711 101.222C250.467 98.9756 250.32 94.7031 250.271 88.4043C251.443 87.6719 252.029 86.9639 252.029 86.2803C252.029 85.8896 251.98 85.4258 251.883 84.8887L249.759 84.376L249.612 83.7168V83.6436C249.612 83.3994 249.686 82.8867 249.832 82.1055C250.125 80.8359 250.271 78.6387 250.271 75.5137C248.27 75.0742 246.805 74.8545 245.877 74.8545C245.584 74.8545 244.314 75.001 242.068 75.2939L240.53 75.4404C239.163 75.8799 238.431 76.0996 238.333 76.0996C237.649 76.0996 237.308 75.7822 237.308 75.1475C237.308 74.1709 238.333 73.1211 240.384 71.998ZM328.714 146.778C329.153 146.144 329.764 145.533 330.545 144.947C331.229 144.459 332.376 143.556 333.987 142.237C333.89 141.798 333.841 141.383 333.841 140.992C333.841 140.748 333.987 140.479 334.28 140.187C335.892 137.989 337.552 135.792 339.261 133.595C339.7 132.862 340.726 131.764 342.337 130.299L336.185 128.834L342.483 124.806L336.331 118.8L336.551 116.31L336.697 114.186C337.43 112.379 337.796 111.109 337.796 110.377V110.23V108.033C337.796 107.252 338.26 106.642 339.188 106.202L339.92 105.763L341.165 105.982C341.165 105.982 341.238 105.958 341.385 105.909C341.531 105.616 341.604 105.372 341.604 105.177C341.604 104.786 341.019 104.078 339.847 103.053V101.075L337.723 101.588L337.137 101.002C337.479 99.8301 337.649 99.0977 337.649 98.8047L337.43 95.4355L337.796 88.9902C337.796 88.7461 337.576 87.5498 337.137 85.4014C337.479 84.2295 337.674 83.1797 337.723 82.252H338.748C338.748 81.0312 339.041 79.7617 339.627 78.4434C338.016 78.1992 337.21 77.7354 337.21 77.0518C337.21 76.7588 337.308 76.2461 337.503 75.5137C337.601 74.9766 337.649 73.9512 337.649 72.4375C337.649 71.8027 337.649 71.0459 337.649 70.167C337.698 69.3857 337.723 68.7998 337.723 68.4092C337.723 67.8721 337.674 67.4082 337.576 67.0176C337.381 66.4805 337.283 66.1143 337.283 65.9189C337.283 65.7236 337.43 65.3818 337.723 64.8936H339.041L339.334 63.7217L338.162 63.4287V62.916C338.211 62.2812 338.406 61.6953 338.748 61.1582L339.7 59.8398C339.7 59.7422 339.993 59.6201 340.579 59.4736L340.799 58.5215L339.114 57.7891L339.7 55.7383C339.017 56.1777 338.406 56.3975 337.869 56.3975C337.186 56.3975 336.844 55.8848 336.844 54.8594C336.844 54.7617 336.941 53.7363 337.137 51.7832V51.71L336.771 45.8506V42.7744C336.771 42.1885 336.746 41.4805 336.697 40.6504C336.697 40.1621 336.697 39.8203 336.697 39.625C336.697 38.5508 336.917 37.1592 337.356 35.4502L336.478 34.498V28.126C336.771 28.0283 336.917 27.9551 336.917 27.9062C336.966 27.8086 337.015 27.1982 337.063 26.0752C336.38 24.8545 336.038 24 336.038 23.5117C336.038 23.2676 336.038 22.9746 336.038 22.6328C335.354 21.8027 335.013 21.2656 335.013 21.0215L334.939 18.165C334.793 16.749 334.695 15.8213 334.646 15.3818C334.598 14.7471 334.207 13.9658 333.475 13.0381L332.156 12.7451L331.424 10.5479C332.498 10.0107 333.206 9.64453 333.548 9.44922C334.72 8.86328 335.892 8.52148 337.063 8.42383L338.309 7.83789L339.7 7.17871L340.872 6.00684L341.751 5.64062C344.241 4.56641 346.121 4.0293 347.391 4.0293C348.465 4.0293 349.002 4.49316 349.002 5.4209V7.61816L349.441 9.44922C348.807 10.3281 348.489 11.085 348.489 11.7197C348.489 12.2568 348.538 12.9648 348.636 13.8438C348.685 14.7227 348.758 16.0166 348.855 17.7256H349.075V18.2383C348.392 18.4336 347.879 18.5312 347.537 18.5312C347.244 18.5312 346.829 18.4824 346.292 18.3848L345.999 18.6777C345.901 19.5566 345.34 20.2646 344.314 20.8018L345.926 23.292L347.757 22.999L348.855 24.9033H349.588L349.808 25.0498C349.124 26.2217 347.977 27.5889 346.365 29.1514L345.486 33.9854L342.044 37.7939L343.069 40.6504L343.729 50.3184C343.875 50.6602 344.705 51.1484 346.219 51.7832C347.635 52.3691 348.343 52.9795 348.343 53.6143C348.343 53.6143 348.318 53.6631 348.27 53.7607C348.221 54.0049 348.099 54.3955 347.903 54.9326L346.805 55.1523C347.928 56.1777 348.489 57.9844 348.489 60.5723C348.489 61.5488 347.732 62.4766 346.219 63.3555C346.756 64.4297 347.146 65.1377 347.391 65.4795C348.123 66.8467 348.489 67.9453 348.489 68.7754C348.489 68.8242 348.27 69.6299 347.83 71.1924L347.903 71.7783C347.903 71.7783 347.903 71.8027 347.903 71.8516C347.854 71.998 347.83 72.4131 347.83 73.0967C347.879 77.2471 347.854 80.0059 347.757 81.373C347.757 81.8125 347.757 82.3984 347.757 83.1309C347.757 84.4492 347.781 85.7432 347.83 87.0127C347.879 87.4521 347.903 87.8428 347.903 88.1846C347.903 88.4287 347.83 88.7217 347.684 89.0635L347.61 88.7705L346.072 89.8691C346.268 91.3828 346.902 92.6523 347.977 93.6777L347.757 94.4834L348.05 104.884L348.123 106.056C348.123 106.593 348.123 107.032 348.123 107.374C348.123 107.96 347.757 109.889 347.024 113.16L346.805 117.042L346.072 118.141C346.023 118.238 345.975 118.702 345.926 119.532C345.682 120.899 345.511 122.022 345.413 122.901L347.098 122.682C347.586 124.098 347.83 124.903 347.83 125.099L347.684 136.598C347.684 137.623 348.221 138.282 349.295 138.575C350.125 138.771 350.857 139.137 351.492 139.674C351.98 139.625 352.396 139.601 352.737 139.601C353.079 139.601 353.86 139.771 355.081 140.113L357.938 140.406L362.845 141.505H367.166L369.51 144.801L375.589 141.871L378.152 142.311L380.13 142.53L382.107 143.189C382.156 143.189 383.06 143.043 384.817 142.75C385.11 142.701 385.379 142.677 385.623 142.677C386.014 142.677 387.112 142.896 388.919 143.336C391.263 142.945 392.508 142.75 392.654 142.75C393.338 142.75 394.559 142.848 396.316 143.043C396.951 143.092 397.537 143.116 398.074 143.116C398.709 143.116 399.808 142.945 401.37 142.604L404.959 142.311C407.254 141.871 409.695 141.554 412.283 141.358C413.357 141.31 414.09 141.188 414.48 140.992C415.164 140.748 415.677 140.626 416.019 140.626C416.165 140.626 416.849 141.773 418.069 144.068C418.118 144.117 418.191 144.142 418.289 144.142C418.973 144.142 419.656 143.507 420.34 142.237C420.682 141.603 420.853 140.504 420.853 138.941C422.513 138.502 423.611 138.16 424.148 137.916C427.176 136.549 429.056 135.865 429.788 135.865C429.788 135.865 429.91 135.89 430.154 135.938C430.105 137.403 429.935 138.331 429.642 138.722L428.47 140.26L425.906 143.995C424.881 144.972 424.051 145.875 423.416 146.705H421.658L420.853 148.17L416.238 144.654L406.424 148.243C406.424 148.243 406.229 148.17 405.838 148.023C405.008 147.779 403.348 147.657 400.857 147.657H400.638C400.247 147.657 396.268 147.926 388.699 148.463L383.865 147.804C382.107 148.097 381.204 148.243 381.155 148.243C380.081 148.243 379.08 147.804 378.152 146.925C376.541 145.46 375.711 144.728 375.662 144.728L368.045 147.657L366.214 147.291L364.456 147.145L362.625 146.925C359.402 146.827 357.425 146.729 356.692 146.632L357.498 146.119H354.422L353.982 147.657C353.055 147.169 352.444 146.803 352.151 146.559C351.419 146.119 350.564 145.826 349.588 145.68C348.025 146.998 346.268 147.657 344.314 147.657C343.191 147.657 341.824 147.511 340.213 147.218C338.992 148.048 337.698 148.463 336.331 148.463C335.94 148.463 335.11 148.292 333.841 147.95C331.839 147.608 330.13 147.218 328.714 146.778ZM452.859 97.7061C453.445 96.7783 454.007 96.1436 454.544 95.8018C454.935 95.5576 456.399 95.167 458.938 94.6299C460.794 93.7021 462.039 93.1406 462.674 92.9453C463.113 92.8477 464.578 92.6768 467.068 92.4326L469.412 91.627L470.804 91.4805L472.122 91.334H474.979L480.765 90.6016C482.474 90.4551 483.548 90.2354 483.987 89.9424C484.866 89.3076 485.306 88.3799 485.306 87.1592C485.306 86.915 485.11 86.1338 484.72 84.8154L488.528 80.0547C488.528 80.0059 487.015 79.5176 483.987 78.5898C483.743 78.4922 483.011 78.4434 481.79 78.4434C479.69 75.7578 478.445 74.2686 478.055 73.9756C477.566 73.7803 475.711 73.4385 472.488 72.9502H470.145C469.07 72.6572 468.362 72.5107 468.021 72.5107C467.63 72.5107 467.068 72.5596 466.336 72.6572L464.944 70.8994C463.87 71.29 463.04 71.8271 462.454 72.5107C461.966 73.0479 461.209 73.5117 460.184 73.9023C457.645 74.9766 455.545 76.1729 453.885 77.4912L452.859 78.1504C452.225 79.0781 451.81 79.5908 451.614 79.6885C451.028 80.0303 450.345 80.2012 449.563 80.2012C449.271 80.2012 448.367 79.9326 446.854 79.3955C445.193 79.0049 444.168 78.6875 443.777 78.4434C443.338 78.1504 442.776 77.54 442.093 76.6123C442.923 75.9775 443.509 75.5137 443.851 75.2207C444.681 74.4883 445.242 74.0977 445.535 74.0488L448.978 73.2432L451.175 72.0713L455.862 70.6064L458.792 69.3613H461.795L465.091 68.4092L466.482 68.3359L469.046 67.8965C471.438 67.9453 472.952 67.9697 473.587 67.9697C474.271 68.0186 475.589 68.3604 477.542 68.9951L479.3 69.2148C481.204 69.5566 482.547 69.8008 483.328 69.9473C484.012 69.9961 484.891 70.5332 485.965 71.5586C485.135 72.291 484.72 72.9014 484.72 73.3896C484.72 74.0732 485.013 74.415 485.599 74.415C485.989 74.415 486.551 74.2197 487.283 73.8291C487.771 73.6338 488.455 73.4141 489.334 73.1699C489.969 73.8047 490.311 74.6348 490.359 75.6602L492.19 76.9785C492.288 77.5156 492.337 77.8574 492.337 78.0039L492.117 80.8604C492.654 83.0088 493.191 84.3516 493.729 84.8887H494.021C494.168 85.9629 494.363 87.1348 494.607 88.4043C494.754 91.2363 494.852 93.1162 494.9 94.0439C493.777 94.7275 493.216 95.3867 493.216 96.0215C493.216 96.7539 493.875 97.4131 495.193 97.999C495.242 98.6338 495.267 99.1709 495.267 99.6104C495.267 100.05 495.169 100.904 494.974 102.174C494.925 102.711 494.9 103.248 494.9 103.785C494.9 105.396 495.169 107.398 495.706 109.791C494.827 110.67 494.388 111.549 494.388 112.428C494.388 113.16 494.803 114.112 495.633 115.284C495.73 115.479 495.901 115.943 496.146 116.676C496.292 117.018 496.561 117.677 496.951 118.653C496.414 119.288 496.023 119.898 495.779 120.484C495.389 120.826 494.632 121.217 493.509 121.656L490.726 122.901L488.968 123.414C487.161 124.049 486.16 124.366 485.965 124.366C485.477 124.366 484.939 124.098 484.354 123.561L485.452 118.653C484.036 118.995 481.985 119.752 479.3 120.924L477.176 121.363C475.906 121.656 475.247 121.803 475.198 121.803L472.488 121.51L469.778 122.901L468.313 123.048L462.381 124.293L459.305 124.073C457.791 124.61 456.766 124.879 456.229 124.879C455.545 124.879 453.641 124.562 450.516 123.927L447.439 123.634L445.169 122.682C443.46 122.047 442.19 121.412 441.36 120.777C440.628 120.24 440.042 119.312 439.603 117.994L437.918 117.408C437.723 116.92 437.503 116.041 437.259 114.771L436.526 111.622V111.549C436.478 111.109 436.795 110.401 437.479 109.425C438.016 108.692 438.699 107.447 439.529 105.689C441.922 103.346 443.509 101.832 444.29 101.148C444.974 100.611 446.512 99.8545 448.904 98.8779C450.271 97.999 451.126 97.5596 451.468 97.5596C451.858 97.5596 452.322 97.6084 452.859 97.7061ZM448.318 113.233C447.928 113.868 447.562 114.527 447.22 115.211C446.683 116.09 446.438 116.676 446.487 116.969L447.22 118.36L449.271 116.603C450.931 117.774 452.078 118.409 452.713 118.507C454.52 118.995 455.496 119.264 455.643 119.312C455.936 119.508 456.351 120.021 456.888 120.851C458.011 120.997 458.768 121.095 459.158 121.144C459.549 121.192 459.866 121.217 460.11 121.217C460.647 121.217 461.307 120.875 462.088 120.191C462.771 120.68 463.357 120.924 463.846 120.924C463.943 120.924 464.48 120.606 465.457 119.972L467.508 120.411C467.508 120.411 468.826 119.947 471.463 119.02L473.367 118.141L474.979 118.434L477.762 117.262L480.984 116.017C481.814 114.747 482.327 114.015 482.522 113.819C482.962 113.38 483.816 112.989 485.086 112.647L485.525 110.304C486.404 109.815 486.941 109.132 487.137 108.253C486.453 107.765 485.965 107.252 485.672 106.715C485.721 105.885 485.745 105.274 485.745 104.884V103.712C485.696 102.394 485.647 101.271 485.599 100.343C485.55 100.05 485.525 99.7812 485.525 99.5371C485.525 98.9512 485.721 98.0967 486.111 96.9736C485.672 96.9248 485.11 96.6318 484.427 96.0947L481.277 96.168L478.421 96.0215L476.224 96.0947H474.832C474.637 96.0947 473.904 95.7041 472.635 94.9229L471.023 95.4355C469.07 95.4355 467.63 95.582 466.702 95.875C466.116 96.1191 465.628 96.2412 465.237 96.2412C465.14 96.2412 464.578 96.0947 463.553 95.8018C463.504 95.8018 463.455 95.8018 463.406 95.8018C463.162 95.8018 462.381 96.2412 461.062 97.1201C460.867 97.2666 459.598 97.7549 457.254 98.585C454.129 99.9521 451.883 101.246 450.516 102.467C450.369 102.613 449.832 103.346 448.904 104.664C448.611 105.104 447.757 105.519 446.341 105.909C446.146 106.251 446.048 106.52 446.048 106.715C446.048 106.861 446.243 107.154 446.634 107.594L447.146 111.549C447.244 111.891 447.635 112.452 448.318 113.233ZM515.335 118.946C516.849 118.067 517.85 117.384 518.338 116.896C518.533 116.7 518.973 115.846 519.656 114.332C520.438 113.111 520.828 112.403 520.828 112.208C520.828 111.817 520.706 111.158 520.462 110.23C520.267 109.449 520.169 108.644 520.169 107.813C520.169 105.079 521.146 103.639 523.099 103.492L523.538 100.782L520.682 99.4639L521.121 87.4521L520.828 85.5479L522.439 85.1084L522.806 83.4971C521.585 83.0088 520.975 82.4473 520.975 81.8125C520.975 81.373 521.023 80.6406 521.121 79.6152C521.17 79.2246 521.194 78.8584 521.194 78.5166C521.194 78.2236 520.926 76.7588 520.389 74.1221L524.124 70.3135L520.242 65.6992C520.242 65.6992 520.267 65.626 520.315 65.4795C521.438 64.6006 522 63.7461 522 62.916C522 62.1836 521.463 61.3535 520.389 60.4258C520.34 59.1562 520.291 56.2998 520.242 51.8564C520.242 51.2705 520.193 50.8066 520.096 50.4648C520.047 50.2207 520.022 50.0742 520.022 50.0254C520.022 49.6836 520.12 49.4639 520.315 49.3662L525.662 47.3887L519.876 45.5576L520.096 44.3125L520.022 42.4814L520.389 38.2334C519.949 35.499 519.729 33.9121 519.729 33.4727C519.729 32.3984 520.315 31.2266 521.487 29.957C521.438 29.3711 521.048 28.4922 520.315 27.3203C520.12 26.9785 520.022 26.6367 520.022 26.2949C520.022 25.9043 520.096 25.416 520.242 24.8301C521.707 24.3418 522.439 23.5117 522.439 22.3398C522.439 21.998 522.244 21.5098 521.854 20.875L520.022 20.582C519.827 19.7031 519.656 19.1416 519.51 18.8975C519.168 18.165 518.997 17.6523 518.997 17.3594C518.997 17.1641 520.682 16.3096 524.051 14.7959V12.4521L525.735 10.1816C525.735 9.88867 525.101 9.52246 523.831 9.08301C523.489 8.98535 523.123 8.8877 522.732 8.79004C521.609 8.49707 519.974 8.00879 517.825 7.3252V6.22656C518.606 5.64062 519.095 5.25 519.29 5.05469C520.755 3.88281 521.658 3.24805 522 3.15039L525.076 2.34473C526.98 1.36816 528.274 0.879883 528.958 0.879883C529.788 0.879883 530.545 1.19727 531.229 1.83203C531.18 3.10156 531.058 3.90723 530.862 4.24902C530.179 6.00684 529.837 7.00781 529.837 7.25195C529.837 7.34961 530.228 8.13086 531.009 9.5957C531.058 9.74219 531.082 9.83984 531.082 9.88867C531.082 9.98633 530.154 10.792 528.299 12.3057L527.566 15.6748L524.344 18.0186C527.225 21.4854 528.909 23.5361 529.397 24.1709C529.886 24.8057 530.13 25.3428 530.13 25.7822C530.13 26.0752 530.105 26.4414 530.057 26.8809C529.08 28.1016 528.592 29.2002 528.592 30.1768C528.592 30.5674 528.665 30.8604 528.812 31.0557C529.935 32.5693 530.496 33.8389 530.496 34.8643C530.496 35.3037 530.447 35.8164 530.35 36.4023C530.057 37.8672 529.91 38.7705 529.91 39.1123L530.057 42.1152C530.057 42.2617 529.959 42.6279 529.764 43.2139C529.861 44.2393 529.935 44.9229 529.983 45.2646L530.13 46.8027C530.179 47.4375 530.228 47.877 530.276 48.1211C530.374 48.6582 530.423 49.0488 530.423 49.293C530.423 49.5371 530.228 49.9521 529.837 50.5381C528.714 50.9775 527.811 51.5391 527.127 52.2227L527.347 52.4424C527.347 53.7119 527.444 54.6152 527.64 55.1523C527.786 55.6895 528.592 56.2998 530.057 56.9834C529.91 57.7158 529.837 58.1797 529.837 58.375C529.837 59.0098 529.935 60.1328 530.13 61.7441C530.325 63.0625 530.301 63.9902 530.057 64.5273C530.008 64.625 529.642 65.3086 528.958 66.5781C528.47 67.457 528.226 68.3359 528.226 69.2148C528.226 69.8496 528.738 70.167 529.764 70.167C530.984 70.7041 531.668 70.9727 531.814 70.9727C532.498 70.9727 533.328 70.2891 534.305 68.9219C534.939 69.1172 535.354 69.2148 535.55 69.2148C535.599 69.2148 537.308 68.8486 540.677 68.1162C543.167 67.1396 545.047 66.5049 546.316 66.2119C547.244 67.2373 548.099 67.75 548.88 67.75C549.417 67.75 550.027 67.6523 550.711 67.457L551.004 65.9189C551.785 66.2119 552.371 66.3584 552.762 66.3584L556.204 66.2852L558.108 67.3105C558.548 67.2129 558.816 67.1641 558.914 67.1641C562.771 67.1641 565.823 67.6768 568.069 68.7021C569.485 69.3857 570.535 70.8994 571.219 73.2432C572.098 73.2432 572.781 72.9746 573.27 72.4375C573.562 72.1445 573.904 71.998 574.295 71.998C574.686 71.998 575.247 72.4863 575.979 73.4629C577.396 74.7812 578.152 75.4893 578.25 75.5869C578.299 75.6357 578.396 76.0508 578.543 76.832C578.689 77.6133 579.739 78.834 581.692 80.4941C581.937 82.6914 582.645 85.2793 583.816 88.2578C583.963 88.6973 584.036 89.918 584.036 91.9199C584.036 93.3848 583.67 94.7275 582.938 95.9482C582.742 96.2412 582.547 96.5342 582.352 96.8271C582.107 97.2178 581.741 97.8037 581.253 98.585H579.935C579.3 99.3174 578.982 99.8057 578.982 100.05L579.056 105.177C579.056 105.274 578.714 105.665 578.03 106.349C577.737 106.69 576.712 108.009 574.954 110.304C574.417 111.036 573.343 111.866 571.731 112.794L569.534 114.771L566.824 117.115C565.262 118.629 564.188 119.532 563.602 119.825C559.891 121.388 556.961 122.438 554.812 122.975L552.981 123.561L551.59 123.707C549.002 124.293 547.415 124.586 546.829 124.586C545.511 124.586 544.51 124.22 543.826 123.487L541.849 121.217L538.992 123.561C533.768 122.145 531.106 121.437 531.009 121.437C530.911 121.388 529.91 121.314 528.006 121.217C527.029 121.168 525.564 120.802 523.611 120.118C523.318 120.021 523.123 119.972 523.025 119.972C522.342 119.972 520.315 120.729 516.946 122.242C516.556 122.438 516.336 122.535 516.287 122.535C515.75 122.535 515.384 122.096 515.188 121.217C515.14 121.07 515.115 120.948 515.115 120.851L515.335 118.946ZM536.722 118.214C537.405 118.116 538.016 118.067 538.553 118.067C538.943 118.067 539.676 118.336 540.75 118.873C541.775 119.41 542.557 119.654 543.094 119.605L546.829 119.312L549.612 119.386L551.517 119.459C551.517 119.459 553.47 118.897 557.376 117.774C559.72 117.042 561.673 116.09 563.235 114.918C563.626 114.674 564.7 113.502 566.458 111.402L568.362 109.425C568.411 109.376 568.68 108.717 569.168 107.447C569.314 106.91 569.778 106.08 570.56 104.957C571.634 103.346 572.269 101.759 572.464 100.196C572.61 98.7803 572.708 97.9502 572.757 97.7061C573.001 97.0713 573.123 96.7295 573.123 96.6807L572.903 94.7764L578.689 92.1396C578.689 92.1396 578.348 91.0654 577.664 88.917C577.566 88.624 577.469 87.5498 577.371 85.6943C577.371 84.9619 577.2 84.4492 576.858 84.1562C576.663 84.0098 575.784 83.6191 574.222 82.9844C573.147 81.2754 572.439 80.25 572.098 79.9082C571.805 79.7129 570.901 79.2002 569.388 78.3701L567.85 77.4912L565.726 76.3926L563.821 75.3672L560.086 73.9756L558.255 73.0967C556.741 73.0967 555.423 72.999 554.3 72.8037C553.616 72.7061 552.029 72.584 549.539 72.4375C548.123 72.3398 546.048 72.0469 543.313 71.5586C543.216 71.5586 543.167 71.5586 543.167 71.5586C543.069 71.5586 542.923 71.583 542.728 71.6318C542.679 71.6318 542.654 71.6318 542.654 71.6318C542.605 71.6318 542.508 71.583 542.361 71.4854L540.604 71.8516C539.041 71.998 538.138 72.0957 537.894 72.1445C537.747 72.1934 536.819 72.7793 535.11 73.9023C533.938 74.293 532.303 75.0498 530.203 76.1729C529.812 76.3682 529.153 76.6611 528.226 77.0518C526.126 78.0283 525.076 79.249 525.076 80.7139C525.076 81.3975 525.247 81.959 525.589 82.3984L527.64 85.1084L528.445 88.7705C529.568 90.6748 530.13 91.9443 530.13 92.5791C530.13 93.0674 529.617 94.2881 528.592 96.2412C528.494 96.3877 528.445 96.5098 528.445 96.6074C528.445 96.6562 528.592 97.3398 528.885 98.6582L529.178 100.343L530.203 102.979C529.91 104.933 529.764 106.104 529.764 106.495L530.203 110.67V114.186V115.138C530.154 115.577 529.471 116.456 528.152 117.774C528.055 117.872 528.006 118.067 528.006 118.36C528.006 118.849 528.567 119.508 529.69 120.338L534.158 116.749C535.086 117.872 535.77 118.434 536.209 118.434C536.258 118.434 536.429 118.36 536.722 118.214Z" fill="#3C5923"/>
</svg>
